<?xml version="1.0" encoding="UTF-8"?>
<svg version="1.1" xmlns="http://www.w3.org/2000/svg" width="548" height="455">
<path d="M0 0 C1.22976563 0.05285156 2.45953125 0.10570312 3.7265625 0.16015625 C6.32034691 0.28182079 8.91409753 0.40420779 11.5078125 0.52734375 C12.74273437 0.58019531 13.97765625 0.63304687 15.25 0.6875 C16.94334473 0.76774414 16.94334473 0.76774414 18.67089844 0.84960938 C21.86804584 0.84379109 24.7562043 0.44280386 27.890625 -0.15625 C31.44089856 -0.42789015 34.83781762 -0.39920555 38.328125 0.40625 C40.87811755 2.75224314 40.64494965 5.52713281 40.890625 8.84375 C41.633125 8.92625 42.375625 9.00875 43.140625 9.09375 C46.70482964 10.06580581 47.73504294 10.80778285 49.890625 13.84375 C50.55039189 18.30323165 50.34847715 22.81342618 50.29101562 27.31054688 C50.32190549 29.90347825 50.3687476 32.30250996 50.890625 34.84375 C53.27072256 36.71181252 53.27072256 36.71181252 55.890625 37.84375 C56.6484375 40.4375 56.6484375 40.4375 57.015625 43.34375 C57.56296806 46.31151201 57.56296806 46.31151201 58.890625 48.84375 C61.71730473 50.27896819 64.17037643 50.8105943 67.296875 51.28125 C70.18262828 51.90707601 71.20886118 52.44203377 72.890625 54.84375 C73.078125 58.53125 73.078125 58.53125 72.890625 61.84375 C74.025 61.988125 75.159375 62.1325 76.328125 62.28125 C79.890625 62.84375 79.890625 62.84375 80.890625 63.84375 C80.90737677 65.55638337 80.85333815 67.26980511 80.76953125 68.98046875 C80.72119141 70.03298828 80.67285156 71.08550781 80.62304688 72.16992188 C80.56697266 73.27916016 80.51089844 74.38839844 80.453125 75.53125 C80.34915567 77.70177028 80.24625872 79.87234224 80.14453125 82.04296875 C80.09627197 83.01065186 80.0480127 83.97833496 79.99829102 84.9753418 C79.88722865 87.93423468 79.87281099 90.88306192 79.890625 93.84375 C80.6019458 93.83327637 81.3132666 93.82280273 82.04614258 93.81201172 C85.26510086 93.77046999 88.48400276 93.74442961 91.703125 93.71875 C92.82267578 93.70199219 93.94222656 93.68523437 95.09570312 93.66796875 C96.16884766 93.66152344 97.24199219 93.65507813 98.34765625 93.6484375 C99.33741455 93.63796387 100.32717285 93.62749023 101.34692383 93.61669922 C103.890625 93.84375 103.890625 93.84375 106.890625 95.84375 C107.40234375 98.4453125 107.40234375 98.4453125 107.578125 101.46875 C107.67673828 102.97308594 107.67673828 102.97308594 107.77734375 104.5078125 C107.81472656 105.27867187 107.85210937 106.04953125 107.890625 106.84375 C109.01339844 106.82054687 110.13617188 106.79734375 111.29296875 106.7734375 C119.12048924 106.66162826 126.30589162 106.63728211 133.890625 108.84375 C134.220625 113.13375 134.550625 117.42375 134.890625 121.84375 C136.623125 121.8025 138.355625 121.76125 140.140625 121.71875 C143.97505255 121.62745411 146.64084232 121.69696873 149.890625 123.84375 C151.75095762 127.36859076 152.34307541 130.91964463 152.890625 134.84375 C153.50550781 135.02550781 154.12039063 135.20726562 154.75390625 135.39453125 C155.56214844 135.64589844 156.37039063 135.89726562 157.203125 136.15625 C158.00363281 136.39988281 158.80414063 136.64351562 159.62890625 136.89453125 C162.08363235 137.92475308 163.33315864 138.68725812 164.890625 140.84375 C165.18359375 143.10546875 165.18359375 143.10546875 165.078125 145.53125 C165.05105469 146.33949219 165.02398437 147.14773437 164.99609375 147.98046875 C164.94388672 148.90279297 164.94388672 148.90279297 164.890625 149.84375 C165.48230469 149.88113281 166.07398438 149.91851562 166.68359375 149.95703125 C175.26456268 150.67094547 175.26456268 150.67094547 178.890625 153.84375 C179.014375 154.66875 179.138125 155.49375 179.265625 156.34375 C179.471875 157.16875 179.678125 157.99375 179.890625 158.84375 C182.19314983 159.91277939 184.5278276 160.91550817 186.890625 161.84375 C188.22733947 165.85389341 188.07694617 169.73377064 188.11181641 173.91748047 C188.1233223 174.84622986 188.13482819 175.77497925 188.14668274 176.73187256 C188.18342378 179.80819376 188.21304105 182.88453563 188.2421875 185.9609375 C188.26530231 188.09701834 188.28869264 190.23309621 188.31234741 192.36917114 C188.36082624 196.84976614 188.40575074 201.3303795 188.44824219 205.81103516 C188.50301212 211.55344404 188.566859 217.29570959 188.63341713 223.03799248 C188.68351161 227.45086106 188.72862834 231.86376989 188.77225876 236.2767067 C188.79381976 238.39381694 188.81696637 240.51091164 188.8417244 242.62798691 C188.87563464 245.58904426 188.90280809 248.55008965 188.92822266 251.51123047 C188.93959763 252.38621185 188.9509726 253.26119324 188.96269226 254.16268921 C189.0049066 260.27711947 189.0049066 260.27711947 188.39239502 263.31407166 C187.58167598 267.40131942 187.7873172 271.49602532 187.82470703 275.65112305 C187.82937988 276.63375122 187.83405273 277.61637939 187.83886719 278.62878418 C187.84935308 280.75788675 187.86201024 282.8869795 187.87659073 285.01605797 C187.89860913 288.38170412 187.91268961 291.74729405 187.92428589 295.11299133 C187.95789593 304.68063038 187.99972457 314.24817537 188.06201172 323.81567383 C188.09955822 329.66988197 188.12264917 335.52399499 188.13631821 341.37830544 C188.14439506 343.61234002 188.15803538 345.84636144 188.17724991 348.08032799 C188.20358638 351.19519337 188.21160884 354.30959809 188.21533203 357.42456055 C188.2276889 358.35393936 188.24004578 359.28331818 188.2527771 360.24085999 C188.25009827 361.08621307 188.24741943 361.93156616 188.24465942 362.80253601 C188.24872362 363.53900706 188.25278782 364.27547812 188.25697517 365.03426647 C187.890625 366.84375 187.890625 366.84375 184.890625 368.84375 C182.203125 368.96875 182.203125 368.96875 179.890625 368.84375 C179.890625 371.81375 179.890625 374.78375 179.890625 377.84375 C176.67611231 379.45100635 173.45449964 378.90123185 169.890625 378.84375 C169.94283203 380.10832031 169.94283203 380.10832031 169.99609375 381.3984375 C170.02316406 382.49414062 170.05023438 383.58984375 170.078125 384.71875 C170.11292969 385.80929687 170.14773438 386.89984375 170.18359375 388.0234375 C170.08691406 388.95414062 169.99023438 389.88484375 169.890625 390.84375 C166.48512866 393.11408089 165.31467435 393.0934982 161.31924629 393.09263897 C159.56973063 393.09953716 159.56973063 393.09953716 157.78487122 393.10657471 C155.85372981 393.09885937 155.85372981 393.09885937 153.88357544 393.09098816 C152.50686517 393.0925756 151.13015568 393.09503856 149.75344837 393.09830457 C145.96171609 393.10473512 142.17009012 393.09863676 138.3783648 393.09054029 C134.29239062 393.08397599 130.20642857 393.08890903 126.12045288 393.09242249 C118.11205182 393.09747093 110.10369198 393.09181455 102.09529604 393.08257218 C92.7738245 393.0722003 83.45236193 393.07225806 74.13088571 393.07274476 C57.5001716 393.07324573 40.8694767 393.06407508 24.23876953 393.04956055 C8.09358368 393.035477 -8.05158526 393.02838956 -24.19677734 393.02905273 C-25.68783935 393.02911267 -25.68783935 393.02911267 -27.20902382 393.02917381 C-28.69748149 393.02923435 -28.69748149 393.02923435 -30.21600902 393.0292961 C-48.58261419 393.02998581 -66.94921216 393.02409603 -85.31581499 393.01514288 C-91.81620432 393.01212482 -98.31659232 393.01106311 -104.81698227 393.01061058 C-112.7383666 393.00992871 -120.65973879 393.00546776 -128.58111797 392.99627777 C-132.62419448 392.99165777 -136.66725546 392.98861502 -140.71033478 392.98987198 C-144.41010274 392.99096643 -148.10983635 392.98745214 -151.80959715 392.98022345 C-153.78510786 392.97754842 -155.76062332 392.97977096 -157.73613441 392.9821555 C-158.90769368 392.97893106 -160.07925295 392.97570661 -161.28631401 392.97238445 C-162.29740191 392.97168003 -163.30848982 392.9709756 -164.35021675 392.97024983 C-167.109375 392.84375 -167.109375 392.84375 -172.109375 391.84375 C-172.439375 387.55375 -172.769375 383.26375 -173.109375 378.84375 C-175.35546875 378.94140625 -177.6015625 379.0390625 -179.84765625 379.13671875 C-182.109375 378.84375 -182.109375 378.84375 -183.890625 377.59375 C-186.04034305 374.50697536 -185.28947591 371.50580194 -185.109375 367.84375 C-186.285 367.9365625 -186.285 367.9365625 -187.484375 368.03125 C-188.350625 367.969375 -189.216875 367.9075 -190.109375 367.84375 C-192.54336818 364.19276023 -192.39168461 361.48998817 -192.36816406 357.27050781 C-192.3716687 356.50102814 -192.37517334 355.73154846 -192.37878418 354.93875122 C-192.38759591 352.3913677 -192.38175205 349.84426143 -192.375 347.296875 C-192.37634736 345.5243118 -192.37828849 343.75174895 -192.38079834 341.97918701 C-192.3837493 338.2601775 -192.3794549 334.54126398 -192.37011719 330.82226562 C-192.35875589 326.0665479 -192.36526115 321.31105674 -192.37726212 316.55534744 C-192.38450987 312.89209302 -192.38217884 309.22889175 -192.37700653 305.56563568 C-192.37567636 303.81303633 -192.37729549 302.06043208 -192.38196564 300.30783844 C-192.38707513 297.84995372 -192.37925747 295.39242845 -192.36816406 292.93457031 C-192.37221252 292.2163913 -192.37626099 291.49821228 -192.38043213 290.75827026 C-192.29121217 280.02558717 -192.29121217 280.02558717 -189.109375 276.84375 C-188.87019666 274.91286914 -188.87019666 274.91286914 -188.859375 272.65625 C-188.83359375 271.89957031 -188.8078125 271.14289063 -188.78125 270.36328125 C-188.96338021 267.71383657 -188.96338021 267.71383657 -190.60661316 265.23429871 C-192.48723859 260.99120978 -192.52529924 257.65515695 -192.48168945 253.07543945 C-192.48534012 252.21441116 -192.48899078 251.35338287 -192.49275208 250.46626282 C-192.50083395 247.62964936 -192.48726142 244.79361168 -192.47265625 241.95703125 C-192.47213712 239.97413636 -192.47265686 237.99124094 -192.47416687 236.00834656 C-192.47407724 231.85322377 -192.46367016 227.69829533 -192.44555664 223.54321289 C-192.4229441 218.24204192 -192.42231304 212.9411566 -192.42907429 207.63995075 C-192.43243298 203.54332485 -192.42574734 199.44676288 -192.41594505 195.35014915 C-192.41211988 193.39711022 -192.41093359 191.44406414 -192.4125309 189.49102211 C-192.4152033 169.93775747 -192.4152033 169.93775747 -190.109375 160.84375 C-189.119375 160.51375 -188.129375 160.18375 -187.109375 159.84375 C-186.8 158.585625 -186.490625 157.3275 -186.171875 156.03125 C-185.4453125 153.8125 -185.4453125 153.8125 -184.109375 151.84375 C-181.4609375 150.8125 -181.4609375 150.8125 -178.296875 150.03125 C-174.35199493 148.99262216 -172.59354281 148.47992398 -170.09375 145.1953125 C-169.094146 143.23144403 -168.15518259 141.23497968 -167.29296875 139.20703125 C-166.109375 136.84375 -166.109375 136.84375 -163.109375 135.84375 C-160.77637675 135.80420766 -158.44229311 135.79973268 -156.109375 135.84375 C-156.06039062 135.00070313 -156.01140625 134.15765625 -155.9609375 133.2890625 C-155.88617188 132.19335938 -155.81140625 131.09765625 -155.734375 129.96875 C-155.66476563 128.87820312 -155.59515625 127.78765625 -155.5234375 126.6640625 C-155.109375 123.84375 -155.109375 123.84375 -153.109375 121.84375 C-150.5078125 121.4296875 -150.5078125 121.4296875 -147.484375 121.21875 C-145.98003906 121.10660156 -145.98003906 121.10660156 -144.4453125 120.9921875 C-143.67445313 120.94320312 -142.90359375 120.89421875 -142.109375 120.84375 C-142.15578125 120.16828125 -142.2021875 119.4928125 -142.25 118.796875 C-142.30414063 117.45882812 -142.30414063 117.45882812 -142.359375 116.09375 C-142.40578125 115.21203125 -142.4521875 114.3303125 -142.5 113.421875 C-141.97886647 109.98239367 -140.79233281 109.00370084 -138.109375 106.84375 C-135.54394531 106.38964844 -135.54394531 106.38964844 -132.6875 106.453125 C-131.15029297 106.47246094 -131.15029297 106.47246094 -129.58203125 106.4921875 C-128.51855469 106.52570313 -127.45507812 106.55921875 -126.359375 106.59375 C-125.28042969 106.61179687 -124.20148438 106.62984375 -123.08984375 106.6484375 C-120.42878712 106.69553585 -117.76953246 106.761294 -115.109375 106.84375 C-115.13439087 105.91054932 -115.13439087 105.91054932 -115.15991211 104.95849609 C-115.1728833 104.14461426 -115.18585449 103.33073242 -115.19921875 102.4921875 C-115.215896 101.68442871 -115.23257324 100.87666992 -115.24975586 100.04443359 C-115.109375 97.84375 -115.109375 97.84375 -113.671875 95.46875 C-110.5840609 93.51062398 -107.53193302 92.48145521 -104.03515625 91.45703125 C-102.12297226 91.01041387 -102.12297226 91.01041387 -101.109375 89.84375 C-100.98783127 87.9413837 -100.92968557 86.03489522 -100.8984375 84.12890625 C-100.87007813 82.96810547 -100.84171875 81.80730469 -100.8125 80.61132812 C-100.76050221 78.14533311 -100.71620555 75.67916344 -100.6796875 73.21289062 C-100.64875 72.05080078 -100.6178125 70.88871094 -100.5859375 69.69140625 C-100.56611816 68.61898682 -100.54629883 67.54656738 -100.52587891 66.44165039 C-100.38843262 65.58434326 -100.25098633 64.72703613 -100.109375 63.84375 C-96.6741702 61.55361347 -95.124044 61.66532027 -91.109375 61.84375 C-91.13257813 61.21726563 -91.15578125 60.59078125 -91.1796875 59.9453125 C-91.19773437 59.12804687 -91.21578125 58.31078125 -91.234375 57.46875 C-91.25757813 56.65664062 -91.28078125 55.84453125 -91.3046875 55.0078125 C-91.109375 52.84375 -91.109375 52.84375 -89.109375 50.84375 C-86.5078125 50.4296875 -86.5078125 50.4296875 -83.484375 50.21875 C-82.48148437 50.14398438 -81.47859375 50.06921875 -80.4453125 49.9921875 C-79.67445313 49.94320312 -78.90359375 49.89421875 -78.109375 49.84375 C-78.08359375 49.24046875 -78.0578125 48.6371875 -78.03125 48.015625 C-77.7636018 44.24421853 -77.50247846 41.5041638 -75.546875 38.21875 C-71.82504265 36.11925483 -69.24229739 37.01716552 -65.109375 37.84375 C-65.06039062 37.02390625 -65.01140625 36.2040625 -64.9609375 35.359375 C-64.88617188 34.28171875 -64.81140625 33.2040625 -64.734375 32.09375 C-64.66476563 31.02640625 -64.59515625 29.9590625 -64.5234375 28.859375 C-64.109375 25.84375 -64.109375 25.84375 -62.109375 21.84375 C-44.289375 22.17375 -26.469375 22.50375 -8.109375 22.84375 C-7.779375 21.19375 -7.449375 19.54375 -7.109375 17.84375 C-6.449375 17.84375 -5.789375 17.84375 -5.109375 17.84375 C-5.36498823 15.5006287 -5.70208272 13.16531597 -6.109375 10.84375 C-7.099375 10.34875 -7.099375 10.34875 -8.109375 9.84375 C-8.109375 6.87375 -8.109375 3.90375 -8.109375 0.84375 C-5.30537428 -0.55825036 -3.1276657 -0.1488084 0 0 Z " fill="#9D7050" transform="translate(264.109375,34.15625)"/>
<path d="M0 0 C1.22976563 0.05285156 2.45953125 0.10570312 3.7265625 0.16015625 C6.32034691 0.28182079 8.91409753 0.40420779 11.5078125 0.52734375 C12.74273437 0.58019531 13.97765625 0.63304687 15.25 0.6875 C16.94334473 0.76774414 16.94334473 0.76774414 18.67089844 0.84960938 C21.86804584 0.84379109 24.7562043 0.44280386 27.890625 -0.15625 C31.44089856 -0.42789015 34.83781762 -0.39920555 38.328125 0.40625 C40.87811755 2.75224314 40.64494965 5.52713281 40.890625 8.84375 C41.633125 8.92625 42.375625 9.00875 43.140625 9.09375 C46.70482964 10.06580581 47.73504294 10.80778285 49.890625 13.84375 C50.55039189 18.30323165 50.34847715 22.81342618 50.29101562 27.31054688 C50.32190549 29.90347825 50.3687476 32.30250996 50.890625 34.84375 C53.27072256 36.71181252 53.27072256 36.71181252 55.890625 37.84375 C56.6484375 40.4375 56.6484375 40.4375 57.015625 43.34375 C57.56296806 46.31151201 57.56296806 46.31151201 58.890625 48.84375 C61.71730473 50.27896819 64.17037643 50.8105943 67.296875 51.28125 C70.18262828 51.90707601 71.20886118 52.44203377 72.890625 54.84375 C73.078125 58.53125 73.078125 58.53125 72.890625 61.84375 C74.025 61.988125 75.159375 62.1325 76.328125 62.28125 C79.890625 62.84375 79.890625 62.84375 80.890625 63.84375 C80.90737677 65.55638337 80.85333815 67.26980511 80.76953125 68.98046875 C80.72119141 70.03298828 80.67285156 71.08550781 80.62304688 72.16992188 C80.56697266 73.27916016 80.51089844 74.38839844 80.453125 75.53125 C80.34915567 77.70177028 80.24625872 79.87234224 80.14453125 82.04296875 C80.09627197 83.01065186 80.0480127 83.97833496 79.99829102 84.9753418 C79.88722865 87.93423468 79.87281099 90.88306192 79.890625 93.84375 C80.6019458 93.83327637 81.3132666 93.82280273 82.04614258 93.81201172 C85.26510086 93.77046999 88.48400276 93.74442961 91.703125 93.71875 C92.82267578 93.70199219 93.94222656 93.68523437 95.09570312 93.66796875 C96.16884766 93.66152344 97.24199219 93.65507813 98.34765625 93.6484375 C99.33741455 93.63796387 100.32717285 93.62749023 101.34692383 93.61669922 C103.890625 93.84375 103.890625 93.84375 106.890625 95.84375 C107.40234375 98.4453125 107.40234375 98.4453125 107.578125 101.46875 C107.67673828 102.97308594 107.67673828 102.97308594 107.77734375 104.5078125 C107.81472656 105.27867187 107.85210937 106.04953125 107.890625 106.84375 C109.01339844 106.82054687 110.13617188 106.79734375 111.29296875 106.7734375 C119.12048924 106.66162826 126.30589162 106.63728211 133.890625 108.84375 C134.220625 113.13375 134.550625 117.42375 134.890625 121.84375 C136.623125 121.8025 138.355625 121.76125 140.140625 121.71875 C143.97505255 121.62745411 146.64084232 121.69696873 149.890625 123.84375 C151.75095762 127.36859076 152.34307541 130.91964463 152.890625 134.84375 C153.50550781 135.02550781 154.12039063 135.20726562 154.75390625 135.39453125 C155.56214844 135.64589844 156.37039063 135.89726562 157.203125 136.15625 C158.00363281 136.39988281 158.80414063 136.64351562 159.62890625 136.89453125 C162.08363235 137.92475308 163.33315864 138.68725812 164.890625 140.84375 C165.18359375 143.10546875 165.18359375 143.10546875 165.078125 145.53125 C165.05105469 146.33949219 165.02398437 147.14773437 164.99609375 147.98046875 C164.94388672 148.90279297 164.94388672 148.90279297 164.890625 149.84375 C165.48230469 149.88113281 166.07398438 149.91851562 166.68359375 149.95703125 C175.26456268 150.67094547 175.26456268 150.67094547 178.890625 153.84375 C179.014375 154.66875 179.138125 155.49375 179.265625 156.34375 C179.471875 157.16875 179.678125 157.99375 179.890625 158.84375 C182.19314983 159.91277939 184.5278276 160.91550817 186.890625 161.84375 C188.22733947 165.85389341 188.07694617 169.73377064 188.11181641 173.91748047 C188.1233223 174.84622986 188.13482819 175.77497925 188.14668274 176.73187256 C188.18342378 179.80819376 188.21304105 182.88453563 188.2421875 185.9609375 C188.26530231 188.09701834 188.28869264 190.23309621 188.31234741 192.36917114 C188.36082624 196.84976614 188.40575074 201.3303795 188.44824219 205.81103516 C188.50301212 211.55344404 188.566859 217.29570959 188.63341713 223.03799248 C188.68351161 227.45086106 188.72862834 231.86376989 188.77225876 236.2767067 C188.79381976 238.39381694 188.81696637 240.51091164 188.8417244 242.62798691 C188.87563464 245.58904426 188.90280809 248.55008965 188.92822266 251.51123047 C188.93959763 252.38621185 188.9509726 253.26119324 188.96269226 254.16268921 C189.0049066 260.27711947 189.0049066 260.27711947 188.39239502 263.31407166 C187.58167598 267.40131942 187.7873172 271.49602532 187.82470703 275.65112305 C187.82937988 276.63375122 187.83405273 277.61637939 187.83886719 278.62878418 C187.84935308 280.75788675 187.86201024 282.8869795 187.87659073 285.01605797 C187.89860913 288.38170412 187.91268961 291.74729405 187.92428589 295.11299133 C187.95789593 304.68063038 187.99972457 314.24817537 188.06201172 323.81567383 C188.09955822 329.66988197 188.12264917 335.52399499 188.13631821 341.37830544 C188.14439506 343.61234002 188.15803538 345.84636144 188.17724991 348.08032799 C188.20358638 351.19519337 188.21160884 354.30959809 188.21533203 357.42456055 C188.2276889 358.35393936 188.24004578 359.28331818 188.2527771 360.24085999 C188.25009827 361.08621307 188.24741943 361.93156616 188.24465942 362.80253601 C188.24872362 363.53900706 188.25278782 364.27547812 188.25697517 365.03426647 C187.890625 366.84375 187.890625 366.84375 184.890625 368.84375 C182.203125 368.96875 182.203125 368.96875 179.890625 368.84375 C179.890625 371.81375 179.890625 374.78375 179.890625 377.84375 C176.67611231 379.45100635 173.45449964 378.90123185 169.890625 378.84375 C169.94283203 380.10832031 169.94283203 380.10832031 169.99609375 381.3984375 C170.02316406 382.49414062 170.05023438 383.58984375 170.078125 384.71875 C170.11292969 385.80929687 170.14773438 386.89984375 170.18359375 388.0234375 C170.08691406 388.95414062 169.99023438 389.88484375 169.890625 390.84375 C166.48512866 393.11408089 165.31467435 393.0934982 161.31924629 393.09263897 C159.56973063 393.09953716 159.56973063 393.09953716 157.78487122 393.10657471 C155.85372981 393.09885937 155.85372981 393.09885937 153.88357544 393.09098816 C152.50686517 393.0925756 151.13015568 393.09503856 149.75344837 393.09830457 C145.96171609 393.10473512 142.17009012 393.09863676 138.3783648 393.09054029 C134.29239062 393.08397599 130.20642857 393.08890903 126.12045288 393.09242249 C118.11205182 393.09747093 110.10369198 393.09181455 102.09529604 393.08257218 C92.7738245 393.0722003 83.45236193 393.07225806 74.13088571 393.07274476 C57.5001716 393.07324573 40.8694767 393.06407508 24.23876953 393.04956055 C8.09358368 393.035477 -8.05158526 393.02838956 -24.19677734 393.02905273 C-25.68783935 393.02911267 -25.68783935 393.02911267 -27.20902382 393.02917381 C-28.69748149 393.02923435 -28.69748149 393.02923435 -30.21600902 393.0292961 C-48.58261419 393.02998581 -66.94921216 393.02409603 -85.31581499 393.01514288 C-91.81620432 393.01212482 -98.31659232 393.01106311 -104.81698227 393.01061058 C-112.7383666 393.00992871 -120.65973879 393.00546776 -128.58111797 392.99627777 C-132.62419448 392.99165777 -136.66725546 392.98861502 -140.71033478 392.98987198 C-144.41010274 392.99096643 -148.10983635 392.98745214 -151.80959715 392.98022345 C-153.78510786 392.97754842 -155.76062332 392.97977096 -157.73613441 392.9821555 C-158.90769368 392.97893106 -160.07925295 392.97570661 -161.28631401 392.97238445 C-162.29740191 392.97168003 -163.30848982 392.9709756 -164.35021675 392.97024983 C-167.109375 392.84375 -167.109375 392.84375 -172.109375 391.84375 C-172.439375 387.55375 -172.769375 383.26375 -173.109375 378.84375 C-175.35546875 378.94140625 -177.6015625 379.0390625 -179.84765625 379.13671875 C-182.109375 378.84375 -182.109375 378.84375 -183.890625 377.59375 C-186.04034305 374.50697536 -185.28947591 371.50580194 -185.109375 367.84375 C-186.285 367.9365625 -186.285 367.9365625 -187.484375 368.03125 C-188.350625 367.969375 -189.216875 367.9075 -190.109375 367.84375 C-192.54336818 364.19276023 -192.39168461 361.48998817 -192.36816406 357.27050781 C-192.3716687 356.50102814 -192.37517334 355.73154846 -192.37878418 354.93875122 C-192.38759591 352.3913677 -192.38175205 349.84426143 -192.375 347.296875 C-192.37634736 345.5243118 -192.37828849 343.75174895 -192.38079834 341.97918701 C-192.3837493 338.2601775 -192.3794549 334.54126398 -192.37011719 330.82226562 C-192.35875589 326.0665479 -192.36526115 321.31105674 -192.37726212 316.55534744 C-192.38450987 312.89209302 -192.38217884 309.22889175 -192.37700653 305.56563568 C-192.37567636 303.81303633 -192.37729549 302.06043208 -192.38196564 300.30783844 C-192.38707513 297.84995372 -192.37925747 295.39242845 -192.36816406 292.93457031 C-192.37221252 292.2163913 -192.37626099 291.49821228 -192.38043213 290.75827026 C-192.29121217 280.02558717 -192.29121217 280.02558717 -189.109375 276.84375 C-188.87019666 274.91286914 -188.87019666 274.91286914 -188.859375 272.65625 C-188.83359375 271.89957031 -188.8078125 271.14289063 -188.78125 270.36328125 C-188.96338021 267.71383657 -188.96338021 267.71383657 -190.60661316 265.23429871 C-192.48723859 260.99120978 -192.52529924 257.65515695 -192.48168945 253.07543945 C-192.48534012 252.21441116 -192.48899078 251.35338287 -192.49275208 250.46626282 C-192.50083395 247.62964936 -192.48726142 244.79361168 -192.47265625 241.95703125 C-192.47213712 239.97413636 -192.47265686 237.99124094 -192.47416687 236.00834656 C-192.47407724 231.85322377 -192.46367016 227.69829533 -192.44555664 223.54321289 C-192.4229441 218.24204192 -192.42231304 212.9411566 -192.42907429 207.63995075 C-192.43243298 203.54332485 -192.42574734 199.44676288 -192.41594505 195.35014915 C-192.41211988 193.39711022 -192.41093359 191.44406414 -192.4125309 189.49102211 C-192.4152033 169.93775747 -192.4152033 169.93775747 -190.109375 160.84375 C-189.119375 160.51375 -188.129375 160.18375 -187.109375 159.84375 C-186.8 158.585625 -186.490625 157.3275 -186.171875 156.03125 C-185.4453125 153.8125 -185.4453125 153.8125 -184.109375 151.84375 C-181.4609375 150.8125 -181.4609375 150.8125 -178.296875 150.03125 C-174.35199493 148.99262216 -172.59354281 148.47992398 -170.09375 145.1953125 C-169.094146 143.23144403 -168.15518259 141.23497968 -167.29296875 139.20703125 C-166.109375 136.84375 -166.109375 136.84375 -163.109375 135.84375 C-160.77637675 135.80420766 -158.44229311 135.79973268 -156.109375 135.84375 C-156.06039062 135.00070313 -156.01140625 134.15765625 -155.9609375 133.2890625 C-155.88617188 132.19335938 -155.81140625 131.09765625 -155.734375 129.96875 C-155.66476563 128.87820312 -155.59515625 127.78765625 -155.5234375 126.6640625 C-155.109375 123.84375 -155.109375 123.84375 -153.109375 121.84375 C-150.5078125 121.4296875 -150.5078125 121.4296875 -147.484375 121.21875 C-145.98003906 121.10660156 -145.98003906 121.10660156 -144.4453125 120.9921875 C-143.67445313 120.94320312 -142.90359375 120.89421875 -142.109375 120.84375 C-142.15578125 120.16828125 -142.2021875 119.4928125 -142.25 118.796875 C-142.30414063 117.45882812 -142.30414063 117.45882812 -142.359375 116.09375 C-142.40578125 115.21203125 -142.4521875 114.3303125 -142.5 113.421875 C-141.97886647 109.98239367 -140.79233281 109.00370084 -138.109375 106.84375 C-135.54394531 106.38964844 -135.54394531 106.38964844 -132.6875 106.453125 C-131.15029297 106.47246094 -131.15029297 106.47246094 -129.58203125 106.4921875 C-128.51855469 106.52570313 -127.45507812 106.55921875 -126.359375 106.59375 C-125.28042969 106.61179687 -124.20148438 106.62984375 -123.08984375 106.6484375 C-120.42878712 106.69553585 -117.76953246 106.761294 -115.109375 106.84375 C-115.13439087 105.91054932 -115.13439087 105.91054932 -115.15991211 104.95849609 C-115.1728833 104.14461426 -115.18585449 103.33073242 -115.19921875 102.4921875 C-115.215896 101.68442871 -115.23257324 100.87666992 -115.24975586 100.04443359 C-115.109375 97.84375 -115.109375 97.84375 -113.671875 95.46875 C-110.5840609 93.51062398 -107.53193302 92.48145521 -104.03515625 91.45703125 C-102.12297226 91.01041387 -102.12297226 91.01041387 -101.109375 89.84375 C-100.98783127 87.9413837 -100.92968557 86.03489522 -100.8984375 84.12890625 C-100.87007813 82.96810547 -100.84171875 81.80730469 -100.8125 80.61132812 C-100.76050221 78.14533311 -100.71620555 75.67916344 -100.6796875 73.21289062 C-100.64875 72.05080078 -100.6178125 70.88871094 -100.5859375 69.69140625 C-100.56611816 68.61898682 -100.54629883 67.54656738 -100.52587891 66.44165039 C-100.38843262 65.58434326 -100.25098633 64.72703613 -100.109375 63.84375 C-96.6741702 61.55361347 -95.124044 61.66532027 -91.109375 61.84375 C-91.13257813 61.21726563 -91.15578125 60.59078125 -91.1796875 59.9453125 C-91.19773437 59.12804687 -91.21578125 58.31078125 -91.234375 57.46875 C-91.25757813 56.65664062 -91.28078125 55.84453125 -91.3046875 55.0078125 C-91.109375 52.84375 -91.109375 52.84375 -89.109375 50.84375 C-86.5078125 50.4296875 -86.5078125 50.4296875 -83.484375 50.21875 C-82.48148437 50.14398438 -81.47859375 50.06921875 -80.4453125 49.9921875 C-79.67445313 49.94320312 -78.90359375 49.89421875 -78.109375 49.84375 C-78.08359375 49.24046875 -78.0578125 48.6371875 -78.03125 48.015625 C-77.7636018 44.24421853 -77.50247846 41.5041638 -75.546875 38.21875 C-71.82504265 36.11925483 -69.24229739 37.01716552 -65.109375 37.84375 C-65.06039062 37.02390625 -65.01140625 36.2040625 -64.9609375 35.359375 C-64.88617188 34.28171875 -64.81140625 33.2040625 -64.734375 32.09375 C-64.66476563 31.02640625 -64.59515625 29.9590625 -64.5234375 28.859375 C-64.109375 25.84375 -64.109375 25.84375 -62.109375 21.84375 C-44.289375 22.17375 -26.469375 22.50375 -8.109375 22.84375 C-7.779375 21.19375 -7.449375 19.54375 -7.109375 17.84375 C-6.449375 17.84375 -5.789375 17.84375 -5.109375 17.84375 C-5.36498823 15.5006287 -5.70208272 13.16531597 -6.109375 10.84375 C-7.099375 10.34875 -7.099375 10.34875 -8.109375 9.84375 C-8.109375 6.87375 -8.109375 3.90375 -8.109375 0.84375 C-5.30537428 -0.55825036 -3.1276657 -0.1488084 0 0 Z M-58.109375 37.84375 C-58.109375 42.46375 -58.109375 47.08375 -58.109375 51.84375 C-62.729375 51.84375 -67.349375 51.84375 -72.109375 51.84375 C-72.109375 56.46375 -72.109375 61.08375 -72.109375 65.84375 C-76.399375 65.84375 -80.689375 65.84375 -85.109375 65.84375 C-85.109375 80.03375 -85.109375 94.22375 -85.109375 108.84375 C-92.699375 108.84375 -100.289375 108.84375 -108.109375 108.84375 C-108.109375 113.46375 -108.109375 118.08375 -108.109375 122.84375 C-117.019375 122.84375 -125.929375 122.84375 -135.109375 122.84375 C-135.109375 127.46375 -135.109375 132.08375 -135.109375 136.84375 C-139.729375 136.84375 -144.349375 136.84375 -149.109375 136.84375 C-149.109375 141.46375 -149.109375 146.08375 -149.109375 150.84375 C-153.729375 150.84375 -158.349375 150.84375 -163.109375 150.84375 C-163.109375 155.46375 -163.109375 160.08375 -163.109375 164.84375 C-167.729375 164.84375 -172.349375 164.84375 -177.109375 164.84375 C-177.109375 193.22375 -177.109375 221.60375 -177.109375 250.84375 C-172.489375 250.84375 -167.869375 250.84375 -163.109375 250.84375 C-163.109375 264.70375 -163.109375 278.56375 -163.109375 292.84375 C-167.729375 292.84375 -172.349375 292.84375 -177.109375 292.84375 C-177.109375 311.32375 -177.109375 329.80375 -177.109375 348.84375 C-172.489375 348.84375 -167.869375 348.84375 -163.109375 348.84375 C-163.109375 353.46375 -163.109375 358.08375 -163.109375 362.84375 C-56.519375 362.84375 50.070625 362.84375 159.890625 362.84375 C159.890625 358.22375 159.890625 353.60375 159.890625 348.84375 C53.630625 348.84375 -52.629375 348.84375 -162.109375 348.84375 C-162.109375 330.36375 -162.109375 311.88375 -162.109375 292.84375 C-157.819375 292.84375 -153.529375 292.84375 -149.109375 292.84375 C-148.93947615 288.46885462 -148.77338648 284.09386695 -148.609375 279.71875 C-148.56167969 278.50058594 -148.51398438 277.28242188 -148.46484375 276.02734375 C-148.15356699 267.62287135 -148.06608041 259.25372322 -148.109375 250.84375 C-143.819375 250.84375 -139.529375 250.84375 -135.109375 250.84375 C-135.109375 245.89375 -135.109375 240.94375 -135.109375 235.84375 C-127.849375 235.84375 -120.589375 235.84375 -113.109375 235.84375 C-113.109375 240.79375 -113.109375 245.74375 -113.109375 250.84375 C-108.489375 250.84375 -103.869375 250.84375 -99.109375 250.84375 C-99.109375 255.46375 -99.109375 260.08375 -99.109375 264.84375 C-94.63016903 264.87057159 -90.15112149 264.89050177 -85.671875 264.90625 C-84.39248047 264.91462891 -83.11308594 264.92300781 -81.79492188 264.93164062 C-80.57998047 264.93486328 -79.36503906 264.93808594 -78.11328125 264.94140625 C-76.98736572 264.94664307 -75.8614502 264.95187988 -74.70141602 264.95727539 C-72.17966629 265.13920448 -72.17966629 265.13920448 -71.109375 263.84375 C-71.03678554 261.65735547 -71.02563717 259.46874611 -71.046875 257.28125 C-71.0675 255.156875 -71.088125 253.0325 -71.109375 250.84375 C-66.819375 250.84375 -62.529375 250.84375 -58.109375 250.84375 C-58.109375 245.89375 -58.109375 240.94375 -58.109375 235.84375 C-49.199375 235.84375 -40.289375 235.84375 -31.109375 235.84375 C-31.109375 240.79375 -31.109375 245.74375 -31.109375 250.84375 C-26.819375 250.84375 -22.529375 250.84375 -18.109375 250.84375 C-18.109375 255.46375 -18.109375 260.08375 -18.109375 264.84375 C-8.869375 264.84375 0.370625 264.84375 9.890625 264.84375 C9.890625 260.22375 9.890625 255.60375 9.890625 250.84375 C14.510625 250.84375 19.130625 250.84375 23.890625 250.84375 C23.890625 245.89375 23.890625 240.94375 23.890625 235.84375 C49.300625 235.84375 74.710625 235.84375 100.890625 235.84375 C100.890625 245.41375 100.890625 254.98375 100.890625 264.84375 C115.740625 264.84375 130.590625 264.84375 145.890625 264.84375 C145.890625 274.08375 145.890625 283.32375 145.890625 292.84375 C150.510625 292.84375 155.130625 292.84375 159.890625 292.84375 C159.890625 278.98375 159.890625 265.12375 159.890625 250.84375 C164.510625 250.84375 169.130625 250.84375 173.890625 250.84375 C173.890625 222.46375 173.890625 194.08375 173.890625 164.84375 C169.270625 164.84375 164.650625 164.84375 159.890625 164.84375 C159.890625 160.22375 159.890625 155.60375 159.890625 150.84375 C155.270625 150.84375 150.650625 150.84375 145.890625 150.84375 C145.890625 146.22375 145.890625 141.60375 145.890625 136.84375 C140.280625 136.84375 134.670625 136.84375 128.890625 136.84375 C128.890625 132.22375 128.890625 127.60375 128.890625 122.84375 C119.650625 122.84375 110.410625 122.84375 100.890625 122.84375 C100.890625 117.89375 100.890625 112.94375 100.890625 107.84375 C89.010625 107.84375 77.130625 107.84375 64.890625 107.84375 C64.890625 93.98375 64.890625 80.12375 64.890625 65.84375 C60.270625 65.84375 55.650625 65.84375 50.890625 65.84375 C50.890625 61.22375 50.890625 56.60375 50.890625 51.84375 C37.360625 51.84375 23.830625 51.84375 9.890625 51.84375 C9.890625 47.55375 9.890625 43.26375 9.890625 38.84375 C5.270625 38.84375 0.650625 38.84375 -4.109375 38.84375 C-4.109375 43.13375 -4.109375 47.42375 -4.109375 51.84375 C-8.399375 51.84375 -12.689375 51.84375 -17.109375 51.84375 C-17.109375 47.22375 -17.109375 42.60375 -17.109375 37.84375 C-30.639375 37.84375 -44.169375 37.84375 -58.109375 37.84375 Z " fill="#EFC493" transform="translate(264.109375,34.15625)"/>
<path d="M0 0 C13.53 0 27.06 0 41 0 C41 4.62 41 9.24 41 14 C45.29 14 49.58 14 54 14 C54 9.71 54 5.42 54 1 C58.62 1 63.24 1 68 1 C68 5.29 68 9.58 68 14 C81.53 14 95.06 14 109 14 C109 18.62 109 23.24 109 28 C113.62 28 118.24 28 123 28 C123 41.86 123 55.72 123 70 C134.88 70 146.76 70 159 70 C159 74.95 159 79.9 159 85 C168.24 85 177.48 85 187 85 C187 89.62 187 94.24 187 99 C192.61 99 198.22 99 204 99 C204 108.57 204 118.14 204 128 C200.7 128 197.4 128 194 128 C194 132.62 194 137.24 194 142 C99.95 142 5.9 142 -91 142 C-91 165.1 -91 188.2 -91 212 C-95.29 212 -99.58 212 -104 212 C-104 184.28 -104 156.56 -104 128 C-97.565 127.505 -97.565 127.505 -91 127 C-90.67 122.71 -90.34 118.42 -90 114 C-85.71 114 -81.42 114 -77 114 C-77 104.43 -77 94.86 -77 85 C-68.09 85 -59.18 85 -50 85 C-50 80.38 -50 75.76 -50 71 C-42.41 71 -34.82 71 -27 71 C-27 56.81 -27 42.62 -27 28 C-22.71 28 -18.42 28 -14 28 C-14 23.38 -14 18.76 -14 14 C-9.38 14 -4.76 14 0 14 C0 9.38 0 4.76 0 0 Z " fill="#E08C8B" transform="translate(206,72)"/>
<path d="M0 0 C1.22976563 0.05285156 2.45953125 0.10570312 3.7265625 0.16015625 C6.32034691 0.28182079 8.91409753 0.40420779 11.5078125 0.52734375 C12.74273437 0.58019531 13.97765625 0.63304687 15.25 0.6875 C16.94334473 0.76774414 16.94334473 0.76774414 18.67089844 0.84960938 C21.86804584 0.84379109 24.7562043 0.44280386 27.890625 -0.15625 C31.44089856 -0.42789015 34.83781762 -0.39920555 38.328125 0.40625 C40.87811755 2.75224314 40.64494965 5.52713281 40.890625 8.84375 C41.633125 8.92625 42.375625 9.00875 43.140625 9.09375 C46.70482964 10.06580581 47.73504294 10.80778285 49.890625 13.84375 C50.55039189 18.30323165 50.34847715 22.81342618 50.29101562 27.31054688 C50.32190549 29.90347825 50.3687476 32.30250996 50.890625 34.84375 C53.27072256 36.71181252 53.27072256 36.71181252 55.890625 37.84375 C56.6484375 40.4375 56.6484375 40.4375 57.015625 43.34375 C57.56296806 46.31151201 57.56296806 46.31151201 58.890625 48.84375 C61.71730473 50.27896819 64.17037643 50.8105943 67.296875 51.28125 C70.18262828 51.90707601 71.20886118 52.44203377 72.890625 54.84375 C73.078125 58.53125 73.078125 58.53125 72.890625 61.84375 C74.025 61.988125 75.159375 62.1325 76.328125 62.28125 C79.890625 62.84375 79.890625 62.84375 80.890625 63.84375 C80.90737677 65.55638337 80.85333815 67.26980511 80.76953125 68.98046875 C80.72119141 70.03298828 80.67285156 71.08550781 80.62304688 72.16992188 C80.56697266 73.27916016 80.51089844 74.38839844 80.453125 75.53125 C80.34915567 77.70177028 80.24625872 79.87234224 80.14453125 82.04296875 C80.09627197 83.01065186 80.0480127 83.97833496 79.99829102 84.9753418 C79.88722865 87.93423468 79.87281099 90.88306192 79.890625 93.84375 C80.6019458 93.83327637 81.3132666 93.82280273 82.04614258 93.81201172 C85.26510086 93.77046999 88.48400276 93.74442961 91.703125 93.71875 C92.82267578 93.70199219 93.94222656 93.68523437 95.09570312 93.66796875 C96.16884766 93.66152344 97.24199219 93.65507813 98.34765625 93.6484375 C99.33741455 93.63796387 100.32717285 93.62749023 101.34692383 93.61669922 C103.890625 93.84375 103.890625 93.84375 106.890625 95.84375 C107.40234375 98.4453125 107.40234375 98.4453125 107.578125 101.46875 C107.67673828 102.97308594 107.67673828 102.97308594 107.77734375 104.5078125 C107.81472656 105.27867187 107.85210937 106.04953125 107.890625 106.84375 C109.01339844 106.82054687 110.13617188 106.79734375 111.29296875 106.7734375 C119.12048924 106.66162826 126.30589162 106.63728211 133.890625 108.84375 C134.220625 113.13375 134.550625 117.42375 134.890625 121.84375 C136.623125 121.8025 138.355625 121.76125 140.140625 121.71875 C143.97505255 121.62745411 146.64084232 121.69696873 149.890625 123.84375 C151.75095762 127.36859076 152.34307541 130.91964463 152.890625 134.84375 C153.50550781 135.02550781 154.12039063 135.20726562 154.75390625 135.39453125 C155.56214844 135.64589844 156.37039063 135.89726562 157.203125 136.15625 C158.00363281 136.39988281 158.80414063 136.64351562 159.62890625 136.89453125 C162.08363235 137.92475308 163.33315864 138.68725812 164.890625 140.84375 C165.18359375 143.10546875 165.18359375 143.10546875 165.078125 145.53125 C165.05105469 146.33949219 165.02398437 147.14773437 164.99609375 147.98046875 C164.94388672 148.90279297 164.94388672 148.90279297 164.890625 149.84375 C165.48230469 149.88113281 166.07398438 149.91851562 166.68359375 149.95703125 C175.26456268 150.67094547 175.26456268 150.67094547 178.890625 153.84375 C179.014375 154.66875 179.138125 155.49375 179.265625 156.34375 C179.471875 157.16875 179.678125 157.99375 179.890625 158.84375 C182.19314983 159.91277939 184.5278276 160.91550817 186.890625 161.84375 C188.22733947 165.85389341 188.07694617 169.73377064 188.11181641 173.91748047 C188.1233223 174.84622986 188.13482819 175.77497925 188.14668274 176.73187256 C188.18342378 179.80819376 188.21304105 182.88453563 188.2421875 185.9609375 C188.26530231 188.09701834 188.28869264 190.23309621 188.31234741 192.36917114 C188.36082624 196.84976614 188.40575074 201.3303795 188.44824219 205.81103516 C188.50301212 211.55344404 188.566859 217.29570959 188.63341713 223.03799248 C188.68351161 227.45086106 188.72862834 231.86376989 188.77225876 236.2767067 C188.79381976 238.39381694 188.81696637 240.51091164 188.8417244 242.62798691 C188.87563464 245.58904426 188.90280809 248.55008965 188.92822266 251.51123047 C188.93959763 252.38621185 188.9509726 253.26119324 188.96269226 254.16268921 C189.0049066 260.27711947 189.0049066 260.27711947 188.39239502 263.31407166 C187.58167598 267.40131942 187.7873172 271.49602532 187.82470703 275.65112305 C187.82937988 276.63375122 187.83405273 277.61637939 187.83886719 278.62878418 C187.84935308 280.75788675 187.86201024 282.8869795 187.87659073 285.01605797 C187.89860913 288.38170412 187.91268961 291.74729405 187.92428589 295.11299133 C187.95789593 304.68063038 187.99972457 314.24817537 188.06201172 323.81567383 C188.09955822 329.66988197 188.12264917 335.52399499 188.13631821 341.37830544 C188.14439506 343.61234002 188.15803538 345.84636144 188.17724991 348.08032799 C188.20358638 351.19519337 188.21160884 354.30959809 188.21533203 357.42456055 C188.2276889 358.35393936 188.24004578 359.28331818 188.2527771 360.24085999 C188.25009827 361.08621307 188.24741943 361.93156616 188.24465942 362.80253601 C188.24872362 363.53900706 188.25278782 364.27547812 188.25697517 365.03426647 C187.890625 366.84375 187.890625 366.84375 184.890625 368.84375 C182.203125 368.96875 182.203125 368.96875 179.890625 368.84375 C179.890625 371.81375 179.890625 374.78375 179.890625 377.84375 C176.67611231 379.45100635 173.45449964 378.90123185 169.890625 378.84375 C169.94283203 380.10832031 169.94283203 380.10832031 169.99609375 381.3984375 C170.02316406 382.49414062 170.05023438 383.58984375 170.078125 384.71875 C170.11292969 385.80929687 170.14773438 386.89984375 170.18359375 388.0234375 C170.08691406 388.95414062 169.99023438 389.88484375 169.890625 390.84375 C166.48512866 393.11408089 165.31467435 393.0934982 161.31924629 393.09263897 C159.56973063 393.09953716 159.56973063 393.09953716 157.78487122 393.10657471 C155.85372981 393.09885937 155.85372981 393.09885937 153.88357544 393.09098816 C152.50686517 393.0925756 151.13015568 393.09503856 149.75344837 393.09830457 C145.96171609 393.10473512 142.17009012 393.09863676 138.3783648 393.09054029 C134.29239062 393.08397599 130.20642857 393.08890903 126.12045288 393.09242249 C118.11205182 393.09747093 110.10369198 393.09181455 102.09529604 393.08257218 C92.7738245 393.0722003 83.45236193 393.07225806 74.13088571 393.07274476 C57.5001716 393.07324573 40.8694767 393.06407508 24.23876953 393.04956055 C8.09358368 393.035477 -8.05158526 393.02838956 -24.19677734 393.02905273 C-25.68783935 393.02911267 -25.68783935 393.02911267 -27.20902382 393.02917381 C-28.69748149 393.02923435 -28.69748149 393.02923435 -30.21600902 393.0292961 C-48.58261419 393.02998581 -66.94921216 393.02409603 -85.31581499 393.01514288 C-91.81620432 393.01212482 -98.31659232 393.01106311 -104.81698227 393.01061058 C-112.7383666 393.00992871 -120.65973879 393.00546776 -128.58111797 392.99627777 C-132.62419448 392.99165777 -136.66725546 392.98861502 -140.71033478 392.98987198 C-144.41010274 392.99096643 -148.10983635 392.98745214 -151.80959715 392.98022345 C-153.78510786 392.97754842 -155.76062332 392.97977096 -157.73613441 392.9821555 C-158.90769368 392.97893106 -160.07925295 392.97570661 -161.28631401 392.97238445 C-162.29740191 392.97168003 -163.30848982 392.9709756 -164.35021675 392.97024983 C-167.109375 392.84375 -167.109375 392.84375 -172.109375 391.84375 C-172.439375 387.55375 -172.769375 383.26375 -173.109375 378.84375 C-175.35546875 378.94140625 -177.6015625 379.0390625 -179.84765625 379.13671875 C-182.109375 378.84375 -182.109375 378.84375 -183.890625 377.59375 C-186.04034305 374.50697536 -185.28947591 371.50580194 -185.109375 367.84375 C-186.285 367.9365625 -186.285 367.9365625 -187.484375 368.03125 C-188.350625 367.969375 -189.216875 367.9075 -190.109375 367.84375 C-192.54336818 364.19276023 -192.39168461 361.48998817 -192.36816406 357.27050781 C-192.3716687 356.50102814 -192.37517334 355.73154846 -192.37878418 354.93875122 C-192.38759591 352.3913677 -192.38175205 349.84426143 -192.375 347.296875 C-192.37634736 345.5243118 -192.37828849 343.75174895 -192.38079834 341.97918701 C-192.3837493 338.2601775 -192.3794549 334.54126398 -192.37011719 330.82226562 C-192.35875589 326.0665479 -192.36526115 321.31105674 -192.37726212 316.55534744 C-192.38450987 312.89209302 -192.38217884 309.22889175 -192.37700653 305.56563568 C-192.37567636 303.81303633 -192.37729549 302.06043208 -192.38196564 300.30783844 C-192.38707513 297.84995372 -192.37925747 295.39242845 -192.36816406 292.93457031 C-192.37221252 292.2163913 -192.37626099 291.49821228 -192.38043213 290.75827026 C-192.29121217 280.02558717 -192.29121217 280.02558717 -189.109375 276.84375 C-188.87019666 274.91286914 -188.87019666 274.91286914 -188.859375 272.65625 C-188.83359375 271.89957031 -188.8078125 271.14289063 -188.78125 270.36328125 C-188.96338021 267.71383657 -188.96338021 267.71383657 -190.60661316 265.23429871 C-192.48723859 260.99120978 -192.52529924 257.65515695 -192.48168945 253.07543945 C-192.48534012 252.21441116 -192.48899078 251.35338287 -192.49275208 250.46626282 C-192.50083395 247.62964936 -192.48726142 244.79361168 -192.47265625 241.95703125 C-192.47213712 239.97413636 -192.47265686 237.99124094 -192.47416687 236.00834656 C-192.47407724 231.85322377 -192.46367016 227.69829533 -192.44555664 223.54321289 C-192.4229441 218.24204192 -192.42231304 212.9411566 -192.42907429 207.63995075 C-192.43243298 203.54332485 -192.42574734 199.44676288 -192.41594505 195.35014915 C-192.41211988 193.39711022 -192.41093359 191.44406414 -192.4125309 189.49102211 C-192.4152033 169.93775747 -192.4152033 169.93775747 -190.109375 160.84375 C-189.119375 160.51375 -188.129375 160.18375 -187.109375 159.84375 C-186.8 158.585625 -186.490625 157.3275 -186.171875 156.03125 C-185.4453125 153.8125 -185.4453125 153.8125 -184.109375 151.84375 C-181.4609375 150.8125 -181.4609375 150.8125 -178.296875 150.03125 C-174.35199493 148.99262216 -172.59354281 148.47992398 -170.09375 145.1953125 C-169.094146 143.23144403 -168.15518259 141.23497968 -167.29296875 139.20703125 C-166.109375 136.84375 -166.109375 136.84375 -163.109375 135.84375 C-160.77637675 135.80420766 -158.44229311 135.79973268 -156.109375 135.84375 C-156.06039062 135.00070313 -156.01140625 134.15765625 -155.9609375 133.2890625 C-155.88617188 132.19335938 -155.81140625 131.09765625 -155.734375 129.96875 C-155.66476563 128.87820312 -155.59515625 127.78765625 -155.5234375 126.6640625 C-155.109375 123.84375 -155.109375 123.84375 -153.109375 121.84375 C-150.5078125 121.4296875 -150.5078125 121.4296875 -147.484375 121.21875 C-145.98003906 121.10660156 -145.98003906 121.10660156 -144.4453125 120.9921875 C-143.67445313 120.94320312 -142.90359375 120.89421875 -142.109375 120.84375 C-142.15578125 120.16828125 -142.2021875 119.4928125 -142.25 118.796875 C-142.30414063 117.45882812 -142.30414063 117.45882812 -142.359375 116.09375 C-142.40578125 115.21203125 -142.4521875 114.3303125 -142.5 113.421875 C-141.97886647 109.98239367 -140.79233281 109.00370084 -138.109375 106.84375 C-135.54394531 106.38964844 -135.54394531 106.38964844 -132.6875 106.453125 C-131.15029297 106.47246094 -131.15029297 106.47246094 -129.58203125 106.4921875 C-128.51855469 106.52570313 -127.45507812 106.55921875 -126.359375 106.59375 C-125.28042969 106.61179687 -124.20148438 106.62984375 -123.08984375 106.6484375 C-120.42878712 106.69553585 -117.76953246 106.761294 -115.109375 106.84375 C-115.13439087 105.91054932 -115.13439087 105.91054932 -115.15991211 104.95849609 C-115.1728833 104.14461426 -115.18585449 103.33073242 -115.19921875 102.4921875 C-115.215896 101.68442871 -115.23257324 100.87666992 -115.24975586 100.04443359 C-115.109375 97.84375 -115.109375 97.84375 -113.671875 95.46875 C-110.5840609 93.51062398 -107.53193302 92.48145521 -104.03515625 91.45703125 C-102.12297226 91.01041387 -102.12297226 91.01041387 -101.109375 89.84375 C-100.98783127 87.9413837 -100.92968557 86.03489522 -100.8984375 84.12890625 C-100.87007813 82.96810547 -100.84171875 81.80730469 -100.8125 80.61132812 C-100.76050221 78.14533311 -100.71620555 75.67916344 -100.6796875 73.21289062 C-100.64875 72.05080078 -100.6178125 70.88871094 -100.5859375 69.69140625 C-100.56611816 68.61898682 -100.54629883 67.54656738 -100.52587891 66.44165039 C-100.38843262 65.58434326 -100.25098633 64.72703613 -100.109375 63.84375 C-96.6741702 61.55361347 -95.124044 61.66532027 -91.109375 61.84375 C-91.13257813 61.21726563 -91.15578125 60.59078125 -91.1796875 59.9453125 C-91.19773437 59.12804687 -91.21578125 58.31078125 -91.234375 57.46875 C-91.25757813 56.65664062 -91.28078125 55.84453125 -91.3046875 55.0078125 C-91.109375 52.84375 -91.109375 52.84375 -89.109375 50.84375 C-86.5078125 50.4296875 -86.5078125 50.4296875 -83.484375 50.21875 C-82.48148437 50.14398438 -81.47859375 50.06921875 -80.4453125 49.9921875 C-79.67445313 49.94320312 -78.90359375 49.89421875 -78.109375 49.84375 C-78.08359375 49.24046875 -78.0578125 48.6371875 -78.03125 48.015625 C-77.7636018 44.24421853 -77.50247846 41.5041638 -75.546875 38.21875 C-71.82504265 36.11925483 -69.24229739 37.01716552 -65.109375 37.84375 C-65.06039062 37.02390625 -65.01140625 36.2040625 -64.9609375 35.359375 C-64.88617188 34.28171875 -64.81140625 33.2040625 -64.734375 32.09375 C-64.66476563 31.02640625 -64.59515625 29.9590625 -64.5234375 28.859375 C-64.109375 25.84375 -64.109375 25.84375 -62.109375 21.84375 C-44.289375 22.17375 -26.469375 22.50375 -8.109375 22.84375 C-7.779375 21.19375 -7.449375 19.54375 -7.109375 17.84375 C-6.449375 17.84375 -5.789375 17.84375 -5.109375 17.84375 C-5.36498823 15.5006287 -5.70208272 13.16531597 -6.109375 10.84375 C-7.099375 10.34875 -7.099375 10.34875 -8.109375 9.84375 C-8.109375 6.87375 -8.109375 3.90375 -8.109375 0.84375 C-5.30537428 -0.55825036 -3.1276657 -0.1488084 0 0 Z M-58.109375 37.84375 C-58.109375 42.46375 -58.109375 47.08375 -58.109375 51.84375 C-62.729375 51.84375 -67.349375 51.84375 -72.109375 51.84375 C-72.109375 56.46375 -72.109375 61.08375 -72.109375 65.84375 C-76.399375 65.84375 -80.689375 65.84375 -85.109375 65.84375 C-85.109375 80.03375 -85.109375 94.22375 -85.109375 108.84375 C-92.699375 108.84375 -100.289375 108.84375 -108.109375 108.84375 C-108.109375 113.46375 -108.109375 118.08375 -108.109375 122.84375 C-117.019375 122.84375 -125.929375 122.84375 -135.109375 122.84375 C-135.109375 127.46375 -135.109375 132.08375 -135.109375 136.84375 C-139.729375 136.84375 -144.349375 136.84375 -149.109375 136.84375 C-149.109375 141.46375 -149.109375 146.08375 -149.109375 150.84375 C-153.729375 150.84375 -158.349375 150.84375 -163.109375 150.84375 C-163.109375 155.46375 -163.109375 160.08375 -163.109375 164.84375 C-167.729375 164.84375 -172.349375 164.84375 -177.109375 164.84375 C-177.109375 193.22375 -177.109375 221.60375 -177.109375 250.84375 C-172.489375 250.84375 -167.869375 250.84375 -163.109375 250.84375 C-163.109375 264.70375 -163.109375 278.56375 -163.109375 292.84375 C-167.729375 292.84375 -172.349375 292.84375 -177.109375 292.84375 C-177.109375 311.32375 -177.109375 329.80375 -177.109375 348.84375 C-172.489375 348.84375 -167.869375 348.84375 -163.109375 348.84375 C-163.109375 353.46375 -163.109375 358.08375 -163.109375 362.84375 C-56.519375 362.84375 50.070625 362.84375 159.890625 362.84375 C159.890625 358.22375 159.890625 353.60375 159.890625 348.84375 C164.510625 348.84375 169.130625 348.84375 173.890625 348.84375 C173.890625 330.36375 173.890625 311.88375 173.890625 292.84375 C169.270625 292.84375 164.650625 292.84375 159.890625 292.84375 C159.890625 278.98375 159.890625 265.12375 159.890625 250.84375 C164.510625 250.84375 169.130625 250.84375 173.890625 250.84375 C173.890625 222.46375 173.890625 194.08375 173.890625 164.84375 C169.270625 164.84375 164.650625 164.84375 159.890625 164.84375 C159.890625 160.22375 159.890625 155.60375 159.890625 150.84375 C155.270625 150.84375 150.650625 150.84375 145.890625 150.84375 C145.890625 146.22375 145.890625 141.60375 145.890625 136.84375 C140.280625 136.84375 134.670625 136.84375 128.890625 136.84375 C128.890625 132.22375 128.890625 127.60375 128.890625 122.84375 C119.650625 122.84375 110.410625 122.84375 100.890625 122.84375 C100.890625 117.89375 100.890625 112.94375 100.890625 107.84375 C89.010625 107.84375 77.130625 107.84375 64.890625 107.84375 C64.890625 93.98375 64.890625 80.12375 64.890625 65.84375 C60.270625 65.84375 55.650625 65.84375 50.890625 65.84375 C50.890625 61.22375 50.890625 56.60375 50.890625 51.84375 C37.360625 51.84375 23.830625 51.84375 9.890625 51.84375 C9.890625 47.55375 9.890625 43.26375 9.890625 38.84375 C5.270625 38.84375 0.650625 38.84375 -4.109375 38.84375 C-4.109375 43.13375 -4.109375 47.42375 -4.109375 51.84375 C-8.399375 51.84375 -12.689375 51.84375 -17.109375 51.84375 C-17.109375 47.22375 -17.109375 42.60375 -17.109375 37.84375 C-30.639375 37.84375 -44.169375 37.84375 -58.109375 37.84375 Z " fill="#FBFAF9" transform="translate(264.109375,34.15625)"/>
<path d="M0 0 C101.64 0 203.28 0 308 0 C308 9.24 308 18.48 308 28 C304.7 28 301.4 28 298 28 C298 32.62 298 37.24 298 42 C199.66 42 101.32 42 0 42 C0 28.14 0 14.28 0 0 Z " fill="#EFC493" transform="translate(102,341)"/>
<path d="M0 0 C13.53 0 27.06 0 41 0 C41 4.62 41 9.24 41 14 C45.29 14 49.58 14 54 14 C54 9.71 54 5.42 54 1 C58.62 1 63.24 1 68 1 C68 5.29 68 9.58 68 14 C81.53 14 95.06 14 109 14 C109 18.62 109 23.24 109 28 C113.62 28 118.24 28 123 28 C123 41.86 123 55.72 123 70 C134.88 70 146.76 70 159 70 C159 70.33 159 70.66 159 71 C146.79 71 134.58 71 122 71 C122 57.14 122 43.28 122 29 C117.71 29 113.42 29 109 29 C109.00523682 30.66087646 109.01047363 32.32175293 109.01586914 34.03295898 C109.03391058 40.16983506 109.04542886 46.30670877 109.05493164 52.44360352 C109.05997383 55.10441481 109.06680736 57.76522332 109.07543945 60.42602539 C109.08751009 64.24105516 109.09322929 68.05604844 109.09765625 71.87109375 C109.10281754 73.06899033 109.10797882 74.2668869 109.11329651 75.50108337 C109.11337204 76.6021492 109.11344757 77.70321503 109.11352539 78.83764648 C109.115746 79.81249496 109.11796661 80.78734344 109.12025452 81.79173279 C109 84 109 84 108 85 C106.5112814 85.08669432 105.018555 85.10703494 103.52734375 85.09765625 C102.62822266 85.09443359 101.72910156 85.09121094 100.80273438 85.08789062 C99.38444336 85.07532227 99.38444336 85.07532227 97.9375 85.0625 C96.5134082 85.05573242 96.5134082 85.05573242 95.06054688 85.04882812 C92.70700469 85.03700128 90.35349468 85.01906521 88 85 C88 89.62 88 94.24 88 99 C76.6738837 99.02312255 65.34777297 99.04091464 54.02163792 99.05181217 C48.76303336 99.05704119 43.5044449 99.06413918 38.24584961 99.07543945 C33.17546873 99.08626766 28.10510338 99.09227669 23.03471184 99.09487724 C21.09573052 99.09673161 19.15675009 99.10035245 17.21777534 99.10573006 C14.5117824 99.1129396 11.80585444 99.11399098 9.09985352 99.11352539 C7.88497505 99.1189183 7.88497505 99.1189183 6.64555359 99.12442017 C1.11405216 99.11405216 1.11405216 99.11405216 0 98 C-0.14393457 93.66469082 -0.04212061 89.33842269 0 85 C-4.29 85 -8.58 85 -13 85 C-13 89.62 -13 94.24 -13 99 C-8.71 99 -4.42 99 0 99 C0 108.57 0 118.14 0 128 C-16.5 128 -33 128 -50 128 C-50 118.43 -50 108.86 -50 99 C-38.12 99 -26.24 99 -14 99 C-13.67 75.9 -13.34 52.8 -13 29 C-17.62 29 -22.24 29 -27 29 C-27 28.67 -27 28.34 -27 28 C-22.71 28 -18.42 28 -14 28 C-14 23.38 -14 18.76 -14 14 C-9.38 14 -4.76 14 0 14 C0 9.38 0 4.76 0 0 Z " fill="#B07BCE" transform="translate(206,72)"/>
<path d="M0 0 C4.62 0 9.24 0 14 0 C14 4.95 14 9.9 14 15 C9.71 15 5.42 15 1 15 C1.020625 17.124375 1.04125 19.24875 1.0625 21.4375 C1.08373783 23.62499611 1.07258946 25.81360547 1 28 C0.67 28.33 0.34 28.66 0 29 C-4.29 29 -8.58 29 -13 29 C-13 56.72 -13 84.44 -13 113 C-8.71 113 -4.42 113 0 113 C0 108.38 0 103.76 0 99 C4.62 99 9.24 99 14 99 C14 103.95 14 108.9 14 114 C9.71 114 5.42 114 1 114 C1.0103125 116.00320313 1.020625 118.00640625 1.03125 120.0703125 C1.03125 127.68032715 0.79773333 135.27072971 0.5 142.875 C0.42845703 144.78345703 0.42845703 144.78345703 0.35546875 146.73046875 C0.23930589 149.82040085 0.11999168 152.91021422 0 156 C-4.29 156 -8.58 156 -13 156 C-13 174.48 -13 192.96 -13 212 C93.26 212 199.52 212 309 212 C309 216.62 309 221.24 309 226 C202.41 226 95.82 226 -14 226 C-14 221.38 -14 216.76 -14 212 C-18.62 212 -23.24 212 -28 212 C-28 193.52 -28 175.04 -28 156 C-23.38 156 -18.76 156 -14 156 C-14 142.14 -14 128.28 -14 114 C-18.62 114 -23.24 114 -28 114 C-28 85.62 -28 57.24 -28 28 C-23.38 28 -18.76 28 -14 28 C-14 23.38 -14 18.76 -14 14 C-9.38 14 -4.76 14 0 14 C0 9.38 0 4.76 0 0 Z " fill="#633515" transform="translate(115,171)"/>
<path d="M0 0 C0.33 0 0.66 0 1 0 C1 9.24 1 18.48 1 28 C97.69 28 194.38 28 294 28 C294.33 27.34 294.66 26.68 295 26 C295 26.66 295 27.32 295 28 C304.24 28 313.48 28 323 28 C323 46.48 323 64.96 323 84 C310.46 84 297.92 84 285 84 C285 79.38 285 74.76 285 70 C288.3 70 291.6 70 295 70 C295 60.76 295 51.52 295 42 C193.36 42 91.72 42 -13 42 C-13 37.38 -13 32.76 -13 28 C-8.71 28 -4.42 28 0 28 C0 18.76 0 9.52 0 0 Z " fill="#DF9086" transform="translate(115,299)"/>
<path d="M0 0 C1.98 0 3.96 0 6 0 C6 3.3 6 6.6 6 10 C9.96 10 13.92 10 18 10 C18 14.62 18 19.24 18 24 C130.2 24 242.4 24 358 24 C358 19.38 358 14.76 358 10 C362.29 10 366.58 10 371 10 C371 6.7 371 3.4 371 0 C372.98 0 374.96 0 377 0 C377.83343135 3.22954649 378.14284811 6.36579132 378.25 9.6875 C378.27578125 10.45449219 378.3015625 11.22148437 378.328125 12.01171875 C378.16570312 12.99591797 378.16570312 12.99591797 378 14 C374.77208445 16.1519437 373.71599191 16.20086443 370 16 C370 18.97 370 21.94 370 25 C366.78548731 26.60725635 363.56387464 26.05748185 360 26 C360.03480469 26.84304688 360.06960938 27.68609375 360.10546875 28.5546875 C360.13253906 29.65039062 360.15960938 30.74609375 360.1875 31.875 C360.22230469 32.96554687 360.25710938 34.05609375 360.29296875 35.1796875 C360.19628906 36.11039062 360.09960938 37.04109375 360 38 C356.59450366 40.27033089 355.42404935 40.2497482 351.42862129 40.24888897 C349.67910563 40.25578716 349.67910563 40.25578716 347.89424622 40.26282471 C345.96310481 40.25510937 345.96310481 40.25510937 343.99295044 40.24723816 C342.61624017 40.2488256 341.23953068 40.25128856 339.86282337 40.25455457 C336.07109109 40.26098512 332.27946512 40.25488676 328.4877398 40.24679029 C324.40176562 40.24022599 320.31580357 40.24515903 316.22982788 40.24867249 C308.22142682 40.25372093 300.21306698 40.24806455 292.20467104 40.23882218 C282.8831995 40.2284503 273.56173693 40.22850806 264.24026071 40.22899476 C247.6095466 40.22949573 230.9788517 40.22032508 214.34814453 40.20581055 C198.20295868 40.191727 182.05778974 40.18463956 165.91259766 40.18530273 C164.42153565 40.18536267 164.42153565 40.18536267 162.90035118 40.18542381 C161.41189351 40.18548435 161.41189351 40.18548435 159.89336598 40.1855461 C141.52676081 40.18623581 123.16016284 40.18034603 104.79356001 40.17139288 C98.29317068 40.16837482 91.79278268 40.16731311 85.29239273 40.16686058 C77.3710084 40.16617871 69.44963621 40.16171776 61.52825703 40.15252777 C57.48518052 40.14790777 53.44211954 40.14486502 49.39904022 40.14612198 C45.69927226 40.14721643 41.99953865 40.14370214 38.29977785 40.13647345 C36.32426714 40.13379842 34.34875168 40.13602096 32.37324059 40.1384055 C31.20168132 40.13518106 30.03012205 40.13195661 28.82306099 40.12863445 C27.81197309 40.12793003 26.80088518 40.1272256 25.75915825 40.12649983 C23 40 23 40 18 39 C17.505 32.565 17.505 32.565 17 26 C14.75390625 26.09765625 12.5078125 26.1953125 10.26171875 26.29296875 C8 26 8 26 6.21875 24.75 C4.06903195 21.66322536 4.81989909 18.66205194 5 15 C3.824375 15.0928125 3.824375 15.0928125 2.625 15.1875 C1.325625 15.0946875 1.325625 15.0946875 0 15 C-2.47717167 11.28424249 -2.30345742 9.40013262 -2 5 C-1 2.0625 -1 2.0625 0 0 Z " fill="#8198A6" transform="translate(74,387)"/>
<path d="M0 0 C4.62 0 9.24 0 14 0 C14 4.62 14 9.24 14 14 C18.62 14 23.24 14 28 14 C28 42.38 28 70.76 28 100 C23.38 100 18.76 100 14 100 C14 113.86 14 127.72 14 142 C9.38 142 4.76 142 0 142 C0 132.76 0 123.52 0 114 C-14.85 114 -29.7 114 -45 114 C-45 104.43 -45 94.86 -45 85 C-70.41 85 -95.82 85 -122 85 C-122 80.38 -122 75.76 -122 71 C-96.59 71 -71.18 71 -45 71 C-44.505 77.435 -44.505 77.435 -44 84 C-39.71 84.33 -35.42 84.66 -31 85 C-30.505 92.92 -30.505 92.92 -30 101 C-29.67 100.67 -29.34 100.34 -29 100 C-27.58429877 99.91348389 -26.164405 99.89295096 -24.74609375 99.90234375 C-23.9770874 99.90484131 -23.20808105 99.90733887 -22.41577148 99.90991211 C-21.43294189 99.91901611 -20.4501123 99.92812012 -19.4375 99.9375 C-16.323125 99.958125 -13.20875 99.97875 -10 100 C-10 90.43 -10 80.86 -10 71 C-6.7 71 -3.4 71 0 71 C0 66.38 0 61.76 0 57 C4.29 57 8.58 57 13 57 C13 43.14 13 29.28 13 15 C8.71 15 4.42 15 0 15 C0 10.05 0 5.1 0 0 Z " fill="#825E42" transform="translate(410,185)"/>
<path d="M0 0 C4.62 0 9.24 0 14 0 C14 4.95 14 9.9 14 15 C9.71 15 5.42 15 1 15 C1.020625 17.124375 1.04125 19.24875 1.0625 21.4375 C1.08373783 23.62499611 1.07258946 25.81360547 1 28 C0.67 28.33 0.34 28.66 0 29 C-4.29 29 -8.58 29 -13 29 C-13 56.72 -13 84.44 -13 113 C-8.71 113 -4.42 113 0 113 C0 108.38 0 103.76 0 99 C4.62 99 9.24 99 14 99 C14 103.95 14 108.9 14 114 C9.71 114 5.42 114 1 114 C1.0103125 116.00320313 1.020625 118.00640625 1.03125 120.0703125 C1.03125 127.68032715 0.79773333 135.27072971 0.5 142.875 C0.42845703 144.78345703 0.42845703 144.78345703 0.35546875 146.73046875 C0.23930589 149.82040085 0.11999168 152.91021422 0 156 C-4.29 156 -8.58 156 -13 156 C-13 179.1 -13 202.2 -13 226 C-13.33 226 -13.66 226 -14 226 C-14 221.38 -14 216.76 -14 212 C-18.62 212 -23.24 212 -28 212 C-28 193.52 -28 175.04 -28 156 C-23.38 156 -18.76 156 -14 156 C-14 142.14 -14 128.28 -14 114 C-18.62 114 -23.24 114 -28 114 C-28 85.62 -28 57.24 -28 28 C-23.38 28 -18.76 28 -14 28 C-14 23.38 -14 18.76 -14 14 C-9.38 14 -4.76 14 0 14 C0 9.38 0 4.76 0 0 Z " fill="#A57D66" transform="translate(115,171)"/>
<path d="M0 0 C16.5 0 33 0 50 0 C50 9.24 50 18.48 50 28 C54.62 28 59.24 28 64 28 C64 32.62 64 37.24 64 42 C37.93 42 11.86 42 -15 42 C-15 37.38 -15 32.76 -15 28 C-10.05 28 -5.1 28 0 28 C0 18.76 0 9.52 0 0 Z " fill="#F2AAB1" transform="translate(315,157)"/>
<path d="M0 0 C4.29 0 8.58 0 13 0 C13 13.86 13 27.72 13 42 C25.21 42 37.42 42 50 42 C50 46.62 50 51.24 50 56 C33.5 56 17 56 0 56 C0 60.62 0 65.24 0 70 C-6.93 70 -13.86 70 -21 70 C-21 65.38 -21 60.76 -21 56 C-11.1 55.505 -11.1 55.505 -1 55 C-0.67 36.85 -0.34 18.7 0 0 Z " fill="#602C6F" transform="translate(315,101)"/>
<path d="M0 0 C25.41 0 50.82 0 77 0 C77.495 6.435 77.495 6.435 78 13 C82.29 13.33 86.58 13.66 91 14 C91 23.24 91 32.48 91 42 C86.38 42 81.76 42 77 42 C77 32.76 77 23.52 77 14 C51.59 14 26.18 14 0 14 C0 9.38 0 4.76 0 0 Z " fill="#785032" transform="translate(288,256)"/>
<path d="M0 0 C16.5 0 33 0 50 0 C50 9.57 50 19.14 50 29 C33.5 29 17 29 0 29 C0 19.43 0 9.86 0 0 Z " fill="#F1A8B0" transform="translate(156,171)"/>
<path d="M0 0 C4.29 0 8.58 0 13 0 C13.33 4.29 13.66 8.58 14 13 C42.71 13.33 71.42 13.66 101 14 C101 18.62 101 23.24 101 28 C71.96 28 42.92 28 13 28 C13 23.38 13 18.76 13 14 C8.71 14 4.42 14 0 14 C0 9.38 0 4.76 0 0 Z " fill="#602B72" transform="translate(193,157)"/>
<path d="M0 0 C4.62 0 9.24 0 14 0 C14 4.62 14 9.24 14 14 C27.2 14 40.4 14 54 14 C54 18.29 54 22.58 54 27 C40.8 27 27.6 27 14 27 C14 31.62 14 36.24 14 41 C9.38 41 4.76 41 0 41 C0 36.71 0 32.42 0 28 C-4.29 28 -8.58 28 -13 28 C-13 23.38 -13 18.76 -13 14 C-8.71 14 -4.42 14 0 14 C0 9.38 0 4.76 0 0 Z " fill="#602C71" transform="translate(260,73)"/>
<path d="M0 0 C6.6 0 13.2 0 20 0 C15.9419981 2.7053346 12.49840187 2.42431991 7.71484375 2.65625 C4.85483144 2.73671388 4.85483144 2.73671388 3 5 C2.53513282 8.12196336 2.53513282 8.12196336 2.375 11.625 C2.30023438 12.81351563 2.22546875 14.00203125 2.1484375 15.2265625 C2.07496094 16.59941406 2.07496094 16.59941406 2 18 C1.34 18 0.68 18 0 18 C0 21.63 0 25.26 0 29 C-36.63 28.505 -36.63 28.505 -74 28 C-74 23.71 -74 19.42 -74 15 C-78.62 15 -83.24 15 -88 15 C-88 14.67 -88 14.34 -88 14 C-58.96 14 -29.92 14 0 14 C0 9.38 0 4.76 0 0 Z " fill="#D1708E" transform="translate(294,171)"/>
<path d="M0 0 C4.29 0 8.58 0 13 0 C13 27.72 13 55.44 13 84 C8.71 84 4.42 84 0 84 C0 56.28 0 28.56 0 0 Z " fill="#613213" transform="translate(88,200)"/>
<path d="M0 0 C4.29 0 8.58 0 13 0 C13 27.72 13 55.44 13 84 C8.71 84 4.42 84 0 84 C0 56.28 0 28.56 0 0 Z " fill="#613314" transform="translate(424,200)"/>
<path d="M0 0 C4.62 0 9.24 0 14 0 C14.02463956 7.81453214 14.04283105 15.62904188 14.05493164 23.44360352 C14.05997383 26.10441481 14.06680736 28.76522332 14.07543945 31.42602539 C14.08751009 35.24105516 14.09322929 39.05604844 14.09765625 42.87109375 C14.10281754 44.06899033 14.10797882 45.2668869 14.11329651 46.50108337 C14.11337204 47.6021492 14.11344757 48.70321503 14.11352539 49.83764648 C14.115746 50.81249496 14.11796661 51.78734344 14.12025452 52.79173279 C14 55 14 55 13 56 C10.40640678 56.08851529 7.83960309 56.11525945 5.24609375 56.09765625 C4.47064713 56.0962413 3.6952005 56.09482635 2.89625549 56.09336853 C0.40996506 56.08775345 -2.0762366 56.07519846 -4.5625 56.0625 C-6.24413933 56.05748694 -7.92578006 56.0529237 -9.60742188 56.04882812 C-13.73831566 56.03777913 -17.86914276 56.02050445 -22 56 C-22 51.38 -22 46.76 -22 42 C-14.74 42 -7.48 42 0 42 C0 28.14 0 14.28 0 0 Z " fill="#602D6F" transform="translate(179,101)"/>
<path d="M0 0 C25.41 0 50.82 0 77 0 C77 4.62 77 9.24 77 14 C51.59 14 26.18 14 0 14 C0 9.38 0 4.76 0 0 Z " fill="#D69A6F" transform="translate(288,270)"/>
<path d="M0 0 C4.29 0 8.58 0 13 0 C13 9.24 13 18.48 13 28 C6.4 28 -0.2 28 -7 28 C-7 32.62 -7 37.24 -7 42 C-13.6 42 -20.2 42 -27 42 C-27 37.38 -27 32.76 -27 28 C-22.38 28 -17.76 28 -13 28 C-13 23.38 -13 18.76 -13 14 C-8.71 14 -4.42 14 0 14 C0 9.38 0 4.76 0 0 Z " fill="#9057B5" transform="translate(301,129)"/>
<path d="M0 0 C4.29 0 8.58 0 13 0 C13 4.62 13 9.24 13 14 C16.96 14 20.92 14 25 14 C25 18.62 25 23.24 25 28 C27.31 28 29.62 28 32 28 C32 32.62 32 37.24 32 42 C29.02077407 42.02683987 26.04178705 42.04676037 23.0625 42.0625 C21.78729492 42.07506836 21.78729492 42.07506836 20.48632812 42.08789062 C19.67744141 42.09111328 18.86855469 42.09433594 18.03515625 42.09765625 C17.2862915 42.10289307 16.53742676 42.10812988 15.76586914 42.11352539 C14 42 14 42 13 41 C12.85606543 36.66469082 12.95787939 32.33842269 13 28 C8.71 28 4.42 28 0 28 C0 32.62 0 37.24 0 42 C-0.33 42 -0.66 42 -1 42 C-1.21127444 27.98546201 -0.5693692 14.00038195 0 0 Z " fill="#9458B7" transform="translate(193,129)"/>
<path d="M0 0 C8.91 0 17.82 0 27 0 C27 4.95 27 9.9 27 15 C22.71 15 18.42 15 14 15 C14.020625 17.124375 14.04125 19.24875 14.0625 21.4375 C14.08373783 23.62499611 14.07258946 25.81360547 14 28 C13 29 13 29 10.40795898 29.11352539 C9.28204346 29.10828857 8.15612793 29.10305176 6.99609375 29.09765625 C5.78115234 29.09443359 4.56621094 29.09121094 3.31445312 29.08789062 C2.03505859 29.07951172 0.75566406 29.07113281 -0.5625 29.0625 C-1.84576172 29.05798828 -3.12902344 29.05347656 -4.45117188 29.04882812 C-7.6341342 29.03699555 -10.81707274 29.01905944 -14 29 C-14 24.38 -14 19.76 -14 15 C-9.38 15 -4.76 15 0 15 C0 10.05 0 5.1 0 0 Z " fill="#7B5334" transform="translate(179,270)"/>
<path d="M0 0 C4.62 0 9.24 0 14 0 C14 18.48 14 36.96 14 56 C9.38 56 4.76 56 0 56 C0 37.52 0 19.04 0 0 Z " fill="#613213" transform="translate(424,327)"/>
<path d="M0 0 C4.62 0 9.24 0 14 0 C14 18.48 14 36.96 14 56 C9.38 56 4.76 56 0 56 C0 37.52 0 19.04 0 0 Z " fill="#613212" transform="translate(87,327)"/>
<path d="M0 0 C4.29 0 8.58 0 13 0 C13 18.48 13 36.96 13 56 C8.71 56 4.42 56 0 56 C0 37.52 0 19.04 0 0 Z " fill="#BC8064" transform="translate(102,228)"/>
<path d="M0 0 C1.98 0 3.96 0 6 0 C6.83343135 3.22954649 7.14284811 6.36579132 7.25 9.6875 C7.27578125 10.45449219 7.3015625 11.22148437 7.328125 12.01171875 C7.16570312 12.99591797 7.16570312 12.99591797 7 14 C3.77208445 16.1519437 2.71599191 16.20086443 -1 16 C-1 18.97 -1 21.94 -1 25 C-4.21451269 26.60725635 -7.43612536 26.05748185 -11 26 C-11 29.96 -11 33.92 -11 38 C-13 34 -13 34 -13 25 C-125.2 25 -237.4 25 -353 25 C-353 24.67 -353 24.34 -353 24 C-240.8 24 -128.6 24 -13 24 C-13 19.38 -13 14.76 -13 10 C-8.71 10 -4.42 10 0 10 C0 6.7 0 3.4 0 0 Z " fill="#C8D4D9" transform="translate(445,387)"/>
<path d="M0 0 C4.62 0 9.24 0 14 0 C14 4.62 14 9.24 14 14 C18.29 14 22.58 14 27 14 C27 18.95 27 23.9 27 29 C22.68745917 29.02682299 18.37508293 29.04675244 14.0625 29.0625 C12.83080078 29.07087891 11.59910156 29.07925781 10.33007812 29.08789062 C9.16025391 29.09111328 7.99042969 29.09433594 6.78515625 29.09765625 C5.15912476 29.10551147 5.15912476 29.10551147 3.50024414 29.11352539 C1 29 1 29 0 28 C-0.08767112 25.92737924 -0.10695873 23.85179706 -0.09765625 21.77734375 C-0.09443359 20.51728516 -0.09121094 19.25722656 -0.08789062 17.95898438 C-0.07953403 16.61848891 -0.07106907 15.27799412 -0.0625 13.9375 C-0.0574866 12.59310058 -0.05292342 11.2486994 -0.04882812 9.90429688 C-0.03699497 6.60284567 -0.01905886 3.3014174 0 0 Z " fill="#C284CC" transform="translate(233,114)"/>
<path d="M0 0 C8.91 0 17.82 0 27 0 C27 4.29 27 8.58 27 13 C23.37 13 19.74 13 16 13 C16 17.62 16 22.24 16 27 C10.72 27 5.44 27 0 27 C0 18.09 0 9.18 0 0 Z " fill="#CC8AD0" transform="translate(206,87)"/>
<path d="M0 0 C8.25 0 16.5 0 25 0 C25 7.26 25 14.52 25 22 C16.75 22 8.5 22 0 22 C0 14.74 0 7.48 0 0 Z " fill="#612F71" transform="translate(274,50)"/>
<path d="M0 0 C4.29 0 8.58 0 13 0 C13 13.86 13 27.72 13 42 C8.71 42 4.42 42 0 42 C0 28.14 0 14.28 0 0 Z " fill="#633314" transform="translate(410,285)"/>
<path d="M0 0 C4.29 0 8.58 0 13 0 C13 13.86 13 27.72 13 42 C8.71 42 4.42 42 0 42 C0 28.14 0 14.28 0 0 Z " fill="#623314" transform="translate(102,285)"/>
<path d="M0 0 C0.33 0 0.66 0 1 0 C1 4.62 1 9.24 1 14 C12.55 14 24.1 14 36 14 C36 18.62 36 23.24 36 28 C24.12 28 12.24 28 0 28 C0 18.76 0 9.52 0 0 Z " fill="#DD8D8D" transform="translate(156,143)"/>
<path d="M0 0 C12.21 0 24.42 0 37 0 C37 4.62 37 9.24 37 14 C24.79 14 12.58 14 0 14 C0 9.38 0 4.76 0 0 Z " fill="#5F3215" transform="translate(328,143)"/>
<path d="M0 0 C12.87 0 25.74 0 39 0 C39 4.29 39 8.58 39 13 C26.13 13 13.26 13 0 13 C0 8.71 0 4.42 0 0 Z " fill="#5F2B6F" transform="translate(207,73)"/>
<path d="M0 0 C4.62 0 9.24 0 14 0 C14 4.62 14 9.24 14 14 C18.62 14 23.24 14 28 14 C28 42.38 28 70.76 28 100 C23.38 100 18.76 100 14 100 C14 113.86 14 127.72 14 142 C13.67 142 13.34 142 13 142 C13 128.14 13 114.28 13 100 C8.71 100 4.42 100 0 100 C0 99.67 0 99.34 0 99 C5.94 98.505 5.94 98.505 12 98 C12.33 70.61 12.66 43.22 13 15 C8.71 15 4.42 15 0 15 C0 10.05 0 5.1 0 0 Z M14 15 C14 42.72 14 70.44 14 99 C18.29 99 22.58 99 27 99 C27 71.28 27 43.56 27 15 C22.71 15 18.42 15 14 15 Z " fill="#8A6B55" transform="translate(410,185)"/>
<path d="M0 0 C10.23 0 20.46 0 31 0 C31 8.25 31 16.5 31 25 C30.67 25 30.34 25 30 25 C30 21.37 30 17.74 30 14 C20.1 14 10.2 14 0 14 C0 9.38 0 4.76 0 0 Z " fill="#D89D71" transform="translate(379,299)"/>
<path d="M0 0 C8.91 0 17.82 0 27 0 C27 4.95 27 9.9 27 15 C18.09 15 9.18 15 0 15 C0 10.05 0 5.1 0 0 Z " fill="#D59B71" transform="translate(206,270)"/>
<path d="M0 0 C9.24 0 18.48 0 28 0 C28 4.62 28 9.24 28 14 C18.76 14 9.52 14 0 14 C0 9.38 0 4.76 0 0 Z " fill="#613215" transform="translate(365,157)"/>
<path d="M0 0 C8.91 0 17.82 0 27 0 C27 4.62 27 9.24 27 14 C18.09 14 9.18 14 0 14 C0 9.38 0 4.76 0 0 Z " fill="#795031" transform="translate(206,256)"/>
<path d="M0 0 C8.91 0 17.82 0 27 0 C27 4.62 27 9.24 27 14 C18.09 14 9.18 14 0 14 C0 9.38 0 4.76 0 0 Z " fill="#633215" transform="translate(129,157)"/>
<path d="M0 0 C8.91 0 17.82 0 27 0 C27 4.29 27 8.58 27 13 C18.09 13 9.18 13 0 13 C0 8.71 0 4.42 0 0 Z " fill="#754C2D" transform="translate(247,285)"/>
<path d="M0 0 C1.98 0 3.96 0 6 0 C6 3.3 6 6.6 6 10 C9.96 10 13.92 10 18 10 C18 16.6 18 23.2 18 30 C17.67 28.68 17.34 27.36 17 26 C16.07767578 26.05220703 16.07767578 26.05220703 15.13671875 26.10546875 C14.32847656 26.13253906 13.52023438 26.15960938 12.6875 26.1875 C11.48673828 26.23970703 11.48673828 26.23970703 10.26171875 26.29296875 C8 26 8 26 6.21875 24.75 C4.06903195 21.66322536 4.81989909 18.66205194 5 15 C3.824375 15.0928125 3.824375 15.0928125 2.625 15.1875 C1.325625 15.0946875 1.325625 15.0946875 0 15 C-2.47717167 11.28424249 -2.30345742 9.40013262 -2 5 C-1 2.0625 -1 2.0625 0 0 Z " fill="#90A2AD" transform="translate(74,387)"/>
<path d="M0 0 C7.26 0 14.52 0 22 0 C22 4.62 22 9.24 22 14 C14.74 14 7.48 14 0 14 C0 9.38 0 4.76 0 0 Z " fill="#D59A70" transform="translate(129,270)"/>
<path d="M0 0 C7.26 0 14.52 0 22 0 C22 4.62 22 9.24 22 14 C14.74 14 7.48 14 0 14 C0 9.38 0 4.76 0 0 Z " fill="#785032" transform="translate(129,256)"/>
<path d="M0 0 C7.26 0 14.52 0 22 0 C22.09765625 10.05859375 22.09765625 10.05859375 22 13 C21 14 21 14 18.95874023 14.11352539 C18.08419189 14.10828857 17.20964355 14.10305176 16.30859375 14.09765625 C15.36435547 14.09443359 14.42011719 14.09121094 13.44726562 14.08789062 C12.45404297 14.07951172 11.46082031 14.07113281 10.4375 14.0625 C9.44041016 14.05798828 8.44332031 14.05347656 7.41601562 14.04882812 C4.94398513 14.03700023 2.47198528 14.01906415 0 14 C0 9.38 0 4.76 0 0 Z " fill="#5F3214" transform="translate(157,143)"/>
<path d="M0 0 C1.98 0 3.96 0 6 0 C6.83343135 3.22954649 7.14284811 6.36579132 7.25 9.6875 C7.27578125 10.45449219 7.3015625 11.22148437 7.328125 12.01171875 C7.21984375 12.66785156 7.1115625 13.32398438 7 14 C3.77208445 16.1519437 2.71599191 16.20086443 -1 16 C-1 18.97 -1 21.94 -1 25 C-4.63 25 -8.26 25 -12 25 C-12 20.05 -12 15.1 -12 10 C-8.04 10 -4.08 10 0 10 C0 6.7 0 3.4 0 0 Z " fill="#8497A5" transform="translate(445,387)"/>
<path d="M0 0 C13.53 0 27.06 0 41 0 C41 4.62 41 9.24 41 14 C45.62 14 50.24 14 55 14 C55 27.86 55 41.72 55 56 C66.88 56 78.76 56 91 56 C91 56.33 91 56.66 91 57 C78.79 57 66.58 57 54 57 C54 43.14 54 29.28 54 15 C49.71 15 45.42 15 41 15 C41 33.15 41 51.3 41 70 C40.67 70 40.34 70 40 70 C40 51.85 40 33.7 40 15 C26.8 15 13.6 15 0 15 C0 14.67 0 14.34 0 14 C13.2 14 26.4 14 40 14 C40 9.71 40 5.42 40 1 C26.8 1 13.6 1 0 1 C0 0.67 0 0.34 0 0 Z " fill="#A17EA9" transform="translate(274,86)"/>
<path d="M0 0 C4.29 0 8.58 0 13 0 C13.77112541 4.72314313 14.09764874 9.21521178 14 14 C17.96 14 21.92 14 26 14 C26 9.71 26 5.42 26 1 C26.33 1 26.66 1 27 1 C27 5.62 27 10.24 27 15 C22.71 15 18.42 15 14 15 C14 19.62 14 24.24 14 29 C13.67 29 13.34 29 13 29 C13 24.38 13 19.76 13 15 C8.71 15 4.42 15 0 15 C0 10.05 0 5.1 0 0 Z " fill="#A46CC5" transform="translate(274,128)"/>
<path d="M0 0 C5.61 0 11.22 0 17 0 C17 4.62 17 9.24 17 14 C11.39 14 5.78 14 0 14 C0 9.38 0 4.76 0 0 Z " fill="#623318" transform="translate(393,171)"/>
<path d="M0 0 C5.28 0 10.56 0 16 0 C16 4.29 16 8.58 16 13 C10.72 13 5.44 13 0 13 C0 8.71 0 4.42 0 0 Z " fill="#F2B9F6" transform="translate(206,101)"/>
<path d="M0 0 C4.62 0 9.24 0 14 0 C14 4.62 14 9.24 14 14 C9.38 14 4.76 14 0 14 C0 9.38 0 4.76 0 0 Z " fill="#D99E73" transform="translate(274,285)"/>
<path d="M0 0 C4.62 0 9.24 0 14 0 C14 4.62 14 9.24 14 14 C9.38 14 4.76 14 0 14 C0 9.38 0 4.76 0 0 Z " fill="#D79D71" transform="translate(151,285)"/>
<path d="M0 0 C4.62 0 9.24 0 14 0 C14 4.62 14 9.24 14 14 C9.38 14 4.76 14 0 14 C0 9.38 0 4.76 0 0 Z " fill="#784E2E" transform="translate(233,270)"/>
<path d="M0 0 C4.62 0 9.24 0 14 0 C14 4.62 14 9.24 14 14 C9.38 14 4.76 14 0 14 C0 9.38 0 4.76 0 0 Z " fill="#795032" transform="translate(115,270)"/>
<path d="M0 0 C4.62 0 9.24 0 14 0 C14 4.62 14 9.24 14 14 C9.38 14 4.76 14 0 14 C0 9.38 0 4.76 0 0 Z " fill="#623115" transform="translate(115,171)"/>
<path d="M0 0 C3.35286458 0.03255208 6.70572917 0.06510417 10.05859375 0.09765625 C10.05859375 4.71765625 10.05859375 9.33765625 10.05859375 14.09765625 C5.43859375 14.09765625 0.81859375 14.09765625 -3.94140625 14.09765625 C-4.0390625 4.0390625 -4.0390625 4.0390625 -3.94140625 1.09765625 C-2.94140625 0.09765625 -2.94140625 0.09765625 0 0 Z " fill="#795132" transform="translate(154.94140625,269.90234375)"/>
<path d="M0 0 C4.29 0 8.58 0 13 0 C13 4.62 13 9.24 13 14 C8.38 14 3.76 14 -1 14 C-0.67 9.38 -0.34 4.76 0 0 Z " fill="#D89E72" transform="translate(193,285)"/>
<path d="M0 0 C4.29 0 8.58 0 13 0 C13 4.62 13 9.24 13 14 C8.71 14 4.42 14 0 14 C0 9.38 0 4.76 0 0 Z " fill="#D89C72" transform="translate(102,369)"/>
<path d="M0 0 C4.29 0 8.58 0 13 0 C13 4.62 13 9.24 13 14 C8.71 14 4.42 14 0 14 C0 9.38 0 4.76 0 0 Z " fill="#D89D71" transform="translate(116,285)"/>
<path d="M0 0 C4.29 0 8.58 0 13 0 C13 4.62 13 9.24 13 14 C8.71 14 4.42 14 0 14 C0 9.38 0 4.76 0 0 Z " fill="#E28E91" transform="translate(193,171)"/>
<path d="M0 0 C4.29 0 8.58 0 13 0 C13 4.62 13 9.24 13 14 C8.71 14 4.42 14 0 14 C0 9.38 0 4.76 0 0 Z " fill="#D47791" transform="translate(315,157)"/>
<path d="M0 0 C4.29 0 8.58 0 13 0 C13.09765625 10.05859375 13.09765625 10.05859375 13 13 C12 14 12 14 10.0390625 14.1328125 C9.24242187 14.13023437 8.44578125 14.12765625 7.625 14.125 C6.83351562 14.12757813 6.04203125 14.13015625 5.2265625 14.1328125 C3 14 3 14 0 13 C0 8.71 0 4.42 0 0 Z " fill="#D48CB9" transform="translate(233,115)"/>
<path d="M0 0 C0 4.95 0 9.9 0 15 C-10.05859375 14.4140625 -10.05859375 14.4140625 -13 14 C-14.76078549 10.47842901 -14.46830409 6.53713931 -13.3359375 2.8203125 C-12 1 -12 1 -9.43359375 0.390625 C-8.44488281 0.34421875 -7.45617187 0.2978125 -6.4375 0.25 C-5.44621094 0.19328125 -4.45492187 0.1365625 -3.43359375 0.078125 C-1 0 -1 0 0 0 Z " fill="#D58DB9" transform="translate(260,128)"/>
<path d="M0 0 C4.29 0 8.58 0 13 0 C13 4.29 13 8.58 13 13 C8.71 13 4.42 13 0 13 C0 8.71 0 4.42 0 0 Z " fill="#623217" transform="translate(102,186)"/>
<path d="M0 0 C4.29 0 8.58 0 13 0 C13 4.29 13 8.58 13 13 C8.71 13 4.42 13 0 13 C0 8.71 0 4.42 0 0 Z " fill="#623315" transform="translate(410,186)"/>
<path d="M0 0 C4.29 0 8.58 0 13 0 C13 4.29 13 8.58 13 13 C8.71 13 4.42 13 0 13 C0 8.71 0 4.42 0 0 Z " fill="#5D2C6D" transform="translate(193,87)"/>
<path d="M0 0 C3.09244792 0.03255208 6.18489583 0.06510417 9.27734375 0.09765625 C9.27734375 4.38765625 9.27734375 8.67765625 9.27734375 13.09765625 C4.98734375 13.09765625 0.69734375 13.09765625 -3.72265625 13.09765625 C-3.8203125 3.8203125 -3.8203125 3.8203125 -3.72265625 1.09765625 C-2.72265625 0.09765625 -2.72265625 0.09765625 0 0 Z " fill="#774E30" transform="translate(277.72265625,270.90234375)"/>
<path d="M0 0 C3.63 0 7.26 0 11 0 C11 4.62 11 9.24 11 14 C2.6015625 14.1953125 2.6015625 14.1953125 0 14 C-0.66 13.34 -1.32 12.68 -2 12 C-1.7578125 9.1796875 -1.7578125 9.1796875 -1.125 5.875 C-0.92132813 4.77929688 -0.71765625 3.68359375 -0.5078125 2.5546875 C-0.34023437 1.71164062 -0.17265625 0.86859375 0 0 Z " fill="#92A5AF" transform="translate(77,299)"/>
<path d="M0 0 C0.66 0 1.32 0 2 0 C2 3.96 2 7.92 2 12 C29.39 11.67 56.78 11.34 85 11 C85 7.37 85 3.74 85 0 C85.99 0 86.98 0 88 0 C88 4.29 88 8.58 88 13 C58.96 13 29.92 13 0 13 C0 8.71 0 4.42 0 0 Z " fill="#6B2961" transform="translate(206,172)"/>
<path d="M0 0 C4.62 0 9.24 0 14 0 C13.34 0.66 12.68 1.32 12 2 C8.7 2 5.4 2 2 2 C2 19.49 2 36.98 2 55 C4.31 55 6.62 55 9 55 C9.33 54.01 9.66 53.02 10 52 C10.66 52.66 11.32 53.32 12 54 C11.67 54.66 11.34 55.32 11 56 C7.37 56 3.74 56 0 56 C0 37.52 0 19.04 0 0 Z " fill="#725642" transform="translate(87,327)"/>
<path d="M0 0 C13.53 0 27.06 0 41 0 C41 4.62 41 9.24 41 14 C45.29 14 49.58 14 54 14 C54 14.33 54 14.66 54 15 C49.71 15 45.42 15 41 15 C41 19.29 41 23.58 41 28 C40.67 28 40.34 28 40 28 C40 23.71 40 19.42 40 15 C22.51 15 5.02 15 -13 15 C-13 14.67 -13 14.34 -13 14 C-8.71 14 -4.42 14 0 14 C0 9.38 0 4.76 0 0 Z M1 1 C1 5.29 1 9.58 1 14 C13.87 14 26.74 14 40 14 C40 9.71 40 5.42 40 1 C27.13 1 14.26 1 1 1 Z " fill="#9570A1" transform="translate(206,72)"/>
<path d="M0 0 C3.96 0 7.92 0 12 0 C12 18.48 12 36.96 12 56 C10.35 55.67 8.7 55.34 7 55 C6.67 54.34 6.34 53.68 6 53 C7.485 52.505 7.485 52.505 9 52 C9 35.5 9 19 9 2 C6.03 1.67 3.06 1.34 0 1 C0 0.67 0 0.34 0 0 Z " fill="#745844" transform="translate(426,327)"/>
<path d="M0 0 C1.98 0 3.96 0 6 0 C6.83343135 3.22954649 7.14284811 6.36579132 7.25 9.6875 C7.27578125 10.45449219 7.3015625 11.22148437 7.328125 12.01171875 C7.21984375 12.66785156 7.1115625 13.32398438 7 14 C3.77208445 16.1519437 2.71599191 16.20086443 -1 16 C-1 18.97 -1 21.94 -1 25 C-1.33 25 -1.66 25 -2 25 C-2.02705729 23.22925083 -2.04642195 21.45838289 -2.0625 19.6875 C-2.07410156 18.70136719 -2.08570313 17.71523438 -2.09765625 16.69921875 C-2 14 -2 14 -1 11 C-4.63 11 -8.26 11 -12 11 C-12 10.67 -12 10.34 -12 10 C-8.04 10 -4.08 10 0 10 C0 6.7 0 3.4 0 0 Z " fill="#97A7B0" transform="translate(445,387)"/>
<path d="M0 0 C2.97 0 5.94 0 9 0 C9 4.62 9 9.24 9 14 C6.03 14 3.06 14 0 14 C0 9.38 0 4.76 0 0 Z " fill="#889BA6" transform="translate(438,299)"/>
<path d="M0 0 C4.29 0 8.58 0 13 0 C8.97030584 2.01484708 7.32390204 2.09608671 3 2 C1.04776011 3.95223989 1.81556385 7.69781129 1.79467773 10.36547852 C1.78477814 11.13615662 1.77487854 11.90683472 1.76467896 12.7008667 C1.73297299 15.26018147 1.7082708 17.81951483 1.68359375 20.37890625 C1.66303206 22.14868159 1.64203581 23.91845194 1.62062073 25.68821716 C1.56531891 30.3554582 1.51594554 35.02274414 1.46777344 39.69006348 C1.41761747 44.44901546 1.36190066 49.20790191 1.30664062 53.96679688 C1.19895992 63.31114198 1.09753712 72.6555439 1 82 C4.96 82.33 8.92 82.66 13 83 C13 83.33 13 83.66 13 84 C8.71 84 4.42 84 0 84 C0 56.28 0 28.56 0 0 Z " fill="#55331E" transform="translate(88,200)"/>
<path d="M0 0 C1.98 0 3.96 0 6 0 C6 27.72 6 55.44 6 84 C1.71 84 -2.58 84 -7 84 C-7 83.67 -7 83.34 -7 83 C-2.545 82.505 -2.545 82.505 2 82 C3.8055313 77.34441097 4.26853489 73.41504608 4.31884766 68.43408203 C4.32889328 67.70168808 4.3389389 66.96929413 4.34928894 66.21470642 C4.37999009 63.81241587 4.39711931 61.41023609 4.4140625 59.0078125 C4.4327847 57.33485978 4.45235889 55.66191639 4.4727478 53.98898315 C4.52396398 49.59966551 4.5636458 45.21031728 4.60089111 40.82086182 C4.64099686 36.33622742 4.69205916 31.85171908 4.7421875 27.3671875 C4.83882223 18.57821128 4.92326663 9.7891724 5 1 C3.35 1 1.7 1 0 1 C0 0.67 0 0.34 0 0 Z " fill="#58361E" transform="translate(431,200)"/>
<path d="M0 0 C0.99 0.495 0.99 0.495 2 1 C2.33 6.61 2.66 12.22 3 18 C5.29308963 19.14654482 6.79909656 19.19729117 9.3515625 19.31640625 C10.11807129 19.35451416 10.88458008 19.39262207 11.67431641 19.43188477 C13.13490479 19.49653931 13.13490479 19.49653931 14.625 19.5625 C17.71875 19.706875 20.8125 19.85125 24 20 C23.505 10.1 23.505 10.1 23 0 C23.66 0 24.32 0 25 0 C25 6.93 25 13.86 25 21 C16.75 21 8.5 21 0 21 C0 14.07 0 7.14 0 0 Z " fill="#51305E" transform="translate(274,51)"/>
<path d="M0 0 C1.98 0 3.96 0 6 0 C5.01 3.96 4.02 7.92 3 12 C13.23 12 23.46 12 34 12 C34 12.33 34 12.66 34 13 C22.78 13 11.56 13 0 13 C0 8.71 0 4.42 0 0 Z " fill="#683428" transform="translate(328,144)"/>
<path d="M0 0 C0 0.33 0 0.66 0 1 C-12.09850279 1.97765679 -24.18178166 2.11134295 -36.3125 2.125 C-37.09638092 2.12749756 -37.88026184 2.12999512 -38.68789673 2.13256836 C-40.95473585 2.13848924 -43.22144042 2.13695369 -45.48828125 2.1328125 C-46.17104126 2.13479645 -46.85380127 2.1367804 -47.55725098 2.13882446 C-51.16316432 2.12136775 -54.4925724 1.84933981 -58 1 C-58 0.67 -58 0.34 -58 0 C-38.57638546 -0.90547717 -19.43157642 -0.99898872 0 0 Z " fill="#A6B5BB" transform="translate(150,425)"/>
<path d="M0 0 C0.75732422 0.04833984 1.51464844 0.09667969 2.29492188 0.14648438 C3.08060547 0.20255859 3.86628906 0.25863281 4.67578125 0.31640625 C5.47306641 0.36861328 6.27035156 0.42082031 7.09179688 0.47460938 C9.05764647 0.60409647 11.0230179 0.74080666 12.98828125 0.87890625 C12.98828125 1.53890625 12.98828125 2.19890625 12.98828125 2.87890625 C7.5988803 2.90378806 2.20951345 2.92185176 -3.17993164 2.93383789 C-5.0100157 2.93883944 -6.84009582 2.94564281 -8.67016602 2.9543457 C-11.31397479 2.96659557 -13.95773033 2.97217648 -16.6015625 2.9765625 C-17.40818832 2.98172379 -18.21481415 2.98688507 -19.04588318 2.99220276 C-24.44115284 2.99272512 -29.65795495 2.55485109 -35.01171875 1.87890625 C-35.01171875 1.54890625 -35.01171875 1.21890625 -35.01171875 0.87890625 C-34.17922607 0.88414307 -33.3467334 0.88937988 -32.48901367 0.89477539 C-29.3972194 0.9118285 -26.30544911 0.9243619 -23.21362305 0.93383789 C-21.21857107 0.94133354 -19.22354089 0.9540397 -17.22851562 0.96679688 C-15.97490234 0.97001953 -14.72128906 0.97324219 -13.4296875 0.9765625 C-12.27235107 0.98179932 -11.11501465 0.98703613 -9.92260742 0.99243164 C-6.39778587 0.85496271 -3.56104732 -0.24097313 0 0 Z " fill="#A5B0B9" transform="translate(282.01171875,424.12109375)"/>
<path d="M0 0 C6.6 0 13.2 0 20 0 C15.9419981 2.7053346 12.49840187 2.42431991 7.71484375 2.65625 C4.85483144 2.73671388 4.85483144 2.73671388 3 5 C2.53513282 8.12196336 2.53513282 8.12196336 2.375 11.625 C2.30023438 12.81351563 2.22546875 14.00203125 2.1484375 15.2265625 C2.09945313 16.14179688 2.05046875 17.05703125 2 18 C1.34 17.67 0.68 17.34 0 17 C0 11.39 0 5.78 0 0 Z " fill="#D1829B" transform="translate(294,171)"/>
<path d="M0 0 C1.65 0 3.3 0 5 0 C5.33 3.63 5.66 7.26 6 11 C4.35 11.33 2.7 11.66 1 12 C-0.26237731 9.47524538 -0.09856404 7.68799534 -0.0625 4.875 C-0.05347656 3.96492188 -0.04445313 3.05484375 -0.03515625 2.1171875 C-0.02355469 1.41851562 -0.01195313 0.71984375 0 0 Z " fill="#8397A2" transform="translate(74,388)"/>
<path d="M0 0 C8.58 0 17.16 0 26 0 C25.67 0.66 25.34 1.32 25 2 C24.44014404 1.98952637 23.88028809 1.97905273 23.3034668 1.96826172 C20.76485693 1.92666674 18.2263188 1.90066315 15.6875 1.875 C14.80642578 1.85824219 13.92535156 1.84148437 13.01757812 1.82421875 C11.74624023 1.81455078 11.74624023 1.81455078 10.44921875 1.8046875 C9.66893311 1.79421387 8.88864746 1.78374023 8.0847168 1.77294922 C5.6934152 1.87119141 5.6934152 1.87119141 3 4 C2.20201782 6.41607417 2.20201782 6.41607417 1.8125 9.125 C1.65394531 10.03507813 1.49539062 10.94515625 1.33203125 11.8828125 C1.22246094 12.58148438 1.11289063 13.28015625 1 14 C0.67 14 0.34 14 0 14 C0 9.38 0 4.76 0 0 Z " fill="#563822" transform="translate(129,157)"/>
<path d="M0 0 C4.29 0 8.58 0 13 0 C13 4.62 13 9.24 13 14 C12.34 14 11.68 14 11 14 C11 10.7 11 7.4 11 4 C10.01 4 9.02 4 8 4 C8 3.34 8 2.68 8 2 C5.69 2 3.38 2 1 2 C0.67 1.34 0.34 0.68 0 0 Z " fill="#D78FA0" transform="translate(193,171)"/>
<path d="M0 0 C4.29 0 8.58 0 13 0 C13 0.99 13 1.98 13 3 C10.03 3 7.06 3 4 3 C3.01 5.97 2.02 8.94 1 12 C0.67 12 0.34 12 0 12 C0 8.04 0 4.08 0 0 Z " fill="#5A3268" transform="translate(261,73)"/>
<path d="M0 0 C4.62 0 9.24 0 14 0 C9.93274566 2.7115029 6.8452389 2.57867488 2 3 C2 6.3 2 9.6 2 13 C1.01 13.495 1.01 13.495 0 14 C0 9.38 0 4.76 0 0 Z " fill="#604330" transform="translate(115,171)"/>
<path d="M0 0 C0.02685938 2.14576637 0.04633088 4.29162645 0.0625 6.4375 C0.07410156 7.63246094 0.08570313 8.82742187 0.09765625 10.05859375 C0 13 0 13 -1 14 C-2.56172745 14.08685603 -4.12729344 14.10702219 -5.69140625 14.09765625 C-6.63564453 14.09443359 -7.57988281 14.09121094 -8.55273438 14.08789062 C-9.54595703 14.07951172 -10.53917969 14.07113281 -11.5625 14.0625 C-12.55958984 14.05798828 -13.55667969 14.05347656 -14.58398438 14.04882812 C-17.05604849 14.03700007 -19.52799518 14.02051849 -22 14 C-22 13.67 -22 13.34 -22 13 C-15.73 13 -9.46 13 -3 13 C-2.67 9.37 -2.34 5.74 -2 2 C-2.66 1.67 -3.32 1.34 -4 1 C-1 0 -1 0 0 0 Z " fill="#68342B" transform="translate(179,143)"/>
<path d="M0 0 C0.33 0 0.66 0 1 0 C0.67 5.94 0.34 11.88 0 18 C-1.32 18 -2.64 18 -4 18 C-4 14.7 -4 11.4 -4 8 C-3.01 8 -2.02 8 -1 8 C-0.67 5.36 -0.34 2.72 0 0 Z " fill="#CDCFD1" transform="translate(451,294)"/>
<path d="M0 0 C4.29 0 8.58 0 13 0 C13.09765625 10.05859375 13.09765625 10.05859375 13 13 C12 14 12 14 9.93359375 14.09765625 C9.10988281 14.08605469 8.28617188 14.07445312 7.4375 14.0625 C6.61121094 14.05347656 5.78492188 14.04445312 4.93359375 14.03515625 C4.29550781 14.02355469 3.65742188 14.01195312 3 14 C3 13.67 3 13.34 3 13 C5.64 12.67 8.28 12.34 11 12 C11.33 8.37 11.66 4.74 12 1 C6.68074678 1.05754492 6.68074678 1.05754492 2 3 C1.76924918 4.34747084 1.58846937 5.70377565 1.4375 7.0625 C1.293125 8.361875 1.14875 9.66125 1 11 C0.67 11 0.34 11 0 11 C0 7.37 0 3.74 0 0 Z " fill="#CE8CC5" transform="translate(233,115)"/>
<path d="M0 0 C0.99 0 1.98 0 3 0 C3 2.97 3 5.94 3 9 C6.3 9.33 9.6 9.66 13 10 C13 11.65 13 13.3 13 15 C12.67 13.68 12.34 12.36 12 11 C11.38511719 11.03480469 10.77023438 11.06960938 10.13671875 11.10546875 C8.92435547 11.14607422 8.92435547 11.14607422 7.6875 11.1875 C6.48673828 11.23970703 6.48673828 11.23970703 5.26171875 11.29296875 C3 11 3 11 1.21875 9.75 C-0.93096805 6.66322536 -0.18010091 3.66205194 0 0 Z " fill="#BCC5CB" transform="translate(79,402)"/>
<path d="M0 0 C4.29 0 8.58 0 13 0 C13 4.29 13 8.58 13 13 C11.68 12.67 10.36 12.34 9 12 C9.66 11.01 10.32 10.02 11 9 C11.16699232 5.87478167 11.16699232 5.87478167 11 3 C7.0186217 1.6728739 3.14954773 1.93084087 -1 2 C-0.67 1.34 -0.34 0.68 0 0 Z " fill="#592F66" transform="translate(233,73)"/>
<path d="M0 0 C0.98613281 0.20882812 1.97226563 0.41765625 2.98828125 0.6328125 C3.98214844 0.83648437 4.97601563 1.04015625 6 1.25 C6.75925781 1.41757813 7.51851562 1.58515625 8.30078125 1.7578125 C8.30078125 2.0878125 8.30078125 2.4178125 8.30078125 2.7578125 C4.01078125 2.7578125 -0.27921875 2.7578125 -4.69921875 2.7578125 C-4.69921875 7.3778125 -4.69921875 11.9978125 -4.69921875 16.7578125 C-5.02921875 16.7578125 -5.35921875 16.7578125 -5.69921875 16.7578125 C-5.77998838 14.29882595 -5.83959018 11.84247508 -5.88671875 9.3828125 C-5.91185547 8.68414062 -5.93699219 7.98546875 -5.96289062 7.265625 C-5.9921875 5.234375 -5.9921875 5.234375 -5.69921875 1.7578125 C-2.69921875 -0.2421875 -2.69921875 -0.2421875 0 0 Z " fill="#965A9C" transform="translate(197.69921875,154.2421875)"/>
<path d="M0 0 C5.61 0 11.22 0 17 0 C17 0.33 17 0.66 17 1 C15.35 1 13.7 1 12 1 C12 1.66 12 2.32 12 3 C8.04 3 4.08 3 0 3 C0 2.01 0 1.02 0 0 Z " fill="#5C3F29" transform="translate(393,171)"/>
<path d="M0 0 C0.33 0 0.66 0 1 0 C1 4.95 1 9.9 1 15 C-3.29 14.67 -7.58 14.34 -12 14 C-11.67 13.34 -11.34 12.68 -11 12 C-9.72125 12.04125 -8.4425 12.0825 -7.125 12.125 C-4.98128508 12.24212873 -4.98128508 12.24212873 -3 12 C-0.78376056 10.21847324 -0.78376056 10.21847324 -0.83984375 7.87109375 C-0.87207031 7.06800781 -0.90429688 6.26492187 -0.9375 5.4375 C-0.99190191 3.95918728 -1.02026267 2.47917459 -1 1 C-0.67 0.67 -0.34 0.34 0 0 Z " fill="#CF8DC6" transform="translate(259,128)"/>
<path d="M0 0 C1.65 0 3.3 0 5 0 C5 4.62 5 9.24 5 14 C4.34 13.67 3.68 13.34 3 13 C3 9.7 3 6.4 3 3 C2.34 3 1.68 3 1 3 C0.67 2.01 0.34 1.02 0 0 Z " fill="#654834" transform="translate(388,157)"/>
<path d="M0 0 C0.75732422 0.04833984 1.51464844 0.09667969 2.29492188 0.14648438 C3.08060547 0.20255859 3.86628906 0.25863281 4.67578125 0.31640625 C5.47306641 0.36861328 6.27035156 0.42082031 7.09179688 0.47460938 C9.05764647 0.60409647 11.0230179 0.74080666 12.98828125 0.87890625 C12.98828125 1.53890625 12.98828125 2.19890625 12.98828125 2.87890625 C10.02970716 2.93269851 7.07210404 2.97247718 4.11328125 3.00390625 C2.85064453 3.02904297 2.85064453 3.02904297 1.5625 3.0546875 C0.75683594 3.06113281 -0.04882812 3.06757813 -0.87890625 3.07421875 C-1.62253418 3.08469238 -2.36616211 3.09516602 -3.13232422 3.10595703 C-5.01171875 2.87890625 -5.01171875 2.87890625 -7.01171875 0.87890625 C-4.18726283 -0.06257906 -2.87000257 -0.1942107 0 0 Z " fill="#A9BAC0" transform="translate(282.01171875,424.12109375)"/>
<path d="M0 0 C0.33 0 0.66 0 1 0 C1 4.62 1 9.24 1 14 C0.34 13.67 -0.32 13.34 -1 13 C-2.99960012 12.960008 -5.00047242 12.95653201 -7 13 C-6.38125 12.7525 -5.7625 12.505 -5.125 12.25 C-2.51395104 10.71408885 -1.99900981 9.84333561 -1 7 C-0.61250787 4.67504723 -0.27017161 2.34148732 0 0 Z " fill="#6B4832" transform="translate(423,383)"/>
<path d="M0 0 C2.05078125 0.03255208 4.1015625 0.06510417 6.15234375 0.09765625 C6.15234375 0.42765625 6.15234375 0.75765625 6.15234375 1.09765625 C4.48171875 1.40703125 4.48171875 1.40703125 2.77734375 1.72265625 C-1.1136482 2.71393926 -1.1136482 2.71393926 -2.28515625 6.22265625 C-2.47078125 7.17140625 -2.65640625 8.12015625 -2.84765625 9.09765625 C-3.17765625 9.09765625 -3.50765625 9.09765625 -3.84765625 9.09765625 C-2.85356362 0.1508226 -2.85356362 0.1508226 0 0 Z " fill="#D18BC4" transform="translate(249.84765625,128.90234375)"/>
<path d="M0 0 C2.97 0 5.94 0 9 0 C5 2 5 2 2 3 C1.26676204 5.01508358 1.26676204 5.01508358 1 7 C0.67 4.69 0.34 2.38 0 0 Z " fill="#593164" transform="translate(179,101)"/>
<path d="M0 0 C1.32 0 2.64 0 4 0 C4 1.32 4 2.64 4 4 C2.02 4 0.04 4 -2 4 C-1.34 2.68 -0.68 1.36 0 0 Z " fill="#D79D74" transform="translate(419,379)"/>
</svg>
