<?xml version="1.0" encoding="UTF-8"?>
<svg version="1.1" xmlns="http://www.w3.org/2000/svg" width="537" height="465">
<path d="M0 0 C1.16781006 0.00523682 2.33562012 0.01047363 3.53881836 0.01586914 C4.79887695 0.0190918 6.05893555 0.02231445 7.35717773 0.02563477 C8.6976732 0.03399136 10.03816799 0.04245632 11.37866211 0.05102539 C12.72306153 0.05603879 14.06746271 0.06060197 15.41186523 0.06469727 C18.71331644 0.07653042 22.01474471 0.09446653 25.31616211 0.11352539 C25.31616211 4.73352539 25.31616211 9.35352539 25.31616211 14.11352539 C29.93616211 14.11352539 34.55616211 14.11352539 39.31616211 14.11352539 C39.31616211 18.73352539 39.31616211 23.35352539 39.31616211 28.11352539 C43.93616211 28.11352539 48.55616211 28.11352539 53.31616211 28.11352539 C53.31616211 32.40352539 53.31616211 36.69352539 53.31616211 41.11352539 C57.60616211 41.11352539 61.89616211 41.11352539 66.31616211 41.11352539 C66.31616211 45.73352539 66.31616211 50.35352539 66.31616211 55.11352539 C106.57616211 55.11352539 146.83616211 55.11352539 188.31616211 55.11352539 C188.31616211 50.49352539 188.31616211 45.87352539 188.31616211 41.11352539 C192.93616211 41.11352539 197.55616211 41.11352539 202.31616211 41.11352539 C202.31616211 36.82352539 202.31616211 32.53352539 202.31616211 28.11352539 C206.60616211 28.11352539 210.89616211 28.11352539 215.31616211 28.11352539 C215.31616211 23.49352539 215.31616211 18.87352539 215.31616211 14.11352539 C219.93616211 14.11352539 224.55616211 14.11352539 229.31616211 14.11352539 C229.31616211 9.49352539 229.31616211 4.87352539 229.31616211 0.11352539 C238.55616211 0.11352539 247.79616211 0.11352539 257.31616211 0.11352539 C257.31616211 4.73352539 257.31616211 9.35352539 257.31616211 14.11352539 C261.93616211 14.11352539 266.55616211 14.11352539 271.31616211 14.11352539 C271.31616211 18.73352539 271.31616211 23.35352539 271.31616211 28.11352539 C275.93616211 28.11352539 280.55616211 28.11352539 285.31616211 28.11352539 C285.31616211 55.50352539 285.31616211 82.89352539 285.31616211 111.11352539 C289.93616211 111.11352539 294.55616211 111.11352539 299.31616211 111.11352539 C299.31616211 119.69352539 299.31616211 128.27352539 299.31616211 137.11352539 C303.60616211 137.11352539 307.89616211 137.11352539 312.31616211 137.11352539 C312.31616211 150.64352539 312.31616211 164.17352539 312.31616211 178.11352539 C316.27616211 178.11352539 320.23616211 178.11352539 324.31616211 178.11352539 C324.97616211 178.44352539 325.63616211 178.77352539 326.31616211 179.11352539 C326.31616211 206.83352539 326.31616211 234.55352539 326.31616211 263.11352539 C321.69616211 263.11352539 317.07616211 263.11352539 312.31616211 263.11352539 C312.31616211 272.35352539 312.31616211 281.59352539 312.31616211 291.11352539 C308.02616211 291.11352539 303.73616211 291.11352539 299.31616211 291.11352539 C299.34709961 294.30008789 299.34709961 294.30008789 299.37866211 297.55102539 C299.39989994 299.7385215 299.38875157 301.92713086 299.31616211 304.11352539 C298.31616211 305.11352539 298.31616211 305.11352539 295.37475586 305.21118164 C293.58231445 305.1937793 293.58231445 305.1937793 291.75366211 305.17602539 C290.55612305 305.16700195 289.35858398 305.15797852 288.12475586 305.14868164 C287.19791992 305.13708008 286.27108398 305.12547852 285.31616211 305.11352539 C285.33356445 306.5037793 285.33356445 306.5037793 285.35131836 307.92211914 C285.36485352 309.71842773 285.36485352 309.71842773 285.37866211 311.55102539 C285.39026367 312.74598633 285.40186523 313.94094727 285.41381836 315.17211914 C285.31616211 318.11352539 285.31616211 318.11352539 284.31616211 319.11352539 C282.31651229 319.20110542 280.31380101 319.22049115 278.31225586 319.21118164 C277.09731445 319.20795898 275.88237305 319.20473633 274.63061523 319.20141602 C272.71152344 319.18884766 272.71152344 319.18884766 270.75366211 319.17602539 C269.47040039 319.17151367 268.18713867 319.16700195 266.86499023 319.16235352 C263.68202791 319.15052094 260.49908937 319.13258484 257.31616211 319.11352539 C257.31616211 323.73352539 257.31616211 328.35352539 257.31616211 333.11352539 C248.73616211 333.11352539 240.15616211 333.11352539 231.31616211 333.11352539 C231.31616211 337.40352539 231.31616211 341.69352539 231.31616211 346.11352539 C230.31616211 347.11352539 230.31616211 347.11352539 227.37475586 347.21118164 C225.58231445 347.1937793 225.58231445 347.1937793 223.75366211 347.17602539 C222.55612305 347.16700195 221.35858398 347.15797852 220.12475586 347.14868164 C219.19791992 347.13708008 218.27108398 347.12547852 217.31616211 347.11352539 C217.31838272 347.75023666 217.32060333 348.38694794 217.32289124 349.04295349 C217.34494251 355.64467815 217.36006804 362.24639243 217.37109375 368.84814453 C217.37613567 371.31494573 217.38296901 373.78174391 217.39160156 376.24853516 C217.40367336 379.78557068 217.40939167 383.32256684 217.41381836 386.85961914 C217.41897964 387.9700206 217.42414093 389.08042206 217.42945862 390.22447205 C217.42957191 391.75594627 217.42957191 391.75594627 217.4296875 393.31835938 C217.43190811 394.22214828 217.43412872 395.12593719 217.43641663 396.05711365 C217.31616211 398.11352539 217.31616211 398.11352539 216.31616211 399.11352539 C211.98085293 399.25745996 207.65458479 399.155646 203.31616211 399.11352539 C203.31616211 403.73352539 203.31616211 408.35352539 203.31616211 413.11352539 C199.10263031 413.13669081 194.8893264 413.15653955 190.67578125 413.16845703 C189.24738815 413.17343401 187.81899999 413.18021801 186.390625 413.18896484 C177.97223429 413.23916219 169.69679177 413.0398439 161.31616211 412.11352539 C161.31616211 407.82352539 161.31616211 403.53352539 161.31616211 399.11352539 C158.12959961 399.14446289 158.12959961 399.14446289 154.87866211 399.17602539 C152.691166 399.19726322 150.50255664 399.18611485 148.31616211 399.11352539 C147.98616211 398.78352539 147.65616211 398.45352539 147.31616211 398.11352539 C147.31616211 393.82352539 147.31616211 389.53352539 147.31616211 385.11352539 C134.44616211 385.11352539 121.57616211 385.11352539 108.31616211 385.11352539 C108.31616211 389.40352539 108.31616211 393.69352539 108.31616211 398.11352539 C107.31616211 399.11352539 107.31616211 399.11352539 104.37475586 399.21118164 C102.58231445 399.1937793 102.58231445 399.1937793 100.75366211 399.17602539 C98.95735352 399.16249023 98.95735352 399.16249023 97.12475586 399.14868164 C96.19791992 399.13708008 95.27108398 399.12547852 94.31616211 399.11352539 C94.33356445 400.5037793 94.33356445 400.5037793 94.35131836 401.92211914 C94.3603418 403.1196582 94.36936523 404.31719727 94.37866211 405.55102539 C94.39026367 406.74598633 94.40186523 407.94094727 94.41381836 409.17211914 C94.31616211 412.11352539 94.31616211 412.11352539 93.31616211 413.11352539 C90.38249243 413.21465352 87.47286038 413.25321579 84.53881836 413.24633789 C83.65713486 413.24729462 82.77545135 413.24825134 81.86705017 413.24923706 C79.99828012 413.24991898 78.12950772 413.2480639 76.26074219 413.24389648 C73.39439583 413.23855471 70.52820664 413.24383781 67.66186523 413.25024414 C65.85001593 413.24958324 64.03816672 413.24830182 62.22631836 413.24633789 C61.36482681 413.24836212 60.50333527 413.25038635 59.61573792 413.25247192 C53.54607089 413.22847978 53.54607089 413.22847978 51.31616211 412.11352539 C51.31616211 407.82352539 51.31616211 403.53352539 51.31616211 399.11352539 C47.02616211 398.78352539 42.73616211 398.45352539 38.31616211 398.11352539 C38.31616211 381.28352539 38.31616211 364.45352539 38.31616211 347.11352539 C34.02616211 347.11352539 29.73616211 347.11352539 25.31616211 347.11352539 C24.31616211 346.11352539 24.31616211 346.11352539 24.21850586 343.17211914 C24.23010742 341.9771582 24.24170898 340.78219727 24.25366211 339.55102539 C24.26268555 338.35348633 24.27170898 337.15594727 24.28100586 335.92211914 C24.29260742 334.9952832 24.30420898 334.06844727 24.31616211 333.11352539 C23.0971521 333.12138062 23.0971521 333.12138062 21.85351562 333.12939453 C18.19523889 333.15009533 14.53697444 333.16316342 10.87866211 333.17602539 C9.59926758 333.1844043 8.31987305 333.1927832 7.00170898 333.20141602 C5.17929688 333.20625 5.17929688 333.20625 3.32006836 333.21118164 C2.19415283 333.21641846 1.0682373 333.22165527 -0.09179688 333.22705078 C-2.68383789 333.11352539 -2.68383789 333.11352539 -3.68383789 332.11352539 C-3.68383789 327.82352539 -3.68383789 323.53352539 -3.68383789 319.11352539 C-12.26383789 319.11352539 -20.84383789 319.11352539 -29.68383789 319.11352539 C-29.68383789 314.49352539 -29.68383789 309.87352539 -29.68383789 305.11352539 C-34.30383789 305.11352539 -38.92383789 305.11352539 -43.68383789 305.11352539 C-43.68383789 300.49352539 -43.68383789 295.87352539 -43.68383789 291.11352539 C-48.30383789 291.11352539 -52.92383789 291.11352539 -57.68383789 291.11352539 C-57.68383789 281.87352539 -57.68383789 272.63352539 -57.68383789 263.11352539 C-62.30383789 263.11352539 -66.92383789 263.11352539 -71.68383789 263.11352539 C-71.70696087 252.17856068 -71.72475274 241.24360173 -71.73565006 230.30861759 C-71.74087899 225.23161521 -71.74797681 220.1546295 -71.75927734 215.07763672 C-71.77010588 210.18231987 -71.77611465 205.2870191 -71.77871513 200.39169121 C-71.78056944 198.51969588 -71.78419017 196.64770148 -71.78956795 194.77571297 C-71.79677794 192.1631184 -71.79782885 189.55059112 -71.79736328 186.93798828 C-71.80095856 186.15612152 -71.80455383 185.37425476 -71.80825806 184.56869507 C-71.79789005 179.22757755 -71.79789005 179.22757755 -70.68383789 178.11352539 C-66.39383789 178.11352539 -62.10383789 178.11352539 -57.68383789 178.11352539 C-57.68383789 164.58352539 -57.68383789 151.05352539 -57.68383789 137.11352539 C-53.06383789 137.11352539 -48.44383789 137.11352539 -43.68383789 137.11352539 C-43.68383789 128.53352539 -43.68383789 119.95352539 -43.68383789 111.11352539 C-37.24883789 110.61852539 -37.24883789 110.61852539 -30.68383789 110.11352539 C-30.6860585 109.13046921 -30.68827911 108.14741302 -30.69056702 107.13456726 C-30.71082149 97.87904874 -30.72582118 88.62353471 -30.73565006 79.36799908 C-30.74087301 74.60941839 -30.74796004 69.85085556 -30.75927734 65.09228516 C-30.77012705 60.5017002 -30.77611917 55.91113245 -30.77871513 51.32053566 C-30.78056561 49.56741884 -30.78417903 47.81430298 -30.78956795 46.06119347 C-30.79680598 43.60945969 -30.79782766 41.15779739 -30.79736328 38.70605469 C-30.80095856 37.97813217 -30.80455383 37.25020966 -30.80825806 36.50022888 C-30.80193433 33.42342358 -30.66508676 31.05727201 -29.68383789 28.11352539 C-25.72383789 27.78352539 -21.76383789 27.45352539 -17.68383789 27.11352539 C-17.35383789 22.82352539 -17.02383789 18.53352539 -16.68383789 14.11352539 C-12.39383789 14.11352539 -8.10383789 14.11352539 -3.68383789 14.11352539 C-3.70446289 11.98915039 -3.72508789 9.86477539 -3.74633789 7.67602539 C-3.76757572 5.48852928 -3.75642735 3.29991992 -3.68383789 1.11352539 C-2.68383789 0.11352539 -2.68383789 0.11352539 0 0 Z " fill="#C69364" transform="translate(154.683837890625,27.886474609375)"/>
<path d="M0 0 C1.16781006 0.00523682 2.33562012 0.01047363 3.53881836 0.01586914 C4.79887695 0.0190918 6.05893555 0.02231445 7.35717773 0.02563477 C8.6976732 0.03399136 10.03816799 0.04245632 11.37866211 0.05102539 C12.72306153 0.05603879 14.06746271 0.06060197 15.41186523 0.06469727 C18.71331644 0.07653042 22.01474471 0.09446653 25.31616211 0.11352539 C25.31616211 4.73352539 25.31616211 9.35352539 25.31616211 14.11352539 C29.93616211 14.11352539 34.55616211 14.11352539 39.31616211 14.11352539 C39.31616211 18.73352539 39.31616211 23.35352539 39.31616211 28.11352539 C43.93616211 28.11352539 48.55616211 28.11352539 53.31616211 28.11352539 C53.31616211 32.40352539 53.31616211 36.69352539 53.31616211 41.11352539 C57.60616211 41.11352539 61.89616211 41.11352539 66.31616211 41.11352539 C66.31616211 46.06352539 66.31616211 51.01352539 66.31616211 56.11352539 C106.57616211 56.11352539 146.83616211 56.11352539 188.31616211 56.11352539 C188.31616211 60.73352539 188.31616211 65.35352539 188.31616211 70.11352539 C161.58616211 70.11352539 134.85616211 70.11352539 107.31616211 70.11352539 C107.31616211 74.40352539 107.31616211 78.69352539 107.31616211 83.11352539 C109.44053711 83.09290039 111.56491211 83.07227539 113.75366211 83.05102539 C115.94115822 83.02978756 118.12976758 83.04093593 120.31616211 83.11352539 C121.31616211 84.11352539 121.31616211 84.11352539 121.43641663 86.28382874 C121.43419601 87.24091232 121.4319754 88.19799591 121.4296875 89.18408203 C121.42961197 90.26512711 121.42953644 91.34617218 121.42945862 92.4599762 C121.42429733 93.63599899 121.41913605 94.81202179 121.41381836 96.02368164 C121.41169594 97.81943886 121.41169594 97.81943886 121.40953064 99.651474 C121.4039119 103.49301605 121.39135622 107.33450082 121.37866211 111.17602539 C121.37364952 113.77302976 121.3690862 116.37003504 121.36499023 118.96704102 C121.35393638 125.34922471 121.33665919 131.73136532 121.31616211 138.11352539 C116.69616211 138.11352539 112.07616211 138.11352539 107.31616211 138.11352539 C107.31616211 147.35352539 107.31616211 156.59352539 107.31616211 166.11352539 C102.69616211 166.11352539 98.07616211 166.11352539 93.31616211 166.11352539 C93.31616211 175.02352539 93.31616211 183.93352539 93.31616211 193.11352539 C88.69616211 193.11352539 84.07616211 193.11352539 79.31616211 193.11352539 C79.31616211 202.35352539 79.31616211 211.59352539 79.31616211 221.11352539 C75.02616211 221.11352539 70.73616211 221.11352539 66.31616211 221.11352539 C66.31616211 225.73352539 66.31616211 230.35352539 66.31616211 235.11352539 C57.07616211 235.11352539 47.83616211 235.11352539 38.31616211 235.11352539 C38.31616211 239.40352539 38.31616211 243.69352539 38.31616211 248.11352539 C15.87616211 248.11352539 -6.56383789 248.11352539 -29.68383789 248.11352539 C-29.68383789 243.82352539 -29.68383789 239.53352539 -29.68383789 235.11352539 C-38.59383789 235.11352539 -47.50383789 235.11352539 -56.68383789 235.11352539 C-56.68383789 244.02352539 -56.68383789 252.93352539 -56.68383789 262.11352539 C-47.77383789 262.11352539 -38.86383789 262.11352539 -29.68383789 262.11352539 C-29.68383789 271.35352539 -29.68383789 280.59352539 -29.68383789 290.11352539 C-25.06383789 290.11352539 -20.44383789 290.11352539 -15.68383789 290.11352539 C-15.68383789 294.73352539 -15.68383789 299.35352539 -15.68383789 304.11352539 C-11.39383789 304.11352539 -7.10383789 304.11352539 -2.68383789 304.11352539 C-2.68383789 308.73352539 -2.68383789 313.35352539 -2.68383789 318.11352539 C6.55616211 318.11352539 15.79616211 318.11352539 25.31616211 318.11352539 C25.31616211 313.49352539 25.31616211 308.87352539 25.31616211 304.11352539 C29.93616211 304.11352539 34.55616211 304.11352539 39.31616211 304.11352539 C39.31616211 308.73352539 39.31616211 313.35352539 39.31616211 318.11352539 C43.60616211 318.11352539 47.89616211 318.11352539 52.31616211 318.11352539 C52.31616211 316.46352539 52.31616211 314.81352539 52.31616211 313.11352539 C65.84616211 313.11352539 79.37616211 313.11352539 93.31616211 313.11352539 C93.31616211 317.73352539 93.31616211 322.35352539 93.31616211 327.11352539 C97.93616211 327.11352539 102.55616211 327.11352539 107.31616211 327.11352539 C107.31616211 328.76352539 107.31616211 330.41352539 107.31616211 332.11352539 C120.84616211 332.11352539 134.37616211 332.11352539 148.31616211 332.11352539 C148.31616211 330.46352539 148.31616211 328.81352539 148.31616211 327.11352539 C152.60616211 327.11352539 156.89616211 327.11352539 161.31616211 327.11352539 C161.31616211 322.49352539 161.31616211 317.87352539 161.31616211 313.11352539 C174.84616211 313.11352539 188.37616211 313.11352539 202.31616211 313.11352539 C202.31616211 317.73352539 202.31616211 322.35352539 202.31616211 327.11352539 C206.93616211 327.11352539 211.55616211 327.11352539 216.31616211 327.11352539 C216.31616211 328.76352539 216.31616211 330.41352539 216.31616211 332.11352539 C220.93616211 332.11352539 225.55616211 332.11352539 230.31616211 332.11352539 C230.31616211 337.06352539 230.31616211 342.01352539 230.31616211 347.11352539 C226.02616211 347.11352539 221.73616211 347.11352539 217.31616211 347.11352539 C217.32401733 349.42308228 217.32401733 349.42308228 217.33203125 351.77929688 C217.35007385 357.46890689 217.36159139 363.15851436 217.37109375 368.84814453 C217.37613567 371.31494573 217.38296901 373.78174391 217.39160156 376.24853516 C217.40367336 379.78557068 217.40939167 383.32256684 217.41381836 386.85961914 C217.41897964 387.9700206 217.42414093 389.08042206 217.42945862 390.22447205 C217.42957191 391.75594627 217.42957191 391.75594627 217.4296875 393.31835938 C217.43190811 394.22214828 217.43412872 395.12593719 217.43641663 396.05711365 C217.31616211 398.11352539 217.31616211 398.11352539 216.31616211 399.11352539 C211.98085293 399.25745996 207.65458479 399.155646 203.31616211 399.11352539 C203.31616211 403.73352539 203.31616211 408.35352539 203.31616211 413.11352539 C199.10263031 413.13669081 194.8893264 413.15653955 190.67578125 413.16845703 C189.24738815 413.17343401 187.81899999 413.18021801 186.390625 413.18896484 C177.97223429 413.23916219 169.69679177 413.0398439 161.31616211 412.11352539 C161.31616211 407.82352539 161.31616211 403.53352539 161.31616211 399.11352539 C158.12959961 399.14446289 158.12959961 399.14446289 154.87866211 399.17602539 C152.691166 399.19726322 150.50255664 399.18611485 148.31616211 399.11352539 C147.98616211 398.78352539 147.65616211 398.45352539 147.31616211 398.11352539 C147.31616211 393.82352539 147.31616211 389.53352539 147.31616211 385.11352539 C134.44616211 385.11352539 121.57616211 385.11352539 108.31616211 385.11352539 C108.31616211 389.40352539 108.31616211 393.69352539 108.31616211 398.11352539 C107.31616211 399.11352539 107.31616211 399.11352539 104.37475586 399.21118164 C102.58231445 399.1937793 102.58231445 399.1937793 100.75366211 399.17602539 C98.95735352 399.16249023 98.95735352 399.16249023 97.12475586 399.14868164 C96.19791992 399.13708008 95.27108398 399.12547852 94.31616211 399.11352539 C94.33356445 400.5037793 94.33356445 400.5037793 94.35131836 401.92211914 C94.3603418 403.1196582 94.36936523 404.31719727 94.37866211 405.55102539 C94.39026367 406.74598633 94.40186523 407.94094727 94.41381836 409.17211914 C94.31616211 412.11352539 94.31616211 412.11352539 93.31616211 413.11352539 C90.38249243 413.21465352 87.47286038 413.25321579 84.53881836 413.24633789 C83.65713486 413.24729462 82.77545135 413.24825134 81.86705017 413.24923706 C79.99828012 413.24991898 78.12950772 413.2480639 76.26074219 413.24389648 C73.39439583 413.23855471 70.52820664 413.24383781 67.66186523 413.25024414 C65.85001593 413.24958324 64.03816672 413.24830182 62.22631836 413.24633789 C61.36482681 413.24836212 60.50333527 413.25038635 59.61573792 413.25247192 C53.54607089 413.22847978 53.54607089 413.22847978 51.31616211 412.11352539 C51.31616211 407.82352539 51.31616211 403.53352539 51.31616211 399.11352539 C47.02616211 398.78352539 42.73616211 398.45352539 38.31616211 398.11352539 C38.31616211 381.28352539 38.31616211 364.45352539 38.31616211 347.11352539 C34.02616211 347.11352539 29.73616211 347.11352539 25.31616211 347.11352539 C24.31616211 346.11352539 24.31616211 346.11352539 24.21850586 343.17211914 C24.23010742 341.9771582 24.24170898 340.78219727 24.25366211 339.55102539 C24.26268555 338.35348633 24.27170898 337.15594727 24.28100586 335.92211914 C24.29260742 334.9952832 24.30420898 334.06844727 24.31616211 333.11352539 C23.0971521 333.12138062 23.0971521 333.12138062 21.85351562 333.12939453 C18.19523889 333.15009533 14.53697444 333.16316342 10.87866211 333.17602539 C9.59926758 333.1844043 8.31987305 333.1927832 7.00170898 333.20141602 C5.17929688 333.20625 5.17929688 333.20625 3.32006836 333.21118164 C2.19415283 333.21641846 1.0682373 333.22165527 -0.09179688 333.22705078 C-2.68383789 333.11352539 -2.68383789 333.11352539 -3.68383789 332.11352539 C-3.68383789 327.82352539 -3.68383789 323.53352539 -3.68383789 319.11352539 C-12.26383789 319.11352539 -20.84383789 319.11352539 -29.68383789 319.11352539 C-29.68383789 314.49352539 -29.68383789 309.87352539 -29.68383789 305.11352539 C-34.30383789 305.11352539 -38.92383789 305.11352539 -43.68383789 305.11352539 C-43.68383789 300.49352539 -43.68383789 295.87352539 -43.68383789 291.11352539 C-48.30383789 291.11352539 -52.92383789 291.11352539 -57.68383789 291.11352539 C-57.68383789 281.87352539 -57.68383789 272.63352539 -57.68383789 263.11352539 C-62.30383789 263.11352539 -66.92383789 263.11352539 -71.68383789 263.11352539 C-71.70696087 252.17856068 -71.72475274 241.24360173 -71.73565006 230.30861759 C-71.74087899 225.23161521 -71.74797681 220.1546295 -71.75927734 215.07763672 C-71.77010588 210.18231987 -71.77611465 205.2870191 -71.77871513 200.39169121 C-71.78056944 198.51969588 -71.78419017 196.64770148 -71.78956795 194.77571297 C-71.79677794 192.1631184 -71.79782885 189.55059112 -71.79736328 186.93798828 C-71.80095856 186.15612152 -71.80455383 185.37425476 -71.80825806 184.56869507 C-71.79789005 179.22757755 -71.79789005 179.22757755 -70.68383789 178.11352539 C-66.39383789 178.11352539 -62.10383789 178.11352539 -57.68383789 178.11352539 C-57.68383789 164.58352539 -57.68383789 151.05352539 -57.68383789 137.11352539 C-53.06383789 137.11352539 -48.44383789 137.11352539 -43.68383789 137.11352539 C-43.68383789 128.53352539 -43.68383789 119.95352539 -43.68383789 111.11352539 C-37.24883789 110.61852539 -37.24883789 110.61852539 -30.68383789 110.11352539 C-30.6860585 109.13046921 -30.68827911 108.14741302 -30.69056702 107.13456726 C-30.71082149 97.87904874 -30.72582118 88.62353471 -30.73565006 79.36799908 C-30.74087301 74.60941839 -30.74796004 69.85085556 -30.75927734 65.09228516 C-30.77012705 60.5017002 -30.77611917 55.91113245 -30.77871513 51.32053566 C-30.78056561 49.56741884 -30.78417903 47.81430298 -30.78956795 46.06119347 C-30.79680598 43.60945969 -30.79782766 41.15779739 -30.79736328 38.70605469 C-30.80095856 37.97813217 -30.80455383 37.25020966 -30.80825806 36.50022888 C-30.80193433 33.42342358 -30.66508676 31.05727201 -29.68383789 28.11352539 C-25.72383789 27.78352539 -21.76383789 27.45352539 -17.68383789 27.11352539 C-17.35383789 22.82352539 -17.02383789 18.53352539 -16.68383789 14.11352539 C-12.39383789 14.11352539 -8.10383789 14.11352539 -3.68383789 14.11352539 C-3.70446289 11.98915039 -3.72508789 9.86477539 -3.74633789 7.67602539 C-3.76757572 5.48852928 -3.75642735 3.29991992 -3.68383789 1.11352539 C-2.68383789 0.11352539 -2.68383789 0.11352539 0 0 Z " fill="#9B8066" transform="translate(154.683837890625,27.886474609375)"/>
<path d="M0 0 C13.53 0 27.06 0 41 0 C41 31.68 41 63.36 41 96 C45.29 96 49.58 96 54 96 C54 109.53 54 123.06 54 137 C58.62 137 63.24 137 68 137 C68 141.62 68 146.24 68 151 C72.29 151 76.58 151 81 151 C81 155.62 81 160.24 81 165 C90.24 165 99.48 165 109 165 C109 169.62 109 174.24 109 179 C127.15 179 145.3 179 164 179 C164 187.91 164 196.82 164 206 C159.38 206 154.76 206 150 206 C150 210.62 150 215.24 150 220 C145.38 220 140.76 220 136 220 C136 224.62 136 229.24 136 234 C127.09 234 118.18 234 109 234 C109 238.62 109 243.24 109 248 C104.71 248 100.42 248 96 248 C96 246.35 96 244.7 96 243 C82.14 243 68.28 243 54 243 C54 247.62 54 252.24 54 257 C49.71 257 45.42 257 41 257 C41 258.65 41 260.3 41 262 C27.47 262 13.94 262 0 262 C0 260.35 0 258.7 0 257 C-4.62 257 -9.24 257 -14 257 C-14 252.38 -14 247.76 -14 243 C-27.53 243 -41.06 243 -55 243 C-55 244.65 -55 246.3 -55 248 C-59.29 248 -63.58 248 -68 248 C-68 243.38 -68 238.76 -68 234 C-72.62 234 -77.24 234 -82 234 C-82 238.62 -82 243.24 -82 248 C-91.24 248 -100.48 248 -110 248 C-110 243.38 -110 238.76 -110 234 C-114.29 234 -118.58 234 -123 234 C-123 229.38 -123 224.76 -123 220 C-127.62 220 -132.24 220 -137 220 C-137 210.76 -137 201.52 -137 192 C-145.91 192 -154.82 192 -164 192 C-164 183.09 -164 174.18 -164 165 C-155.09 165 -146.18 165 -137 165 C-137 169.29 -137 173.58 -137 178 C-114.56 178 -92.12 178 -69 178 C-69 173.71 -69 169.42 -69 165 C-59.76 165 -50.52 165 -41 165 C-41 160.38 -41 155.76 -41 151 C-36.71 151 -32.42 151 -28 151 C-28 141.76 -28 132.52 -28 123 C-23.38 123 -18.76 123 -14 123 C-14 114.09 -14 105.18 -14 96 C-9.38 96 -4.76 96 0 96 C0 86.76 0 77.52 0 68 C4.62 68 9.24 68 14 68 C13.67 50.18 13.34 32.36 13 14 C6.565 13.505 6.565 13.505 0 13 C0 8.71 0 4.42 0 0 Z " fill="#ECDCBD" transform="translate(262,98)"/>
<path d="M0 0 C4.62 0 9.24 0 14 0 C14 0.33 14 0.66 14 1 C9.71 1 5.42 1 1 1 C1 14.86 1 28.72 1 43 C-3.29 43 -7.58 43 -12 43 C-12 70.06 -12 97.12 -12 125 C1.2 125 14.4 125 28 125 C28 134.24 28 143.48 28 153 C32.62 153 37.24 153 42 153 C42 157.62 42 162.24 42 167 C46.29 167 50.58 167 55 167 C55 171.62 55 176.24 55 181 C64.24 181 73.48 181 83 181 C83 176.38 83 171.76 83 167 C87.62 167 92.24 167 97 167 C97 171.62 97 176.24 97 181 C101.29 181 105.58 181 110 181 C110 179.35 110 177.7 110 176 C123.53 176 137.06 176 151 176 C151 180.62 151 185.24 151 190 C155.62 190 160.24 190 165 190 C165 191.65 165 193.3 165 195 C178.53 195 192.06 195 206 195 C206 193.35 206 191.7 206 190 C210.29 190 214.58 190 219 190 C219 185.38 219 180.76 219 176 C232.53 176 246.06 176 260 176 C260 180.62 260 185.24 260 190 C264.62 190 269.24 190 274 190 C274 191.65 274 193.3 274 195 C278.62 195 283.24 195 288 195 C288 199.95 288 204.9 288 210 C283.71 210 279.42 210 275 210 C275.00785522 212.30955688 275.00785522 212.30955688 275.01586914 214.66577148 C275.03391174 220.3553815 275.04542929 226.04498897 275.05493164 231.73461914 C275.05997356 234.20142033 275.06680691 236.66821852 275.07543945 239.13500977 C275.08751125 242.67204529 275.09322956 246.20904145 275.09765625 249.74609375 C275.10281754 250.85649521 275.10797882 251.96689667 275.11329651 253.11094666 C275.11340981 254.64242088 275.11340981 254.64242088 275.11352539 256.20483398 C275.115746 257.10862289 275.11796661 258.0124118 275.12025452 258.94358826 C275 261 275 261 274 262 C269.66469082 262.14393457 265.33842269 262.04212061 261 262 C261 266.62 261 271.24 261 276 C256.7864682 276.02316542 252.57316429 276.04301416 248.35961914 276.05493164 C246.93122604 276.05990862 245.50283788 276.06669262 244.07446289 276.07543945 C235.65607219 276.1256368 227.38062966 275.92631851 219 275 C219 270.71 219 266.42 219 262 C215.8134375 262.0309375 215.8134375 262.0309375 212.5625 262.0625 C210.37500389 262.08373783 208.18639453 262.07258946 206 262 C205.67 261.67 205.34 261.34 205 261 C205 256.71 205 252.42 205 248 C192.13 248 179.26 248 166 248 C166 252.29 166 256.58 166 261 C165 262 165 262 162.05859375 262.09765625 C160.26615234 262.08025391 160.26615234 262.08025391 158.4375 262.0625 C156.64119141 262.04896484 156.64119141 262.04896484 154.80859375 262.03515625 C153.88175781 262.02355469 152.95492187 262.01195312 152 262 C152.01740234 263.39025391 152.01740234 263.39025391 152.03515625 264.80859375 C152.04417969 266.00613281 152.05320313 267.20367187 152.0625 268.4375 C152.07410156 269.63246094 152.08570313 270.82742188 152.09765625 272.05859375 C152 275 152 275 151 276 C148.06633032 276.10112813 145.15669827 276.1396904 142.22265625 276.1328125 C141.34097275 276.13376923 140.45928925 276.13472595 139.55088806 276.13571167 C137.68211801 276.13639359 135.81334561 276.13453851 133.94458008 276.13037109 C131.07823372 276.12502932 128.21204453 276.13031242 125.34570312 276.13671875 C123.53385382 276.13605785 121.72200461 276.13477643 119.91015625 276.1328125 C119.0486647 276.13483673 118.18717316 276.13686096 117.29957581 276.13894653 C111.22990878 276.11495439 111.22990878 276.11495439 109 275 C109 270.71 109 266.42 109 262 C104.71 261.67 100.42 261.34 96 261 C96 244.17 96 227.34 96 210 C91.71 210 87.42 210 83 210 C82 209 82 209 81.90234375 206.05859375 C81.91394531 204.86363281 81.92554688 203.66867187 81.9375 202.4375 C81.94652344 201.23996094 81.95554687 200.04242188 81.96484375 198.80859375 C81.97644531 197.88175781 81.98804688 196.95492187 82 196 C81.18732666 196.00523682 80.37465332 196.01047363 79.53735352 196.01586914 C75.87907678 196.03656994 72.22081233 196.04963803 68.5625 196.0625 C67.28310547 196.07087891 66.00371094 196.07925781 64.68554688 196.08789062 C63.47060547 196.09111328 62.25566406 196.09433594 61.00390625 196.09765625 C59.31503296 196.10551147 59.31503296 196.10551147 57.59204102 196.11352539 C55 196 55 196 54 195 C54 190.71 54 186.42 54 182 C45.42 182 36.84 182 28 182 C28 177.38 28 172.76 28 168 C23.38 168 18.76 168 14 168 C14 163.38 14 158.76 14 154 C9.38 154 4.76 154 0 154 C0 144.76 0 135.52 0 126 C-4.62 126 -9.24 126 -14 126 C-14.02312297 115.06503529 -14.04091485 104.13007634 -14.05181217 93.1950922 C-14.0570411 88.11808982 -14.06413892 83.04110411 -14.07543945 77.96411133 C-14.08626799 73.06879448 -14.09227676 68.17349371 -14.09487724 63.27816582 C-14.09673155 61.40617049 -14.10035228 59.53417609 -14.10573006 57.66218758 C-14.11294004 55.04959301 -14.11399096 52.43706573 -14.11352539 49.82446289 C-14.11712067 49.04259613 -14.12071594 48.26072937 -14.12442017 47.45516968 C-14.11405216 42.11405216 -14.11405216 42.11405216 -13 41 C-8.71 41 -4.42 41 0 41 C0 27.47 0 13.94 0 0 Z " fill="#9162B4" transform="translate(97,165)"/>
<path d="M0 0 C4.29 0 8.58 0 13 0 C13 27.39 13 54.78 13 83 C17.62 83 22.24 83 27 83 C27 87.29 27 91.58 27 96 C22.38 96 17.76 96 13 96 C13 100.29 13 104.58 13 109 C8.71 109 4.42 109 0 109 C0 113.62 0 118.24 0 123 C-4.62 123 -9.24 123 -14 123 C-14 131.91 -14 140.82 -14 150 C-18.29 150 -22.58 150 -27 150 C-27 163.86 -27 177.72 -27 192 C-22.71 192 -18.42 192 -14 192 C-14 200.91 -14 209.82 -14 219 C-16.041875 219.165 -18.08375 219.33 -20.1875 219.5 C-21.33605469 219.5928125 -22.48460938 219.685625 -23.66796875 219.78125 C-29.43842045 220.0726344 -35.22219612 220 -41 220 C-41 228.91 -41 237.82 -41 247 C-45.29 247 -49.58 247 -54 247 C-54 219.94 -54 192.88 -54 165 C-49.71 165 -45.42 165 -41 165 C-41 151.14 -41 137.28 -41 123 C-36.71 123 -32.42 123 -28 123 C-28 114.09 -28 105.18 -28 96 C-21.565 95.505 -21.565 95.505 -15 95 C-15.00222061 94.01694382 -15.00444122 93.03388763 -15.00672913 92.02104187 C-15.0269836 82.76552335 -15.04198329 73.51000932 -15.05181217 64.25447369 C-15.05703512 59.495893 -15.06412215 54.73733017 -15.07543945 49.97875977 C-15.08628916 45.38817481 -15.09228128 40.79760706 -15.09487724 36.20701027 C-15.09672772 34.45389345 -15.10034114 32.70077759 -15.10573006 30.94766808 C-15.11296809 28.4959343 -15.11398977 26.044272 -15.11352539 23.5925293 C-15.11712067 22.86460678 -15.12071594 22.13668427 -15.12442017 21.38670349 C-15.11809644 18.30989819 -14.98124887 15.94374662 -14 13 C-9.38 13 -4.76 13 0 13 C0 8.71 0 4.42 0 0 Z " fill="#886954" transform="translate(139,43)"/>
<path d="M0 0 C4.62 0 9.24 0 14 0 C14 0.33 14 0.66 14 1 C9.71 1 5.42 1 1 1 C1 14.86 1 28.72 1 43 C-3.29 43 -7.58 43 -12 43 C-12 70.06 -12 97.12 -12 125 C1.2 125 14.4 125 28 125 C28 134.24 28 143.48 28 153 C32.62 153 37.24 153 42 153 C42 157.62 42 162.24 42 167 C46.29 167 50.58 167 55 167 C55 171.62 55 176.24 55 181 C64.24 181 73.48 181 83 181 C83 176.38 83 171.76 83 167 C87.62 167 92.24 167 97 167 C97 171.62 97 176.24 97 181 C101.29 181 105.58 181 110 181 C110 179.35 110 177.7 110 176 C123.53 176 137.06 176 151 176 C151 180.62 151 185.24 151 190 C137.47 190 123.94 190 110 190 C110 208.81 110 227.62 110 247 C123.53 247 137.06 247 151 247 C151 242.38 151 237.76 151 233 C146.71 233 142.42 233 138 233 C138 228.38 138 223.76 138 219 C146.58 219 155.16 219 164 219 C164 227.91 164 236.82 164 246 C162.02 246 160.04 246 158 246 C159.98 246.33 161.96 246.66 164 247 C164 251.62 164 256.24 164 261 C159.71 261 155.42 261 151 261 C151 265.95 151 270.9 151 276 C145.34000977 276.02467467 139.68005068 276.04284788 134.02001953 276.05493164 C132.09358169 276.05996787 130.16714769 276.06679712 128.24072266 276.07543945 C125.47557632 276.08753608 122.71048042 276.09323533 119.9453125 276.09765625 C118.6483696 276.10539818 118.6483696 276.10539818 117.32522583 276.11329651 C111.22774341 276.11387171 111.22774341 276.11387171 109 275 C109 270.71 109 266.42 109 262 C104.71 261.67 100.42 261.34 96 261 C96 244.17 96 227.34 96 210 C91.71 210 87.42 210 83 210 C82 209 82 209 81.90234375 206.05859375 C81.91394531 204.86363281 81.92554688 203.66867187 81.9375 202.4375 C81.94652344 201.23996094 81.95554687 200.04242188 81.96484375 198.80859375 C81.97644531 197.88175781 81.98804688 196.95492187 82 196 C81.18732666 196.00523682 80.37465332 196.01047363 79.53735352 196.01586914 C75.87907678 196.03656994 72.22081233 196.04963803 68.5625 196.0625 C67.28310547 196.07087891 66.00371094 196.07925781 64.68554688 196.08789062 C63.47060547 196.09111328 62.25566406 196.09433594 61.00390625 196.09765625 C59.31503296 196.10551147 59.31503296 196.10551147 57.59204102 196.11352539 C55 196 55 196 54 195 C54 190.71 54 186.42 54 182 C45.42 182 36.84 182 28 182 C28 177.38 28 172.76 28 168 C23.38 168 18.76 168 14 168 C14 163.38 14 158.76 14 154 C9.38 154 4.76 154 0 154 C0 144.76 0 135.52 0 126 C-4.62 126 -9.24 126 -14 126 C-14.02312297 115.06503529 -14.04091485 104.13007634 -14.05181217 93.1950922 C-14.0570411 88.11808982 -14.06413892 83.04110411 -14.07543945 77.96411133 C-14.08626799 73.06879448 -14.09227676 68.17349371 -14.09487724 63.27816582 C-14.09673155 61.40617049 -14.10035228 59.53417609 -14.10573006 57.66218758 C-14.11294004 55.04959301 -14.11399096 52.43706573 -14.11352539 49.82446289 C-14.11712067 49.04259613 -14.12071594 48.26072937 -14.12442017 47.45516968 C-14.11405216 42.11405216 -14.11405216 42.11405216 -13 41 C-8.71 41 -4.42 41 0 41 C0 27.47 0 13.94 0 0 Z " fill="#C5A386" transform="translate(97,165)"/>
<path d="M0 0 C4.95 0 9.9 0 15 0 C15 8.58 15 17.16 15 26 C19.29 26 23.58 26 28 26 C28 39.53 28 53.06 28 67 C31.96 67 35.92 67 40 67 C40.66 67.33 41.32 67.66 42 68 C42 95.72 42 123.44 42 152 C37.38 152 32.76 152 28 152 C28 161.24 28 170.48 28 180 C23.71 180 19.42 180 15 180 C15.020625 182.124375 15.04125 184.24875 15.0625 186.4375 C15.08373783 188.62499611 15.07258946 190.81360547 15 193 C14 194 14 194 11.05859375 194.09765625 C6.02929688 194.04882812 6.02929688 194.04882812 1 194 C1 198.29 1 202.58 1 207 C-8.24 207 -17.48 207 -27 207 C-27 202.38 -27 197.76 -27 193 C-18.09 193 -9.18 193 0 193 C0 179.14 0 165.28 0 151 C8.91 151 17.82 151 27 151 C27 123.94 27 96.88 27 69 C22.38 69 17.76 69 13 69 C13 64.05 13 59.1 13 54 C10.0609375 54.0309375 10.0609375 54.0309375 7.0625 54.0625 C5.04167124 54.08377188 3.01964199 54.07244053 1 54 C0 53 0 53 -0.12025452 50.86766052 C-0.11803391 49.92834183 -0.11581329 48.98902313 -0.11352539 48.02124023 C-0.11344986 46.96021591 -0.11337433 45.89919159 -0.11329651 44.80601501 C-0.10813522 43.651866 -0.10297394 42.49771698 -0.09765625 41.30859375 C-0.0962413 40.13361832 -0.09482635 38.95864288 -0.09336853 37.74806213 C-0.08774992 33.97784936 -0.07519426 30.20769496 -0.0625 26.4375 C-0.0574874 23.88867273 -0.05292408 21.33984453 -0.04882812 18.79101562 C-0.03777444 12.5273211 -0.02049734 6.26367046 0 0 Z " fill="#CEAF96" transform="translate(439,139)"/>
<path d="M0 0 C8.91 0 17.82 0 27 0 C27 8.91 27 17.82 27 27 C18.09 27 9.18 27 0 27 C0 40.86 0 54.72 0 69 C-8.91 69 -17.82 69 -27 69 C-27 73.62 -27 78.24 -27 83 C-18.09 83 -9.18 83 0 83 C0 83.33 0 83.66 0 84 C-8.91 84 -17.82 84 -27 84 C-27 88.62 -27 93.24 -27 98 C-35.58 98 -44.16 98 -53 98 C-53 102.29 -53 106.58 -53 111 C-53.33 111 -53.66 111 -54 111 C-54 106.38 -54 101.76 -54 97 C-58.62 97 -63.24 97 -68 97 C-68 95.35 -68 93.7 -68 92 C-72.62 92 -77.24 92 -82 92 C-82 87.38 -82 82.76 -82 78 C-81.67 78 -81.34 78 -81 78 C-81 79.65 -81 81.3 -81 83 C-76.71 83 -72.42 83 -68 83 C-68 78.38 -68 73.76 -68 69 C-59.09 69 -50.18 69 -41 69 C-41 64.38 -41 59.76 -41 55 C-36.38 55 -31.76 55 -27 55 C-27 50.38 -27 45.76 -27 41 C-22.38 41 -17.76 41 -13 41 C-13 32.09 -13 23.18 -13 14 C-31.15 14 -49.3 14 -68 14 C-68 13.67 -68 13.34 -68 13 C-45.56 13 -23.12 13 0 13 C0 8.71 0 4.42 0 0 Z " fill="#D8B38F" transform="translate(439,263)"/>
<path d="M0 0 C13.53 0 27.06 0 41 0 C41 4.62 41 9.24 41 14 C27.8 14 14.6 14 1 14 C1 18.95 1 23.9 1 29 C-3.62 29 -8.24 29 -13 29 C-13 42.86 -13 56.72 -13 71 C-19.579375 71.020625 -26.15875 71.04125 -32.9375 71.0625 C-35.01667725 71.071604 -37.09585449 71.08070801 -39.23803711 71.09008789 C-40.87613866 71.09300701 -42.51424094 71.09555558 -44.15234375 71.09765625 C-45.44017761 71.1053302 -45.44017761 71.1053302 -46.75402832 71.11315918 C-48.83636052 71.1134691 -50.9186036 71.06242176 -53 71 C-54 70 -54 70 -54.11352539 66.12280273 C-54.11336621 64.39305833 -54.10766849 62.66330919 -54.09765625 60.93359375 C-54.0962413 60.02497086 -54.09482635 59.11634796 -54.09336853 58.18019104 C-54.08775193 55.26592779 -54.07519665 52.35174019 -54.0625 49.4375 C-54.05748714 47.46679798 -54.05292386 45.49609476 -54.04882812 43.52539062 C-54.03777711 38.68356441 -54.02050138 33.84179505 -54 29 C-58.62 29 -63.24 29 -68 29 C-68 24.05 -68 19.1 -68 14 C-63.38 14 -58.76 14 -54 14 C-54 15.65 -54 17.3 -54 19 C-40.47 19 -26.94 19 -13 19 C-13 17.35 -13 15.7 -13 14 C-8.71 14 -4.42 14 0 14 C0 9.38 0 4.76 0 0 Z " fill="#63347A" transform="translate(316,341)"/>
<path d="M0 0 C4.29 0 8.58 0 13 0 C13 18.81 13 37.62 13 57 C26.53 57 40.06 57 54 57 C54 52.38 54 47.76 54 43 C49.71 43 45.42 43 41 43 C41 38.38 41 33.76 41 29 C49.58 29 58.16 29 67 29 C67 37.91 67 46.82 67 56 C65.02 56 63.04 56 61 56 C62.98 56.33 64.96 56.66 67 57 C67 61.62 67 66.24 67 71 C62.71 71 58.42 71 54 71 C54 75.95 54 80.9 54 86 C48.34000977 86.02467467 42.68005068 86.04284788 37.02001953 86.05493164 C35.09358169 86.05996787 33.16714769 86.06679712 31.24072266 86.07543945 C28.47557632 86.08753608 25.71048042 86.09323533 22.9453125 86.09765625 C21.6483696 86.10539818 21.6483696 86.10539818 20.32522583 86.11329651 C14.22774341 86.11387171 14.22774341 86.11387171 12 85 C12 80.71 12 76.42 12 72 C7.71 71.67 3.42 71.34 -1 71 C-1 54.17 -1 37.34 -1 20 C-5.29 20 -9.58 20 -14 20 C-14 15.05 -14 10.1 -14 5 C-9.38 5 -4.76 5 0 5 C0 3.35 0 1.7 0 0 Z " fill="#8D5EB2" transform="translate(194,355)"/>
<path d="M0 0 C13.53 0 27.06 0 41 0 C41 4.95 41 9.9 41 15 C45.62 15 50.24 15 55 15 C55.495 35.295 55.495 35.295 56 56 C75.8 56.495 75.8 56.495 96 57 C96 61.62 96 66.24 96 71 C95.67 71 95.34 71 95 71 C95 66.71 95 62.42 95 58 C82.13 58 69.26 58 56 58 C56 62.29 56 66.58 56 71 C55 72 55 72 52.05859375 72.09765625 C48.70572917 72.06510417 45.35286458 72.03255208 42 72 C42 76.29 42 80.58 42 85 C41.67 85 41.34 85 41 85 C41 80.38 41 75.76 41 71 C45.29 71 49.58 71 54 71 C54 66.38 54 61.76 54 57 C50.37 57 46.74 57 43 57 C43 56.67 43 56.34 43 56 C50.625 54.875 50.625 54.875 54 56 C54 47.09 54 38.18 54 29 C45.42 29 36.84 29 28 29 C28 33.62 28 38.24 28 43 C32.29 43 36.58 43 41 43 C41 47.62 41 52.24 41 57 C27.47 57 13.94 57 0 57 C0 38.19 0 19.38 0 0 Z " fill="#B187D5" transform="translate(207,355)"/>
<path d="M0 0 C8.91 0 17.82 0 27 0 C27 27.06 27 54.12 27 82 C13.47 82 -0.06 82 -14 82 C-14 77.71 -14 73.42 -14 69 C-9.38 69 -4.76 69 0 69 C0 46.23 0 23.46 0 0 Z " fill="#B27D53" transform="translate(412,57)"/>
<path d="M0 0 C8.91 0 17.82 0 27 0 C27 4.29 27 8.58 27 13 C49.44 13 71.88 13 95 13 C95 8.71 95 4.42 95 0 C95.33 0 95.66 0 96 0 C96 4.62 96 9.24 96 14 C77.85 14 59.7 14 41 14 C41 22.91 41 31.82 41 41 C45.29 41 49.58 41 54 41 C54 45.62 54 50.24 54 55 C58.62 55 63.24 55 68 55 C68 59.62 68 64.24 68 69 C72.62 69 77.24 69 82 69 C82 73.62 82 78.24 82 83 C72.76 83 63.52 83 54 83 C54 78.38 54 73.76 54 69 C49.71 69 45.42 69 41 69 C41 64.38 41 59.76 41 55 C36.38 55 31.76 55 27 55 C27 45.76 27 36.52 27 27 C18.09 27 9.18 27 0 27 C0 18.09 0 9.18 0 0 Z " fill="#D6B38F" transform="translate(98,263)"/>
<path d="M0 0 C13.2 0 26.4 0 40 0 C40 18.81 40 37.62 40 57 C26.47 57 12.94 57 -1 57 C-1 52.38 -1 47.76 -1 43 C3.62 43 8.24 43 13 43 C13 38.38 13 33.76 13 29 C4.09 29 -4.82 29 -14 29 C-14 24.38 -14 19.76 -14 15 C-9.38 15 -4.76 15 0 15 C0 10.05 0 5.1 0 0 Z " fill="#B287D5" transform="translate(317,355)"/>
<path d="M0 0 C9.24 0 18.48 0 28 0 C28 3.96 28 7.92 28 12 C27 13 27 13 24.05859375 13.09765625 C20.70572917 13.06510417 17.35286458 13.03255208 14 13 C14 17.62 14 22.24 14 27 C18.62 27 23.24 27 28 27 C28 22.71 28 18.42 28 14 C32.29 14 36.58 14 41 14 C41 22.91 41 31.82 41 41 C36.71 41 32.42 41 28 41 C28 45.62 28 50.24 28 55 C18.76 55 9.52 55 0 55 C0 50.38 0 45.76 0 41 C-4.62 41 -9.24 41 -14 41 C-14 31.76 -14 22.52 -14 13 C-9.38 13 -4.76 13 0 13 C0 8.71 0 4.42 0 0 Z " fill="#5B361C" transform="translate(357,194)"/>
<path d="M0 0 C8.91 0 17.82 0 27 0 C27 4.29 27 8.58 27 13 C22.38 13 17.76 13 13 13 C13 17.62 13 22.24 13 27 C17.62 27 22.24 27 27 27 C27 22.71 27 18.42 27 14 C31.29 14 35.58 14 40 14 C40 22.91 40 31.82 40 41 C35.71 41 31.42 41 27 41 C27 45.62 27 50.24 27 55 C18.09 55 9.18 55 0 55 C0 50.38 0 45.76 0 41 C-4.62 41 -9.24 41 -14 41 C-14 32.09 -14 23.18 -14 14 C-9.38 14 -4.76 14 0 14 C0 9.38 0 4.76 0 0 Z " fill="#58351D" transform="translate(180,194)"/>
<path d="M0 0 C40.26 0 80.52 0 122 0 C122 4.29 122 8.58 122 13 C81.74 13 41.48 13 0 13 C0 8.71 0 4.42 0 0 Z " fill="#59361F" transform="translate(221,85)"/>
<path d="M0 0 C4.62 0 9.24 0 14 0 C14 9.24 14 18.48 14 28 C22.91 28 31.82 28 41 28 C41 28.33 41 28.66 41 29 C32.09 29 23.18 29 14 29 C14 33.62 14 38.24 14 43 C5.42 43 -3.16 43 -12 43 C-12 47.29 -12 51.58 -12 56 C-12.33 56 -12.66 56 -13 56 C-13 51.38 -13 46.76 -13 42 C-17.62 42 -22.24 42 -27 42 C-27 40.35 -27 38.7 -27 37 C-31.62 37 -36.24 37 -41 37 C-41 32.38 -41 27.76 -41 23 C-40.67 23 -40.34 23 -40 23 C-40 24.65 -40 26.3 -40 28 C-35.71 28 -31.42 28 -27 28 C-27 23.38 -27 18.76 -27 14 C-18.09 14 -9.18 14 0 14 C0 9.38 0 4.76 0 0 Z " fill="#C49B7A" transform="translate(398,318)"/>
<path d="M0 0 C4.62 0 9.24 0 14 0 C14 4.62 14 9.24 14 14 C23.24 14 32.48 14 42 14 C42 9.71 42 5.42 42 1 C46.29 1 50.58 1 55 1 C55 5.29 55 9.58 55 14 C63.91 14 72.82 14 82 14 C82 9.38 82 4.76 82 0 C86.62 0 91.24 0 96 0 C96 4.95 96 9.9 96 15 C91.71 15 87.42 15 83 15 C83 19.29 83 23.58 83 28 C73.76 28 64.52 28 55 28 C55 23.71 55 19.42 55 15 C50.71 15 46.42 15 42 15 C42 19.29 42 23.58 42 28 C32.76 28 23.52 28 14 28 C14 23.71 14 19.42 14 15 C9.38 15 4.76 15 0 15 C0 10.05 0 5.1 0 0 Z " fill="#967D61" transform="translate(234,276)"/>
<path d="M0 0 C4.62 0 9.24 0 14 0 C14 4.62 14 9.24 14 14 C18.62 14 23.24 14 28 14 C28 18.62 28 23.24 28 28 C32.62 28 37.24 28 42 28 C42 32.62 42 37.24 42 42 C32.76 42 23.52 42 14 42 C14 46.29 14 50.58 14 55 C9.38 55 4.76 55 0 55 C0 36.85 0 18.7 0 0 Z " fill="#DC918A" transform="translate(152,70)"/>
<path d="M0 0 C4.62 0 9.24 0 14 0 C14 8.91 14 17.82 14 27 C18.29 27 22.58 27 27 27 C27 40.86 27 54.72 27 69 C22.38 69 17.76 69 13 69 C13 64.05 13 59.1 13 54 C10.0609375 54.0309375 10.0609375 54.0309375 7.0625 54.0625 C5.04167124 54.08377188 3.01964199 54.07244053 1 54 C0 53 0 53 -0.12025452 50.86766052 C-0.11803391 49.92834183 -0.11581329 48.98902313 -0.11352539 48.02124023 C-0.11344986 46.96021591 -0.11337433 45.89919159 -0.11329651 44.80601501 C-0.10813522 43.651866 -0.10297394 42.49771698 -0.09765625 41.30859375 C-0.0962413 40.13361832 -0.09482635 38.95864288 -0.09336853 37.74806213 C-0.08774992 33.97784936 -0.07519426 30.20769496 -0.0625 26.4375 C-0.0574874 23.88867273 -0.05292408 21.33984453 -0.04882812 18.79101562 C-0.03777444 12.5273211 -0.02049734 6.26367046 0 0 Z " fill="#AC7A53" transform="translate(439,139)"/>
<path d="M0 0 C0 18.15 0 36.3 0 55 C-4.62 55 -9.24 55 -14 55 C-14 50.71 -14 46.42 -14 42 C-22.91 42 -31.82 42 -41 42 C-41 37.38 -41 32.76 -41 28 C-36.38 28 -31.76 28 -27 28 C-27 23.71 -27 19.42 -27 15 C-20.565 14.505 -20.565 14.505 -14 14 C-13.67 9.71 -13.34 5.42 -13 1 C-8.60587331 0.48304392 -4.42613977 0 0 0 Z " fill="#DE9289" transform="translate(412,70)"/>
<path d="M0 0 C4.62 0 9.24 0 14 0 C14 1.65 14 3.3 14 5 C18.62 5 23.24 5 28 5 C28 9.95 28 14.9 28 20 C23.71 20 19.42 20 15 20 C15 36.83 15 53.66 15 71 C10.05 71 5.1 71 0 71 C0 47.57 0 24.14 0 0 Z " fill="#62337A" transform="translate(357,355)"/>
<path d="M0 0 C4.62 0 9.24 0 14 0 C14 27.06 14 54.12 14 82 C9.38 82 4.76 82 0 82 C-0.87775111 77.61124445 -1.12670769 74.02108551 -1.12939453 69.5793457 C-1.13114685 68.85031036 -1.13289917 68.12127502 -1.13470459 67.37014771 C-1.13908891 64.97200101 -1.13619811 62.57392863 -1.1328125 60.17578125 C-1.1334863 58.50620001 -1.13445697 56.83661887 -1.13571167 55.16703796 C-1.13718382 51.67441877 -1.13504877 48.1818252 -1.13037109 44.68920898 C-1.12466081 40.20663838 -1.12796406 35.72412747 -1.13394356 31.24155903 C-1.13755088 27.79727221 -1.13641002 24.35299963 -1.13381577 20.90871239 C-1.13314766 19.25525086 -1.13397087 17.60178805 -1.13629532 15.94832802 C-1.13882608 13.64300716 -1.13497586 11.33778424 -1.12939453 9.0324707 C-1.12859894 7.71962601 -1.12780334 6.40678131 -1.12698364 5.05415344 C-1 2 -1 2 0 0 Z " fill="#63432F" transform="translate(125,57)"/>
<path d="M0 0 C4.62 0 9.24 0 14 0 C14 27.06 14 54.12 14 82 C9.38 82 4.76 82 0 82 C0 54.94 0 27.88 0 0 Z " fill="#59351E" transform="translate(466,208)"/>
<path d="M0 0 C4.62 0 9.24 0 14 0 C14 27.06 14 54.12 14 82 C9.38 82 4.76 82 0 82 C0 54.94 0 27.88 0 0 Z " fill="#5B3821" transform="translate(425,57)"/>
<path d="M0 0 C4.62 0 9.24 0 14 0 C14 0.33 14 0.66 14 1 C9.71 1 5.42 1 1 1 C1 14.86 1 28.72 1 43 C-3.29 43 -7.58 43 -12 43 C-12 70.06 -12 97.12 -12 125 C1.2 125 14.4 125 28 125 C28 134.24 28 143.48 28 153 C23.71 153 19.42 153 15 153 C15 157.62 15 162.24 15 167 C19.29 167 23.58 167 28 167 C28 167.33 28 167.66 28 168 C23.38 168 18.76 168 14 168 C14 163.38 14 158.76 14 154 C9.38 154 4.76 154 0 154 C0 144.76 0 135.52 0 126 C-4.62 126 -9.24 126 -14 126 C-14.02312297 115.06503529 -14.04091485 104.13007634 -14.05181217 93.1950922 C-14.0570411 88.11808982 -14.06413892 83.04110411 -14.07543945 77.96411133 C-14.08626799 73.06879448 -14.09227676 68.17349371 -14.09487724 63.27816582 C-14.09673155 61.40617049 -14.10035228 59.53417609 -14.10573006 57.66218758 C-14.11294004 55.04959301 -14.11399096 52.43706573 -14.11352539 49.82446289 C-14.11712067 49.04259613 -14.12071594 48.26072937 -14.12442017 47.45516968 C-14.11405216 42.11405216 -14.11405216 42.11405216 -13 41 C-8.71 41 -4.42 41 0 41 C0 27.47 0 13.94 0 0 Z " fill="#C39672" transform="translate(97,165)"/>
<path d="M0 0 C4.29 0 8.58 0 13 0 C13 27.06 13 54.12 13 82 C8.71 82 4.42 82 0 82 C0 54.94 0 27.88 0 0 Z " fill="#59361F" transform="translate(85,208)"/>
<path d="M0 0 C4.29 0 8.58 0 13 0 C13 18.15 13 36.3 13 55 C4.42 55 -4.16 55 -13 55 C-14 54 -14 54 -14.09765625 51.05859375 C-14.06510417 47.70572917 -14.03255208 44.35286458 -14 41 C-9.38 41 -4.76 41 0 41 C0 27.47 0 13.94 0 0 Z " fill="#B37E53" transform="translate(453,208)"/>
<path d="M0 0 C4.62 0 9.24 0 14 0 C14 4.62 14 9.24 14 14 C54.26 14 94.52 14 136 14 C136 14.33 136 14.66 136 15 C95.74 15 55.48 15 14 15 C14 19.29 14 23.58 14 28 C18.29 28 22.58 28 27 28 C27 32.62 27 37.24 27 42 C18.09 42 9.18 42 0 42 C0 28.14 0 14.28 0 0 Z " fill="#886A54" transform="translate(207,70)"/>
<path d="M0 0 C3.63 0 7.26 0 11 0 C12 1 12 1 12.12025452 3.70179749 C12.1169236 5.51048561 12.1169236 5.51048561 12.11352539 7.35571289 C12.11367142 8.01910172 12.11381744 8.68249054 12.1139679 9.36598206 C12.11326881 11.56823956 12.10547665 13.77041345 12.09765625 15.97265625 C12.09579206 17.49580336 12.09436816 19.01895107 12.09336853 20.542099 C12.08954346 24.55837651 12.07971328 28.57461808 12.06866455 32.59088135 C12.05845019 36.68623366 12.05387086 40.78159176 12.04882812 44.87695312 C12.038091 52.91798528 12.02101472 60.95898817 12 69 C8.04 69 4.08 69 0 69 C0 46.23 0 23.46 0 0 Z " fill="#613179" transform="translate(195,356)"/>
<path d="M0 0 C13.53 0 27.06 0 41 0 C41 4.62 41 9.24 41 14 C36.38 14 31.76 14 27 14 C27 18.62 27 23.24 27 28 C22.71 28 18.42 28 14 28 C14 32.29 14 36.58 14 41 C13.67 41 13.34 41 13 41 C13 32.09 13 23.18 13 14 C8.71 14 4.42 14 0 14 C0 9.38 0 4.76 0 0 Z " fill="#DB9188" transform="translate(262,249)"/>
<path d="M0 0 C8.91 0 17.82 0 27 0 C27 4.62 27 9.24 27 14 C31.29 14 35.58 14 40 14 C40 18.62 40 23.24 40 28 C31.09 28 22.18 28 13 28 C13 23.38 13 18.76 13 14 C8.71 14 4.42 14 0 14 C0 9.38 0 4.76 0 0 Z " fill="#5A371F" transform="translate(112,318)"/>
<path d="M0 0 C8.91 0 17.82 0 27 0 C27 4.62 27 9.24 27 14 C22.38 14 17.76 14 13 14 C13 23.24 13 32.48 13 42 C8.71 42 4.42 42 0 42 C0 28.14 0 14.28 0 0 Z " fill="#8E61B3" transform="translate(303,384)"/>
<path d="M0 0 C8.58 0 17.16 0 26 0 C26 8.91 26 17.82 26 27 C24.02 27 22.04 27 20 27 C21.98 27.33 23.96 27.66 26 28 C26 32.62 26 37.24 26 42 C21.71 42 17.42 42 13 42 C13 32.76 13 23.52 13 14 C8.71 14 4.42 14 0 14 C0 9.38 0 4.76 0 0 Z " fill="#8D61B3" transform="translate(235,384)"/>
<path d="M0 0 C13.53 0 27.06 0 41 0 C41 4.62 41 9.24 41 14 C27.47 14 13.94 14 0 14 C0 9.38 0 4.76 0 0 Z " fill="#5F3375" transform="translate(207,341)"/>
<path d="M0 0 C13.2 0 26.4 0 40 0 C40 4.62 40 9.24 40 14 C35.42821006 14.04610208 30.85723821 14.08586917 26.28540039 14.10986328 C24.73263809 14.11987381 23.17989442 14.13348634 21.62719727 14.15087891 C19.38553245 14.17534652 17.14411851 14.18653268 14.90234375 14.1953125 C14.21663803 14.20563507 13.53093231 14.21595764 12.82444763 14.22659302 C8.14702921 14.22766334 4.3951597 13.44423099 0 12 C0 8.04 0 4.08 0 0 Z " fill="#5F3277" transform="translate(208,426)"/>
<path d="M0 0 C4.29 0 8.58 0 13 0 C13 8.91 13 17.82 13 27 C4.09 27 -4.82 27 -14 27 C-14 22.38 -14 17.76 -14 13 C-9.38 13 -4.76 13 0 13 C0 8.71 0 4.42 0 0 Z " fill="#B37E53" transform="translate(344,85)"/>
<path d="M0 0 C4.29 0 8.58 0 13 0 C13 13.86 13 27.72 13 42 C8.71 42 4.42 42 0 42 C0 28.14 0 14.28 0 0 Z " fill="#56351F" transform="translate(98,166)"/>
<path d="M0 0 C8.91 0 17.82 0 27 0 C27 0.33 27 0.66 27 1 C22.71 1 18.42 1 14 1 C14 9.91 14 18.82 14 28 C9.38 28 4.76 28 0 28 C0 26.35 0 24.7 0 23 C-4.62 23 -9.24 23 -14 23 C-14 18.38 -14 13.76 -14 9 C-13.67 9 -13.34 9 -13 9 C-13 10.65 -13 12.3 -13 14 C-8.71 14 -4.42 14 0 14 C0 9.38 0 4.76 0 0 Z " fill="#C4977A" transform="translate(371,332)"/>
<path d="M0 0 C4.29 0 8.58 0 13 0 C13 13.53 13 27.06 13 41 C8.71 41 4.42 41 0 41 C0 27.47 0 13.94 0 0 Z " fill="#58351D" transform="translate(453,166)"/>
<path d="M0 0 C13.2 0 26.4 0 40 0 C40 4.62 40 9.24 40 14 C20.2 13.505 20.2 13.505 0 13 C0 8.71 0 4.42 0 0 Z " fill="#603178" transform="translate(317,341)"/>
<path d="M0 0 C13.2 0 26.4 0 40 0 C39.67 4.29 39.34 8.58 39 13 C34.71331312 13.04975174 30.42678303 13.0858847 26.13989258 13.10986328 C24.68413359 13.1198685 23.22839443 13.13347696 21.77270508 13.15087891 C19.6700346 13.17537044 17.56763176 13.18653794 15.46484375 13.1953125 C14.202771 13.20578613 12.94069824 13.21625977 11.64038086 13.22705078 C7.74102471 12.9838477 4.69671244 12.20377453 1 11 C1.01160156 10.37351562 1.02320313 9.74703125 1.03515625 9.1015625 C1.04417969 8.28429687 1.05320312 7.46703125 1.0625 6.625 C1.07990234 5.40683594 1.07990234 5.40683594 1.09765625 4.1640625 C1.14466334 1.95062858 1.14466334 1.95062858 0 0 Z " fill="#603179" transform="translate(317,426)"/>
<path d="M0 0 C0.33 0 0.66 0 1 0 C1 8.91 1 17.82 1 27 C5.29 27 9.58 27 14 27 C14 35.91 14 44.82 14 54 C9.71 54 5.42 54 1 54 C1 58.62 1 63.24 1 68 C0.67 68 0.34 68 0 68 C0 45.56 0 23.12 0 0 Z " fill="#866854" transform="translate(111,139)"/>
<path d="M0 0 C9.24 0 18.48 0 28 0 C28 4.62 28 9.24 28 14 C18.76 14 9.52 14 0 14 C0 9.38 0 4.76 0 0 Z " fill="#C79871" transform="translate(152,332)"/>
<path d="M0 0 C8.91 0 17.82 0 27 0 C27 4.62 27 9.24 27 14 C18.09 14 9.18 14 0 14 C0 9.38 0 4.76 0 0 Z " fill="#5C381F" transform="translate(412,332)"/>
<path d="M0 0 C8.91 0 17.82 0 27 0 C27 4.62 27 9.24 27 14 C18.09 14 9.18 14 0 14 C0 9.38 0 4.76 0 0 Z " fill="#C79770" transform="translate(412,318)"/>
<path d="M0 0 C8.91 0 17.82 0 27 0 C27 4.62 27 9.24 27 14 C18.09 14 9.18 14 0 14 C0 9.38 0 4.76 0 0 Z " fill="#B17F58" transform="translate(112,318)"/>
<path d="M0 0 C8.91 0 17.82 0 27 0 C27 4.62 27 9.24 27 14 C18.09 14 9.18 14 0 14 C0 9.38 0 4.76 0 0 Z " fill="#593823" transform="translate(385,29)"/>
<path d="M0 0 C4.29 0 8.58 0 13 0 C13 1.65 13 3.3 13 5 C17.62 5 22.24 5 27 5 C27 9.95 27 14.9 27 20 C22.71 20 18.42 20 14 20 C14 36.83 14 53.66 14 71 C9.38 71 4.76 71 0 71 C0.495 70.01 0.495 70.01 1 69 C3.03125 68.62109375 3.03125 68.62109375 5.5 68.4375 C8.54981525 68.4207737 8.54981525 68.4207737 11 67 C11.08782238 65.59098198 11.10694148 64.1775909 11.09765625 62.76586914 C11.09270142 61.41163597 11.09270142 61.41163597 11.08764648 60.03004456 C11.07519897 58.54757484 11.07519897 58.54757484 11.0625 57.03515625 C11.05871338 56.01385117 11.05492676 54.99254608 11.05102539 53.94029236 C11.03472407 49.56374139 11.00709376 45.18728329 10.97949219 40.81079102 C10.90266226 27.4979839 11.04937384 14.28224202 12 1 C8.37 1.33 4.74 1.66 1 2 C0.67 1.34 0.34 0.68 0 0 Z " fill="#93798C" transform="translate(358,355)"/>
<path d="M0 0 C4.29 0 8.58 0 13 0 C13 9.24 13 18.48 13 28 C8.71 28 4.42 28 0 28 C0 18.76 0 9.52 0 0 Z " fill="#5A361D" transform="translate(98,290)"/>
<path d="M0 0 C0 4.62 0 9.24 0 14 C-8.91 14 -17.82 14 -27 14 C-27 9.71 -27 5.42 -27 1 C-23.06253088 0.83257534 -19.1250281 0.66602683 -15.1875 0.5 C-14.06794922 0.45230469 -12.94839844 0.40460937 -11.79492188 0.35546875 C-10.72177734 0.31035156 -9.64863281 0.26523437 -8.54296875 0.21875 C-7.55321045 0.17685547 -6.56345215 0.13496094 -5.54370117 0.09179688 C-3.69674974 0.02514425 -1.84815371 0 0 0 Z " fill="#583722" transform="translate(180,29)"/>
<path d="M0 0 C4.29 0 8.58 0 13 0 C13 8.91 13 17.82 13 27 C8.71 27 4.42 27 0 27 C0 18.09 0 9.18 0 0 Z " fill="#58351D" transform="translate(453,291)"/>
<path d="M0 0 C8.91 0 17.82 0 27 0 C27 4.29 27 8.58 27 13 C18.09 13 9.18 13 0 13 C0 8.71 0 4.42 0 0 Z " fill="#58351D" transform="translate(248,291)"/>
<path d="M0 0 C4.29 0 8.58 0 13 0 C13 8.91 13 17.82 13 27 C8.71 27 4.42 27 0 27 C0 18.09 0 9.18 0 0 Z " fill="#C89872" transform="translate(98,263)"/>
<path d="M0 0 C4.29 0 8.58 0 13 0 C13 8.91 13 17.82 13 27 C8.71 27 4.42 27 0 27 C0 18.09 0 9.18 0 0 Z " fill="#57351F" transform="translate(112,139)"/>
<path d="M0 0 C4.29 0 8.58 0 13 0 C13 8.91 13 17.82 13 27 C8.71 27 4.42 27 0 27 C0 18.09 0 9.18 0 0 Z " fill="#5A351C" transform="translate(439,139)"/>
<path d="M0 0 C8.91 0 17.82 0 27 0 C27 4.29 27 8.58 27 13 C18.09 13 9.18 13 0 13 C0 8.71 0 4.42 0 0 Z " fill="#58351E" transform="translate(153,347)"/>
<path d="M0 0 C12.87 0.495 12.87 0.495 26 1 C26 5.29 26 9.58 26 14 C17.42 14 8.84 14 0 14 C0 9.38 0 4.76 0 0 Z " fill="#59341D" transform="translate(385,346)"/>
<path d="M0 0 C8.58 0 17.16 0 26 0 C26 4.29 26 8.58 26 13 C17.42 13 8.84 13 0 13 C0 8.71 0 4.42 0 0 Z " fill="#56341B" transform="translate(290,291)"/>
<path d="M0 0 C4.29 0 8.58 0 13 0 C13 7.92 13 15.84 13 24 C8.71 24 4.42 24 0 24 C0 16.08 0 8.16 0 0 Z " fill="#B387D5" transform="translate(276,374)"/>
<path d="M0 0 C4.62 0 9.24 0 14 0 C14 0.33 14 0.66 14 1 C9.71 1 5.42 1 1 1 C1 14.86 1 28.72 1 43 C-3.29 43 -7.58 43 -12 43 C-12 70.06 -12 97.12 -12 125 C-7.71 125 -3.42 125 1 125 C1 134.24 1 143.48 1 153 C5.29 153 9.58 153 14 153 C14 153.33 14 153.66 14 154 C9.38 154 4.76 154 0 154 C0 144.76 0 135.52 0 126 C-4.62 126 -9.24 126 -14 126 C-14.02312297 115.06503529 -14.04091485 104.13007634 -14.05181217 93.1950922 C-14.0570411 88.11808982 -14.06413892 83.04110411 -14.07543945 77.96411133 C-14.08626799 73.06879448 -14.09227676 68.17349371 -14.09487724 63.27816582 C-14.09673155 61.40617049 -14.10035228 59.53417609 -14.10573006 57.66218758 C-14.11294004 55.04959301 -14.11399096 52.43706573 -14.11352539 49.82446289 C-14.11712067 49.04259613 -14.12071594 48.26072937 -14.12442017 47.45516968 C-14.11405216 42.11405216 -14.11405216 42.11405216 -13 41 C-8.71 41 -4.42 41 0 41 C0 27.47 0 13.94 0 0 Z " fill="#CFC5B8" transform="translate(97,165)"/>
<path d="M0 0 C8.91 0 17.82 0 27 0 C27 0.33 27 0.66 27 1 C22.71 1 18.42 1 14 1 C14 5.29 14 9.58 14 14 C9.38 14 4.76 14 0 14 C0 9.38 0 4.76 0 0 Z " fill="#D8B590" transform="translate(371,332)"/>
<path d="M0 0 C4.62 0 9.24 0 14 0 C14 4.62 14 9.24 14 14 C9.38 14 4.76 14 0 14 C0 9.38 0 4.76 0 0 Z " fill="#D9B794" transform="translate(180,332)"/>
<path d="M0 0 C4.62 0 9.24 0 14 0 C14 4.62 14 9.24 14 14 C9.38 14 4.76 14 0 14 C0 9.38 0 4.76 0 0 Z " fill="#D8B590" transform="translate(398,318)"/>
<path d="M0 0 C4.62 0 9.24 0 14 0 C14.09765625 10.05859375 14.09765625 10.05859375 14 13 C13 14 13 14 10.05859375 14.09765625 C6.70572917 14.06510417 3.35286458 14.03255208 0 14 C0 9.38 0 4.76 0 0 Z " fill="#593626" transform="translate(180,360)"/>
<path d="M0 0 C4.29 0 8.58 0 13 0 C13 4.62 13 9.24 13 14 C8.71 14 4.42 14 0 14 C0 9.38 0 4.76 0 0 Z " fill="#5E3176" transform="translate(303,412)"/>
<path d="M0 0 C4.29 0 8.58 0 13 0 C13 4.62 13 9.24 13 14 C8.71 14 4.42 14 0 14 C0 9.38 0 4.76 0 0 Z " fill="#62307C" transform="translate(248,412)"/>
<path d="M0 0 C4.29 0 8.58 0 13 0 C13 4.62 13 9.24 13 14 C8.71 14 4.42 14 0 14 C0 9.38 0 4.76 0 0 Z " fill="#59351D" transform="translate(112,318)"/>
<path d="M0 0 C4.29 0 8.58 0 13 0 C13 4.62 13 9.24 13 14 C8.71 14 4.42 14 0 14 C0 9.38 0 4.76 0 0 Z " fill="#5B361C" transform="translate(439,318)"/>
<path d="M0 0 C4.29 0 8.58 0 13 0 C13 4.62 13 9.24 13 14 C8.71 14 4.42 14 0 14 C0 9.38 0 4.76 0 0 Z " fill="#C89872" transform="translate(139,318)"/>
<path d="M0 0 C4.62 0 9.24 0 14 0 C14 4.29 14 8.58 14 13 C9.38 13 4.76 13 0 13 C0 8.71 0 4.42 0 0 Z " fill="#E9D7B9" transform="translate(371,208)"/>
<path d="M0 0 C4.29 0 8.58 0 13 0 C13 4.62 13 9.24 13 14 C8.71 14 4.42 14 0 14 C0 9.38 0 4.76 0 0 Z " fill="#59351C" transform="translate(344,70)"/>
<path d="M0 0 C4.29 0 8.58 0 13 0 C13 4.62 13 9.24 13 14 C8.71 14 4.42 14 0 14 C0 9.38 0 4.76 0 0 Z " fill="#583722" transform="translate(207,70)"/>
<path d="M0 0 C4.62 0 9.24 0 14 0 C14 4.29 14 8.58 14 13 C9.38 13 4.76 13 0 13 C0 8.71 0 4.42 0 0 Z " fill="#583922" transform="translate(193,57)"/>
<path d="M0 0 C4.62 0 9.24 0 14 0 C14 4.29 14 8.58 14 13 C9.38 13 4.76 13 0 13 C0 8.71 0 4.42 0 0 Z " fill="#5A341C" transform="translate(357,57)"/>
<path d="M0 0 C4.62 0 9.24 0 14 0 C14 4.29 14 8.58 14 13 C9.38 13 4.76 13 0 13 C0 8.71 0 4.42 0 0 Z " fill="#5A3922" transform="translate(371,43)"/>
<path d="M0 0 C4.62 0 9.24 0 14 0 C14 4.29 14 8.58 14 13 C9.71 13 5.42 13 1 13 C0.67 8.71 0.34 4.42 0 0 Z " fill="#B07D52" transform="translate(425,139)"/>
<path d="M0 0 C4.29 0 8.58 0 13 0 C13 4.29 13 8.58 13 13 C8.71 13 4.42 13 0 13 C0 8.71 0 4.42 0 0 Z " fill="#56361D" transform="translate(317,277)"/>
<path d="M0 0 C4.29 0 8.58 0 13 0 C13 4.29 13 8.58 13 13 C8.71 13 4.42 13 0 13 C0 8.71 0 4.42 0 0 Z " fill="#57331B" transform="translate(276,277)"/>
<path d="M0 0 C4.29 0 8.58 0 13 0 C13 4.29 13 8.58 13 13 C8.71 13 4.42 13 0 13 C0 8.71 0 4.42 0 0 Z " fill="#55341B" transform="translate(235,277)"/>
<path d="M0 0 C4.29 0 8.58 0 13 0 C13 4.29 13 8.58 13 13 C8.71 13 4.42 13 0 13 C0 8.71 0 4.42 0 0 Z " fill="#EFDBBE" transform="translate(194,208)"/>
<path d="M0 0 C4.29 0 8.58 0 13 0 C13 4.29 13 8.58 13 13 C8.71 13 4.42 13 0 13 C0 8.71 0 4.42 0 0 Z " fill="#57351F" transform="translate(180,43)"/>
<path d="M0 0 C4.29 0 8.58 0 13 0 C13 4.29 13 8.58 13 13 C8.71 13 4.42 13 0 13 C0 8.71 0 4.42 0 0 Z " fill="#54351F" transform="translate(139,43)"/>
<path d="M0 0 C4.29 0 8.58 0 13 0 C13 4.29 13 8.58 13 13 C8.71 13 4.42 13 0 13 C0 8.71 0 4.42 0 0 Z " fill="#56351E" transform="translate(412,43)"/>
<path d="M0 0 C4.29 0 8.58 0 13 0 C12.67 0.66 12.34 1.32 12 2 C6.555 1.505 6.555 1.505 1 1 C1 23.77 1 46.54 1 70 C5.95 69.505 5.95 69.505 11 69 C11.66 69.66 12.32 70.32 13 71 C8.38 71 3.76 71 -1 71 C-1 54.17 -1 37.34 -1 20 C-5.29 20 -9.58 20 -14 20 C-14 19.67 -14 19.34 -14 19 C-7.565 18.505 -7.565 18.505 -1 18 C-0.505 9.09 -0.505 9.09 0 0 Z " fill="#84688B" transform="translate(194,355)"/>
<path d="M0 0 C3.96 0 7.92 0 12 0 C12 4.29 12 8.58 12 13 C8.37 13 4.74 13 1 13 C-0.92572521 9.14854957 -0.04883218 4.19956748 0 0 Z " fill="#593620" transform="translate(372,360)"/>
<path d="M0 0 C0.33 0 0.66 0 1 0 C1 4.62 1 9.24 1 14 C41.26 14 81.52 14 123 14 C123 14.33 123 14.66 123 15 C82.74 15 42.48 15 1 15 C1 19.29 1 23.58 1 28 C0.67 28 0.34 28 0 28 C0 23.71 0 19.42 0 15 C-0.99 14.67 -1.98 14.34 -3 14 C-2.01 14 -1.02 14 0 14 C0 9.38 0 4.76 0 0 Z " fill="#725D4F" transform="translate(220,70)"/>
<path d="M0 0 C0.33 0 0.66 0 1 0 C1.33 8.91 1.66 17.82 2 27 C21.8 27.495 21.8 27.495 42 28 C42 32.62 42 37.24 42 42 C41.67 42 41.34 42 41 42 C41 37.71 41 33.42 41 29 C28.13 29 15.26 29 2 29 C2 33.29 2 37.58 2 42 C1 43 1 43 -1.94140625 43.09765625 C-6.97070312 43.04882812 -6.97070312 43.04882812 -12 43 C-12 47.29 -12 51.58 -12 56 C-12.33 56 -12.66 56 -13 56 C-13 51.38 -13 46.76 -13 42 C-8.71 42 -4.42 42 0 42 C0 37.38 0 32.76 0 28 C-3.63 28 -7.26 28 -11 28 C-11 27.67 -11 27.34 -11 27 C-3.375 25.875 -3.375 25.875 0 27 C0 18.09 0 9.18 0 0 Z " fill="#C9AFD5" transform="translate(261,384)"/>
<path d="M0 0 C0.66 0.33 1.32 0.66 2 1 C2 5.29 2 9.58 2 14 C-2.29 14 -6.58 14 -11 14 C-11 15.65 -11 17.3 -11 19 C-24.53 19 -38.06 19 -52 19 C-52 17.68 -52 16.36 -52 15 C-51.32493408 15.32597168 -50.64986816 15.65194336 -49.9543457 15.98779297 C-46.39181582 17.20837382 -43.49437502 17.22629115 -39.73046875 17.1953125 C-39.04946609 17.1924826 -38.36846344 17.18965271 -37.66682434 17.18673706 C-35.50686545 17.17560525 -33.34733206 17.15051457 -31.1875 17.125 C-29.71680289 17.11496111 -28.24609924 17.10583685 -26.77539062 17.09765625 C-23.18345714 17.07568913 -19.59177015 17.0412082 -16 17 C-15.67 16.34 -15.34 15.68 -15 15 C-10.40290445 11.14437147 -5.67404099 11.70252601 0 12 C-0.08378906 11.21753906 -0.16757812 10.43507813 -0.25390625 9.62890625 C-0.40666016 8.11103516 -0.40666016 8.11103516 -0.5625 6.5625 C-0.71912109 5.04849609 -0.71912109 5.04849609 -0.87890625 3.50390625 C-0.93884766 2.26447266 -0.93884766 2.26447266 -1 1 C-0.67 0.67 -0.34 0.34 0 0 Z " fill="#EEDBC8" transform="translate(314,341)"/>
<path d="M0 0 C1.93166016 0.01740234 1.93166016 0.01740234 3.90234375 0.03515625 C5.19269531 0.04417969 6.48304688 0.05320312 7.8125 0.0625 C8.81152344 0.07410156 9.81054688 0.08570313 10.83984375 0.09765625 C10.83984375 0.42765625 10.83984375 0.75765625 10.83984375 1.09765625 C6.54984375 1.09765625 2.25984375 1.09765625 -2.16015625 1.09765625 C-2.16015625 5.71765625 -2.16015625 10.33765625 -2.16015625 15.09765625 C-6.39199787 15.12079512 -10.62361393 15.14065238 -14.85546875 15.15258789 C-16.29069773 15.15757132 -17.72592176 15.1643605 -19.16113281 15.1730957 C-27.22440075 15.22089053 -35.14269293 15.09395551 -43.16015625 14.09765625 C-43.16015625 9.80765625 -43.16015625 5.51765625 -43.16015625 1.09765625 C-42.17015625 1.42765625 -41.18015625 1.75765625 -40.16015625 2.09765625 C-40.82015625 2.09765625 -41.48015625 2.09765625 -42.16015625 2.09765625 C-41.83015625 5.06765625 -41.50015625 8.03765625 -41.16015625 11.09765625 C-36.67824732 11.94517739 -32.35035277 12.28223734 -27.79296875 12.4140625 C-27.11338104 12.4348436 -26.43379333 12.45562469 -25.73361206 12.47703552 C-23.58421959 12.54189255 -21.43471555 12.60111566 -19.28515625 12.66015625 C-17.81899935 12.70340237 -16.35285331 12.7470185 -14.88671875 12.79101562 C-11.3113135 12.89750729 -7.73578588 12.99895034 -4.16015625 13.09765625 C-4.17175781 12.24300781 -4.18335938 11.38835937 -4.1953125 10.5078125 C-4.20433594 9.40308594 -4.21335937 8.29835938 -4.22265625 7.16015625 C-4.23425781 6.05800781 -4.24585938 4.95585937 -4.2578125 3.8203125 C-4.11749553 -0.09172464 -3.97435676 0.12281696 0 0 Z " fill="#9883A2" transform="translate(360.16015625,425.90234375)"/>
<path d="M0 0 C2.31 0 4.62 0 7 0 C6.67 0.66 6.34 1.32 6 2 C4.68 2.33 3.36 2.66 2 3 C1.67 33.03 1.34 63.06 1 94 C4.96 94.33 8.92 94.66 13 95 C13 95.33 13 95.66 13 96 C8.71 96 4.42 96 0 96 C0 64.32 0 32.64 0 0 Z " fill="#BF9771" transform="translate(303,98)"/>
<path d="M0 0 C1.16781006 0.00523682 2.33562012 0.01047363 3.53881836 0.01586914 C4.79887695 0.0190918 6.05893555 0.02231445 7.35717773 0.02563477 C8.6976732 0.03399136 10.03816799 0.04245632 11.37866211 0.05102539 C12.72306153 0.05603879 14.06746271 0.06060197 15.41186523 0.06469727 C18.71334151 0.07653051 22.01473014 0.09301568 25.31616211 0.11352539 C21.91718538 2.37950988 20.75297037 2.35095193 16.77319336 2.30883789 C15.16347656 2.29916992 15.16347656 2.29916992 13.52124023 2.28930664 C11.84191406 2.26416992 11.84191406 2.26416992 10.12866211 2.23852539 C8.99750977 2.22950195 7.86635742 2.22047852 6.70092773 2.21118164 C3.90591582 2.18759504 1.11101252 2.1517238 -1.68383789 2.11352539 C-1.68383789 6.40352539 -1.68383789 10.69352539 -1.68383789 15.11352539 C-6.30383789 15.11352539 -10.92383789 15.11352539 -15.68383789 15.11352539 C-15.68383789 19.40352539 -15.68383789 23.69352539 -15.68383789 28.11352539 C-16.34383789 27.78352539 -17.00383789 27.45352539 -17.68383789 27.11352539 C-17.35383789 22.82352539 -17.02383789 18.53352539 -16.68383789 14.11352539 C-12.39383789 14.11352539 -8.10383789 14.11352539 -3.68383789 14.11352539 C-3.70446289 11.98915039 -3.72508789 9.86477539 -3.74633789 7.67602539 C-3.76757572 5.48852928 -3.75642735 3.29991992 -3.68383789 1.11352539 C-2.68383789 0.11352539 -2.68383789 0.11352539 0 0 Z " fill="#BCB1A5" transform="translate(154.683837890625,27.886474609375)"/>
<path d="M0 0 C4.29 0 8.58 0 13 0 C13 2.64 13 5.28 13 8 C8.71 8 4.42 8 0 8 C0 5.36 0 2.72 0 0 Z " fill="#D8B393" transform="translate(194,346)"/>
<path d="M0 0 C4.29 0 8.58 0 13 0 C13 2.64 13 5.28 13 8 C8.71 8 4.42 8 0 8 C0 5.36 0 2.72 0 0 Z " fill="#D8B598" transform="translate(358,346)"/>
<path d="M0 0 C1.98 0 3.96 0 6 0 C6.33 3.96 6.66 7.92 7 12 C11.60892817 12.8810264 16.12487153 13.20319865 20.8046875 13.31640625 C21.5286673 13.33718735 22.25264709 13.35796844 22.99856567 13.37937927 C25.29062239 13.44428853 27.58278474 13.50348437 29.875 13.5625 C31.43751053 13.60574112 33.00001072 13.64935711 34.5625 13.69335938 C38.37489426 13.79990896 42.1873938 13.90133795 46 14 C46 14.33 46 14.66 46 15 C40.34000977 15.02467467 34.68005068 15.04284788 29.02001953 15.05493164 C27.09358169 15.05996787 25.16714769 15.06679712 23.24072266 15.07543945 C20.47557632 15.08753608 17.71048042 15.09323533 14.9453125 15.09765625 C13.6483696 15.10539818 13.6483696 15.10539818 12.32522583 15.11329651 C6.22774341 15.11387171 6.22774341 15.11387171 4 14 C4 9.71 4 5.42 4 1 C2.68 0.67 1.36 0.34 0 0 Z " fill="#D3CAD7" transform="translate(202,426)"/>
<path d="M0 0 C13.2 0 26.4 0 40 0 C40 4.29 40 8.58 40 13 C39.67 13 39.34 13 39 13 C38.67 9.7 38.34 6.4 38 3 C34.36766898 1.78922299 31.04878013 1.87555836 27.26953125 1.90234375 C26.14390022 1.90446617 26.14390022 1.90446617 24.99552917 1.90663147 C22.6011454 1.9122244 20.20685547 1.92477556 17.8125 1.9375 C16.18815239 1.94251592 14.56380332 1.94707866 12.93945312 1.95117188 C8.95959931 1.96219152 4.97981556 1.97945127 1 2 C1 5.3 1 8.6 1 12 C0.67 12 0.34 12 0 12 C0 8.04 0 4.08 0 0 Z " fill="#58335A" transform="translate(317,341)"/>
<path d="M0 0 C3.3 0 6.6 0 10 0 C10 0.33 10 0.66 10 1 C7.03 1 4.06 1 1 1 C1.01160156 1.92683594 1.02320313 2.85367188 1.03515625 3.80859375 C1.04417969 5.00613281 1.05320312 6.20367187 1.0625 7.4375 C1.07410156 8.63246094 1.08570313 9.82742187 1.09765625 11.05859375 C1 14 1 14 0 15 C-4.33530918 15.14393457 -8.66157731 15.04212061 -13 15 C-13 19.29 -13 23.58 -13 28 C-14.32 27.67 -15.64 27.34 -17 27 C-16.34 27 -15.68 27 -15 27 C-14.67 22.71 -14.34 18.42 -14 14 C-10.90755208 13.25130208 -7.81510417 12.50260417 -4.72265625 11.75390625 C-2.10578746 11.27004275 -2.10578746 11.27004275 -1 10 C-0.76712992 8.31816052 -0.58735834 6.6287584 -0.4375 4.9375 C-0.293125 3.308125 -0.14875 1.67875 0 0 Z " fill="#D29076" transform="translate(398,70)"/>
<path d="M0 0 C2.64 0 5.28 0 8 0 C8 0.33 8 0.66 8 1 C6.7934375 1.185625 6.7934375 1.185625 5.5625 1.375 C4.716875 1.58125 3.87125 1.7875 3 2 C1.85647084 4.28705831 1.89665561 5.59264762 1.9375 8.125 C1.958125 9.40375 1.97875 10.6825 2 12 C5.96 12.33 9.92 12.66 14 13 C14 22.24 14 31.48 14 41 C13.67 41 13.34 41 13 41 C13 32.09 13 23.18 13 14 C8.71 14 4.42 14 0 14 C0 9.38 0 4.76 0 0 Z " fill="#D5A693" transform="translate(262,249)"/>
<path d="M0 0 C2 2 2 2 2.16015625 4.20703125 C2.12792969 5.06683594 2.09570312 5.92664063 2.0625 6.8125 C1.98522555 10.41348944 2.25781937 13.47464202 3 17 C3.08557912 19.67308898 3.04534858 22.3244337 3 25 C6.465 24.505 6.465 24.505 10 24 C10 24.66 10 25.32 10 26 C6.7 26 3.4 26 0 26 C0 17.42 0 8.84 0 0 Z " fill="#513528" transform="translate(98,292)"/>
<path d="M0 0 C4.29 0 8.58 0 13 0 C13 8.58 13 17.16 13 26 C12.67 26 12.34 26 12 26 C11.67 18.74 11.34 11.48 11 4 C8.07175348 3.02391783 6.04386724 2.91773332 3 3 C3 2.34 3 1.68 3 1 C2.01 0.67 1.02 0.34 0 0 Z " fill="#523A2A" transform="translate(439,139)"/>
<path d="M0 0 C0.33 0 0.66 0 1 0 C1 8.58 1 17.16 1 26 C-3.29 26 -7.58 26 -12 26 C-11.67 25.34 -11.34 24.68 -11 24 C-8.96875 23.62109375 -8.96875 23.62109375 -6.5 23.4375 C-3.45018475 23.4207737 -3.45018475 23.4207737 -1 22 C-0.84285346 20.36743242 -0.74914586 18.72864662 -0.68359375 17.08984375 C-0.64169922 16.10048828 -0.59980469 15.11113281 -0.55664062 14.09179688 C-0.49766602 12.53041992 -0.49766602 12.53041992 -0.4375 10.9375 C-0.39431641 9.89271484 -0.35113281 8.84792969 -0.30664062 7.77148438 C-0.20018775 5.18113116 -0.0981724 2.59067814 0 0 Z " fill="#543764" transform="translate(370,400)"/>
<path d="M0 0 C0.66 0 1.32 0 2 0 C2 4.62 2 9.24 2 14 C-2.29 14 -6.58 14 -11 14 C-10.67 13.34 -10.34 12.68 -10 12 C-8.329375 12.061875 -8.329375 12.061875 -6.625 12.125 C-2.95633975 12.41121859 -2.95633975 12.41121859 -1 10 C-0.53837573 7.56747339 -0.53837573 7.56747339 -0.375 4.875 C-0.30023438 3.96492188 -0.22546875 3.05484375 -0.1484375 2.1171875 C-0.09945313 1.41851562 -0.05046875 0.71984375 0 0 Z " fill="#57346B" transform="translate(259,412)"/>
<path d="M0 0 C0.65250732 0.32145996 1.30501465 0.64291992 1.97729492 0.97412109 C5.78409911 2.26611618 9.3873605 2.35376353 13.36328125 2.4140625 C14.55125557 2.44311172 14.55125557 2.44311172 15.76322937 2.4727478 C18.27954519 2.53227232 20.79590744 2.57881958 23.3125 2.625 C25.0241079 2.66320481 26.73569709 2.70225799 28.44726562 2.7421875 C32.63135749 2.8379513 36.81553931 2.9220818 41 3 C41 3.33 41 3.66 41 4 C27.47 4 13.94 4 0 4 C0 2.68 0 1.36 0 0 Z " fill="#F5DBDC" transform="translate(262,356)"/>
<path d="M0 0 C0.66 0.33 1.32 0.66 2 1 C2 1.66 2 2.32 2 3 C-11.53 3 -25.06 3 -39 3 C-39 2.67 -39 2.34 -39 2 C-37.88963379 1.97494385 -36.77926758 1.9498877 -35.63525391 1.92407227 C-31.52396681 1.83005085 -27.41285077 1.72981743 -23.30175781 1.62768555 C-21.52087397 1.5843167 -19.73994802 1.54264306 -17.95898438 1.50268555 C-15.40221452 1.4450301 -12.84565702 1.3813223 -10.2890625 1.31640625 C-9.49005524 1.29969376 -8.69104797 1.28298126 -7.86782837 1.26576233 C-3.80193632 1.24607009 -3.80193632 1.24607009 0 0 Z " fill="#EFD9CF" transform="translate(246,337)"/>
<path d="M0 0 C0.33 0 0.66 0 1 0 C1 4.29 1 8.58 1 13 C-7.91 13 -16.82 13 -26 13 C-26 12.67 -26 12.34 -26 12 C-25.34926514 11.97494385 -24.69853027 11.9498877 -24.02807617 11.92407227 C-21.08101954 11.80806298 -18.1342787 11.68535885 -15.1875 11.5625 C-14.16333984 11.52318359 -13.13917969 11.48386719 -12.08398438 11.44335938 C-11.10107422 11.40146484 -10.11816406 11.35957031 -9.10546875 11.31640625 C-8.19949951 11.27974854 -7.29353027 11.24309082 -6.36010742 11.20532227 C-3.84951218 11.0791795 -3.84951218 11.0791795 -1 10 C-0.67 6.7 -0.34 3.4 0 0 Z " fill="#4C3626" transform="translate(438,333)"/>
<path d="M0 0 C0.33 0 0.66 0 1 0 C1 7.59 1 15.18 1 23 C-2.3 23 -5.6 23 -9 23 C-5 21 -5 21 -1 20 C-0.67 13.4 -0.34 6.8 0 0 Z " fill="#B2845F" transform="translate(465,240)"/>
<path d="M0 0 C4.29 0 8.58 0 13 0 C13 2.64 13 5.28 13 8 C12.01 7.67 11.02 7.34 10 7 C10 5.35 10 3.7 10 2 C6.7 1.67 3.4 1.34 0 1 C0 0.67 0 0.34 0 0 Z " fill="#D9BB9C" transform="translate(194,346)"/>
<path d="M0 0 C3.63 0 7.26 0 11 0 C11 0.33 11 0.66 11 1 C9.3603125 1.2165625 9.3603125 1.2165625 7.6875 1.4375 C5.71531062 1.87563765 5.71531062 1.87563765 4 3 C2.47156347 5.88294753 1.68691621 8.82055924 1 12 C0.67 12 0.34 12 0 12 C0 8.04 0 4.08 0 0 Z " fill="#533A29" transform="translate(357,57)"/>
<path d="M0 0 C0.66 0.33 1.32 0.66 2 1 C2 4.96 2 8.92 2 13 C-1.96 13 -5.92 13 -10 13 C-10 12.67 -10 12.34 -10 12 C-6.7 12 -3.4 12 0 12 C-0.08378906 11.21753906 -0.16757812 10.43507813 -0.25390625 9.62890625 C-0.35574219 8.61699219 -0.45757812 7.60507812 -0.5625 6.5625 C-0.66691406 5.55316406 -0.77132813 4.54382813 -0.87890625 3.50390625 C-0.91886719 2.67761719 -0.95882813 1.85132813 -1 1 C-0.67 0.67 -0.34 0.34 0 0 Z " fill="#EED7CF" transform="translate(314,341)"/>
<path d="M0 0 C3.96 0 7.92 0 12 0 C12 0.33 12 0.66 12 1 C8.37 1 4.74 1 1 1 C1 2.32 1 3.64 1 5 C1.66 5.33 2.32 5.66 3 6 C3 8.31 3 10.62 3 13 C2.01 13 1.02 13 0 13 C0 8.71 0 4.42 0 0 Z " fill="#5C3E29" transform="translate(180,360)"/>
<path d="M0 0 C0.33 0 0.66 0 1 0 C1 4.62 1 9.24 1 14 C-3.29 14 -7.58 14 -12 14 C-8.09567131 12.04783565 -5.27786748 11.49360009 -1 11 C-0.67 7.37 -0.34 3.74 0 0 Z " fill="#4F3726" transform="translate(451,318)"/>
<path d="M0 0 C0.33 0 0.66 0 1 0 C1 2.97 1 5.94 1 9 C-3.62 9 -8.24 9 -13 9 C-9.96474514 6.97649676 -8.80573798 6.67875982 -5.3125 6.375 C-4.50425781 6.30023438 -3.69601562 6.22546875 -2.86328125 6.1484375 C-1.94095703 6.07496094 -1.94095703 6.07496094 -1 6 C-0.67 4.02 -0.34 2.04 0 0 Z " fill="#D59F8F" transform="translate(302,254)"/>
<path d="M0 0 C4.29 0 8.58 0 13 0 C13 0.66 13 1.32 13 2 C9.37 2 5.74 2 2 2 C1.67 2.99 1.34 3.98 1 5 C0.67 5 0.34 5 0 5 C0 3.35 0 1.7 0 0 Z " fill="#5A3461" transform="translate(303,355)"/>
<path d="M0 0 C4.29 0 8.58 0 13 0 C13 4.29 13 8.58 13 13 C12.67 13 12.34 13 12 13 C12 9.7 12 6.4 12 3 C11.01 3 10.02 3 9 3 C9 2.34 9 1.68 9 1 C6.03 1 3.06 1 0 1 C0 0.67 0 0.34 0 0 Z " fill="#4C3426" transform="translate(180,43)"/>
<path d="M0 0 C0.33 0 0.66 0 1 0 C1 1.98 1 3.96 1 6 C-3.29 6 -7.58 6 -12 6 C-10 4 -10 4 -7.8359375 3.8046875 C-6.61777344 3.83949219 -6.61777344 3.83949219 -5.375 3.875 C-4.14910156 3.90207031 -4.14910156 3.90207031 -2.8984375 3.9296875 C-1.95871094 3.96449219 -1.95871094 3.96449219 -1 4 C-0.67 2.68 -0.34 1.36 0 0 Z " fill="#513828" transform="translate(465,312)"/>
<path d="M0 0 C1.32 0.33 2.64 0.66 4 1 C4 1.99 4 2.98 4 4 C6.31 4.33 8.62 4.66 11 5 C11 5.33 11 5.66 11 6 C6.71 6 2.42 6 -2 6 C-1.34 5.67 -0.68 5.34 0 5 C0 3.35 0 1.7 0 0 Z " fill="#603D28" transform="translate(100,202)"/>
<path d="M0 0 C0.33 0.66 0.66 1.32 1 2 C5.29 2 9.58 2 14 2 C14 2.33 14 2.66 14 3 C9.71 3 5.42 3 1 3 C1 4.65 1 6.3 1 8 C0.01 7.67 -0.98 7.34 -2 7 C-1.34 4.69 -0.68 2.38 0 0 Z " fill="#BC8F90" transform="translate(193,352)"/>
<path d="M0 0 C0.33 1.32 0.66 2.64 1 4 C-4.94 4 -10.88 4 -17 4 C-17 3.67 -17 3.34 -17 3 C-13.15393267 2.35898878 -9.58829744 1.95553115 -5.6875 2.0625 C-1.96330163 2.4266497 -1.96330163 2.4266497 0 0 Z " fill="#4E3628" transform="translate(410,356)"/>
<path d="M0 0 C4.95 0 9.9 0 15 0 C15 0.33 15 0.66 15 1 C10.71 1 6.42 1 2 1 C2 2.32 2 3.64 2 5 C1.01 5 0.02 5 -1 5 C-0.67 3.35 -0.34 1.7 0 0 Z " fill="#DDC5C9" transform="translate(301,354)"/>
<path d="M0 0 C2.64 0 5.28 0 8 0 C6 2 6 2 3 3 C1.78130071 5.50447516 1.78130071 5.50447516 1 8 C0.67 8 0.34 8 0 8 C0 5.36 0 2.72 0 0 Z " fill="#563F2E" transform="translate(344,70)"/>
<path d="M0 0 C2.97 0 5.94 0 9 0 C8.67 1.32 8.34 2.64 8 4 C5.64828869 3.40138258 3.3140622 2.73075648 1 2 C0.67 1.34 0.34 0.68 0 0 Z " fill="#AD815C" transform="translate(430,139)"/>
<path d="M0 0 C4.29 0 8.58 0 13 0 C11.515 1.485 11.515 1.485 10 3 C7.51953125 2.85546875 7.51953125 2.85546875 4.8125 2.1875 C3.91144531 1.97480469 3.01039062 1.76210937 2.08203125 1.54296875 C1.39496094 1.36378906 0.70789063 1.18460938 0 1 C0 0.67 0 0.34 0 0 Z " fill="#533E2E" transform="translate(112,139)"/>
<path d="M0 0 C0.66 0 1.32 0 2 0 C2 2.64 2 5.28 2 8 C1.01 7.67 0.02 7.34 -1 7 C-0.67 4.69 -0.34 2.38 0 0 Z " fill="#D9B2AF" transform="translate(205,346)"/>
</svg>
