<?xml version="1.0" encoding="UTF-8"?>
<svg version="1.1" xmlns="http://www.w3.org/2000/svg" width="560" height="446">
<path d="M0 0 C0.77943466 0.00222061 1.55886932 0.00444122 2.36192322 0.00672913 C3.24276077 0.00680466 4.12359833 0.00688019 5.03112793 0.00695801 C5.98841293 0.01211929 6.94569794 0.01728058 7.93199158 0.02259827 C9.39480812 0.02472069 9.39480812 0.02472069 10.88717651 0.02688599 C14.01542675 0.03250319 17.14360656 0.04505859 20.27183533 0.05775452 C22.38706867 0.0627673 24.50230313 0.06733059 26.61753845 0.07142639 C31.81482829 0.0824782 37.01207678 0.09923305 42.20933533 0.12025452 C43.92399568 3.54957523 43.26337589 7.33741517 43.20933533 11.12025452 C46.50933533 11.12025452 49.80933533 11.12025452 53.20933533 11.12025452 C55.20488692 15.11135771 55.40479598 16.82012017 55.20933533 21.12025452 C56.34371033 21.09962952 57.47808533 21.07900452 58.64683533 21.05775452 C62.20933533 21.12025452 62.20933533 21.12025452 63.20933533 22.12025452 C63.666992 25.1091481 63.91254484 28.109951 64.20933533 31.12025452 C68.49933533 31.12025452 72.78933533 31.12025452 77.20933533 31.12025452 C77.86933533 27.82025452 78.52933533 24.52025452 79.20933533 21.12025452 C81.84933533 21.12025452 84.48933533 21.12025452 87.20933533 21.12025452 C87.19773376 20.48216858 87.1861322 19.84408264 87.17417908 19.18666077 C87.16515564 18.3603717 87.1561322 17.53408264 87.14683533 16.68275452 C87.13523376 15.85904358 87.1236322 15.03533264 87.11167908 14.18666077 C87.20933533 12.12025452 87.20933533 12.12025452 88.20933533 11.12025452 C89.89542499 11.0481994 91.58434192 11.03639384 93.27183533 11.05775452 C94.19093689 11.06677795 95.11003845 11.07580139 96.05699158 11.08509827 C96.76726501 11.09669983 97.47753845 11.10830139 98.20933533 11.12025452 C98.26992126 10.40998108 98.3305072 9.69970764 98.39292908 8.96791077 C98.47671814 8.0488092 98.5605072 7.12970764 98.64683533 6.18275452 C98.76865173 4.80796936 98.76865173 4.80796936 98.89292908 3.40541077 C99.20933533 1.12025452 99.20933533 1.12025452 100.20933533 0.12025452 C101.59093647 0.02747122 102.9772157 0.00278409 104.36192322 0.00672913 C105.24276077 0.00680466 106.12359833 0.00688019 107.03112793 0.00695801 C107.98841293 0.01211929 108.94569794 0.01728058 109.93199158 0.02259827 C111.39480812 0.02472069 111.39480812 0.02472069 112.88717651 0.02688599 C116.01542675 0.03250319 119.14360656 0.04505859 122.27183533 0.05775452 C124.38706867 0.0627673 126.50230313 0.06733059 128.61753845 0.07142639 C133.81482829 0.0824782 139.01207678 0.09923305 144.20933533 0.12025452 C145.49251425 3.96979128 145.2757717 7.06763587 145.20933533 11.12025452 C148.50933533 11.12025452 151.80933533 11.12025452 155.20933533 11.12025452 C155.20933533 14.42025452 155.20933533 17.72025452 155.20933533 21.12025452 C156.52933533 21.45025452 157.84933533 21.78025452 159.20933533 22.12025452 C159.53933533 23.11025452 159.86933533 24.10025452 160.20933533 25.12025452 C160.88190369 25.671651 161.55447205 26.22304749 162.24742126 26.79115295 C165.04906085 30.11714121 164.71153462 33.24173797 164.59996033 37.38587952 C164.59430054 38.17927734 164.58864075 38.97267517 164.58280945 39.79011536 C164.56046679 42.31744925 164.51027708 44.84335117 164.45933533 47.37025452 C164.43926747 49.08637983 164.4210172 50.80252744 164.40464783 52.51869202 C164.36060928 56.71976232 164.29159859 60.91976586 164.20933533 65.12025452 C164.9080072 65.10865295 165.60667908 65.09705139 166.32652283 65.08509827 C167.23660095 65.07607483 168.14667908 65.06705139 169.08433533 65.05775452 C169.9892572 65.04615295 170.89417908 65.03455139 171.82652283 65.02259827 C174.20933533 65.12025452 174.20933533 65.12025452 176.20933533 66.12025452 C177.05990477 69.67718129 177.3784334 71.6129603 176.20933533 75.12025452 C179.17933533 75.45025452 182.14933533 75.78025452 185.20933533 76.12025452 C185.36396898 84.0312258 185.51213684 91.94228172 185.65229893 99.85352135 C185.71759604 103.52794856 185.78502867 107.20230947 185.85752869 110.87660217 C185.92755602 114.42972004 185.99172958 117.98290189 186.05203056 121.53619766 C186.08743561 123.53567561 186.12873226 125.53504647 186.17016602 127.53440857 C186.28264224 134.47749733 186.12563954 141.23233023 185.20933533 148.12025452 C184.21933533 148.45025452 183.22933533 148.78025452 182.20933533 149.12025452 C181.87933533 150.11025452 181.54933533 151.10025452 181.20933533 152.12025452 C178.89933533 152.45025452 176.58933533 152.78025452 174.20933533 153.12025452 C173.3668935 164.07876529 173.08045245 174.94950266 173.13417053 185.93687057 C173.14716859 188.61870358 173.15350614 191.30048606 173.15830994 193.98234558 C173.16959942 199.6533385 173.18891024 205.32428815 173.20933533 210.99525452 C173.23297735 217.62169701 173.2532886 224.24811718 173.26527405 230.87459183 C173.27175465 233.51704799 173.28424789 236.15943227 173.29698181 238.80186462 C173.30061105 240.40783119 173.30396318 242.01379842 173.30699158 243.61976624 C173.3121579 244.35419952 173.31732422 245.08863281 173.32264709 245.84532166 C173.32317848 250.89256821 173.32317848 250.89256821 172.20933533 253.12025452 C170.88933533 253.12025452 169.56933533 253.12025452 168.20933533 253.12025452 C168.20933533 256.09025452 168.20933533 259.06025452 168.20933533 262.12025452 C165.56933533 262.45025452 162.92933533 262.78025452 160.20933533 263.12025452 C159.87933533 265.76025452 159.54933533 268.40025452 159.20933533 271.12025452 C101.12933533 271.12025452 43.04933533 271.12025452 -16.79066467 271.12025452 C-17.28566467 267.16025452 -17.28566467 267.16025452 -17.79066467 263.12025452 C-20.43066467 262.79025452 -23.07066467 262.46025452 -25.79066467 262.12025452 C-25.92087301 260.10202535 -26.05108134 258.08379618 -26.18128967 256.06556702 C-26.38238342 255.42361389 -26.58347717 254.78166077 -26.79066467 254.12025452 C-28.11066467 253.46025452 -29.43066467 252.80025452 -30.79066467 252.12025452 C-31.12066467 219.45025452 -31.45066467 186.78025452 -31.79066467 153.12025452 C-34.10066467 152.79025452 -36.41066467 152.46025452 -38.79066467 152.12025452 C-38.79066467 150.80025452 -38.79066467 149.48025452 -38.79066467 148.12025452 C-40.11066467 148.12025452 -41.43066467 148.12025452 -42.79066467 148.12025452 C-43.80046716 134.13598528 -43.9459314 120.19043125 -43.92103577 106.17323303 C-43.91558651 102.50514255 -43.92105955 98.83716984 -43.92738342 95.16908264 C-43.9267241 92.83900425 -43.92544598 90.50892592 -43.92347717 88.17884827 C-43.9255014 87.08116623 -43.92752563 85.98348419 -43.92961121 84.85253906 C-43.92645905 83.84961319 -43.92330688 82.84668732 -43.9200592 81.81336975 C-43.91926361 80.92834274 -43.91846802 80.04331573 -43.91764832 79.13146973 C-43.79066467 77.12025452 -43.79066467 77.12025452 -42.79066467 76.12025452 C-40.12007616 75.9791029 -37.4663423 76.07778344 -34.79066467 76.12025452 C-34.81128967 74.86212952 -34.83191467 73.60400452 -34.85316467 72.30775452 C-34.89952551 69.47974364 -34.70759429 67.87104336 -33.79066467 65.12025452 C-29.83066467 65.12025452 -25.87066467 65.12025452 -21.79066467 65.12025452 C-21.79066467 52.91025452 -21.79066467 40.70025452 -21.79066467 28.12025452 C-20.47066467 27.46025452 -19.15066467 26.80025452 -17.79066467 26.12025452 C-16.97895239 23.5650553 -16.97895239 23.5650553 -16.79066467 21.12025452 C-15.47066467 21.12025452 -14.15066467 21.12025452 -12.79066467 21.12025452 C-12.79066467 17.82025452 -12.79066467 14.52025452 -12.79066467 11.12025452 C-9.49066467 11.12025452 -6.19066467 11.12025452 -2.79066467 11.12025452 C-2.81128967 9.49087952 -2.83191467 7.86150452 -2.85316467 6.18275452 C-2.87452535 4.49526111 -2.86271979 2.80634418 -2.79066467 1.12025452 C-1.79066467 0.12025452 -1.79066467 0.12025452 0 0 Z " fill="#8E566F" transform="translate(208.79066467285156,90.87974548339844)"/>
<path d="M0 0 C4.29 0 8.58 0 13 0 C13 10.23 13 20.46 13 31 C33.79 31 54.58 31 76 31 C76 20.77 76 10.54 76 0 C76.33 0 76.66 0 77 0 C77.28957959 4.213152 77.57417763 8.42660468 77.85449219 12.64038086 C77.95018405 14.06885486 78.04715279 15.497244 78.14550781 16.92553711 C78.72056249 25.29023554 79.16055567 33.6098514 79 42 C79.92039063 41.72349609 79.92039063 41.72349609 80.859375 41.44140625 C83.57817796 40.88077717 84.6786882 41.59063212 87 43 C86.505 43.99 86.505 43.99 86 45 C85.90609755 46.41683931 85.873704 47.83800236 85.87301636 49.25794983 C85.87019653 50.15115433 85.86737671 51.04435883 85.86447144 51.96463013 C85.86649567 52.94704681 85.8685199 53.9294635 85.87060547 54.94165039 C85.86885315 55.97421463 85.86710083 57.00677887 85.86529541 58.07063293 C85.86088078 61.49632428 85.86381332 64.92196434 85.8671875 68.34765625 C85.8665144 70.71894847 85.86554433 73.09024061 85.86428833 75.46153259 C85.86281193 80.43570613 85.86496428 85.40986174 85.86962891 90.3840332 C85.87532925 96.77585049 85.87204488 103.16762582 85.86605644 109.55944157 C85.86245193 114.45686665 85.86358885 119.3542817 85.86618423 124.25170708 C85.86685365 126.60934898 85.86602458 128.96699179 85.86370468 131.32463264 C85.86117963 134.61236122 85.86501653 137.90002074 85.87060547 141.18774414 C85.86756912 142.66440552 85.86756912 142.66440552 85.86447144 144.17089844 C85.86870117 145.50647545 85.86870117 145.50647545 85.87301636 146.86903381 C85.87339338 147.64719483 85.87377041 148.42535585 85.87415886 149.22709751 C85.80722399 151.0256465 85.80722399 151.0256465 87 152 C89.6662603 152.08855161 92.30647114 152.11524673 94.97265625 152.09765625 C96.16912025 152.09553383 96.16912025 152.09553383 97.38975525 152.09336853 C99.94737435 152.08775316 102.50490718 152.07519812 105.0625 152.0625 C106.79231645 152.05748698 108.52213426 152.05292373 110.25195312 152.04882812 C114.50133553 152.03777875 118.75065312 152.02050386 123 152 C123.00364563 150.69343445 123.00729126 149.3868689 123.01104736 148.04071045 C123.04795774 135.73910905 123.10568714 123.4377589 123.18390274 111.13634872 C123.22344427 104.81175433 123.25560008 98.48730057 123.27099609 92.16259766 C123.28611855 86.06108561 123.3204859 79.95996002 123.36830902 73.85861969 C123.38316835 71.5286113 123.39104361 69.19854775 123.39188385 66.86849213 C123.39424151 63.60949802 123.42122539 60.35158239 123.45410156 57.09277344 C123.44655602 55.64160378 123.44655602 55.64160378 123.43885803 54.16111755 C123.54032303 47.67782342 123.54032303 47.67782342 125.78411865 44.36920166 C128.59161543 42.63443854 130.78227323 43 134 43 C134 39.04 134 35.08 134 31 C154.79 31 175.58 31 197 31 C197 20.77 197 10.54 197 0 C201.29 0 205.58 0 210 0 C210 14.19 210 28.38 210 43 C205.71 43 201.42 43 197 43 C197 79.3 197 115.6 197 153 C193.7 153 190.4 153 187 153 C187 156.63 187 160.26 187 164 C132.88 164 78.76 164 23 164 C23 160.37 23 156.74 23 153 C19.7 153 16.4 153 13 153 C13 116.7 13 80.4 13 43 C8.71 43 4.42 43 0 43 C0 28.81 0 14.62 0 0 Z " fill="#8D556F" transform="translate(175,178)"/>
<path d="M0 0 C0.77943466 0.00222061 1.55886932 0.00444122 2.36192322 0.00672913 C3.24276077 0.00680466 4.12359833 0.00688019 5.03112793 0.00695801 C5.98841293 0.01211929 6.94569794 0.01728058 7.93199158 0.02259827 C9.39480812 0.02472069 9.39480812 0.02472069 10.88717651 0.02688599 C14.01542675 0.03250319 17.14360656 0.04505859 20.27183533 0.05775452 C22.38706867 0.0627673 24.50230313 0.06733059 26.61753845 0.07142639 C31.81482829 0.0824782 37.01207678 0.09923305 42.20933533 0.12025452 C43.92399568 3.54957523 43.26337589 7.33741517 43.20933533 11.12025452 C46.50933533 11.12025452 49.80933533 11.12025452 53.20933533 11.12025452 C55.20488692 15.11135771 55.40479598 16.82012017 55.20933533 21.12025452 C56.34371033 21.09962952 57.47808533 21.07900452 58.64683533 21.05775452 C62.20933533 21.12025452 62.20933533 21.12025452 63.20933533 22.12025452 C63.666992 25.1091481 63.91254484 28.109951 64.20933533 31.12025452 C68.49933533 31.12025452 72.78933533 31.12025452 77.20933533 31.12025452 C77.86933533 27.82025452 78.52933533 24.52025452 79.20933533 21.12025452 C81.84933533 21.12025452 84.48933533 21.12025452 87.20933533 21.12025452 C87.19773376 20.48216858 87.1861322 19.84408264 87.17417908 19.18666077 C87.16515564 18.3603717 87.1561322 17.53408264 87.14683533 16.68275452 C87.13523376 15.85904358 87.1236322 15.03533264 87.11167908 14.18666077 C87.20933533 12.12025452 87.20933533 12.12025452 88.20933533 11.12025452 C89.89542499 11.0481994 91.58434192 11.03639384 93.27183533 11.05775452 C94.19093689 11.06677795 95.11003845 11.07580139 96.05699158 11.08509827 C96.76726501 11.09669983 97.47753845 11.10830139 98.20933533 11.12025452 C98.26992126 10.40998108 98.3305072 9.69970764 98.39292908 8.96791077 C98.47671814 8.0488092 98.5605072 7.12970764 98.64683533 6.18275452 C98.76865173 4.80796936 98.76865173 4.80796936 98.89292908 3.40541077 C99.20933533 1.12025452 99.20933533 1.12025452 100.20933533 0.12025452 C101.59093647 0.02747122 102.9772157 0.00278409 104.36192322 0.00672913 C105.24276077 0.00680466 106.12359833 0.00688019 107.03112793 0.00695801 C107.98841293 0.01211929 108.94569794 0.01728058 109.93199158 0.02259827 C111.39480812 0.02472069 111.39480812 0.02472069 112.88717651 0.02688599 C116.01542675 0.03250319 119.14360656 0.04505859 122.27183533 0.05775452 C124.38706867 0.0627673 126.50230313 0.06733059 128.61753845 0.07142639 C133.81482829 0.0824782 139.01207678 0.09923305 144.20933533 0.12025452 C145.49251425 3.96979128 145.2757717 7.06763587 145.20933533 11.12025452 C148.50933533 11.12025452 151.80933533 11.12025452 155.20933533 11.12025452 C155.20933533 14.42025452 155.20933533 17.72025452 155.20933533 21.12025452 C156.52933533 21.45025452 157.84933533 21.78025452 159.20933533 22.12025452 C159.53933533 23.11025452 159.86933533 24.10025452 160.20933533 25.12025452 C160.88190369 25.671651 161.55447205 26.22304749 162.24742126 26.79115295 C165.04906085 30.11714121 164.71153462 33.24173797 164.59996033 37.38587952 C164.59430054 38.17927734 164.58864075 38.97267517 164.58280945 39.79011536 C164.56046679 42.31744925 164.51027708 44.84335117 164.45933533 47.37025452 C164.43926747 49.08637983 164.4210172 50.80252744 164.40464783 52.51869202 C164.36060928 56.71976232 164.29159859 60.91976586 164.20933533 65.12025452 C164.9080072 65.10865295 165.60667908 65.09705139 166.32652283 65.08509827 C167.23660095 65.07607483 168.14667908 65.06705139 169.08433533 65.05775452 C169.9892572 65.04615295 170.89417908 65.03455139 171.82652283 65.02259827 C174.20933533 65.12025452 174.20933533 65.12025452 176.20933533 66.12025452 C177.05990477 69.67718129 177.3784334 71.6129603 176.20933533 75.12025452 C179.17933533 75.45025452 182.14933533 75.78025452 185.20933533 76.12025452 C185.36396898 84.0312258 185.51213684 91.94228172 185.65229893 99.85352135 C185.71759604 103.52794856 185.78502867 107.20230947 185.85752869 110.87660217 C185.92755602 114.42972004 185.99172958 117.98290189 186.05203056 121.53619766 C186.08743561 123.53567561 186.12873226 125.53504647 186.17016602 127.53440857 C186.28264224 134.47749733 186.12563954 141.23233023 185.20933533 148.12025452 C184.21933533 148.45025452 183.22933533 148.78025452 182.20933533 149.12025452 C181.87933533 150.11025452 181.54933533 151.10025452 181.20933533 152.12025452 C178.89933533 152.45025452 176.58933533 152.78025452 174.20933533 153.12025452 C173.3668935 164.07876529 173.08045245 174.94950266 173.13417053 185.93687057 C173.14716859 188.61870358 173.15350614 191.30048606 173.15830994 193.98234558 C173.16959942 199.6533385 173.18891024 205.32428815 173.20933533 210.99525452 C173.23297735 217.62169701 173.2532886 224.24811718 173.26527405 230.87459183 C173.27175465 233.51704799 173.28424789 236.15943227 173.29698181 238.80186462 C173.30061105 240.40783119 173.30396318 242.01379842 173.30699158 243.61976624 C173.3121579 244.35419952 173.31732422 245.08863281 173.32264709 245.84532166 C173.32317848 250.89256821 173.32317848 250.89256821 172.20933533 253.12025452 C170.88933533 253.12025452 169.56933533 253.12025452 168.20933533 253.12025452 C168.20933533 256.09025452 168.20933533 259.06025452 168.20933533 262.12025452 C165.56933533 262.45025452 162.92933533 262.78025452 160.20933533 263.12025452 C159.87933533 265.76025452 159.54933533 268.40025452 159.20933533 271.12025452 C101.12933533 271.12025452 43.04933533 271.12025452 -16.79066467 271.12025452 C-17.28566467 267.16025452 -17.28566467 267.16025452 -17.79066467 263.12025452 C-20.43066467 262.79025452 -23.07066467 262.46025452 -25.79066467 262.12025452 C-25.92087301 260.10202535 -26.05108134 258.08379618 -26.18128967 256.06556702 C-26.38238342 255.42361389 -26.58347717 254.78166077 -26.79066467 254.12025452 C-28.11066467 253.46025452 -29.43066467 252.80025452 -30.79066467 252.12025452 C-31.12066467 219.45025452 -31.45066467 186.78025452 -31.79066467 153.12025452 C-34.10066467 152.79025452 -36.41066467 152.46025452 -38.79066467 152.12025452 C-38.79066467 150.80025452 -38.79066467 149.48025452 -38.79066467 148.12025452 C-40.11066467 148.12025452 -41.43066467 148.12025452 -42.79066467 148.12025452 C-43.80046716 134.13598528 -43.9459314 120.19043125 -43.92103577 106.17323303 C-43.91558651 102.50514255 -43.92105955 98.83716984 -43.92738342 95.16908264 C-43.9267241 92.83900425 -43.92544598 90.50892592 -43.92347717 88.17884827 C-43.9255014 87.08116623 -43.92752563 85.98348419 -43.92961121 84.85253906 C-43.92645905 83.84961319 -43.92330688 82.84668732 -43.9200592 81.81336975 C-43.91926361 80.92834274 -43.91846802 80.04331573 -43.91764832 79.13146973 C-43.79066467 77.12025452 -43.79066467 77.12025452 -42.79066467 76.12025452 C-40.12007616 75.9791029 -37.4663423 76.07778344 -34.79066467 76.12025452 C-34.81128967 74.86212952 -34.83191467 73.60400452 -34.85316467 72.30775452 C-34.89952551 69.47974364 -34.70759429 67.87104336 -33.79066467 65.12025452 C-29.83066467 65.12025452 -25.87066467 65.12025452 -21.79066467 65.12025452 C-21.79066467 52.91025452 -21.79066467 40.70025452 -21.79066467 28.12025452 C-20.47066467 27.46025452 -19.15066467 26.80025452 -17.79066467 26.12025452 C-16.97895239 23.5650553 -16.97895239 23.5650553 -16.79066467 21.12025452 C-15.47066467 21.12025452 -14.15066467 21.12025452 -12.79066467 21.12025452 C-12.79066467 17.82025452 -12.79066467 14.52025452 -12.79066467 11.12025452 C-9.49066467 11.12025452 -6.19066467 11.12025452 -2.79066467 11.12025452 C-2.81128967 9.49087952 -2.83191467 7.86150452 -2.85316467 6.18275452 C-2.87452535 4.49526111 -2.86271979 2.80634418 -2.79066467 1.12025452 C-1.79066467 0.12025452 -1.79066467 0.12025452 0 0 Z M9.20933533 11.12025452 C9.20933533 14.42025452 9.20933533 17.72025452 9.20933533 21.12025452 C5.57933533 21.12025452 1.94933533 21.12025452 -1.79066467 21.12025452 C-1.79066467 24.75025452 -1.79066467 28.38025452 -1.79066467 32.12025452 C-5.09066467 32.12025452 -8.39066467 32.12025452 -11.79066467 32.12025452 C-11.79066467 42.68025452 -11.79066467 53.24025452 -11.79066467 64.12025452 C-8.49066467 64.12025452 -5.19066467 64.12025452 -1.79066467 64.12025452 C-1.79066467 68.08025452 -1.79066467 72.04025452 -1.79066467 76.12025452 C-8.06066467 76.12025452 -14.33066467 76.12025452 -20.79066467 76.12025452 C-20.79066467 79.42025452 -20.79066467 82.72025452 -20.79066467 86.12025452 C-25.08066467 86.12025452 -29.37066467 86.12025452 -33.79066467 86.12025452 C-33.79066467 100.64025452 -33.79066467 115.16025452 -33.79066467 130.12025452 C-29.50066467 130.12025452 -25.21066467 130.12025452 -20.79066467 130.12025452 C-20.79066467 166.42025452 -20.79066467 202.72025452 -20.79066467 240.12025452 C-17.49066467 240.12025452 -14.19066467 240.12025452 -10.79066467 240.12025452 C-10.79066467 243.75025452 -10.79066467 247.38025452 -10.79066467 251.12025452 C43.32933533 251.12025452 97.44933533 251.12025452 153.20933533 251.12025452 C153.20933533 247.49025452 153.20933533 243.86025452 153.20933533 240.12025452 C156.50933533 240.12025452 159.80933533 240.12025452 163.20933533 240.12025452 C163.20933533 203.82025452 163.20933533 167.52025452 163.20933533 130.12025452 C167.49933533 130.12025452 171.78933533 130.12025452 176.20933533 130.12025452 C176.20933533 115.60025452 176.20933533 101.08025452 176.20933533 86.12025452 C171.91933533 86.12025452 167.62933533 86.12025452 163.20933533 86.12025452 C163.20933533 82.82025452 163.20933533 79.52025452 163.20933533 76.12025452 C156.93933533 76.12025452 150.66933533 76.12025452 144.20933533 76.12025452 C144.20933533 72.16025452 144.20933533 68.20025452 144.20933533 64.12025452 C147.50933533 64.12025452 150.80933533 64.12025452 154.20933533 64.12025452 C154.20933533 53.56025452 154.20933533 43.00025452 154.20933533 32.12025452 C150.90933533 32.12025452 147.60933533 32.12025452 144.20933533 32.12025452 C144.20933533 28.49025452 144.20933533 24.86025452 144.20933533 21.12025452 C140.57933533 21.12025452 136.94933533 21.12025452 133.20933533 21.12025452 C133.20933533 17.82025452 133.20933533 14.52025452 133.20933533 11.12025452 C125.94933533 11.12025452 118.68933533 11.12025452 111.20933533 11.12025452 C111.20933533 14.42025452 111.20933533 17.72025452 111.20933533 21.12025452 C107.57933533 21.12025452 103.94933533 21.12025452 100.20933533 21.12025452 C100.20933533 24.75025452 100.20933533 28.38025452 100.20933533 32.12025452 C96.24933533 32.12025452 92.28933533 32.12025452 88.20933533 32.12025452 C88.20933533 35.42025452 88.20933533 38.72025452 88.20933533 42.12025452 C76.98933533 42.12025452 65.76933533 42.12025452 54.20933533 42.12025452 C54.20933533 38.82025452 54.20933533 35.52025452 54.20933533 32.12025452 C50.24933533 32.12025452 46.28933533 32.12025452 42.20933533 32.12025452 C42.20933533 28.49025452 42.20933533 24.86025452 42.20933533 21.12025452 C38.57933533 21.12025452 34.94933533 21.12025452 31.20933533 21.12025452 C31.20933533 17.82025452 31.20933533 14.52025452 31.20933533 11.12025452 C23.94933533 11.12025452 16.68933533 11.12025452 9.20933533 11.12025452 Z " fill="#F8F7F9" transform="translate(208.79066467285156,90.87974548339844)"/>
<path d="M0 0 C4.29 0 8.58 0 13 0 C13 14.19 13 28.38 13 43 C8.71 43 4.42 43 0 43 C0 79.3 0 115.6 0 153 C-24.42 153 -48.84 153 -74 153 C-73.91086931 126.70644721 -73.91086931 126.70644721 -73.83984375 115.515625 C-73.79145378 107.87369528 -73.74743 100.23191211 -73.72900391 92.58984375 C-73.71388187 86.42997876 -73.67951525 80.27049659 -73.63169098 74.1108017 C-73.61683122 71.75846429 -73.60895637 69.40607224 -73.60811615 67.05368805 C-73.60575862 63.76356484 -73.57877574 60.4745101 -73.54589844 57.18457031 C-73.5509288 56.20777313 -73.55595917 55.23097595 -73.56114197 54.22457886 C-73.45966714 47.67928711 -73.45966714 47.67928711 -71.21588135 44.36346436 C-68.40874291 42.63619082 -66.21407157 43 -63 43 C-63 39.04 -63 35.08 -63 31 C-42.21 31 -21.42 31 0 31 C0 20.77 0 10.54 0 0 Z " fill="#8C556F" transform="translate(372,178)"/>
<path d="M0 0 C7.26 0 14.52 0 22 0 C22 3.3 22 6.6 22 10 C25.63 10 29.26 10 33 10 C33 13.63 33 17.26 33 21 C36.96 21 40.92 21 45 21 C45 24.3 45 27.6 45 31 C56.22 31 67.44 31 79 31 C79 27.7 79 24.4 79 21 C82.96 21 86.92 21 91 21 C91 17.37 91 13.74 91 10 C94.63 10 98.26 10 102 10 C102 6.7 102 3.4 102 0 C109.26 0 116.52 0 124 0 C124 3.3 124 6.6 124 10 C127.63 10 131.26 10 135 10 C135 13.63 135 17.26 135 21 C138.3 21 141.6 21 145 21 C145 31.56 145 42.12 145 53 C137.74 53 130.48 53 123 53 C123 56.63 123 60.26 123 64 C116.07 64 109.14 64 102 64 C102 60.37 102 56.74 102 53 C98.37 53 94.74 53 91 53 C91 50.03 91 47.06 91 44 C94.3 44 97.6 44 101 44 C101 40.7 101 37.4 101 34 C97.7 34 94.4 34 91 34 C91.020625 35.299375 91.04125 36.59875 91.0625 37.9375 C91.08399454 39.29165633 91.07148199 40.64756083 91 42 C88.36476862 44.63523138 83.70828466 43.62917153 80 44 C79.67 50.93 79.34 57.86 79 65 C67.78 65 56.56 65 45 65 C45 57.41 45 49.82 45 42 C41.04 42 37.08 42 33 42 C33 39.36 33 36.72 33 34 C29.7 34 26.4 34 23 34 C23 37.3 23 40.6 23 44 C26.3 44 29.6 44 33 44 C33 46.97 33 49.94 33 53 C29.37 53 25.74 53 22 53 C22 56.63 22 60.26 22 64 C15.07 64 8.14 64 1 64 C1 60.37 1 56.74 1 53 C-6.26 53 -13.52 53 -21 53 C-21 42.44 -21 31.88 -21 21 C-17.7 21 -14.4 21 -11 21 C-11 17.37 -11 13.74 -11 10 C-7.37 10 -3.74 10 0 10 C0 6.7 0 3.4 0 0 Z " fill="#E39E6C" transform="translate(218,102)"/>
<path d="M0 0 C0.77915771 0.00202423 1.55831543 0.00404846 2.36108398 0.00613403 C3.15635498 0.00517731 3.95162598 0.00422058 4.77099609 0.00323486 C6.45564859 0.0025531 8.1403037 0.00440711 9.82495117 0.00857544 C12.41257595 0.01392378 15.00002714 0.00863034 17.58764648 0.00222778 C19.22045937 0.00288857 20.85327215 0.00416973 22.48608398 0.00613403 C23.2652417 0.0041098 24.04439941 0.00208557 24.84716797 0 C30.30863294 0.02399549 30.30863294 0.02399549 31.42358398 1.13894653 C31.57018329 3.32093359 31.65109961 5.50738805 31.70483398 7.69363403 C31.73244812 8.6796611 31.73244812 8.6796611 31.76062012 9.68560791 C31.81952679 11.79496077 31.87224857 13.90439664 31.92358398 16.01394653 C31.9912911 18.78234501 32.06503582 21.55048872 32.14233398 24.31863403 C32.17262695 25.55339478 32.20291992 26.78815552 32.23413086 28.06033325 C32.29339225 31.17730535 32.29339225 31.17730535 33.42358398 34.13894653 C33.42358398 34.79894653 33.42358398 35.45894653 33.42358398 36.13894653 C34.08358398 35.47894653 34.74358398 34.81894653 35.42358398 34.13894653 C36.41358398 34.13894653 37.40358398 34.13894653 38.42358398 34.13894653 C39.70929827 42.7103751 39.70929827 42.7103751 38.42358398 46.13894653 C37.10358398 46.13894653 35.78358398 46.13894653 34.42358398 46.13894653 C32.02010218 48.54242834 32.16983734 49.0794118 32.15184021 52.3589325 C32.14212189 53.24372284 32.13240356 54.12851318 32.12239075 55.04011536 C32.12180161 56.0131813 32.12121246 56.98624725 32.12060547 57.98880005 C32.10794647 59.52301605 32.10794647 59.52301605 32.09503174 61.08822632 C32.06916401 64.48143962 32.05709382 67.87456589 32.04467773 71.26785278 C32.02851429 73.61673176 32.01133554 75.96560396 31.99317932 78.31446838 C31.94740402 84.50694656 31.9126422 90.6994336 31.88098145 96.89199829 C31.82918299 106.80901843 31.76415708 116.72593914 31.69276619 126.64283562 C31.66984238 130.11789442 31.65362982 133.59294043 31.63804626 137.06803894 C31.62464548 139.18485658 31.6110312 141.30167289 31.59716797 143.41848755 C31.59324791 144.88112282 31.59324791 144.88112282 31.58924866 146.37330627 C31.57890091 147.69626205 31.57890091 147.69626205 31.56834412 149.04594421 C31.56256175 150.20212423 31.56256175 150.20212423 31.55666256 151.38166142 C31.42358398 153.13894653 31.42358398 153.13894653 30.42358398 154.13894653 C27.78072125 154.25231279 25.16496942 154.30312414 22.52124023 154.30691528 C21.72834091 154.31024368 20.93544159 154.31357208 20.11851501 154.31700134 C18.43806541 154.3220738 16.75760569 154.32440957 15.07714844 154.32424927 C12.5004014 154.32643439 9.92408323 154.34458262 7.34741211 154.36355591 C5.71785629 154.36648999 4.08829843 154.36847469 2.45874023 154.36941528 C1.29774559 154.38019356 1.29774559 154.38019356 0.11329651 154.39118958 C-5.34759349 154.36776906 -5.34759349 154.36776906 -7.57641602 152.13894653 C-7.8068943 150.23740959 -7.8068943 150.23740959 -7.77896118 147.87426758 C-7.77329636 146.97961792 -7.76763153 146.08496826 -7.76179504 145.16320801 C-7.73698311 143.68722641 -7.73698311 143.68722641 -7.71166992 142.181427 C-7.7022084 141.14725647 -7.69274689 140.11308594 -7.68299866 139.0475769 C-7.64922341 135.61691983 -7.60113463 132.18661695 -7.55297852 128.75613403 C-7.52682147 126.38245581 -7.50155367 124.00876762 -7.47714233 121.6350708 C-7.41039271 115.37793414 -7.33152122 109.12100596 -7.25018311 102.86404419 C-7.16935921 96.48310366 -7.09991928 90.10204056 -7.02954102 83.72097778 C-6.88968433 71.19348828 -6.73741651 58.66618121 -6.57641602 46.13894653 C-7.23641602 45.80894653 -7.89641602 45.47894653 -8.57641602 45.13894653 C-8.08141602 44.64394653 -8.08141602 44.64394653 -7.57641602 44.13894653 C-9.55641602 43.80894653 -11.53641602 43.47894653 -13.57641602 43.13894653 C-13.90641602 44.12894653 -14.23641602 45.11894653 -14.57641602 46.13894653 C-14.60353668 44.70155141 -14.62286669 43.2640079 -14.63891602 41.82644653 C-14.65051758 41.02593872 -14.66211914 40.22543091 -14.67407227 39.40066528 C-14.57641602 37.13894653 -14.57641602 37.13894653 -13.57641602 34.13894653 C-11.59641602 34.46894653 -9.61641602 34.79894653 -7.57641602 35.13894653 C-7.53883179 33.60186035 -7.53883179 33.60186035 -7.50048828 32.03372192 C-7.40657118 28.24484977 -7.30631284 24.45616772 -7.20410156 20.66751099 C-7.16069305 19.0253035 -7.11902244 17.38304914 -7.07910156 15.74075317 C-7.02154162 13.38505908 -6.9578071 11.02960225 -6.89282227 8.67410278 C-6.87610977 7.93555557 -6.85939728 7.19700836 -6.84217834 6.43608093 C-6.65732899 0.12810257 -6.29141985 0.02764198 0 0 Z " fill="#FCD269" transform="translate(267.576416015625,176.86105346679688)"/>
<path d="M0 0 C17.49 0 34.98 0 53 0 C53 23.1 53 46.2 53 70 C49.04 70 45.08 70 41 70 C41 73.96 41 77.92 41 82 C27.47 82 13.94 82 0 82 C0 54.94 0 27.88 0 0 Z " fill="#B292DC" transform="translate(309,239)"/>
<path d="M0 0 C17.49 0 34.98 0 53 0 C53 27.06 53 54.12 53 82 C39.47 82 25.94 82 12 82 C12 78.04 12 74.08 12 70 C8.04 70 4.08 70 0 70 C0 46.9 0 23.8 0 0 Z " fill="#B292DC" transform="translate(198,239)"/>
<path d="M0 0 C4.29 0 8.58 0 13 0 C13 10.23 13 20.46 13 31 C33.79 31 54.58 31 76 31 C76 34.96 76 38.92 76 43 C58.51 43 41.02 43 23 43 C23 79.3 23 115.6 23 153 C19.7 153 16.4 153 13 153 C13 116.7 13 80.4 13 43 C8.71 43 4.42 43 0 43 C0 28.81 0 14.62 0 0 Z " fill="#512263" transform="translate(175,178)"/>
<path d="M0 0 C4.29 0 8.58 0 13 0 C13 14.19 13 28.38 13 43 C8.71 43 4.42 43 0 43 C0 79.3 0 115.6 0 153 C-3.3 153 -6.6 153 -10 153 C-10 116.7 -10 80.4 -10 43 C-27.49 43 -44.98 43 -63 43 C-63 39.04 -63 35.08 -63 31 C-42.21 31 -21.42 31 0 31 C0 20.77 0 10.54 0 0 Z " fill="#532365" transform="translate(372,178)"/>
<path d="M0 0 C0.77915771 0.00202423 1.55831543 0.00404846 2.36108398 0.00613403 C3.15635498 0.00517731 3.95162598 0.00422058 4.77099609 0.00323486 C6.45564859 0.0025531 8.1403037 0.00440711 9.82495117 0.00857544 C12.41257595 0.01392378 15.00002714 0.00863034 17.58764648 0.00222778 C19.22045937 0.00288857 20.85327215 0.00416973 22.48608398 0.00613403 C23.2652417 0.0041098 24.04439941 0.00208557 24.84716797 0 C30.30863294 0.02399549 30.30863294 0.02399549 31.42358398 1.13894653 C31.57018329 3.32093359 31.65109961 5.50738805 31.70483398 7.69363403 C31.73244812 8.6796611 31.73244812 8.6796611 31.76062012 9.68560791 C31.81952679 11.79496077 31.87224857 13.90439664 31.92358398 16.01394653 C31.9912911 18.78234501 32.06503582 21.55048872 32.14233398 24.31863403 C32.17262695 25.55339478 32.20291992 26.78815552 32.23413086 28.06033325 C32.29339225 31.17730535 32.29339225 31.17730535 33.42358398 34.13894653 C33.42358398 34.79894653 33.42358398 35.45894653 33.42358398 36.13894653 C34.08358398 35.47894653 34.74358398 34.81894653 35.42358398 34.13894653 C36.41358398 34.13894653 37.40358398 34.13894653 38.42358398 34.13894653 C39.70929827 42.7103751 39.70929827 42.7103751 38.42358398 46.13894653 C37.10358398 46.13894653 35.78358398 46.13894653 34.42358398 46.13894653 C32.01993505 48.54259547 32.16859991 49.08505516 32.14511108 52.36566162 C32.1339476 53.25189713 32.12278412 54.13813263 32.11128235 55.05122375 C32.10912216 56.02586075 32.10696198 57.00049774 32.10473633 58.00466919 C32.08966789 59.54129463 32.08966789 59.54129463 32.07429504 61.10896301 C32.04331701 64.50697245 32.02638732 67.9049026 32.00952148 71.30300903 C31.9908216 73.65428354 31.97124909 76.00555126 31.95083618 78.35681152 C31.8993844 84.554596 31.85982861 90.75240227 31.82269287 96.95028687 C31.78273483 103.27104133 31.73160519 109.59170415 31.68139648 115.91238403 C31.58448279 128.32117394 31.5001276 140.73001544 31.42358398 153.13894653 C30.76358398 153.46894653 30.10358398 153.79894653 29.42358398 154.13894653 C29.42358398 117.83894653 29.42358398 81.53894653 29.42358398 44.13894653 C18.20358398 44.13894653 6.98358398 44.13894653 -4.57641602 44.13894653 C-4.57641602 80.43894653 -4.57641602 116.73894653 -4.57641602 154.13894653 C-5.56641602 153.47894653 -6.55641602 152.81894653 -7.57641602 152.13894653 C-7.92994213 150.23740959 -7.92994213 150.23740959 -7.8992157 147.87426758 C-7.89492554 146.97961792 -7.89063538 146.08496826 -7.88621521 145.16320801 C-7.86607864 144.17922028 -7.84594208 143.19523254 -7.82519531 142.181427 C-7.81587982 141.14725647 -7.80656433 140.11308594 -7.79696655 139.0475769 C-7.7624911 135.61676902 -7.70661421 132.186653 -7.65063477 128.75613403 C-7.62261345 126.38246143 -7.5959218 124.00877278 -7.57051086 121.6350708 C-7.49993622 115.37783841 -7.41123633 109.12098746 -7.31884766 102.86404419 C-7.22780768 96.48315367 -7.15378995 90.10206866 -7.07836914 83.72097778 C-6.92777609 71.1933863 -6.75862499 58.666116 -6.57641602 46.13894653 C-7.23641602 45.80894653 -7.89641602 45.47894653 -8.57641602 45.13894653 C-8.08141602 44.64394653 -8.08141602 44.64394653 -7.57641602 44.13894653 C-9.55641602 43.80894653 -11.53641602 43.47894653 -13.57641602 43.13894653 C-13.90641602 44.12894653 -14.23641602 45.11894653 -14.57641602 46.13894653 C-14.60353668 44.70155141 -14.62286669 43.2640079 -14.63891602 41.82644653 C-14.65051758 41.02593872 -14.66211914 40.22543091 -14.67407227 39.40066528 C-14.57641602 37.13894653 -14.57641602 37.13894653 -13.57641602 34.13894653 C-11.59641602 34.46894653 -9.61641602 34.79894653 -7.57641602 35.13894653 C-7.53883179 33.60186035 -7.53883179 33.60186035 -7.50048828 32.03372192 C-7.40657118 28.24484977 -7.30631284 24.45616772 -7.20410156 20.66751099 C-7.16069305 19.0253035 -7.11902244 17.38304914 -7.07910156 15.74075317 C-7.02154162 13.38505908 -6.9578071 11.02960225 -6.89282227 8.67410278 C-6.87610977 7.93555557 -6.85939728 7.19700836 -6.84217834 6.43608093 C-6.65732899 0.12810257 -6.29141985 0.02764198 0 0 Z " fill="#8E5367" transform="translate(267.576416015625,176.86105346679688)"/>
<path d="M0 0 C1.65 0 3.3 0 5 0 C5 1.32 5 2.64 5 4 C6.32 4 7.64 4 9 4 C9 5.65 9 7.3 9 9 C10.65 9 12.3 9 14 9 C14 11.64 14 14.28 14 17 C71.42 17 128.84 17 188 17 C188 14.36 188 11.72 188 9 C189.65 9 191.3 9 193 9 C193 7.35 193 5.7 193 4 C194.32 4 195.64 4 197 4 C197 2.68 197 1.36 197 0 C198.65 0 200.3 0 202 0 C202 2.97 202 5.94 202 9 C200.68 9 199.36 9 198 9 C198 11.97 198 14.94 198 18 C195.36 18.33 192.72 18.66 190 19 C189.67 21.64 189.34 24.28 189 27 C130.92 27 72.84 27 13 27 C12.67 24.36 12.34 21.72 12 19 C9.36 18.67 6.72 18.34 4 18 C3.67 15.36 3.34 12.72 3 10 C2.01 9.67 1.02 9.34 0 9 C0 6.03 0 3.06 0 0 Z " fill="#7D95A7" transform="translate(179,335)"/>
<path d="M0 0 C20.79 0 41.58 0 63 0 C63 10.23 63 20.46 63 31 C42.21 31 21.42 31 0 31 C0 20.77 0 10.54 0 0 Z " fill="#B291DB" transform="translate(188,178)"/>
<path d="M0 0 C20.79 0 41.58 0 63 0 C63 9.9 63 19.8 63 30 C42.21 30 21.42 30 0 30 C0 20.1 0 10.2 0 0 Z " fill="#B392DC" transform="translate(309,178)"/>
<path d="M0 0 C54.12 0 108.24 0 164 0 C164 3.63 164 7.26 164 11 C109.88 11 55.76 11 0 11 C0 7.37 0 3.74 0 0 Z " fill="#532363" transform="translate(198,331)"/>
<path d="M0 0 C7.26 0 14.52 0 22 0 C22 3.3 22 6.6 22 10 C25.63 10 29.26 10 33 10 C33 13.63 33 17.26 33 21 C36.3 21 39.6 21 43 21 C43 31.56 43 42.12 43 53 C35.74 53 28.48 53 21 53 C21 56.63 21 60.26 21 64 C14.07 64 7.14 64 0 64 C0 57.4 0 50.8 0 44 C3.63 44 7.26 44 11 44 C11 40.7 11 37.4 11 34 C14.63 34 18.26 34 22 34 C22 37.3 22 40.6 22 44 C26.95 43.505 26.95 43.505 32 43 C32 36.4 32 29.8 32 23 C28.04 23 24.08 23 20 23 C20 19.37 20 15.74 20 12 C13.73 12 7.46 12 1 12 C1 14.97 1 17.94 1 21 C-2.96 21 -6.92 21 -11 21 C-11 17.37 -11 13.74 -11 10 C-7.37 10 -3.74 10 0 10 C0 6.7 0 3.4 0 0 Z " fill="#EDC088" transform="translate(320,102)"/>
<path d="M0 0 C6.27 0 12.54 0 19 0 C19 3.63 19 7.26 19 11 C22.96 11 26.92 11 31 11 C31.495 21.395 31.495 21.395 32 32 C28.37 32 24.74 32 21 32 C21 28.7 21 25.4 21 22 C17.37 22 13.74 22 10 22 C10 25.3 10 28.6 10 32 C6.37 32 2.74 32 -1 32 C-1 34.97 -1 37.94 -1 41 C-4.63 41 -8.26 41 -12 41 C-12 38.03 -12 35.06 -12 32 C-8.7 32 -5.4 32 -2 32 C-2 28.7 -2 25.4 -2 22 C-5.3 22 -8.6 22 -12 22 C-12 24.64 -12 27.28 -12 30 C-15.63 30 -19.26 30 -23 30 C-23 26.37 -23 22.74 -23 19 C-19.37 19 -15.74 19 -12 19 C-12 15.7 -12 12.4 -12 9 C-8.04 9 -4.08 9 0 9 C0 6.03 0 3.06 0 0 Z " fill="#F9CE70" transform="translate(321,114)"/>
<path d="M0 0 C7.26 0 14.52 0 22 0 C22.33 7.26 22.66 14.52 23 22 C25.64 22.33 28.28 22.66 31 23 C31.495 27.95 31.495 27.95 32 33 C28.625 32.25 28.625 32.25 25 31 C24.34 29.68 23.68 28.36 23 27 C19.04 27 15.08 27 11 27 C11 29.31 11 31.62 11 34 C7.37 34 3.74 34 0 34 C0 37.3 0 40.6 0 44 C-3.63 44 -7.26 44 -11 44 C-11 32.78 -11 21.56 -11 10 C-7.37 10 -3.74 10 0 10 C0 6.7 0 3.4 0 0 Z " fill="#F8CD76" transform="translate(218,102)"/>
<path d="M0 0 C11.22 0 22.44 0 34 0 C34 10.56 34 21.12 34 32 C22.78 32 11.56 32 0 32 C0 21.44 0 10.88 0 0 Z " fill="#FCD269" transform="translate(263,177)"/>
<path d="M0 0 C17.49 0 34.98 0 53 0 C53 5.94 53 11.88 53 18 C35.51 18 18.02 18 0 18 C0 12.06 0 6.12 0 0 Z " fill="#8A6BBD" transform="translate(198,221)"/>
<path d="M0 0 C17.49 0 34.98 0 53 0 C53 5.94 53 11.88 53 18 C35.51 18 18.02 18 0 18 C0 12.06 0 6.12 0 0 Z " fill="#8A6ABD" transform="translate(309,221)"/>
<path d="M0 0 C3.96 0 7.92 0 12 0 C12 3.3 12 6.6 12 10 C8.37 10 4.74 10 1 10 C1 13.63 1 17.26 1 21 C4.3 21 7.6 21 11 21 C11 21.33 11 21.66 11 22 C7.7 22.33 4.4 22.66 1 23 C0.67 29.93 0.34 36.86 0 44 C-11.22 44 -22.44 44 -34 44 C-34 36.41 -34 28.82 -34 21 C-22.78 21 -11.56 21 0 21 C0 14.07 0 7.14 0 0 Z " fill="#E8A065" transform="translate(297,123)"/>
<path d="M0 0 C3.63 0 7.26 0 11 0 C11 3.63 11 7.26 11 11 C14.96 11 18.92 11 23 11 C23 14.3 23 17.6 23 21 C34.22 21 45.44 21 57 21 C57 24.63 57 28.26 57 32 C41.82 32 26.64 32 11 32 C11 29.36 11 26.72 11 24 C7.7 24 4.4 24 1 24 C1 22.35 1 20.7 1 19 C1.66 18.67 2.32 18.34 3 18 C3.33 18.99 3.66 19.98 4 21 C5.65 21.33 7.3 21.66 9 22 C9 19.03 9 16.06 9 13 C7.700625 13.020625 6.40125 13.04125 5.0625 13.0625 C3.70834367 13.08399454 2.35243917 13.07148199 1 13 C0 12 0 12 -0.09765625 9.27734375 C-0.08605469 8.17519531 -0.07445312 7.07304688 -0.0625 5.9375 C-0.05347656 4.83277344 -0.04445312 3.72804688 -0.03515625 2.58984375 C-0.02355469 1.73519531 -0.01195312 0.88054687 0 0 Z " fill="#F4C483" transform="translate(240,112)"/>
<path d="M0 0 C1.65 0 3.3 0 5 0 C5 1.32 5 2.64 5 4 C6.32 4 7.64 4 9 4 C9 5.65 9 7.3 9 9 C10.65 9 12.3 9 14 9 C14 11.64 14 14.28 14 17 C71.42 17 128.84 17 188 17 C188 14.36 188 11.72 188 9 C189.65 9 191.3 9 193 9 C193 7.35 193 5.7 193 4 C194.32 4 195.64 4 197 4 C197 2.68 197 1.36 197 0 C198.65 0 200.3 0 202 0 C202 2.97 202 5.94 202 9 C200.68 9 199.36 9 198 9 C198 11.97 198 14.94 198 18 C195.36 18.33 192.72 18.66 190 19 C189.67 21.64 189.34 24.28 189 27 C130.92 27 72.84 27 13 27 C12.67 24.36 12.34 21.72 12 19 C9.36 18.67 6.72 18.34 4 18 C3.67 15.36 3.34 12.72 3 10 C2.01 9.67 1.02 9.34 0 9 C0 6.03 0 3.06 0 0 Z M14 18 C14 20.64 14 23.28 14 26 C71.42 26 128.84 26 188 26 C188 23.36 188 20.72 188 18 C130.58 18 73.16 18 14 18 Z " fill="#B5C5D0" transform="translate(179,335)"/>
<path d="M0 0 C3.96 0 7.92 0 12 0 C12 7.26 12 14.52 12 22 C-5.49 22 -22.98 22 -41 22 C-41 18.7 -41 15.4 -41 12 C-27.47 12 -13.94 12 0 12 C0 8.04 0 4.08 0 0 Z " fill="#8B6BBC" transform="translate(350,309)"/>
<path d="M0 0 C3.96 0 7.92 0 12 0 C12 3.96 12 7.92 12 12 C25.53 12 39.06 12 53 12 C53 15.3 53 18.6 53 22 C35.51 22 18.02 22 0 22 C0 14.74 0 7.48 0 0 Z " fill="#8B6BBD" transform="translate(198,309)"/>
<path d="M0 0 C3.63 0 7.26 0 11 0 C11 3.3 11 6.6 11 10 C14.63 10 18.26 10 22 10 C22 12.97 22 15.94 22 19 C18.04 19 14.08 19 10 19 C10 22.63 10 26.26 10 30 C3.07 30 -3.86 30 -11 30 C-11 23.4 -11 16.8 -11 10 C-7.37 10 -3.74 10 0 10 C0 6.7 0 3.4 0 0 Z " fill="#E89E6B" transform="translate(331,136)"/>
<path d="M0 0 C20.79 0 41.58 0 63 0 C63 3.3 63 6.6 63 10 C42.21 10 21.42 10 0 10 C0 6.7 0 3.4 0 0 Z " fill="#542361" transform="translate(309,167)"/>
<path d="M0 0 C20.79 0 41.58 0 63 0 C63 3.3 63 6.6 63 10 C42.21 10 21.42 10 0 10 C0 6.7 0 3.4 0 0 Z " fill="#542360" transform="translate(188,167)"/>
<path d="M0 0 C1.65 0 3.3 0 5 0 C5.33 2.64 5.66 5.28 6 8 C6.9590625 8.1546875 6.9590625 8.1546875 7.9375 8.3125 C8.618125 8.539375 9.29875 8.76625 10 9 C10.33 9.99 10.66 10.98 11 12 C13.31 12.33 15.62 12.66 18 13 C18.38218767 14.65614657 18.71395102 16.32457024 19 18 C18 19 18 19 16.15234375 19.09765625 C14.1015625 19.06510417 12.05078125 19.03255208 10 19 C9.67 20.65 9.34 22.3 9 24 C8.01 24 7.02 24 6 24 C6.04125 24.928125 6.0825 25.85625 6.125 26.8125 C6 30 6 30 4 33 C0.125 32.125 0.125 32.125 -1 31 C-1.04092937 28.66702567 -1.04241723 26.33294775 -1 24 C-1.9590625 23.566875 -1.9590625 23.566875 -2.9375 23.125 C-5 22 -5 22 -6 20 C-8.32156597 19.59270772 -10.6568787 19.25561323 -13 19 C-13.38218767 17.34385343 -13.71395102 15.67542976 -14 14 C-13 13 -13 13 -11.15234375 12.90234375 C-9.1015625 12.93489583 -7.05078125 12.96744792 -5 13 C-4.34 11.35 -3.68 9.7 -3 8 C-2.34 8 -1.68 8 -1 8 C-1.020625 7.05125 -1.04125 6.1025 -1.0625 5.125 C-1 2 -1 2 0 0 Z " fill="#F5F8F9" transform="translate(122,94)"/>
<path d="M0 0 C11.22 0 22.44 0 34 0 C34 4.29 34 8.58 34 13 C22.78 13 11.56 13 0 13 C0 8.71 0 4.42 0 0 Z " fill="#E69E65" transform="translate(263,221)"/>
<path d="M0 0 C1.2065625 0.0309375 1.2065625 0.0309375 2.4375 0.0625 C2.7675 2.7025 3.0975 5.3425 3.4375 8.0625 C4.7575 8.3925 6.0775 8.7225 7.4375 9.0625 C7.4375 10.0525 7.4375 11.0425 7.4375 12.0625 C8.365625 12.02125 9.29375 11.98 10.25 11.9375 C13.4375 12.0625 13.4375 12.0625 16.4375 14.0625 C16.1075 15.7125 15.7775 17.3625 15.4375 19.0625 C12.7975 19.0625 10.1575 19.0625 7.4375 19.0625 C7.334375 19.660625 7.23125 20.25875 7.125 20.875 C6.4375 23.0625 6.4375 23.0625 5 24.4375 C2.83617306 26.68788002 2.29234398 29.10342468 1.4375 32.0625 C0.1175 32.0625 -1.2025 32.0625 -2.5625 32.0625 C-2.75585938 31.45921875 -2.94921875 30.8559375 -3.1484375 30.234375 C-3.40882813 29.43515625 -3.66921875 28.6359375 -3.9375 27.8125 C-4.19273437 27.02359375 -4.44796875 26.2346875 -4.7109375 25.421875 C-5.51423667 23.19622042 -6.45961662 21.15318328 -7.5625 19.0625 C-9.233125 19.124375 -9.233125 19.124375 -10.9375 19.1875 C-14.5625 19.0625 -14.5625 19.0625 -16.5625 17.0625 C-16.3125 15 -16.3125 15 -15.5625 13.0625 C-12.85370665 11.70810332 -10.55316732 11.99748549 -7.5625 12.0625 C-7.2325 10.7425 -6.9025 9.4225 -6.5625 8.0625 C-5.5725 8.0625 -4.5825 8.0625 -3.5625 8.0625 C-3.583125 6.928125 -3.60375 5.79375 -3.625 4.625 C-3.54537671 0.0864726 -3.54537671 0.0864726 0 0 Z " fill="#F5F8F9" transform="translate(146.5625,281.9375)"/>
<path d="M0 0 C1.98 0 3.96 0 6 0 C6 2.64 6 5.28 6 8 C7.32 8.33 8.64 8.66 10 9 C10.33 10.32 10.66 11.64 11 13 C13.64 13 16.28 13 19 13 C19 14.98 19 16.96 19 19 C16.36 19 13.72 19 11 19 C10.67 20.32 10.34 21.64 10 23 C8.68 23.33 7.36 23.66 6 24 C6 26.64 6 29.28 6 32 C4.34385343 32.38218767 2.67542976 32.71395102 1 33 C0 32 0 32 -0.09765625 30.15234375 C-0.04882812 27.07617188 -0.04882812 27.07617188 0 24 C-1.32 23.67 -2.64 23.34 -4 23 C-4.33 21.68 -4.66 20.36 -5 19 C-7.64 19 -10.28 19 -13 19 C-13 17.02 -13 15.04 -13 13 C-11.72125 12.9175 -10.4425 12.835 -9.125 12.75 C-6.94666582 12.54130069 -6.94666582 12.54130069 -5 12 C-3.4100567 10.07935207 -3.4100567 10.07935207 -3 8 C-2.01 8 -1.02 8 0 8 C0 5.36 0 2.72 0 0 Z " fill="#F4F7F8" transform="translate(406,94)"/>
<path d="M0 0 C0 2.64 0 5.28 0 8 C0.639375 8.12375 1.27875 8.2475 1.9375 8.375 C2.618125 8.58125 3.29875 8.7875 4 9 C4.33 9.66 4.66 10.32 5 11 C6.88764903 11.68472665 6.88764903 11.68472665 9.0625 12.125 C10.16271484 12.37636719 10.16271484 12.37636719 11.28515625 12.6328125 C11.85105469 12.75398438 12.41695313 12.87515625 13 13 C13.042721 14.66611905 13.04063832 16.33382885 13 18 C12 19 12 19 8.4375 19.0625 C7.303125 19.041875 6.16875 19.02125 5 19 C4.67 19.99 4.34 20.98 4 22 C1.9375 22.6875 1.9375 22.6875 0 23 C0 25.64 0 28.28 0 31 C-1.65614657 31.38218767 -3.32457024 31.71395102 -5 32 C-6 31 -6 31 -6.3125 27.625 C-6.62335189 23.95632047 -6.62335189 23.95632047 -9.0625 22.1875 C-9.701875 21.795625 -10.34125 21.40375 -11 21 C-11 20.34 -11 19.68 -11 19 C-12.7015625 19.0309375 -12.7015625 19.0309375 -14.4375 19.0625 C-18 19 -18 19 -19 18 C-19.04063832 16.33382885 -19.042721 14.66611905 -19 13 C-17.329375 12.87625 -17.329375 12.87625 -15.625 12.75 C-11.94246056 12.42126213 -11.94246056 12.42126213 -10.5625 9.9375 C-10.2840625 8.9784375 -10.2840625 8.9784375 -10 8 C-8.68 8 -7.36 8 -6 8 C-6 5.36 -6 2.72 -6 0 C-3.50907189 -1.24546405 -2.58919267 -0.7767578 0 0 Z " fill="#F7F9FA" transform="translate(434,282)"/>
<path d="M0 0 C11.22 0 22.44 0 34 0 C34 3.63 34 7.26 34 11 C22.78 11 11.56 11 0 11 C0 7.37 0 3.74 0 0 Z " fill="#8A546A" transform="translate(263,133)"/>
<path d="M0 0 C11.22 0 22.44 0 34 0 C34 3.3 34 6.6 34 10 C22.78 10 11.56 10 0 10 C0 6.7 0 3.4 0 0 Z " fill="#E7A260" transform="translate(263,321)"/>
<path d="M0 0 C3.3 0 6.6 0 10 0 C10 10.56 10 21.12 10 32 C6.7 32 3.4 32 0 32 C0 21.44 0 10.88 0 0 Z " fill="#8C5664" transform="translate(197,123)"/>
<path d="M0 0 C3.3 0 6.6 0 10 0 C10 10.56 10 21.12 10 32 C6.7 32 3.4 32 0 32 C0 21.44 0 10.88 0 0 Z " fill="#8F5866" transform="translate(353,123)"/>
<path d="M0 0 C0.33 0.66 0.66 1.32 1 2 C1.66 2.33 2.32 2.66 3 3 C3 4.66666667 3 6.33333333 3 8 C3.99 8 4.98 8 6 8 C5.67 9.98 5.34 11.96 5 14 C2.36 14 -0.28 14 -3 14 C-3 17.96 -3 21.92 -3 26 C-6.63 26 -10.26 26 -14 26 C-13.01 15.605 -13.01 15.605 -12 5 C-8.7 5 -5.4 5 -2 5 C-1.34 3.35 -0.68 1.7 0 0 Z " fill="#FCD06A" transform="translate(221,120)"/>
<path d="M0 0 C11.22 0 22.44 0 34 0 C34 10.56 34 21.12 34 32 C22.78 32 11.56 32 0 32 C0 21.44 0 10.88 0 0 Z M2 2 C2 11.24 2 20.48 2 30 C11.9 30 21.8 30 32 30 C32 20.76 32 11.52 32 2 C22.1 2 12.2 2 2 2 Z " fill="#F3C480" transform="translate(263,177)"/>
<path d="M0 0 C3 1 3 1 4.3125 3.3125 C6.37157083 6.59176095 8.71218683 8.0273121 12 10 C11.875 11.75 11.875 11.75 11 14 C9.00669158 15.34331654 7.00615134 16.67594012 5 18 C3.98343919 19.65661761 2.97934924 21.32111559 2 23 C1.01 23 0.02 23 -1 23 C-5 17.74285714 -5 17.74285714 -5 15 C-6.65 14.67 -8.3 14.34 -10 14 C-10.33 13.01 -10.66 12.02 -11 11 C-10.45730469 10.62488281 -9.91460938 10.24976563 -9.35546875 9.86328125 C-5.29719077 6.96033285 -2.18018412 4.63289127 0 0 Z " fill="#E7EDF3" transform="translate(532,407)"/>
<path d="M0 0 C3.3 0 6.6 0 10 0 C10 2.64 10 5.28 10 8 C13.96 8 17.92 8 22 8 C22 15.59 22 23.18 22 31 C33.22 31 44.44 31 56 31 C56 24.07 56 17.14 56 10 C56.33 10 56.66 10 57 10 C57.02887512 13.64581687 57.04675585 17.29160463 57.0625 20.9375 C57.07087891 21.97841797 57.07925781 23.01933594 57.08789062 24.09179688 C57.09111328 25.08115234 57.09433594 26.07050781 57.09765625 27.08984375 C57.10289307 28.00628662 57.10812988 28.92272949 57.11352539 29.86694336 C57 32 57 32 56 33 C53.49075847 33.10087212 51.00963616 33.13972032 48.5 33.1328125 C47.74912109 33.13376923 46.99824219 33.13472595 46.22460938 33.13571167 C44.63411373 33.13639338 43.04361533 33.13453972 41.453125 33.13037109 C39.01035345 33.12502267 36.56776579 33.13031634 34.125 33.13671875 C32.58333293 33.13605797 31.04166597 33.1347768 29.5 33.1328125 C28.76458984 33.13483673 28.02917969 33.13686096 27.27148438 33.13894653 C22.11495161 33.11495161 22.11495161 33.11495161 21 32 C20.91286169 30.29227642 20.89299993 28.58101351 20.90234375 26.87109375 C20.90556641 25.83662109 20.90878906 24.80214844 20.91210938 23.73632812 C20.92048828 22.64771484 20.92886719 21.55910156 20.9375 20.4375 C20.94201172 19.34501953 20.94652344 18.25253906 20.95117188 17.12695312 C20.96300174 14.41791505 20.97948457 11.70898401 21 9 C20.27192139 9.0714624 19.54384277 9.1429248 18.79370117 9.21655273 C9.16311511 10.13279877 9.16311511 10.13279877 4.3125 10.0625 C2.889375 10.041875 1.46625 10.02125 0 10 C0 6.7 0 3.4 0 0 Z " fill="#9C6058" transform="translate(241,136)"/>
<path d="M0 0 C0 36.3 0 72.6 0 110 C-0.99 109.34 -1.98 108.68 -3 108 C-3.35352612 106.09846306 -3.35352612 106.09846306 -3.32279968 103.73532104 C-3.31850952 102.84067139 -3.31421936 101.94602173 -3.30979919 101.02426147 C-3.28966263 100.04027374 -3.26952606 99.05628601 -3.2487793 98.04248047 C-3.23946381 97.00830994 -3.23014832 95.9741394 -3.22055054 94.90863037 C-3.18607508 91.47782249 -3.13019819 88.04770647 -3.07421875 84.6171875 C-3.04619743 82.2435149 -3.01950579 79.86982625 -2.99409485 77.49612427 C-2.9235202 71.23889187 -2.83482031 64.98204092 -2.74243164 58.72509766 C-2.65139167 52.34420713 -2.57737394 45.96312212 -2.50195312 39.58203125 C-2.35136007 27.05443976 -2.18220898 14.52716946 -2 2 C-2.66 1.67 -3.32 1.34 -4 1 C-1 0 -1 0 0 0 Z " fill="#9A6354" transform="translate(263,221)"/>
<path d="M0 0 C1.32 0.33 2.64 0.66 4 1 C3.67 1.99 3.34 2.98 3 4 C2.90015752 5.44650771 2.85390741 6.89707097 2.84178162 8.3469696 C2.8319928 9.23457977 2.82220398 10.12218994 2.81211853 11.03669739 C2.80636307 12.00773911 2.8006076 12.97878082 2.79467773 13.97924805 C2.78477814 15.00381104 2.77487854 16.02837402 2.76467896 17.08398438 C2.73304663 20.47653885 2.70829959 23.86910734 2.68359375 27.26171875 C2.66302573 29.61156075 2.6420293 31.96139903 2.62062073 34.31123352 C2.56538443 40.50079342 2.51598198 46.69038679 2.46777344 52.88000488 C2.41756982 59.19412216 2.3618778 65.50819073 2.30664062 71.82226562 C2.19903998 84.21480216 2.0975992 96.60738095 2 109 C1.01 109.495 1.01 109.495 0 110 C0 73.7 0 37.4 0 0 Z " fill="#9D6756" transform="translate(297,221)"/>
<path d="M0 0 C7.26 0 14.52 0 22 0 C22 3.3 22 6.6 22 10 C14.74 10 7.48 10 0 10 C0 6.7 0 3.4 0 0 Z " fill="#FDD06B" transform="translate(263,145)"/>
<path d="M0 0 C7.92 0 15.84 0 24 0 C24 0.33 24 0.66 24 1 C18.20109543 2.07886597 12.58648277 2.04485618 6.6953125 1.9375 C4.0820921 1.68773308 4.0820921 1.68773308 3 3 C2.90490441 5.61688441 2.87444 8.207289 2.88647461 10.82446289 C2.88625557 12.05363182 2.88625557 12.05363182 2.8860321 13.30763245 C2.88673148 16.02933353 2.89452499 18.75096705 2.90234375 21.47265625 C2.90420784 23.35452741 2.90563179 25.23639906 2.90663147 27.11827087 C2.91045733 32.08148529 2.92028819 37.04467064 2.93133545 42.00787354 C2.9415481 47.06839606 2.94612878 52.12892327 2.95117188 57.18945312 C2.9619104 67.12631488 2.97898764 77.06315503 3 87 C2.01 87 1.02 87 0 87 C0 58.29 0 29.58 0 0 Z " fill="#FCCF7D" transform="translate(263,234)"/>
<path d="M0 0 C6.93 0 13.86 0 21 0 C21 3.3 21 6.6 21 10 C14.07 10 7.14 10 0 10 C0 6.7 0 3.4 0 0 Z " fill="#875466" transform="translate(320,102)"/>
<path d="M0 0 C6.93 0 13.86 0 21 0 C21 3.3 21 6.6 21 10 C14.07 10 7.14 10 0 10 C0 6.7 0 3.4 0 0 Z " fill="#895467" transform="translate(219,102)"/>
<path d="M0 0 C0.33 0 0.66 0 1 0 C1 10.56 1 21.12 1 32 C12.22 32 23.44 32 35 32 C35 21.44 35 10.88 35 0 C35.66 0.33 36.32 0.66 37 1 C37.04938149 5.37823917 37.0857104 9.75633146 37.10986328 14.13476562 C37.11993043 15.6247032 37.13358518 17.11462097 37.15087891 18.60449219 C37.17509653 20.74419028 37.18647564 22.88362753 37.1953125 25.0234375 C37.21102295 26.95582275 37.21102295 26.95582275 37.22705078 28.92724609 C37 32 37 32 35 34 C32.44780779 34.26979888 29.99640108 34.42164294 27.4375 34.484375 C26.69040771 34.5084845 25.94331543 34.53259399 25.17358398 34.55743408 C23.59340104 34.60574725 22.01306103 34.64913544 20.43261719 34.68798828 C18.00906794 34.74976884 15.58689001 34.83281045 13.1640625 34.91796875 C11.63024483 34.96222119 10.09639073 35.00523184 8.5625 35.046875 C7.83538818 35.07279724 7.10827637 35.09871948 6.35913086 35.12542725 C4.57263451 35.16177851 2.78460518 35.08986086 1 35 C-1.44077852 32.55922148 -1.23616181 31.25117641 -1.25224304 27.92015076 C-1.24505753 27.23364944 -1.23787201 26.54714813 -1.23046875 25.83984375 C-1.23001053 25.13477188 -1.22955231 24.42970001 -1.2290802 23.70326233 C-1.22605863 22.21288368 -1.2181751 20.72250816 -1.20581055 19.23217773 C-1.18754456 16.94308367 -1.18530091 14.65439373 -1.18554688 12.36523438 C-1.18063206 10.91926731 -1.1748039 9.47330301 -1.16796875 8.02734375 C-1.16685593 7.33881821 -1.1657431 6.65029266 -1.16459656 5.94090271 C-1.11605499 1.11605499 -1.11605499 1.11605499 0 0 Z " fill="#956053" transform="translate(262,177)"/>
<path d="M0 0 C0.33 0 0.66 0 1 0 C2.125 6.75 2.125 6.75 1 9 C20.82786335 8.8927072 40.65568834 8.77993619 60.48348331 8.66066074 C69.69006666 8.60540535 78.89665389 8.5519361 88.10327148 8.50268555 C96.12865061 8.45974945 104.15400209 8.41344793 112.1793384 8.36312145 C116.42785443 8.33659632 120.67636526 8.31174541 124.92491341 8.29092598 C128.92625049 8.27126476 132.92753532 8.24709335 136.92882538 8.21950912 C138.39491509 8.21018871 139.86101623 8.20249572 141.32712364 8.19658089 C143.33468804 8.18823401 145.34222213 8.17336987 147.3497467 8.15821838 C148.47156877 8.15176583 149.59339083 8.14531328 150.7492075 8.1386652 C154.21924615 7.99064788 157.57167011 7.54476904 161 7 C161.66 4.69 162.32 2.38 163 0 C163.33 0 163.66 0 164 0 C164 3.3 164 6.6 164 10 C109.88 10 55.76 10 0 10 C0 6.7 0 3.4 0 0 Z " fill="#472551" transform="translate(198,332)"/>
<path d="M0 0 C1.65 0 3.3 0 5 0 C6.03115279 3.26913624 5.9638984 5.86041348 5.5625 9.25 C5.46066406 10.14203125 5.35882813 11.0340625 5.25390625 11.953125 C5.17011719 12.62859375 5.08632813 13.3040625 5 14 C4.01 14.33 3.02 14.66 2 15 C1.67 15.99 1.34 16.98 1 18 C-1.97 18 -4.94 18 -8 18 C-8 13.71 -8 9.42 -8 5 C-5.36 5 -2.72 5 0 5 C0 3.35 0 1.7 0 0 Z " fill="#869AA9" transform="translate(389,225)"/>
<path d="M0 0 C1.32 0 2.64 0 4 0 C4 1.65 4 3.3 4 5 C6.64 5 9.28 5 12 5 C12 9.29 12 13.58 12 18 C9.03 18 6.06 18 3 18 C3 16.68 3 15.36 3 14 C1.68 14 0.36 14 -1 14 C-1.02685938 11.85423363 -1.04633088 9.70837355 -1.0625 7.5625 C-1.07410156 6.36753906 -1.08570313 5.17257813 -1.09765625 3.94140625 C-1 1 -1 1 0 0 Z " fill="#8398A8" transform="translate(167,225)"/>
<path d="M0 0 C3.63 0 7.26 0 11 0 C10.67 0.66 10.34 1.32 10 2 C7.36 2 4.72 2 2 2 C1.979375 3.27875 1.95875 4.5575 1.9375 5.875 C1.92589844 6.59429687 1.91429687 7.31359375 1.90234375 8.0546875 C1.87350758 10.08185404 1.87350758 10.08185404 3 12 C2.01 12.495 2.01 12.495 1 13 C0.53476937 14.89533342 0.53476937 14.89533342 0.375 17.0625 C0.25125 18.361875 0.1275 19.66125 0 21 C-3.63 21 -7.26 21 -11 21 C-11 17.37 -11 13.74 -11 10 C-7.37 10 -3.74 10 0 10 C0 6.7 0 3.4 0 0 Z " fill="#F7C98B" transform="translate(309,123)"/>
<path d="M0 0 C4.875 1.875 4.875 1.875 6 3 C6.04092937 5.33297433 6.04241723 7.66705225 6 10 C2.13276369 11.26582219 -1.73151262 11.1118765 -5.75 11.0625 C-6.44738281 11.05798828 -7.14476562 11.05347656 -7.86328125 11.04882812 C-9.57555803 11.0371002 -11.28779033 11.01916653 -13 11 C-12.67 8.36 -12.34 5.72 -12 3 C-11.01 2.67 -10.02 2.34 -9 2 C-8.67 2.33 -8.34 2.66 -8 3 C-5.04195427 3.33340471 -5.04195427 3.33340471 -2 3 C-1.34 2.01 -0.68 1.02 0 0 Z " fill="#EA9F64" transform="translate(334,154)"/>
<path d="M0 0 C1.65 0.33 3.3 0.66 5 1 C5.33 1.99 5.66 2.98 6 4 C8.00016466 5.20882096 8.00016466 5.20882096 10 6 C9.67 7.65 9.34 9.3 9 11 C8.01 11 7.02 11 6 11 C5.67 12.32 5.34 13.64 5 15 C3.35 15 1.7 15 0 15 C-0.33 13.68 -0.66 12.36 -1 11 C-2.32 10.67 -3.64 10.34 -5 10 C-5 8.35 -5 6.7 -5 5 C-4.01 4.67 -3.02 4.34 -2 4 C-0.79117904 1.99983534 -0.79117904 1.99983534 0 0 Z " fill="#F1F6F8" transform="translate(153,132)"/>
<path d="M0 0 C1.67542976 0.28604898 3.34385343 0.61781233 5 1 C5.33 1.99 5.66 2.98 6 4 C6.99 4.33 7.98 4.66 9 5 C9 6.65 9 8.3 9 10 C7.68 10.33 6.36 10.66 5 11 C4.67 12.32 4.34 13.64 4 15 C2.35 14.67 0.7 14.34 -1 14 C-1.33 13.01 -1.66 12.02 -2 11 C-2.99 11 -3.98 11 -5 11 C-5.8125 8.8125 -5.8125 8.8125 -6 6 C-3.625 3.25 -3.625 3.25 -1 1 C-0.67 0.67 -0.34 0.34 0 0 Z " fill="#F1F6F7" transform="translate(438,132)"/>
<path d="M0 0 C0.77943466 0.00222061 1.55886932 0.00444122 2.36192322 0.00672913 C3.24276077 0.00680466 4.12359833 0.00688019 5.03112793 0.00695801 C5.98841293 0.01211929 6.94569794 0.01728058 7.93199158 0.02259827 C9.39480812 0.02472069 9.39480812 0.02472069 10.88717651 0.02688599 C14.01542675 0.03250319 17.14360656 0.04505859 20.27183533 0.05775452 C22.38706867 0.0627673 24.50230313 0.06733059 26.61753845 0.07142639 C31.81482829 0.0824782 37.01207678 0.09923305 42.20933533 0.12025452 C42.20933533 0.78025452 42.20933533 1.44025452 42.20933533 2.12025452 C27.68933533 2.12025452 13.16933533 2.12025452 -1.79066467 2.12025452 C-1.79066467 5.42025452 -1.79066467 8.72025452 -1.79066467 12.12025452 C-5.42066467 12.45025452 -9.05066467 12.78025452 -12.79066467 13.12025452 C-12.79066467 16.09025452 -12.79066467 19.06025452 -12.79066467 22.12025452 C-13.45066467 22.12025452 -14.11066467 22.12025452 -14.79066467 22.12025452 C-14.81754618 20.47450886 -14.83700591 18.82864038 -14.85316467 17.18275452 C-14.86476624 16.26623108 -14.8763678 15.34970764 -14.88832092 14.40541077 C-14.79066467 12.12025452 -14.79066467 12.12025452 -13.79066467 11.12025452 C-12.10457501 11.0481994 -10.41565808 11.03639384 -8.72816467 11.05775452 C-7.80906311 11.06677795 -6.88996155 11.07580139 -5.94300842 11.08509827 C-5.23273499 11.09669983 -4.52246155 11.10830139 -3.79066467 11.12025452 C-3.73007874 10.40998108 -3.6694928 9.69970764 -3.60707092 8.96791077 C-3.52328186 8.0488092 -3.4394928 7.12970764 -3.35316467 6.18275452 C-3.27195374 5.26623108 -3.1907428 4.34970764 -3.10707092 3.40541077 C-2.6602894 0.17865535 -2.6602894 0.17865535 0 0 Z " fill="#E6EAF0" transform="translate(310.79066467285156,90.87974548339844)"/>
<path d="M0 0 C0.33 0 0.66 0 1 0 C1 35.97 1 71.94 1 109 C-1.97 109 -4.94 109 -8 109 C-7.505 108.01 -7.505 108.01 -7 107 C-4.4375 106.375 -4.4375 106.375 -2 106 C-1.20375712 99.65901169 -0.83670625 93.46109506 -0.79467773 87.07397461 C-0.78477814 86.12656403 -0.77487854 85.17915344 -0.76467896 84.20303345 C-0.73334503 81.10282809 -0.70841887 78.00260746 -0.68359375 74.90234375 C-0.66299989 72.74043909 -0.64200281 70.57853824 -0.62062073 68.41664124 C-0.56565114 62.74996032 -0.51613197 57.08324458 -0.46777344 51.41650391 C-0.41737409 45.62464328 -0.36178461 39.83283268 -0.30664062 34.04101562 C-0.1993666 22.69405324 -0.0978544 11.34704726 0 0 Z " fill="#432250" transform="translate(371,222)"/>
<path d="M0 0 C1.65 0 3.3 0 5 0 C5 2.97 5 5.94 5 9 C3.35 9 1.7 9 0 9 C0 11.64 0 14.28 0 17 C-2.64 17 -5.28 17 -8 17 C-8 14.36 -8 11.72 -8 9 C-6.68 9 -5.36 9 -4 9 C-4 7.35 -4 5.7 -4 4 C-2.68 4 -1.36 4 0 4 C0 2.68 0 1.36 0 0 Z " fill="#7F95A6" transform="translate(376,335)"/>
<path d="M0 0 C1.65 0 3.3 0 5 0 C5 1.32 5 2.64 5 4 C6.32 4 7.64 4 9 4 C9 5.65 9 7.3 9 9 C10.32 9 11.64 9 13 9 C13 11.64 13 14.28 13 17 C10.36 17 7.72 17 5 17 C5 14.36 5 11.72 5 9 C3.35 9 1.7 9 0 9 C0 6.03 0 3.06 0 0 Z " fill="#7D94A6" transform="translate(179,335)"/>
<path d="M0 0 C3.63 0 7.26 0 11 0 C11 3.63 11 7.26 11 11 C7.37 11 3.74 11 0 11 C0 7.37 0 3.74 0 0 Z " fill="#95606B" transform="translate(240,112)"/>
<path d="M0 0 C3.63 0 7.26 0 11 0 C11 3.63 11 7.26 11 11 C7.37 11 3.74 11 0 11 C0 7.37 0 3.74 0 0 Z " fill="#8A5964" transform="translate(342,112)"/>
<path d="M0 0 C3.63 0 7.26 0 11 0 C11 3.63 11 7.26 11 11 C7.37 11 3.74 11 0 11 C0 7.37 0 3.74 0 0 Z " fill="#93616C" transform="translate(309,112)"/>
<path d="M0 0 C3.63 0 7.26 0 11 0 C11 3.63 11 7.26 11 11 C7.37 11 3.74 11 0 11 C0 7.37 0 3.74 0 0 Z " fill="#8A596D" transform="translate(207,112)"/>
<path d="M0 0 C3.96 0 7.92 0 12 0 C12 3.3 12 6.6 12 10 C8.04 10 4.08 10 0 10 C0 6.7 0 3.4 0 0 Z " fill="#855E61" transform="translate(251,123)"/>
<path d="M0 0 C3.63 0 7.26 0 11 0 C11 3.3 11 6.6 11 10 C7.37 10 3.74 10 0 10 C0 6.7 0 3.4 0 0 Z " fill="#996664" transform="translate(331,136)"/>
<path d="M0 0 C3.63 0 7.26 0 11 0 C11 3.3 11 6.6 11 10 C7.37 10 3.74 10 0 10 C0 6.7 0 3.4 0 0 Z " fill="#8D5366" transform="translate(298,123)"/>
<path d="M0 0 C0.33 0 0.66 0 1 0 C2.01125055 8.74326995 2.11957711 17.39323439 2.0625 26.1875 C2.05746963 27.53450352 2.05290947 28.88150889 2.04882812 30.22851562 C2.03715354 33.48572537 2.02077883 36.74283778 2 40 C5.63 40 9.26 40 13 40 C13.66 41.32 14.32 42.64 15 44 C10.05 43.67 5.1 43.34 0 43 C0 28.81 0 14.62 0 0 Z " fill="#4E2F56" transform="translate(175,178)"/>
<path d="M0 0 C3.63 0 7.26 0 11 0 C11 2.97 11 5.94 11 9 C7.37 9 3.74 9 0 9 C0 6.03 0 3.06 0 0 Z " fill="#8D536A" transform="translate(320,146)"/>
<path d="M0 0 C3.63 0 7.26 0 11 0 C11 2.97 11 5.94 11 9 C7.37 9 3.74 9 0 9 C0 6.03 0 3.06 0 0 Z " fill="#88515F" transform="translate(229,146)"/>
<path d="M0 0 C3.63 0 7.26 0 11 0 C11 2.97 11 5.94 11 9 C7.37 9 3.74 9 0 9 C0 6.03 0 3.06 0 0 Z " fill="#FBF5F8" transform="translate(320,137)"/>
<path d="M0 0 C0.99 0.495 0.99 0.495 2 1 C2.33 2.98 2.66 4.96 3 7 C12.24 7 21.48 7 31 7 C31.66 4.69 32.32 2.38 33 0 C33.33 0 33.66 0 34 0 C34 3.3 34 6.6 34 10 C22.78 10 11.56 10 0 10 C0 6.7 0 3.4 0 0 Z " fill="#E4A380" transform="translate(263,321)"/>
<path d="M0 0 C3.3 0 6.6 0 10 0 C10 2.97 10 5.94 10 9 C13.63 9 17.26 9 21 9 C21 12.63 21 16.26 21 20 C14.07 20 7.14 20 0 20 C0 16.7 0 13.4 0 10 C0.33 10 0.66 10 1 10 C1 12.64 1 15.28 1 18 C7.27 18.33 13.54 18.66 20 19 C20 16.36 20 13.72 20 11 C18.4221875 11.0309375 18.4221875 11.0309375 16.8125 11.0625 C13.65802577 11.01078731 11.01362527 10.88636037 8 10 C6.5216774 7.04335481 6.93967217 4.25770263 7 1 C4.69 1 2.38 1 0 1 C0 0.67 0 0.34 0 0 Z " fill="#E29D7B" transform="translate(219,146)"/>
<path d="M0 0 C3.3 0 6.6 0 10 0 C10 2.97 10 5.94 10 9 C6.7 9 3.4 9 0 9 C0 6.03 0 3.06 0 0 Z " fill="#FEF9FC" transform="translate(309,146)"/>
<path d="M0 0 C3.3 0 6.6 0 10 0 C10 2.97 10 5.94 10 9 C6.7 9 3.4 9 0 9 C0 6.03 0 3.06 0 0 Z " fill="#FEF9FC" transform="translate(241,146)"/>
<path d="M0 0 C3.3 0 6.6 0 10 0 C10 2.97 10 5.94 10 9 C6.7 9 3.4 9 0 9 C0 6.03 0 3.06 0 0 Z " fill="#8C5866" transform="translate(219,137)"/>
<path d="M0 0 C3.63 0 7.26 0 11 0 C11 2.64 11 5.28 11 8 C7.37 8 3.74 8 0 8 C0 5.36 0 2.72 0 0 Z " fill="#FDEDCB" transform="translate(229,137)"/>
<path d="M0 0 C0.33 0 0.66 0 1 0 C1.02687279 1.81242052 1.04633715 3.62495233 1.0625 5.4375 C1.07410156 6.44683594 1.08570313 7.45617187 1.09765625 8.49609375 C1 11 1 11 0 12 C-3.20049657 12.17299981 -5.92954549 11.9097643 -9 11 C-9.33 13.64 -9.66 16.28 -10 19 C-3.73 18.67 2.54 18.34 9 18 C8.67 15.36 8.34 12.72 8 10 C8.66 10 9.32 10 10 10 C10 13.3 10 16.6 10 20 C3.07 20 -3.86 20 -11 20 C-11 16.37 -11 12.74 -11 9 C-7.37 9 -3.74 9 0 9 C0 6.03 0 3.06 0 0 Z " fill="#E4A07A" transform="translate(331,146)"/>
<path d="M0 0 C3.63 0 7.26 0 11 0 C11 2.31 11 4.62 11 7 C7.37 7 3.74 7 0 7 C0 4.69 0 2.38 0 0 Z " fill="#8B5A57" transform="translate(320,129)"/>
<path d="M0 0 C3.63 0 7.26 0 11 0 C11 2.31 11 4.62 11 7 C7.37 7 3.74 7 0 7 C0 4.69 0 2.38 0 0 Z " fill="#8B5854" transform="translate(229,129)"/>
<path d="M0 0 C7.26 0 14.52 0 22 0 C22 3.3 22 6.6 22 10 C21.01 9.67 20.02 9.34 19 9 C19.66 6.69 20.32 4.38 21 2 C12.585 2.495 12.585 2.495 4 3 C3.34 5.31 2.68 7.62 2 10 C1.34 10 0.68 10 0 10 C0 6.7 0 3.4 0 0 Z " fill="#FCCE7F" transform="translate(263,145)"/>
<path d="M0 0 C0 3.63 0 7.26 0 11 C-11.22 11 -22.44 11 -34 11 C-34 7.7 -34 4.4 -34 1 C-33.01 1.495 -33.01 1.495 -32 2 C-32 4.64 -32 7.28 -32 10 C-22.1 10 -12.2 10 -2 10 C-2 7.69 -2 5.38 -2 3 C-2.66 2.67 -3.32 2.34 -4 2 C-1 0 -1 0 0 0 Z " fill="#8C544F" transform="translate(297,133)"/>
<path d="M0 0 C0.33 0 0.66 0 1 0 C1.33 2.97 1.66 5.94 2 9 C2.7206665 9.02505615 3.44133301 9.0501123 4.18383789 9.07592773 C7.47687464 9.19260076 10.76967501 9.31500179 14.0625 9.4375 C15.19623047 9.47681641 16.32996094 9.51613281 17.49804688 9.55664062 C23.06738395 9.76772337 28.50510526 10.05095432 34 11 C34 11.33 34 11.66 34 12 C22.78 12 11.56 12 0 12 C0 8.04 0 4.08 0 0 Z " fill="#D79272" transform="translate(263,155)"/>
<path d="M0 0 C2.64 0 5.28 0 8 0 C8 2.97 8 5.94 8 9 C5.36 9 2.72 9 0 9 C0 6.03 0 3.06 0 0 Z " fill="#FCD172" transform="translate(299,134)"/>
<path d="M0 0 C0.33 0 0.66 0 1 0 C1 6.93 1 13.86 1 21 C4.3 21 7.6 21 11 21 C11 21.33 11 21.66 11 22 C1.39964543 23.25964428 -8.04620038 22.91689273 -17.6875 22.5625 C-19.27536986 22.50914394 -20.86326058 22.45640506 -22.45117188 22.40429688 C-26.30105847 22.27663679 -30.15056727 22.14065787 -34 22 C-34 21.67 -34 21.34 -34 21 C-22.78 21 -11.56 21 0 21 C0 14.07 0 7.14 0 0 Z " fill="#B9876A" transform="translate(297,123)"/>
<path d="M0 0 C2.97 0 5.94 0 9 0 C9 2.31 9 4.62 9 7 C6.03 7 3.06 7 0 7 C0 4.69 0 2.38 0 0 Z " fill="#8A5466" transform="translate(241,138)"/>
<path d="M0 0 C2.31 0 4.62 0 7 0 C7 2.64 7 5.28 7 8 C3.7 8 0.4 8 -3 8 C-1.68 7.34 -0.36 6.68 1 6 C0.34 5.67 -0.32 5.34 -1 5 C-0.67 3.35 -0.34 1.7 0 0 Z " fill="#885468" transform="translate(312,138)"/>
<path d="M0 0 C2.97 0.495 2.97 0.495 6 1 C4.02 1.99 4.02 1.99 2 3 C2.01160156 4.27875 2.02320313 5.5575 2.03515625 6.875 C2.04454269 8.58333186 2.05364197 10.29166532 2.0625 12 C2.07087891 12.83917969 2.07925781 13.67835938 2.08789062 14.54296875 C2.10824033 19.79319339 1.76368207 24.80455662 1 30 C0.67 30 0.34 30 0 30 C0 20.1 0 10.2 0 0 Z " fill="#7F5C6C" transform="translate(197,123)"/>
<path d="M0 0 C2.97 0 5.94 0 9 0 C9 10.56 9 21.12 9 32 C8.01 31.67 7.02 31.34 6 31 C6.33 30.67 6.66 30.34 7 30 C7.08748207 28.07332493 7.10697334 26.14348139 7.09765625 24.21484375 C7.09443359 23.04501953 7.09121094 21.87519531 7.08789062 20.66992188 C7.07951172 19.43822266 7.07113281 18.20652344 7.0625 16.9375 C7.05798828 15.70193359 7.05347656 14.46636719 7.04882812 13.19335938 C7.03699608 10.12885883 7.02051173 7.06445279 7 4 C5.68 3.34 4.36 2.68 3 2 C2.67 2.99 2.34 3.98 2 5 C1.34 3.35 0.68 1.7 0 0 Z " fill="#7A5C6B" transform="translate(354,123)"/>
<path d="M0 0 C2.31 0 4.62 0 7 0 C7 2.64 7 5.28 7 8 C4.69 8 2.38 8 0 8 C0 5.36 0 2.72 0 0 Z " fill="#FCD16E" transform="translate(253,135)"/>
<path d="M0 0 C2.475 0.495 2.475 0.495 5 1 C3.68 3.64 2.36 6.28 1 9 C2.98 8.67 4.96 8.34 7 8 C7.28875 7.05125 7.5775 6.1025 7.875 5.125 C9 2 9 2 11 0 C11 3.3 11 6.6 11 10 C7.37 10 3.74 10 0 10 C0 6.7 0 3.4 0 0 Z " fill="#825658" transform="translate(298,123)"/>
<path d="M0 0 C1.79260132 0.05995322 3.58425795 0.1487241 5.375 0.25 C6.87160156 0.31960937 6.87160156 0.31960937 8.3984375 0.390625 C11 1 11 1 12.34375 2.84375 C13.18933673 5.62210638 13.13118142 8.11400866 13 11 C15.31 11 17.62 11 20 11 C20.33 11.66 20.66 12.32 21 13 C19.52093108 13.02689216 18.04172517 13.04634621 16.5625 13.0625 C15.32693359 13.07990234 15.32693359 13.07990234 14.06640625 13.09765625 C12 13 12 13 11 12 C10.85806663 8.99668982 10.95763622 6.00782866 11 3 C7.37 2.67 3.74 2.34 0 2 C0 1.34 0 0.68 0 0 Z " fill="#EAF0F4" transform="translate(251,101)"/>
<path d="M0 0 C1.65 0 3.3 0 5 0 C5.33 3.3 5.66 6.6 6 10 C3.69 9.34 1.38 8.68 -1 8 C-0.67 5.36 -0.34 2.72 0 0 Z " fill="#FBD16C" transform="translate(244,125)"/>
<path d="M0 0 C3.63 0 7.26 0 11 0 C11 8.58 11 17.16 11 26 C10.67 26 10.34 26 10 26 C10 18.41 10 10.82 10 3 C8.35 2.67 6.7 2.34 5 2 C3.33333333 1.66666667 1.66666667 1.33333333 0 1 C0 0.67 0 0.34 0 0 Z " fill="#4D2659" transform="translate(373,178)"/>
<path d="M0 0 C0.33 0 0.66 0 1 0 C1.33 5.28 1.66 10.56 2 16 C5.465 15.505 5.465 15.505 9 15 C9.33 15.66 9.66 16.32 10 17 C6.37 17 2.74 17 -1 17 C-1.07968356 11.18310013 -0.99640721 5.72934145 0 0 Z " fill="#89567F" transform="translate(252,314)"/>
<path d="M0 0 C2.97 0 5.94 0 9 0 C9 0.66 9 1.32 9 2 C5.86650268 3.04449911 5.01031744 2.93423645 2 2 C2.33 3.65 2.66 5.3 3 7 C5.97 7.495 5.97 7.495 9 8 C9 8.33 9 8.66 9 9 C6.03 9 3.06 9 0 9 C0 6.03 0 3.06 0 0 Z " fill="#915853" transform="translate(219,137)"/>
<path d="M0 0 C0.33 0 0.66 0 1 0 C1.33 3.63 1.66 7.26 2 11 C0.02 11.33 -1.96 11.66 -4 12 C-4 11.34 -4 10.68 -4 10 C-5.98 10 -7.96 10 -10 10 C-10 13.3 -10 16.6 -10 20 C-10.33 20 -10.66 20 -11 20 C-11 16.37 -11 12.74 -11 9 C-7.37 9 -3.74 9 0 9 C0 6.03 0 3.06 0 0 Z " fill="#9F747C" transform="translate(251,146)"/>
<path d="M0 0 C2.97 0 5.94 0 9 0 C9 2.64 9 5.28 9 8 C6.36 8 3.72 8 1 8 C1.33 6.68 1.66 5.36 2 4 C2.33 4.66 2.66 5.32 3 6 C3.99 6 4.98 6 6 6 C6.33 4.68 6.66 3.36 7 2 C4.69 1.67 2.38 1.34 0 1 C0 0.67 0 0.34 0 0 Z " fill="#8C5454" transform="translate(332,137)"/>
<path d="M0 0 C0.598125 0.20625 1.19625 0.4125 1.8125 0.625 C2.1425 2.275 2.4725 3.925 2.8125 5.625 C0.5025 5.955 -1.8075 6.285 -4.1875 6.625 C-4.5175 4.975 -4.8475 3.325 -5.1875 1.625 C-2.1875 -0.375 -2.1875 -0.375 0 0 Z " fill="#8D536B" transform="translate(258.1875,124.375)"/>
<path d="M0 0 C5.94 0 11.88 0 18 0 C18 0.33 18 0.66 18 1 C17.00097656 1.06058594 16.00195312 1.12117187 14.97265625 1.18359375 C13.68230469 1.26738281 12.39195312 1.35117188 11.0625 1.4375 C9.77472656 1.51871094 8.48695313 1.59992188 7.16015625 1.68359375 C4.13976043 1.64919188 4.13976043 1.64919188 3 3 C2.63239269 5.32817964 2.29758419 7.6618385 2 10 C1.34 10 0.68 10 0 10 C0 6.7 0 3.4 0 0 Z " fill="#482550" transform="translate(188,167)"/>
<path d="M0 0 C0.33 0 0.66 0 1 0 C1 2.64 1 5.28 1 8 C1.639375 8.12375 2.27875 8.2475 2.9375 8.375 C3.618125 8.58125 4.29875 8.7875 5 9 C5.33 9.66 5.66 10.32 6 11 C7.88764903 11.68472665 7.88764903 11.68472665 10.0625 12.125 C11.16271484 12.37636719 11.16271484 12.37636719 12.28515625 12.6328125 C12.85105469 12.75398438 13.41695313 12.87515625 14 13 C14 14.65 14 16.3 14 18 C13.67 16.68 13.34 15.36 13 14 C10.03 14 7.06 14 4 14 C3.67 12.68 3.34 11.36 3 10 C2.01 9.67 1.02 9.34 0 9 C0 6.03 0 3.06 0 0 Z " fill="#E3E9EF" transform="translate(433,282)"/>
<path d="M0 0 C1.98 0 3.96 0 6 0 C5.52949219 0.34675781 5.05898438 0.69351563 4.57421875 1.05078125 C2.26763079 3.90682937 2.24278466 6.57972865 1.8125 10.1875 C1.65394531 11.45980469 1.49539063 12.73210937 1.33203125 14.04296875 C1.22246094 15.01878906 1.11289062 15.99460938 1 17 C0.67 17 0.34 17 0 17 C0 11.39 0 5.78 0 0 Z " fill="#8F69B0" transform="translate(309,221)"/>
<path d="M0 0 C5.94 0 11.88 0 18 0 C18 3.3 18 6.6 18 10 C17.34 10 16.68 10 16 10 C15.67 7.36 15.34 4.72 15 2 C10.05 1.67 5.1 1.34 0 1 C0 0.67 0 0.34 0 0 Z " fill="#482650" transform="translate(354,167)"/>
<path d="M0 0 C0.33 0 0.66 0 1 0 C1 3.3 1 6.6 1 10 C-2.63 10 -6.26 10 -10 10 C-9.67 8.68 -9.34 7.36 -9 6 C-9 6.66 -9 7.32 -9 8 C-6.36 7.67 -3.72 7.34 -1 7 C-0.67 4.69 -0.34 2.38 0 0 Z " fill="#8D5A50" transform="translate(217,113)"/>
<path d="M0 0 C1.51400391 0.01740234 1.51400391 0.01740234 3.05859375 0.03515625 C4.07050781 0.04417969 5.08242188 0.05320312 6.125 0.0625 C7.29869141 0.07990234 7.29869141 0.07990234 8.49609375 0.09765625 C4.9798462 2.03923642 2.52452865 2.28076693 -1.50390625 2.09765625 C-1.50390625 5.06765625 -1.50390625 8.03765625 -1.50390625 11.09765625 C-2.16390625 11.09765625 -2.82390625 11.09765625 -3.50390625 11.09765625 C-3.53078776 9.45191059 -3.55024748 7.80604212 -3.56640625 6.16015625 C-3.57800781 5.24363281 -3.58960938 4.32710938 -3.6015625 3.3828125 C-3.46380636 0.15931892 -3.23579438 0.12620103 0 0 Z " fill="#E4EAEE" transform="translate(299.50390625,101.90234375)"/>
<path d="M0 0 C0 2.31 0 4.62 0 7 C-3.63 7 -7.26 7 -11 7 C-11 6.34 -11 5.68 -11 5 C-8.36 5 -5.72 5 -3 5 C-3 3.68 -3 2.36 -3 1 C-1 0 -1 0 0 0 Z " fill="#F6C880" transform="translate(229,129)"/>
<path d="M0 0 C3.63 0 7.26 0 11 0 C11 2.97 11 5.94 11 9 C10.34 9 9.68 9 9 9 C9 6.69 9 4.38 9 2 C6.36 2 3.72 2 1 2 C0.67 1.34 0.34 0.68 0 0 Z " fill="#FBD08A" transform="translate(240,123)"/>
<path d="M0 0 C6.93 0 13.86 0 21 0 C20.67 0.66 20.34 1.32 20 2 C18.86820313 1.97679688 17.73640625 1.95359375 16.5703125 1.9296875 C15.08854825 1.91093099 13.60677688 1.89273066 12.125 1.875 C11.00544922 1.84986328 11.00544922 1.84986328 9.86328125 1.82421875 C7.90805539 1.8066041 5.95257979 1.89679811 4 2 C2.04783565 3.95216435 1.15173355 5.53199953 0 8 C0 5.36 0 2.72 0 0 Z " fill="#7A5767" transform="translate(219,102)"/>
<path d="M0 0 C3 2 3 2 4 4 C6.3140622 4.73075648 8.64828869 5.40138258 11 6 C11 6.33 11 6.66 11 7 C7.37 7 3.74 7 0 7 C0 4.69 0 2.38 0 0 Z " fill="#F5CA80" transform="translate(331,129)"/>
<path d="M0 0 C3.63 0 7.26 0 11 0 C10.67 0.66 10.34 1.32 10 2 C7.36 2 4.72 2 2 2 C2 3.98 2 5.96 2 8 C1.01 8.495 1.01 8.495 0 9 C0 6.03 0 3.06 0 0 Z " fill="#FBCF88" transform="translate(309,123)"/>
<path d="M0 0 C0.33 0 0.66 0 1 0 C1 3.3 1 6.6 1 10 C-2.3 10 -5.6 10 -9 10 C-9 9.34 -9 8.68 -9 8 C-6.36 8 -3.72 8 -1 8 C-1.020625 7.05125 -1.04125 6.1025 -1.0625 5.125 C-1 2 -1 2 0 0 Z " fill="#8E5B51" transform="translate(318,113)"/>
<path d="M0 0 C2 1 2 1 2.63256836 2.80566406 C3.00166867 5.00996545 3.03066892 6.88352255 2.87890625 9.109375 C2.83056641 9.86347656 2.78222656 10.61757812 2.73242188 11.39453125 C2.64831055 12.56048828 2.64831055 12.56048828 2.5625 13.75 C2.51029297 14.54277344 2.45808594 15.33554688 2.40429688 16.15234375 C2.27510676 18.10193997 2.13830035 20.05102886 2 22 C1.67 22 1.34 22 1 22 C0.20274098 14.63959083 -0.12886183 7.40239645 0 0 Z " fill="#854E75" transform="translate(251,167)"/>
<path d="M0 0 C3.63 0 7.26 0 11 0 C11 3.63 11 7.26 11 11 C10.67 10.01 10.34 9.02 10 8 C8.68 8.33 7.36 8.66 6 9 C7.75 3.25 7.75 3.25 10 1 C6.7 1 3.4 1 0 1 C0 0.67 0 0.34 0 0 Z " fill="#9C676D" transform="translate(309,155)"/>
<path d="M0 0 C0.33 0 0.66 0 1 0 C1.02687279 1.81242052 1.04633715 3.62495233 1.0625 5.4375 C1.07410156 6.44683594 1.08570313 7.45617187 1.09765625 8.49609375 C1 11 1 11 0 12 C-4.07077118 12.34892324 -7.19975907 11.41404314 -11 10 C-11 9.67 -11 9.34 -11 9 C-7.37 9 -3.74 9 0 9 C0 6.03 0 3.06 0 0 Z " fill="#D99373" transform="translate(331,146)"/>
<path d="M0 0 C3.63 0 7.26 0 11 0 C11 0.66 11 1.32 11 2 C7.7 2.33 4.4 2.66 1 3 C1 5.31 1 7.62 1 10 C0.67 10 0.34 10 0 10 C0 6.7 0 3.4 0 0 Z " fill="#975855" transform="translate(342,155)"/>
<path d="M0 0 C0.33 0 0.66 0 1 0 C1 3.96 1 7.92 1 12 C0.01 12.33 -0.98 12.66 -2 13 C-2 9.37 -2 5.74 -2 2 C-1.34 2 -0.68 2 0 2 C0 1.34 0 0.68 0 0 Z " fill="#814B72" transform="translate(308,209)"/>
<path d="M0 0 C0.99 0 1.98 0 3 0 C3 2.31 3 4.62 3 7 C-0.3 7 -3.6 7 -7 7 C-7 6.67 -7 6.34 -7 6 C-4.69 6 -2.38 6 0 6 C-0.2784375 4.7934375 -0.2784375 4.7934375 -0.5625 3.5625 C-0.706875 2.716875 -0.85125 1.87125 -1 1 C-0.67 0.67 -0.34 0.34 0 0 Z " fill="#8B6176" transform="translate(316,139)"/>
<path d="M0 0 C3.63 0 7.26 0 11 0 C9.515 1.485 9.515 1.485 8 3 C4.3125 2.6875 4.3125 2.6875 1 2 C1 3.98 1 5.96 1 8 C0.67 8 0.34 8 0 8 C0 5.36 0 2.72 0 0 Z " fill="#7D5364" transform="translate(320,146)"/>
<path d="M0 0 C0.33 0 0.66 0 1 0 C1.33 2.31 1.66 4.62 2 7 C5.96 7.99 5.96 7.99 10 9 C10 9.33 10 9.66 10 10 C6.7 10 3.4 10 0 10 C0 6.7 0 3.4 0 0 Z " fill="#8F5B4D" transform="translate(241,113)"/>
<path d="M0 0 C0.33 0 0.66 0 1 0 C1 3.3 1 6.6 1 10 C-0.32 10 -1.64 10 -3 10 C-3.33 11.32 -3.66 12.64 -4 14 C-4.66 13.67 -5.32 13.34 -6 13 C-5.34 11.35 -4.68 9.7 -4 8 C-2.68 8 -1.36 8 0 8 C0 5.36 0 2.72 0 0 Z " fill="#E5EAEE" transform="translate(196,104)"/>
<path d="M0 0 C1.65 0 3.3 0 5 0 C3.68 0.33 2.36 0.66 1 1 C1 3.97 1 6.94 1 10 C-0.65 10 -2.3 10 -4 10 C-3.67 9.34 -3.34 8.68 -3 8 C-2.34 8 -1.68 8 -1 8 C-1.020625 7.05125 -1.04125 6.1025 -1.0625 5.125 C-1 2 -1 2 0 0 Z " fill="#E5E9F2" transform="translate(122,94)"/>
<path d="M0 0 C0.33 0 0.66 0 1 0 C1 2.64 1 5.28 1 8 C-2.63 8 -6.26 8 -10 8 C-10 7.67 -10 7.34 -10 7 C-7.03 7 -4.06 7 -1 7 C-1.33 5.68 -1.66 4.36 -2 3 C-1.34 2.01 -0.68 1.02 0 0 Z " fill="#8F504D" transform="translate(330,147)"/>
<path d="M0 0 C2.5654594 2.5654594 2.54046087 4.47686668 3 8 C4.65 8 6.3 8 8 8 C8 8.33 8 8.66 8 9 C6.576875 8.9690625 6.576875 8.9690625 5.125 8.9375 C2.09333717 8.77448174 2.09333717 8.77448174 0 10 C0 6.7 0 3.4 0 0 Z " fill="#9B675B" transform="translate(251,123)"/>
<path d="M0 0 C0.66 0 1.32 0 2 0 C2 2.97 2 5.94 2 9 C0.68 9 -0.64 9 -2 9 C-1.34 6.03 -0.68 3.06 0 0 Z " fill="#8F67AC" transform="translate(249,322)"/>
<path d="M0 0 C1.32 0 2.64 0 4 0 C4 2.97 4 5.94 4 9 C4.99 9.33 5.98 9.66 7 10 C5.68 10 4.36 10 3 10 C2.01 6.7 1.02 3.4 0 0 Z " fill="#E9ECF0" transform="translate(141,304)"/>
<path d="M0 0 C2.97 0 5.94 0 9 0 C8.34 1.32 7.68 2.64 7 4 C5.68 3.34 4.36 2.68 3 2 C2.67 2.99 2.34 3.98 2 5 C1.34 3.35 0.68 1.7 0 0 Z " fill="#7A5260" transform="translate(354,123)"/>
<path d="M0 0 C0.33 0 0.66 0 1 0 C1 3.3 1 6.6 1 10 C0.67 9.34 0.34 8.68 0 8 C-0.99 8 -1.98 8 -3 8 C-1.125 2.25 -1.125 2.25 0 0 Z " fill="#9C675B" transform="translate(308,123)"/>
<path d="M0 0 C1.65 0 3.3 0 5 0 C5 2.97 5 5.94 5 9 C4.34 9 3.68 9 3 9 C3 6.69 3 4.38 3 2 C2.01 1.67 1.02 1.34 0 1 C0 0.67 0 0.34 0 0 Z " fill="#7F5766" transform="translate(246,113)"/>
<path d="M0 0 C2.64 0 5.28 0 8 0 C7.67 0.66 7.34 1.32 7 2 C5.66666667 2.33333333 4.33333333 2.66666667 3 3 C2.67 3.66 2.34 4.32 2 5 C1.34 5 0.68 5 0 5 C0 3.35 0 1.7 0 0 Z " fill="#9374B7" transform="translate(309,321)"/>
<path d="M0 0 C0.33 1.32 0.66 2.64 1 4 C2.32 4 3.64 4 5 4 C5 5.65 5 7.3 5 9 C4.01 8.67 3.02 8.34 2 8 C2 7.34 2 6.68 2 6 C1.34 6 0.68 6 0 6 C0 4.02 0 2.04 0 0 Z " fill="#99A9B3" transform="translate(183,335)"/>
<path d="M0 0 C2.97 0 5.94 0 9 0 C6 3 6 3 2.8125 3.1875 C1.4203125 3.0946875 1.4203125 3.0946875 0 3 C0 2.01 0 1.02 0 0 Z " fill="#E39E56" transform="translate(343,146)"/>
<path d="M0 0 C0.66 1.32 1.32 2.64 2 4 C1.01 4.495 1.01 4.495 0 5 C-0.46523063 6.89533342 -0.46523063 6.89533342 -0.625 9.0625 C-0.74875 10.361875 -0.8725 11.66125 -1 13 C-1.33 13 -1.66 13 -2 13 C-2.33 9.7 -2.66 6.4 -3 3 C-2.34 3 -1.68 3 -1 3 C-0.67 2.01 -0.34 1.02 0 0 Z " fill="#EBC179" transform="translate(310,131)"/>
<path d="M0 0 C0.33 0 0.66 0 1 0 C1.3125 2.8125 1.3125 2.8125 1 6 C-1.5 7.875 -1.5 7.875 -4 9 C-4 7.35 -4 5.7 -4 4 C-2.68 4 -1.36 4 0 4 C0 2.68 0 1.36 0 0 Z " fill="#9EACB7" transform="translate(376,335)"/>
<path d="M0 0 C2.97 0 5.94 0 9 0 C9 0.66 9 1.32 9 2 C4.545 2.495 4.545 2.495 0 3 C0 2.01 0 1.02 0 0 Z " fill="#E09E57" transform="translate(208,146)"/>
<path d="M0 0 C0.99 0.33 1.98 0.66 3 1 C3 3.31 3 5.62 3 8 C2.01 8 1.02 8 0 8 C0 5.36 0 2.72 0 0 Z " fill="#7F5567" transform="translate(309,113)"/>
<path d="M0 0 C2 3 2 3 2 5 C2.99 5.33 3.98 5.66 5 6 C3.02 6 1.04 6 -1 6 C-1.042721 4.33388095 -1.04063832 2.66617115 -1 1 C-0.67 0.67 -0.34 0.34 0 0 Z " fill="#FCD188" transform="translate(242,130)"/>
<path d="M0 0 C2.64 0 5.28 0 8 0 C7.67 0.99 7.34 1.98 7 3 C4.36 2.67 1.72 2.34 -1 2 C-0.67 1.34 -0.34 0.68 0 0 Z " fill="#835F6B" transform="translate(300,123)"/>
</svg>
