<?xml version="1.0" encoding="UTF-8"?>
<svg version="1.1" xmlns="http://www.w3.org/2000/svg" width="521" height="478">
<path d="M0 0 C0.83749283 -0.00175232 1.67498566 -0.00350464 2.53785706 -0.00531006 C5.31424005 -0.00972195 8.09055968 -0.00679317 10.86694336 -0.00341797 C12.78983065 -0.00409113 14.71271786 -0.00506127 16.63560486 -0.00631714 C20.66821095 -0.00779316 24.70079491 -0.00564237 28.73339844 -0.00097656 C33.91453592 0.00472449 39.09562165 0.00143873 44.27675724 -0.00454903 C48.24772027 -0.00815395 52.21867093 -0.00701644 56.18963432 -0.00442123 C58.10070235 -0.00375197 60.01177148 -0.00458036 61.92283821 -0.00690079 C64.58791223 -0.0094266 67.25290111 -0.00558792 69.91796875 0 C71.11410797 -0.00303635 71.11410797 -0.00303635 72.33441162 -0.00613403 C77.78002379 0.01513121 77.78002379 0.01513121 78.89428711 1.12939453 C78.96748332 3.82594307 78.98671248 6.49630911 78.95678711 9.19189453 C78.95227539 9.95050781 78.94776367 10.70912109 78.94311523 11.49072266 C78.93129391 13.37031324 78.91335789 15.24986352 78.89428711 17.12939453 C80.10665039 17.09458984 80.10665039 17.09458984 81.34350586 17.05908203 C82.41213867 17.04103516 83.48077148 17.02298828 84.58178711 17.00439453 C85.6375293 16.98119141 86.69327148 16.95798828 87.78100586 16.93408203 C90.89428711 17.12939453 90.89428711 17.12939453 95.89428711 19.12939453 C96.22428711 23.74939453 96.55428711 28.36939453 96.89428711 33.12939453 C100.04017655 33.1562315 103.18583982 33.17615355 106.33178711 33.19189453 C107.22961914 33.20027344 108.12745117 33.20865234 109.05249023 33.21728516 C110.33349609 33.22211914 110.33349609 33.22211914 111.64038086 33.22705078 C112.43114014 33.2322876 113.22189941 33.23752441 114.03662109 33.24291992 C115.910214 33.33435362 115.910214 33.33435362 116.89428711 32.12939453 C117.13855849 29.64596883 117.2778847 27.1637216 117.41772461 24.67236328 C117.99299327 21.60269198 118.60516648 20.26622439 120.89428711 18.12939453 C125.19800482 16.99317018 129.45898636 16.65636096 133.89428711 16.12939453 C134.22428711 10.84939453 134.55428711 5.56939453 134.89428711 0.12939453 C163.93428711 0.12939453 192.97428711 0.12939453 222.89428711 0.12939453 C224.37507191 3.09096413 224.24742748 5.96445748 224.45678711 9.25439453 C224.5824707 11.17638672 224.5824707 11.17638672 224.71069336 13.13720703 C224.7712793 14.12462891 224.83186523 15.11205078 224.89428711 16.12939453 C226.24973633 16.22027344 226.24973633 16.22027344 227.63256836 16.31298828 C228.81206055 16.39677734 229.99155273 16.48056641 231.20678711 16.56689453 C232.37854492 16.64810547 233.55030273 16.72931641 234.75756836 16.81298828 C237.89428711 17.12939453 237.89428711 17.12939453 240.89428711 18.12939453 C241.55428711 23.07939453 242.21428711 28.02939453 242.89428711 33.12939453 C247.7852682 33.3789737 247.7852682 33.3789737 252.67724609 33.60742188 C254.42193822 33.70984636 256.15956759 33.91681618 257.89428711 34.12939453 C259.39585585 37.13253201 258.98709915 39.92006976 258.95678711 43.25439453 C258.94776367 44.53572266 258.93874023 45.81705078 258.92944336 47.13720703 C258.91204102 48.61833984 258.91204102 48.61833984 258.89428711 50.12939453 C259.7747168 50.09458984 260.65514648 50.05978516 261.56225586 50.02392578 C262.72370117 49.99685547 263.88514648 49.96978516 265.08178711 49.94189453 C266.2303418 49.90708984 267.37889648 49.87228516 268.56225586 49.83642578 C272.32735982 50.16747244 274.12934002 50.52951891 276.89428711 53.12939453 C277.27488762 55.91539024 277.37391616 58.06312204 277.20678711 60.81689453 C277.18422852 61.51878906 277.16166992 62.22068359 277.13842773 62.94384766 C277.07960358 64.67327783 276.989921 66.40160891 276.89428711 68.12939453 C277.95389648 68.11779297 279.01350586 68.10619141 280.10522461 68.09423828 C281.49324368 68.08485977 282.88126466 68.07575964 284.26928711 68.06689453 C284.96795898 68.05851562 285.66663086 68.05013672 286.38647461 68.04150391 C291.66772461 68.01611328 291.66772461 68.01611328 293.89428711 69.12939453 C293.89428711 111.03939453 293.89428711 152.94939453 293.89428711 196.12939453 C287.88783353 197.63100793 282.08002729 197.1866699 275.89428711 197.12939453 C275.89428711 202.40939453 275.89428711 207.68939453 275.89428711 213.12939453 C270.28428711 213.12939453 264.67428711 213.12939453 258.89428711 213.12939453 C258.93379435 217.97588649 258.93379435 217.97588649 258.984375 222.82226562 C259.00539822 227.90717231 259.00539822 227.90717231 257.89428711 230.12939453 C252.28428711 230.12939453 246.67428711 230.12939453 240.89428711 230.12939453 C240.93385868 235.35002728 240.93385868 235.35002728 240.984375 240.57055664 C240.99152655 242.42373212 240.94457231 244.27688761 240.89428711 246.12939453 C239.89428711 247.12939453 239.89428711 247.12939453 236.29663086 247.22705078 C234.80831844 247.22037673 233.32002279 247.20841636 231.83178711 247.19189453 C231.07317383 247.18738281 230.31456055 247.18287109 229.53295898 247.17822266 C227.6533684 247.16640133 225.77381812 247.14846531 223.89428711 247.12939453 C223.90588867 248.11681641 223.91749023 249.10423828 223.92944336 250.12158203 C223.94297852 252.04357422 223.94297852 252.04357422 223.95678711 254.00439453 C223.96838867 255.28056641 223.97999023 256.55673828 223.99194336 257.87158203 C223.89428711 261.12939453 223.89428711 261.12939453 222.89428711 263.12939453 C217.35134321 264.58806398 211.58105602 264.22046378 205.89428711 264.12939453 C205.90588867 265.20060547 205.91749023 266.27181641 205.92944336 267.37548828 C205.9388201 268.77262196 205.94792042 270.16975752 205.95678711 271.56689453 C205.96516602 272.27394531 205.97354492 272.98099609 205.98217773 273.70947266 C205.99082299 275.51633013 205.94648722 277.32327056 205.89428711 279.12939453 C204.89428711 280.12939453 204.89428711 280.12939453 201.29663086 280.22705078 C199.80831456 280.22130725 198.32002415 280.20829344 196.83178711 280.19189453 C194.21241211 280.17126953 191.59303711 280.15064453 188.89428711 280.12939453 C188.89428711 285.40939453 188.89428711 290.68939453 188.89428711 296.12939453 C182.88783353 297.63100793 177.08002729 297.1866699 170.89428711 297.12939453 C170.89428711 302.40939453 170.89428711 307.68939453 170.89428711 313.12939453 C165.28428711 313.12939453 159.67428711 313.12939453 153.89428711 313.12939453 C153.93385868 318.35002728 153.93385868 318.35002728 153.984375 323.57055664 C153.99152655 325.42373212 153.94457231 327.27688761 153.89428711 329.12939453 C152.89428711 330.12939453 152.89428711 330.12939453 149.07788086 330.22705078 C147.49582029 330.22037542 145.91377552 330.20841329 144.33178711 330.19189453 C143.52547852 330.18738281 142.71916992 330.18287109 141.88842773 330.17822266 C139.89034955 330.16639971 137.89230928 330.14846367 135.89428711 330.12939453 C135.89428711 335.40939453 135.89428711 340.68939453 135.89428711 346.12939453 C116.75428711 346.12939453 97.61428711 346.12939453 77.89428711 346.12939453 C77.56428711 340.84939453 77.23428711 335.56939453 76.89428711 330.12939453 C71.67365436 330.1689661 71.67365436 330.1689661 66.453125 330.21948242 C64.59994952 330.22663398 62.74679403 330.17967974 60.89428711 330.12939453 C59.89428711 329.12939453 59.89428711 329.12939453 59.79663086 325.53173828 C59.80330491 324.04342586 59.81526528 322.55513021 59.83178711 321.06689453 C59.83629883 320.30828125 59.84081055 319.54966797 59.84545898 318.76806641 C59.85728031 316.88847582 59.87521633 315.00892554 59.89428711 313.12939453 C58.67870117 313.14099609 57.46311523 313.15259766 56.21069336 313.16455078 C54.62605947 313.17392731 53.04142393 313.18302766 51.45678711 313.19189453 C50.6543457 313.20027344 49.8519043 313.20865234 49.02514648 313.21728516 C46.9813349 313.22590883 44.93744809 313.18167603 42.89428711 313.12939453 C41.89428711 312.12939453 41.89428711 312.12939453 41.79663086 308.53173828 C41.80330491 307.04342586 41.81526528 305.55513021 41.83178711 304.06689453 C41.83629883 303.30828125 41.84081055 302.54966797 41.84545898 301.76806641 C41.85728031 299.88847582 41.87521633 298.00892554 41.89428711 296.12939453 C40.93329102 296.25507812 40.93329102 296.25507812 39.95288086 296.38330078 C39.08791992 296.48513672 38.22295898 296.58697266 37.33178711 296.69189453 C36.48487305 296.79630859 35.63795898 296.90072266 34.76538086 297.00830078 C31.89428711 297.12939453 31.89428711 297.12939453 24.89428711 296.12939453 C24.89428711 290.84939453 24.89428711 285.56939453 24.89428711 280.12939453 C19.71853909 280.20842748 19.71853909 280.20842748 14.54321289 280.30957031 C12.65933662 280.3241667 10.77559399 280.22882936 8.89428711 280.12939453 C6.89428711 278.12939453 6.89428711 278.12939453 6.69897461 274.65283203 C6.71041016 273.2698682 6.73637453 271.88701396 6.76928711 270.50439453 C6.81053711 268.07064453 6.85178711 265.63689453 6.89428711 263.12939453 C1.28428711 263.12939453 -4.32571289 263.12939453 -10.10571289 263.12939453 C-10.10571289 257.84939453 -10.10571289 252.56939453 -10.10571289 247.12939453 C-15.28146091 247.20842748 -15.28146091 247.20842748 -20.45678711 247.30957031 C-22.34066338 247.3241667 -24.22440601 247.22882936 -26.10571289 247.12939453 C-28.10571289 245.12939453 -28.10571289 245.12939453 -28.30102539 241.65283203 C-28.28958984 240.2698682 -28.26362547 238.88701396 -28.23071289 237.50439453 C-28.18946289 235.07064453 -28.14821289 232.63689453 -28.10571289 230.12939453 C-33.71571289 230.12939453 -39.32571289 230.12939453 -45.10571289 230.12939453 C-46.63762086 227.06557859 -46.20814902 223.85973588 -46.16821289 220.50439453 C-46.14758789 218.07064453 -46.12696289 215.63689453 -46.10571289 213.12939453 C-51.71571289 213.12939453 -57.32571289 213.12939453 -63.10571289 213.12939453 C-63.43571289 207.84939453 -63.76571289 202.56939453 -64.10571289 197.12939453 C-69.38571289 196.79939453 -74.66571289 196.46939453 -80.10571289 196.12939453 C-80.89486139 179.0895966 -81.38406149 162.05974147 -81.66821289 145.00439453 C-81.68939178 143.78889923 -81.71057068 142.57340393 -81.73239136 141.32107544 C-82.1470609 117.25630824 -82.22081794 93.19697549 -82.10571289 69.12939453 C-78.93397489 67.54352553 -75.47057467 67.75073008 -71.98071289 67.56689453 C-70.84956055 67.50211914 -70.84956055 67.50211914 -69.69555664 67.43603516 C-67.83249401 67.32991134 -65.96912765 67.22914452 -64.10571289 67.12939453 C-63.77571289 62.17939453 -63.44571289 57.22939453 -63.10571289 52.12939453 C-57.24992586 50.84593436 -52.12362343 50.01037529 -46.10571289 50.12939453 C-46.12891602 49.14197266 -46.15211914 48.15455078 -46.17602539 47.13720703 C-46.19407227 45.85587891 -46.21211914 44.57455078 -46.23071289 43.25439453 C-46.25391602 41.97822266 -46.27711914 40.70205078 -46.30102539 39.38720703 C-46.10571289 36.12939453 -46.10571289 36.12939453 -44.10571289 34.12939453 C-41.5250716 33.98441468 -39.05627405 33.94261908 -36.48071289 34.00439453 C-35.77430664 34.01341797 -35.06790039 34.02244141 -34.34008789 34.03173828 C-32.59515191 34.0553185 -30.85038994 34.09118992 -29.10571289 34.12939453 C-29.05672852 33.30955078 -29.00774414 32.48970703 -28.95727539 31.64501953 C-28.88250977 30.56736328 -28.80774414 29.48970703 -28.73071289 28.37939453 C-28.66110352 27.31205078 -28.59149414 26.24470703 -28.51977539 25.14501953 C-27.84284469 20.21492045 -27.84284469 20.21492045 -26.10571289 18.12939453 C-22.88305664 17.33642578 -22.88305664 17.33642578 -19.04321289 16.94189453 C-14.74887555 16.85083614 -14.74887555 16.85083614 -11.10571289 15.12939453 C-10.82042818 11.50673159 -10.65659061 7.88409019 -10.48461914 4.25439453 C-10.35958008 3.22314453 -10.23454102 2.19189453 -10.10571289 1.12939453 C-6.92551005 -0.46070689 -3.49204963 -0.00888697 0 0 Z " fill="#E65265" transform="translate(147.105712890625,95.87060546875)"/>
<path d="M0 0 C0.83749283 -0.00175232 1.67498566 -0.00350464 2.53785706 -0.00531006 C5.31424005 -0.00972195 8.09055968 -0.00679317 10.86694336 -0.00341797 C12.78983065 -0.00409113 14.71271786 -0.00506127 16.63560486 -0.00631714 C20.66821095 -0.00779316 24.70079491 -0.00564237 28.73339844 -0.00097656 C33.91453592 0.00472449 39.09562165 0.00143873 44.27675724 -0.00454903 C48.24772027 -0.00815395 52.21867093 -0.00701644 56.18963432 -0.00442123 C58.10070235 -0.00375197 60.01177148 -0.00458036 61.92283821 -0.00690079 C64.58791223 -0.0094266 67.25290111 -0.00558792 69.91796875 0 C71.11410797 -0.00303635 71.11410797 -0.00303635 72.33441162 -0.00613403 C77.78002379 0.01513121 77.78002379 0.01513121 78.89428711 1.12939453 C78.96748332 3.82594307 78.98671248 6.49630911 78.95678711 9.19189453 C78.95227539 9.95050781 78.94776367 10.70912109 78.94311523 11.49072266 C78.93129391 13.37031324 78.91335789 15.24986352 78.89428711 17.12939453 C80.10665039 17.09458984 80.10665039 17.09458984 81.34350586 17.05908203 C82.41213867 17.04103516 83.48077148 17.02298828 84.58178711 17.00439453 C85.6375293 16.98119141 86.69327148 16.95798828 87.78100586 16.93408203 C90.89428711 17.12939453 90.89428711 17.12939453 95.89428711 19.12939453 C96.22428711 23.74939453 96.55428711 28.36939453 96.89428711 33.12939453 C100.04017655 33.1562315 103.18583982 33.17615355 106.33178711 33.19189453 C107.22961914 33.20027344 108.12745117 33.20865234 109.05249023 33.21728516 C110.33349609 33.22211914 110.33349609 33.22211914 111.64038086 33.22705078 C112.43114014 33.2322876 113.22189941 33.23752441 114.03662109 33.24291992 C115.910214 33.33435362 115.910214 33.33435362 116.89428711 32.12939453 C117.13855849 29.64596883 117.2778847 27.1637216 117.41772461 24.67236328 C117.99299327 21.60269198 118.60516648 20.26622439 120.89428711 18.12939453 C125.19800482 16.99317018 129.45898636 16.65636096 133.89428711 16.12939453 C134.22428711 10.84939453 134.55428711 5.56939453 134.89428711 0.12939453 C163.93428711 0.12939453 192.97428711 0.12939453 222.89428711 0.12939453 C224.37507191 3.09096413 224.24742748 5.96445748 224.45678711 9.25439453 C224.5824707 11.17638672 224.5824707 11.17638672 224.71069336 13.13720703 C224.7712793 14.12462891 224.83186523 15.11205078 224.89428711 16.12939453 C226.24973633 16.22027344 226.24973633 16.22027344 227.63256836 16.31298828 C228.81206055 16.39677734 229.99155273 16.48056641 231.20678711 16.56689453 C232.37854492 16.64810547 233.55030273 16.72931641 234.75756836 16.81298828 C237.89428711 17.12939453 237.89428711 17.12939453 240.89428711 18.12939453 C241.55428711 23.07939453 242.21428711 28.02939453 242.89428711 33.12939453 C247.7852682 33.3789737 247.7852682 33.3789737 252.67724609 33.60742188 C254.42193822 33.70984636 256.15956759 33.91681618 257.89428711 34.12939453 C259.39585585 37.13253201 258.98709915 39.92006976 258.95678711 43.25439453 C258.94776367 44.53572266 258.93874023 45.81705078 258.92944336 47.13720703 C258.91204102 48.61833984 258.91204102 48.61833984 258.89428711 50.12939453 C259.7747168 50.09458984 260.65514648 50.05978516 261.56225586 50.02392578 C262.72370117 49.99685547 263.88514648 49.96978516 265.08178711 49.94189453 C266.2303418 49.90708984 267.37889648 49.87228516 268.56225586 49.83642578 C272.32735982 50.16747244 274.12934002 50.52951891 276.89428711 53.12939453 C277.27488762 55.91539024 277.37391616 58.06312204 277.20678711 60.81689453 C277.18422852 61.51878906 277.16166992 62.22068359 277.13842773 62.94384766 C277.07960358 64.67327783 276.989921 66.40160891 276.89428711 68.12939453 C277.95389648 68.11779297 279.01350586 68.10619141 280.10522461 68.09423828 C281.49324368 68.08485977 282.88126466 68.07575964 284.26928711 68.06689453 C284.96795898 68.05851562 285.66663086 68.05013672 286.38647461 68.04150391 C291.66772461 68.01611328 291.66772461 68.01611328 293.89428711 69.12939453 C293.89428711 111.03939453 293.89428711 152.94939453 293.89428711 196.12939453 C287.88783353 197.63100793 282.08002729 197.1866699 275.89428711 197.12939453 C275.89428711 202.40939453 275.89428711 207.68939453 275.89428711 213.12939453 C270.28428711 213.12939453 264.67428711 213.12939453 258.89428711 213.12939453 C258.93379435 217.97588649 258.93379435 217.97588649 258.984375 222.82226562 C259.00539822 227.90717231 259.00539822 227.90717231 257.89428711 230.12939453 C252.28428711 230.12939453 246.67428711 230.12939453 240.89428711 230.12939453 C240.93385868 235.35002728 240.93385868 235.35002728 240.984375 240.57055664 C240.99152655 242.42373212 240.94457231 244.27688761 240.89428711 246.12939453 C239.89428711 247.12939453 239.89428711 247.12939453 236.29663086 247.22705078 C234.80831844 247.22037673 233.32002279 247.20841636 231.83178711 247.19189453 C231.07317383 247.18738281 230.31456055 247.18287109 229.53295898 247.17822266 C227.6533684 247.16640133 225.77381812 247.14846531 223.89428711 247.12939453 C223.90588867 248.11681641 223.91749023 249.10423828 223.92944336 250.12158203 C223.94297852 252.04357422 223.94297852 252.04357422 223.95678711 254.00439453 C223.96838867 255.28056641 223.97999023 256.55673828 223.99194336 257.87158203 C223.89428711 261.12939453 223.89428711 261.12939453 222.89428711 263.12939453 C217.35134321 264.58806398 211.58105602 264.22046378 205.89428711 264.12939453 C205.90588867 265.20060547 205.91749023 266.27181641 205.92944336 267.37548828 C205.9388201 268.77262196 205.94792042 270.16975752 205.95678711 271.56689453 C205.96516602 272.27394531 205.97354492 272.98099609 205.98217773 273.70947266 C205.99082299 275.51633013 205.94648722 277.32327056 205.89428711 279.12939453 C204.89428711 280.12939453 204.89428711 280.12939453 201.29663086 280.22705078 C199.80831456 280.22130725 198.32002415 280.20829344 196.83178711 280.19189453 C194.21241211 280.17126953 191.59303711 280.15064453 188.89428711 280.12939453 C188.89428711 285.40939453 188.89428711 290.68939453 188.89428711 296.12939453 C182.88783353 297.63100793 177.08002729 297.1866699 170.89428711 297.12939453 C170.89428711 302.40939453 170.89428711 307.68939453 170.89428711 313.12939453 C165.28428711 313.12939453 159.67428711 313.12939453 153.89428711 313.12939453 C153.93385868 318.35002728 153.93385868 318.35002728 153.984375 323.57055664 C153.99152655 325.42373212 153.94457231 327.27688761 153.89428711 329.12939453 C152.89428711 330.12939453 152.89428711 330.12939453 149.07788086 330.22705078 C147.49582029 330.22037542 145.91377552 330.20841329 144.33178711 330.19189453 C143.52547852 330.18738281 142.71916992 330.18287109 141.88842773 330.17822266 C139.89034955 330.16639971 137.89230928 330.14846367 135.89428711 330.12939453 C135.89428711 335.40939453 135.89428711 340.68939453 135.89428711 346.12939453 C116.75428711 346.12939453 97.61428711 346.12939453 77.89428711 346.12939453 C77.56428711 340.84939453 77.23428711 335.56939453 76.89428711 330.12939453 C71.67365436 330.1689661 71.67365436 330.1689661 66.453125 330.21948242 C64.59994952 330.22663398 62.74679403 330.17967974 60.89428711 330.12939453 C59.89428711 329.12939453 59.89428711 329.12939453 59.79663086 325.53173828 C59.80330491 324.04342586 59.81526528 322.55513021 59.83178711 321.06689453 C59.83629883 320.30828125 59.84081055 319.54966797 59.84545898 318.76806641 C59.85728031 316.88847582 59.87521633 315.00892554 59.89428711 313.12939453 C58.67870117 313.14099609 57.46311523 313.15259766 56.21069336 313.16455078 C54.62605947 313.17392731 53.04142393 313.18302766 51.45678711 313.19189453 C50.6543457 313.20027344 49.8519043 313.20865234 49.02514648 313.21728516 C46.9813349 313.22590883 44.93744809 313.18167603 42.89428711 313.12939453 C41.89428711 312.12939453 41.89428711 312.12939453 41.79663086 308.53173828 C41.80330491 307.04342586 41.81526528 305.55513021 41.83178711 304.06689453 C41.83629883 303.30828125 41.84081055 302.54966797 41.84545898 301.76806641 C41.85728031 299.88847582 41.87521633 298.00892554 41.89428711 296.12939453 C40.93329102 296.25507812 40.93329102 296.25507812 39.95288086 296.38330078 C39.08791992 296.48513672 38.22295898 296.58697266 37.33178711 296.69189453 C36.48487305 296.79630859 35.63795898 296.90072266 34.76538086 297.00830078 C31.89428711 297.12939453 31.89428711 297.12939453 24.89428711 296.12939453 C24.89428711 290.84939453 24.89428711 285.56939453 24.89428711 280.12939453 C19.71853909 280.20842748 19.71853909 280.20842748 14.54321289 280.30957031 C12.65933662 280.3241667 10.77559399 280.22882936 8.89428711 280.12939453 C6.89428711 278.12939453 6.89428711 278.12939453 6.69897461 274.65283203 C6.71041016 273.2698682 6.73637453 271.88701396 6.76928711 270.50439453 C6.81053711 268.07064453 6.85178711 265.63689453 6.89428711 263.12939453 C1.28428711 263.12939453 -4.32571289 263.12939453 -10.10571289 263.12939453 C-10.10571289 257.84939453 -10.10571289 252.56939453 -10.10571289 247.12939453 C-15.28146091 247.20842748 -15.28146091 247.20842748 -20.45678711 247.30957031 C-22.34066338 247.3241667 -24.22440601 247.22882936 -26.10571289 247.12939453 C-28.10571289 245.12939453 -28.10571289 245.12939453 -28.30102539 241.65283203 C-28.28958984 240.2698682 -28.26362547 238.88701396 -28.23071289 237.50439453 C-28.18946289 235.07064453 -28.14821289 232.63689453 -28.10571289 230.12939453 C-33.71571289 230.12939453 -39.32571289 230.12939453 -45.10571289 230.12939453 C-46.63762086 227.06557859 -46.20814902 223.85973588 -46.16821289 220.50439453 C-46.14758789 218.07064453 -46.12696289 215.63689453 -46.10571289 213.12939453 C-51.71571289 213.12939453 -57.32571289 213.12939453 -63.10571289 213.12939453 C-63.43571289 207.84939453 -63.76571289 202.56939453 -64.10571289 197.12939453 C-69.38571289 196.79939453 -74.66571289 196.46939453 -80.10571289 196.12939453 C-80.89486139 179.0895966 -81.38406149 162.05974147 -81.66821289 145.00439453 C-81.68939178 143.78889923 -81.71057068 142.57340393 -81.73239136 141.32107544 C-82.1470609 117.25630824 -82.22081794 93.19697549 -82.10571289 69.12939453 C-78.93397489 67.54352553 -75.47057467 67.75073008 -71.98071289 67.56689453 C-70.84956055 67.50211914 -70.84956055 67.50211914 -69.69555664 67.43603516 C-67.83249401 67.32991134 -65.96912765 67.22914452 -64.10571289 67.12939453 C-63.77571289 62.17939453 -63.44571289 57.22939453 -63.10571289 52.12939453 C-57.24992586 50.84593436 -52.12362343 50.01037529 -46.10571289 50.12939453 C-46.12891602 49.14197266 -46.15211914 48.15455078 -46.17602539 47.13720703 C-46.19407227 45.85587891 -46.21211914 44.57455078 -46.23071289 43.25439453 C-46.25391602 41.97822266 -46.27711914 40.70205078 -46.30102539 39.38720703 C-46.10571289 36.12939453 -46.10571289 36.12939453 -44.10571289 34.12939453 C-41.5250716 33.98441468 -39.05627405 33.94261908 -36.48071289 34.00439453 C-35.77430664 34.01341797 -35.06790039 34.02244141 -34.34008789 34.03173828 C-32.59515191 34.0553185 -30.85038994 34.09118992 -29.10571289 34.12939453 C-29.05672852 33.30955078 -29.00774414 32.48970703 -28.95727539 31.64501953 C-28.88250977 30.56736328 -28.80774414 29.48970703 -28.73071289 28.37939453 C-28.66110352 27.31205078 -28.59149414 26.24470703 -28.51977539 25.14501953 C-27.84284469 20.21492045 -27.84284469 20.21492045 -26.10571289 18.12939453 C-22.88305664 17.33642578 -22.88305664 17.33642578 -19.04321289 16.94189453 C-14.74887555 16.85083614 -14.74887555 16.85083614 -11.10571289 15.12939453 C-10.82042818 11.50673159 -10.65659061 7.88409019 -10.48461914 4.25439453 C-10.35958008 3.22314453 -10.23454102 2.19189453 -10.10571289 1.12939453 C-6.92551005 -0.46070689 -3.49204963 -0.00888697 0 0 Z M-9.10571289 17.12939453 C-9.10571289 23.06939453 -9.10571289 29.00939453 -9.10571289 35.12939453 C-15.04571289 35.12939453 -20.98571289 35.12939453 -27.10571289 35.12939453 C-27.10571289 40.73939453 -27.10571289 46.34939453 -27.10571289 52.12939453 C-33.04571289 52.12939453 -38.98571289 52.12939453 -45.10571289 52.12939453 C-45.10571289 57.73939453 -45.10571289 63.34939453 -45.10571289 69.12939453 C-50.71571289 69.12939453 -56.32571289 69.12939453 -62.10571289 69.12939453 C-62.10571289 101.13939453 -62.10571289 133.14939453 -62.10571289 166.12939453 C-56.49571289 166.12939453 -50.88571289 166.12939453 -45.10571289 166.12939453 C-45.10571289 176.02939453 -45.10571289 185.92939453 -45.10571289 196.12939453 C-39.16571289 196.12939453 -33.22571289 196.12939453 -27.10571289 196.12939453 C-27.10571289 201.73939453 -27.10571289 207.34939453 -27.10571289 213.12939453 C-21.16571289 213.12939453 -15.22571289 213.12939453 -9.10571289 213.12939453 C-9.10571289 218.40939453 -9.10571289 223.68939453 -9.10571289 229.12939453 C-3.49571289 229.12939453 2.11428711 229.12939453 7.89428711 229.12939453 C7.89428711 234.73939453 7.89428711 240.34939453 7.89428711 246.12939453 C13.83428711 246.12939453 19.77428711 246.12939453 25.89428711 246.12939453 C25.89428711 251.40939453 25.89428711 256.68939453 25.89428711 262.12939453 C31.50428711 262.12939453 37.11428711 262.12939453 42.89428711 262.12939453 C42.89428711 267.73939453 42.89428711 273.34939453 42.89428711 279.12939453 C48.83428711 279.12939453 54.77428711 279.12939453 60.89428711 279.12939453 C60.89428711 284.73939453 60.89428711 290.34939453 60.89428711 296.12939453 C66.50428711 296.12939453 72.11428711 296.12939453 77.89428711 296.12939453 C77.89428711 301.40939453 77.89428711 306.68939453 77.89428711 312.12939453 C97.03428711 312.12939453 116.17428711 312.12939453 135.89428711 312.12939453 C135.89428711 306.84939453 135.89428711 301.56939453 135.89428711 296.12939453 C141.50428711 296.12939453 147.11428711 296.12939453 152.89428711 296.12939453 C152.89428711 290.51939453 152.89428711 284.90939453 152.89428711 279.12939453 C158.50428711 279.12939453 164.11428711 279.12939453 169.89428711 279.12939453 C169.89428711 273.51939453 169.89428711 267.90939453 169.89428711 262.12939453 C175.83428711 262.12939453 181.77428711 262.12939453 187.89428711 262.12939453 C187.89428711 256.84939453 187.89428711 251.56939453 187.89428711 246.12939453 C193.83428711 246.12939453 199.77428711 246.12939453 205.89428711 246.12939453 C205.89428711 240.51939453 205.89428711 234.90939453 205.89428711 229.12939453 C211.50428711 229.12939453 217.11428711 229.12939453 222.89428711 229.12939453 C222.89428711 223.84939453 222.89428711 218.56939453 222.89428711 213.12939453 C228.50428711 213.12939453 234.11428711 213.12939453 239.89428711 213.12939453 C239.89428711 207.51939453 239.89428711 201.90939453 239.89428711 196.12939453 C245.83428711 196.12939453 251.77428711 196.12939453 257.89428711 196.12939453 C257.89428711 186.22939453 257.89428711 176.32939453 257.89428711 166.12939453 C263.50428711 166.12939453 269.11428711 166.12939453 274.89428711 166.12939453 C274.89428711 134.11939453 274.89428711 102.10939453 274.89428711 69.12939453 C269.28428711 69.12939453 263.67428711 69.12939453 257.89428711 69.12939453 C257.89428711 63.51939453 257.89428711 57.90939453 257.89428711 52.12939453 C251.95428711 52.12939453 246.01428711 52.12939453 239.89428711 52.12939453 C239.89428711 46.51939453 239.89428711 40.90939453 239.89428711 35.12939453 C234.28428711 35.12939453 228.67428711 35.12939453 222.89428711 35.12939453 C222.89428711 29.18939453 222.89428711 23.24939453 222.89428711 17.12939453 C194.18428711 17.12939453 165.47428711 17.12939453 135.89428711 17.12939453 C135.89428711 23.06939453 135.89428711 29.00939453 135.89428711 35.12939453 C129.95428711 35.12939453 124.01428711 35.12939453 117.89428711 35.12939453 C117.89428711 40.73939453 117.89428711 46.34939453 117.89428711 52.12939453 C110.63428711 52.12939453 103.37428711 52.12939453 95.89428711 52.12939453 C95.89428711 46.51939453 95.89428711 40.90939453 95.89428711 35.12939453 C89.95428711 35.12939453 84.01428711 35.12939453 77.89428711 35.12939453 C77.89428711 29.18939453 77.89428711 23.24939453 77.89428711 17.12939453 C49.18428711 17.12939453 20.47428711 17.12939453 -9.10571289 17.12939453 Z " fill="#BDBDC2" transform="translate(147.105712890625,95.87060546875)"/>
<path d="M0 0 C5.61 0 11.22 0 17 0 C17 32.01 17 64.02 17 97 C11.39 97 5.78 97 0 97 C0 106.9 0 116.8 0 127 C-5.94 127 -11.88 127 -18 127 C-18 132.61 -18 138.22 -18 144 C-23.61 144 -29.22 144 -35 144 C-35 149.28 -35 154.56 -35 160 C-40.61 160 -46.22 160 -52 160 C-52 165.61 -52 171.22 -52 177 C-57.94 177 -63.88 177 -70 177 C-70 182.28 -70 187.56 -70 193 C-75.94 193 -81.88 193 -88 193 C-88 198.61 -88 204.22 -88 210 C-93.61 210 -99.22 210 -105 210 C-105 215.61 -105 221.22 -105 227 C-110.61 227 -116.22 227 -122 227 C-122 232.28 -122 237.56 -122 243 C-141.14 243 -160.28 243 -180 243 C-180 237.72 -180 232.44 -180 227 C-185.61 227 -191.22 227 -197 227 C-197 221.39 -197 215.78 -197 210 C-202.94 210 -208.88 210 -215 210 C-215 204.39 -215 198.78 -215 193 C-220.61 193 -226.22 193 -232 193 C-232 187.72 -232 182.44 -232 177 C-237.94 177 -243.88 177 -250 177 C-250 171.39 -250 165.78 -250 160 C-255.61 160 -261.22 160 -267 160 C-267 154.72 -267 149.44 -267 144 C-272.94 144 -278.88 144 -285 144 C-285 138.39 -285 132.78 -285 127 C-290.61 127 -296.22 127 -302 127 C-302 117.1 -302 107.2 -302 97 C-290.45 97 -278.9 97 -267 97 C-267 101.29 -267 105.58 -267 110 C-261.39 110 -255.78 110 -250 110 C-250 115.61 -250 121.22 -250 127 C-244.06 127 -238.12 127 -232 127 C-232 132.61 -232 138.22 -232 144 C-226.39 144 -220.78 144 -215 144 C-215 149.28 -215 154.56 -215 160 C-209.06 160 -203.12 160 -197 160 C-197 165.61 -197 171.22 -197 177 C-191.39 177 -185.78 177 -180 177 C-180 182.28 -180 187.56 -180 193 C-174.06 193 -168.12 193 -162 193 C-162 198.61 -162 204.22 -162 210 C-154.74 210 -147.48 210 -140 210 C-140 204.72 -140 199.44 -140 194 C-128.45 194 -116.9 194 -105 194 C-105 182.78 -105 171.56 -105 160 C-99.39 160 -93.78 160 -88 160 C-88 154.72 -88 149.44 -88 144 C-76.12 144 -64.24 144 -52 144 C-52 132.78 -52 121.56 -52 110 C-46.39 110 -40.78 110 -35 110 C-35 105.71 -35 101.42 -35 97 C-29.39 97 -23.78 97 -18 97 C-18 91.39 -18 85.78 -18 80 C-12.06 80 -6.12 80 0 80 C0 53.6 0 27.2 0 0 Z " fill="#85273C" transform="translate(405,165)"/>
<path d="M0 0 C0.83749283 -0.00175232 1.67498566 -0.00350464 2.53785706 -0.00531006 C5.31424005 -0.00972195 8.09055968 -0.00679317 10.86694336 -0.00341797 C12.78983065 -0.00409113 14.71271786 -0.00506127 16.63560486 -0.00631714 C20.66821095 -0.00779316 24.70079491 -0.00564237 28.73339844 -0.00097656 C33.91453592 0.00472449 39.09562165 0.00143873 44.27675724 -0.00454903 C48.24772027 -0.00815395 52.21867093 -0.00701644 56.18963432 -0.00442123 C58.10070235 -0.00375197 60.01177148 -0.00458036 61.92283821 -0.00690079 C64.58791223 -0.0094266 67.25290111 -0.00558792 69.91796875 0 C71.11410797 -0.00303635 71.11410797 -0.00303635 72.33441162 -0.00613403 C77.78002379 0.01513121 77.78002379 0.01513121 78.89428711 1.12939453 C78.96748332 3.82594307 78.98671248 6.49630911 78.95678711 9.19189453 C78.95227539 9.95050781 78.94776367 10.70912109 78.94311523 11.49072266 C78.93129391 13.37031324 78.91335789 15.24986352 78.89428711 17.12939453 C80.10665039 17.09458984 80.10665039 17.09458984 81.34350586 17.05908203 C82.41213867 17.04103516 83.48077148 17.02298828 84.58178711 17.00439453 C85.6375293 16.98119141 86.69327148 16.95798828 87.78100586 16.93408203 C90.89428711 17.12939453 90.89428711 17.12939453 95.89428711 19.12939453 C96.22428711 23.74939453 96.55428711 28.36939453 96.89428711 33.12939453 C100.04017655 33.1562315 103.18583982 33.17615355 106.33178711 33.19189453 C107.22961914 33.20027344 108.12745117 33.20865234 109.05249023 33.21728516 C110.33349609 33.22211914 110.33349609 33.22211914 111.64038086 33.22705078 C112.43114014 33.2322876 113.22189941 33.23752441 114.03662109 33.24291992 C115.910214 33.33435362 115.910214 33.33435362 116.89428711 32.12939453 C117.13855849 29.64596883 117.2778847 27.1637216 117.41772461 24.67236328 C117.99299327 21.60269198 118.60516648 20.26622439 120.89428711 18.12939453 C125.19800482 16.99317018 129.45898636 16.65636096 133.89428711 16.12939453 C134.22428711 10.84939453 134.55428711 5.56939453 134.89428711 0.12939453 C163.93428711 0.12939453 192.97428711 0.12939453 222.89428711 0.12939453 C224.37507191 3.09096413 224.24742748 5.96445748 224.45678711 9.25439453 C224.5824707 11.17638672 224.5824707 11.17638672 224.71069336 13.13720703 C224.7712793 14.12462891 224.83186523 15.11205078 224.89428711 16.12939453 C226.24973633 16.22027344 226.24973633 16.22027344 227.63256836 16.31298828 C228.81206055 16.39677734 229.99155273 16.48056641 231.20678711 16.56689453 C232.37854492 16.64810547 233.55030273 16.72931641 234.75756836 16.81298828 C237.89428711 17.12939453 237.89428711 17.12939453 240.89428711 18.12939453 C241.55428711 23.07939453 242.21428711 28.02939453 242.89428711 33.12939453 C247.7852682 33.3789737 247.7852682 33.3789737 252.67724609 33.60742188 C254.42193822 33.70984636 256.15956759 33.91681618 257.89428711 34.12939453 C259.39585585 37.13253201 258.98709915 39.92006976 258.95678711 43.25439453 C258.94776367 44.53572266 258.93874023 45.81705078 258.92944336 47.13720703 C258.91204102 48.61833984 258.91204102 48.61833984 258.89428711 50.12939453 C259.7747168 50.09458984 260.65514648 50.05978516 261.56225586 50.02392578 C262.72370117 49.99685547 263.88514648 49.96978516 265.08178711 49.94189453 C266.2303418 49.90708984 267.37889648 49.87228516 268.56225586 49.83642578 C272.32735982 50.16747244 274.12934002 50.52951891 276.89428711 53.12939453 C277.27488762 55.91539024 277.37391616 58.06312204 277.20678711 60.81689453 C277.18422852 61.51878906 277.16166992 62.22068359 277.13842773 62.94384766 C277.07960358 64.67327783 276.989921 66.40160891 276.89428711 68.12939453 C277.95389648 68.11779297 279.01350586 68.10619141 280.10522461 68.09423828 C281.49324368 68.08485977 282.88126466 68.07575964 284.26928711 68.06689453 C284.96795898 68.05851562 285.66663086 68.05013672 286.38647461 68.04150391 C291.66772461 68.01611328 291.66772461 68.01611328 293.89428711 69.12939453 C293.89428711 111.03939453 293.89428711 152.94939453 293.89428711 196.12939453 C293.56428711 196.12939453 293.23428711 196.12939453 292.89428711 196.12939453 C292.89428711 186.22939453 292.89428711 176.32939453 292.89428711 166.12939453 C286.95428711 166.12939453 281.01428711 166.12939453 274.89428711 166.12939453 C274.89428711 134.11939453 274.89428711 102.10939453 274.89428711 69.12939453 C269.28428711 69.12939453 263.67428711 69.12939453 257.89428711 69.12939453 C257.89428711 63.51939453 257.89428711 57.90939453 257.89428711 52.12939453 C251.95428711 52.12939453 246.01428711 52.12939453 239.89428711 52.12939453 C239.89428711 46.51939453 239.89428711 40.90939453 239.89428711 35.12939453 C234.28428711 35.12939453 228.67428711 35.12939453 222.89428711 35.12939453 C222.89428711 29.18939453 222.89428711 23.24939453 222.89428711 17.12939453 C194.18428711 17.12939453 165.47428711 17.12939453 135.89428711 17.12939453 C135.89428711 23.06939453 135.89428711 29.00939453 135.89428711 35.12939453 C129.95428711 35.12939453 124.01428711 35.12939453 117.89428711 35.12939453 C117.89428711 40.73939453 117.89428711 46.34939453 117.89428711 52.12939453 C110.63428711 52.12939453 103.37428711 52.12939453 95.89428711 52.12939453 C95.89428711 46.51939453 95.89428711 40.90939453 95.89428711 35.12939453 C89.95428711 35.12939453 84.01428711 35.12939453 77.89428711 35.12939453 C77.89428711 29.18939453 77.89428711 23.24939453 77.89428711 17.12939453 C49.18428711 17.12939453 20.47428711 17.12939453 -9.10571289 17.12939453 C-9.10571289 23.06939453 -9.10571289 29.00939453 -9.10571289 35.12939453 C-15.04571289 35.12939453 -20.98571289 35.12939453 -27.10571289 35.12939453 C-27.10571289 40.73939453 -27.10571289 46.34939453 -27.10571289 52.12939453 C-33.04571289 52.12939453 -38.98571289 52.12939453 -45.10571289 52.12939453 C-45.10571289 57.73939453 -45.10571289 63.34939453 -45.10571289 69.12939453 C-50.71571289 69.12939453 -56.32571289 69.12939453 -62.10571289 69.12939453 C-62.10571289 101.13939453 -62.10571289 133.14939453 -62.10571289 166.12939453 C-68.04571289 166.12939453 -73.98571289 166.12939453 -80.10571289 166.12939453 C-80.10571289 168.10939453 -80.10571289 170.08939453 -80.10571289 172.12939453 C-80.43571289 172.12939453 -80.76571289 172.12939453 -81.10571289 172.12939453 C-81.80867603 137.79213176 -82.269969 103.47408294 -82.10571289 69.12939453 C-78.93397489 67.54352553 -75.47057467 67.75073008 -71.98071289 67.56689453 C-70.84956055 67.50211914 -70.84956055 67.50211914 -69.69555664 67.43603516 C-67.83249401 67.32991134 -65.96912765 67.22914452 -64.10571289 67.12939453 C-63.77571289 62.17939453 -63.44571289 57.22939453 -63.10571289 52.12939453 C-57.24992586 50.84593436 -52.12362343 50.01037529 -46.10571289 50.12939453 C-46.12891602 49.14197266 -46.15211914 48.15455078 -46.17602539 47.13720703 C-46.19407227 45.85587891 -46.21211914 44.57455078 -46.23071289 43.25439453 C-46.25391602 41.97822266 -46.27711914 40.70205078 -46.30102539 39.38720703 C-46.10571289 36.12939453 -46.10571289 36.12939453 -44.10571289 34.12939453 C-41.5250716 33.98441468 -39.05627405 33.94261908 -36.48071289 34.00439453 C-35.77430664 34.01341797 -35.06790039 34.02244141 -34.34008789 34.03173828 C-32.59515191 34.0553185 -30.85038994 34.09118992 -29.10571289 34.12939453 C-29.05672852 33.30955078 -29.00774414 32.48970703 -28.95727539 31.64501953 C-28.88250977 30.56736328 -28.80774414 29.48970703 -28.73071289 28.37939453 C-28.66110352 27.31205078 -28.59149414 26.24470703 -28.51977539 25.14501953 C-27.84284469 20.21492045 -27.84284469 20.21492045 -26.10571289 18.12939453 C-22.88305664 17.33642578 -22.88305664 17.33642578 -19.04321289 16.94189453 C-14.74887555 16.85083614 -14.74887555 16.85083614 -11.10571289 15.12939453 C-10.82042818 11.50673159 -10.65659061 7.88409019 -10.48461914 4.25439453 C-10.35958008 3.22314453 -10.23454102 2.19189453 -10.10571289 1.12939453 C-6.92551005 -0.46070689 -3.49204963 -0.00888697 0 0 Z " fill="#FDFCFC" transform="translate(147.105712890625,95.87060546875)"/>
<path d="M0 0 C5.61 0 11.22 0 17 0 C17 32.01 17 64.02 17 97 C11.39 97 5.78 97 0 97 C0 106.9 0 116.8 0 127 C-5.94 127 -11.88 127 -18 127 C-18 132.61 -18 138.22 -18 144 C-23.61 144 -29.22 144 -35 144 C-35 149.28 -35 154.56 -35 160 C-40.61 160 -46.22 160 -52 160 C-52 165.61 -52 171.22 -52 177 C-57.94 177 -63.88 177 -70 177 C-70 182.28 -70 187.56 -70 193 C-75.94 193 -81.88 193 -88 193 C-88 198.61 -88 204.22 -88 210 C-93.61 210 -99.22 210 -105 210 C-105 215.28 -105 220.56 -105 226 C-110.61 226 -116.22 226 -122 226 C-122 215.44 -122 204.88 -122 194 C-116.39 194 -110.78 194 -105 194 C-105 182.78 -105 171.56 -105 160 C-99.39 160 -93.78 160 -88 160 C-88 154.72 -88 149.44 -88 144 C-76.12 144 -64.24 144 -52 144 C-52 132.78 -52 121.56 -52 110 C-46.39 110 -40.78 110 -35 110 C-35 105.71 -35 101.42 -35 97 C-29.39 97 -23.78 97 -18 97 C-18 91.39 -18 85.78 -18 80 C-12.06 80 -6.12 80 0 80 C0 53.6 0 27.2 0 0 Z " fill="#83263A" transform="translate(405,165)"/>
<path d="M0 0 C11.55 0 23.1 0 35 0 C35 9.9 35 19.8 35 30 C29.57364835 31.80878388 23.66885438 31.05200784 18 31 C18 36.28 18 41.56 18 47 C12.39 47 6.78 47 1 47 C1.03950724 51.84649196 1.03950724 51.84649196 1.09008789 56.69287109 C1.11111111 61.77777778 1.11111111 61.77777778 0 64 C-5.61 64 -11.22 64 -17 64 C-16.96042843 69.22063275 -16.96042843 69.22063275 -16.90991211 74.44116211 C-16.90276055 76.29433759 -16.9497148 78.14749308 -17 80 C-18 81 -18 81 -21.59765625 81.09765625 C-23.08596867 81.0909822 -24.57426432 81.07902183 -26.0625 81.0625 C-26.82111328 81.05798828 -27.57972656 81.05347656 -28.36132812 81.04882812 C-30.24091871 81.0370068 -32.12046899 81.01907078 -34 81 C-33.98839844 81.98742187 -33.97679687 82.97484375 -33.96484375 83.9921875 C-33.95582031 85.27351563 -33.94679688 86.55484375 -33.9375 87.875 C-33.92589844 89.15117187 -33.91429687 90.42734375 -33.90234375 91.7421875 C-34 95 -34 95 -35 97 C-40.5429439 98.45866945 -46.31323109 98.09106925 -52 98 C-51.98839844 99.07121094 -51.97679687 100.14242187 -51.96484375 101.24609375 C-51.95546701 102.64322743 -51.94636669 104.04036299 -51.9375 105.4375 C-51.92912109 106.14455078 -51.92074219 106.85160156 -51.91210938 107.58007812 C-51.90346412 109.38693559 -51.94779989 111.19387603 -52 113 C-53 114 -53 114 -56.59765625 114.09765625 C-58.08597255 114.09191272 -59.57426296 114.07889891 -61.0625 114.0625 C-63.681875 114.041875 -66.30125 114.02125 -69 114 C-69 119.28 -69 124.56 -69 130 C-75.00645358 131.50161339 -80.81425982 131.05727537 -87 131 C-87 136.28 -87 141.56 -87 147 C-92.61 147 -98.22 147 -104 147 C-104 152.28 -104 157.56 -104 163 C-104.33 163 -104.66 163 -105 163 C-105 157.39 -105 151.78 -105 146 C-99.39 146 -93.78 146 -88 146 C-88 140.72 -88 135.44 -88 130 C-93.61 130 -99.22 130 -105 130 C-105 124.39 -105 118.78 -105 113 C-99.39 113 -93.78 113 -88 113 C-88 107.39 -88 101.78 -88 96 C-82.06 96 -76.12 96 -70 96 C-70 90.72 -70 85.44 -70 80 C-64.06 80 -58.12 80 -52 80 C-52 74.39 -52 68.78 -52 63 C-46.39 63 -40.78 63 -35 63 C-35 57.72 -35 52.44 -35 47 C-29.39 47 -23.78 47 -18 47 C-18 41.39 -18 35.78 -18 30 C-12.06 30 -6.12 30 0 30 C0 20.1 0 10.2 0 0 Z " fill="#F4F3F3" transform="translate(405,262)"/>
<path d="M0 0 C5.61 0 11.22 0 17 0 C17 5.28 17 10.56 17 16 C22.94 16 28.88 16 35 16 C35 21.61 35 27.22 35 33 C42.26 33 49.52 33 57 33 C57 27.72 57 22.44 57 17 C62.94 17 68.88 17 75 17 C75 27.56 75 38.12 75 49 C80.61 49 86.22 49 92 49 C92 49.33 92 49.66 92 50 C86.39 50 80.78 50 75 50 C75 55.28 75 60.56 75 66 C55.86 66 36.72 66 17 66 C17 60.72 17 55.44 17 50 C11.39 50 5.78 50 0 50 C0 49.67 0 49.34 0 49 C5.61 49 11.22 49 17 49 C17 38.44 17 27.88 17 17 C11.39 17 5.78 17 0 17 C0 11.39 0 5.78 0 0 Z " fill="#8E2B40" transform="translate(208,342)"/>
<path d="M0 0 C11.55 0 23.1 0 35 0 C35 5.61 35 11.22 35 17 C29.39 17 23.78 17 18 17 C18 22.61 18 28.22 18 34 C12.06 34 6.12 34 0 34 C0 39.61 0 45.22 0 51 C-11.55 51 -23.1 51 -35 51 C-35 45.39 -35 39.78 -35 34 C-29.39 34 -23.78 34 -18 34 C-18 28.39 -18 22.78 -18 17 C-12.06 17 -6.12 17 0 17 C0 11.39 0 5.78 0 0 Z " fill="#FBAFAF" transform="translate(155,148)"/>
<path d="M0 0 C0 41.91 0 83.82 0 127 C-0.33 127 -0.66 127 -1 127 C-1 117.1 -1 107.2 -1 97 C-6.61 97 -12.22 97 -18 97 C-18 64.99 -18 32.98 -18 0 C-3 -1 -3 -1 0 0 Z " fill="#FBFBFB" transform="translate(441,165)"/>
<path d="M0 0 C0 31.68 0 63.36 0 96 C-5.61 96 -11.22 96 -17 96 C-17.06058594 93.61523438 -17.12117188 91.23046875 -17.18359375 88.7734375 C-17.24549757 86.45000397 -17.30883769 84.12661369 -17.37231445 81.80322266 C-17.41548205 80.19518933 -17.45716901 78.58711552 -17.49731445 76.97900391 C-17.55546006 74.66035795 -17.61902391 72.34191239 -17.68359375 70.0234375 C-17.70030624 69.31069672 -17.71701874 68.59795593 -17.73423767 67.86361694 C-17.82114795 64.89945194 -17.9913335 62.04924613 -18.5057373 59.1262207 C-18.98733858 56.08008373 -19.12049498 53.25878132 -19.11352539 50.17822266 C-19.11344986 49.05751373 -19.11337433 47.93680481 -19.11329651 46.78213501 C-19.10813522 45.58817108 -19.10297394 44.39420715 -19.09765625 43.1640625 C-19.0962413 41.92957367 -19.09482635 40.69508484 -19.09336853 39.42318726 C-19.08778272 35.49043325 -19.07523275 31.55773672 -19.0625 27.625 C-19.05691912 24.95442792 -19.05292058 22.28385637 -19.04882812 19.61328125 C-19.03781792 13.07550131 -19.02109385 6.53775476 -19 0 C-13.33529446 -2.83235277 -6.32240436 -0.37190614 0 0 Z " fill="#FDFCFC" transform="translate(84,165)"/>
<path d="M0 0 C5.61 0 11.22 0 17 0 C17 31.68 17 63.36 17 96 C11.39 96 5.78 96 0 96 C0 64.32 0 32.64 0 0 Z " fill="#581017" transform="translate(85,165)"/>
<path d="M0 0 C5.61 0 11.22 0 17 0 C17 31.68 17 63.36 17 96 C11.39 96 5.78 96 0 96 C0 64.32 0 32.64 0 0 Z " fill="#5B1119" transform="translate(405,165)"/>
<path d="M0 0 C5.94 0 11.88 0 18 0 C18 5.28 18 10.56 18 16 C23.61 16 29.22 16 35 16 C35 16.33 35 16.66 35 17 C29.33357449 18.22517308 23.76291482 18.09228867 18 18 C18.01160156 19.07121094 18.02320313 20.14242188 18.03515625 21.24609375 C18.04453299 22.64322743 18.05363331 24.04036299 18.0625 25.4375 C18.07087891 26.14455078 18.07925781 26.85160156 18.08789062 27.58007812 C18.09653588 29.38693559 18.05220011 31.19387603 18 33 C17 34 17 34 13.40234375 34.09765625 C11.91402745 34.09191272 10.42573704 34.07889891 8.9375 34.0625 C6.318125 34.041875 3.69875 34.02125 1 34 C1 39.28 1 44.56 1 50 C-5.00645358 51.50161339 -10.81425982 51.05727537 -17 51 C-17 56.28 -17 61.56 -17 67 C-22.61 67 -28.22 67 -34 67 C-34 72.28 -34 77.56 -34 83 C-34.33 83 -34.66 83 -35 83 C-35 77.39 -35 71.78 -35 66 C-29.39 66 -23.78 66 -18 66 C-18 60.72 -18 55.44 -18 50 C-23.61 50 -29.22 50 -35 50 C-35 44.39 -35 38.78 -35 33 C-29.39 33 -23.78 33 -18 33 C-18 27.39 -18 21.78 -18 16 C-12.06 16 -6.12 16 0 16 C0 10.72 0 5.44 0 0 Z " fill="#CCC7CB" transform="translate(335,342)"/>
<path d="M0 0 C28.71 0 57.42 0 87 0 C87 5.94 87 11.88 87 18 C58.29 18 29.58 18 0 18 C0 12.06 0 6.12 0 0 Z " fill="#5A0F18" transform="translate(138,113)"/>
<path d="M0 0 C0.33 0 0.66 0 1 0 C1 5.61 1 11.22 1 17 C6.61 17 12.22 17 18 17 C18 22.61 18 28.22 18 34 C12.39 34 6.78 34 1 34 C1.03957157 39.22063275 1.03957157 39.22063275 1.09008789 44.44116211 C1.09723945 46.29433759 1.0502852 48.14749308 1 50 C0 51 0 51 -3.59765625 51.09765625 C-5.08596867 51.0909822 -6.57426432 51.07902183 -8.0625 51.0625 C-9.20041992 51.05573242 -9.20041992 51.05573242 -10.36132812 51.04882812 C-12.24091871 51.0370068 -14.12046899 51.01907078 -16 51 C-15.98839844 51.99902344 -15.97679687 52.99804688 -15.96484375 54.02734375 C-15.95582031 55.31769531 -15.94679688 56.60804688 -15.9375 57.9375 C-15.92589844 59.22527344 -15.91429687 60.51304687 -15.90234375 61.83984375 C-16 65 -16 65 -17 66 C-19.86469325 66.07330331 -22.69893674 66.09217831 -25.5625 66.0625 C-28.346875 66.041875 -31.13125 66.02125 -34 66 C-34 55.11 -34 44.22 -34 33 C-28.39 33 -22.78 33 -17 33 C-17 27.72 -17 22.44 -17 17 C-11.39 17 -5.78 17 0 17 C0 11.39 0 5.78 0 0 Z " fill="#859097" transform="translate(387,292)"/>
<path d="M0 0 C28.38 0 56.76 0 86 0 C86 5.61 86 11.22 86 17 C57.62 17 29.24 17 0 17 C0 11.39 0 5.78 0 0 Z " fill="#5C111A" transform="translate(283,114)"/>
<path d="M0 0 C11.55 0 23.1 0 35 0 C35 5.28 35 10.56 35 16 C29.06 16 23.12 16 17 16 C17 21.61 17 27.22 17 33 C11.39 33 5.78 33 0 33 C0 38.28 0 43.56 0 49 C-5.61 49 -11.22 49 -17 49 C-17 38.44 -17 27.88 -17 17 C-11.39 17 -5.78 17 0 17 C0 11.39 0 5.78 0 0 Z " fill="#84263B" transform="translate(300,342)"/>
<path d="M0 0 C5.94 0 11.88 0 18 0 C18.33 10.23 18.66 20.46 19 31 C24.28 31.33 29.56 31.66 35 32 C35 26.72 35 21.44 35 16 C35.33 16 35.66 16 36 16 C36 21.61 36 27.22 36 33 C18.51 33 1.02 33 -17 33 C-17 27.39 -17 21.78 -17 16 C-11.39 16 -5.78 16 0 16 C0 10.72 0 5.44 0 0 Z " fill="#842B3E" transform="translate(317,309)"/>
<path d="M0 0 C18.81 0 37.62 0 57 0 C57 5.28 57 10.56 57 16 C38.19 16 19.38 16 0 16 C0 10.72 0 5.44 0 0 Z " fill="#76838B" transform="translate(225,425)"/>
<path d="M0 0 C18.81 0 37.62 0 57 0 C57 5.28 57 10.56 57 16 C38.19 16 19.38 16 0 16 C0 10.72 0 5.44 0 0 Z " fill="#5C0F18" transform="translate(225,392)"/>
<path d="M0 0 C0.33 0 0.66 0 1 0 C1 5.94 1 11.88 1 18 C-4.94 18 -10.88 18 -17 18 C-17 23.61 -17 29.22 -17 35 C-22.94 35 -28.88 35 -35 35 C-35 40.61 -35 46.22 -35 52 C-40.61 52 -46.22 52 -52 52 C-52 84.01 -52 116.02 -52 149 C-57.94 149 -63.88 149 -70 149 C-70 150.98 -70 152.96 -70 155 C-70.33 155 -70.66 155 -71 155 C-71 141.47 -71 127.94 -71 114 C-70.67 114 -70.34 114 -70 114 C-70 125.22 -70 136.44 -70 148 C-64.39 148 -58.78 148 -53 148 C-53 116.32 -53 84.64 -53 52 C-56.63 52 -60.26 52 -64 52 C-64 51.67 -64 51.34 -64 51 C-59.05 50.505 -59.05 50.505 -54 50 C-53.67 45.05 -53.34 40.1 -53 35 C-47.14421297 33.71653983 -42.01791054 32.88098076 -36 33 C-36.02320313 32.01257813 -36.04640625 31.02515625 -36.0703125 30.0078125 C-36.08835938 28.72648437 -36.10640625 27.44515625 -36.125 26.125 C-36.14820313 24.84882813 -36.17140625 23.57265625 -36.1953125 22.2578125 C-36 19 -36 19 -34 17 C-31.41935871 16.85502015 -28.95056116 16.81322455 -26.375 16.875 C-25.31539062 16.88853516 -25.31539062 16.88853516 -24.234375 16.90234375 C-22.48943902 16.92592397 -20.74467705 16.96179539 -19 17 C-18.67 13.37 -18.34 9.74 -18 6 C-17.67 6 -17.34 6 -17 6 C-17 9.63 -17 13.26 -17 17 C-11.39 17 -5.78 17 0 17 C0 11.39 0 5.78 0 0 Z " fill="#EFE9E9" transform="translate(137,113)"/>
<path d="M0 0 C11.55 0 23.1 0 35 0 C35 10.89 35 21.78 35 33 C29.39 33 23.78 33 18 33 C18 27.72 18 22.44 18 17 C12.06 17 6.12 17 0 17 C0 11.39 0 5.78 0 0 Z " fill="#82273B" transform="translate(120,292)"/>
<path d="M0 0 C18.81 0 37.62 0 57 0 C57 4.95 57 9.9 57 15 C38.19 15 19.38 15 0 15 C0 10.05 0 5.1 0 0 Z " fill="#FEFEFE" transform="translate(225,409)"/>
<path d="M0 0 C0.33 0 0.66 0 1 0 C1.66 4.62 2.32 9.24 3 14 C4.60681641 14.07347656 4.60681641 14.07347656 6.24609375 14.1484375 C7.64325639 14.22345294 9.0403905 14.2990013 10.4375 14.375 C11.14455078 14.4059375 11.85160156 14.436875 12.58007812 14.46875 C14.39239188 14.57280629 16.19817988 14.77919892 18 15 C19.50156874 18.00313748 19.09281204 20.79067522 19.0625 24.125 C19.05347656 25.40632813 19.04445313 26.68765625 19.03515625 28.0078125 C19.02355469 28.99523437 19.01195312 29.98265625 19 31 C19.88042969 30.96519531 20.76085937 30.93039063 21.66796875 30.89453125 C22.82941406 30.86746094 23.99085938 30.84039062 25.1875 30.8125 C26.33605469 30.77769531 27.48460937 30.74289063 28.66796875 30.70703125 C32.43307271 31.03807791 34.23505291 31.40012438 37 34 C37.38060051 36.78599571 37.47962905 38.93372751 37.3125 41.6875 C37.28994141 42.38939453 37.26738281 43.09128906 37.24414062 43.81445312 C37.18531647 45.5438833 37.09563389 47.27221438 37 49 C41.62 49 46.24 49 51 49 C51 49.33 51 49.66 51 50 C46.05 50 41.1 50 36 50 C36 82.01 36 114.02 36 147 C35.67 147 35.34 147 35 147 C35 114.99 35 82.98 35 50 C29.39 50 23.78 50 18 50 C18 44.39 18 38.78 18 33 C12.06 33 6.12 33 0 33 C0 27.39 0 21.78 0 16 C-5.61 16 -11.22 16 -17 16 C-17 15.67 -17 15.34 -17 15 C-11.39 15 -5.78 15 0 15 C0 10.05 0 5.1 0 0 Z " fill="#CABABB" transform="translate(387,115)"/>
<path d="M0 0 C11.22 0 22.44 0 34 0 C34 5.28 34 10.56 34 16 C28.39 16 22.78 16 17 16 C17 21.61 17 27.22 17 33 C11.39 33 5.78 33 0 33 C0 22.11 0 11.22 0 0 Z " fill="#77838B" transform="translate(283,392)"/>
<path d="M0 0 C11.40653459 -0.09585323 22.6187264 0.23487236 34 1 C34 11.56 34 22.12 34 33 C28.39 33 22.78 33 17 33 C17 27.72 17 22.44 17 17 C11.39 17 5.78 17 0 17 C0 11.39 0 5.78 0 0 Z " fill="#84263B" transform="translate(191,358)"/>
<path d="M0 0 C0.33 0 0.66 0 1 0 C1 7.26 1 14.52 1 22 C-4.94 22 -10.88 22 -17 22 C-17 27.61 -17 33.22 -17 39 C-24.26 39 -31.52 39 -39 39 C-39 33.39 -39 27.78 -39 22 C-44.94 22 -50.88 22 -57 22 C-57 21.67 -57 21.34 -57 21 C-46.28066057 20.32779058 -35.62452674 19.87722236 -24.8815918 20.03710938 C-22.92114208 20.05879254 -20.9602719 20.03416596 -19 20 C-17.0221434 18.0221434 -17.62716901 14.22614256 -17.4765625 11.54296875 C-16.90129384 8.47329745 -16.28912062 7.13682986 -14 5 C-10.86328125 4.171875 -10.86328125 4.171875 -7.3125 3.75 C-6.13300781 3.60046875 -4.95351563 3.4509375 -3.73828125 3.296875 C-2.83464844 3.19890625 -1.93101562 3.1009375 -1 3 C-0.67 2.01 -0.34 1.02 0 0 Z " fill="#F4EEEF" transform="translate(282,109)"/>
<path d="M0 0 C5.61 0 11.22 0 17 0 C17 5.28 17 10.56 17 16 C22.94 16 28.88 16 35 16 C35 21.61 35 27.22 35 33 C29.06 33 23.12 33 17 33 C17 27.72 17 22.44 17 17 C11.39 17 5.78 17 0 17 C0 11.39 0 5.78 0 0 Z " fill="#B1374C" transform="translate(208,342)"/>
<path d="M0 0 C5.61 0 11.22 0 17 0 C18.04534367 10.91803385 17.7570868 21.06430179 17 32 C11.39 32 5.78 32 0 32 C0 21.44 0 10.88 0 0 Z " fill="#85273B" transform="translate(283,359)"/>
<path d="M0 0 C5.61 0 11.22 0 17 0 C17 9.9 17 19.8 17 30 C11.39 30 5.78 30 0 30 C0 20.1 0 10.2 0 0 Z " fill="#9AA3A9" transform="translate(423,262)"/>
<path d="M0 0 C5.61 0 11.22 0 17 0 C17 9.9 17 19.8 17 30 C11.39 30 5.78 30 0 30 C0 20.1 0 10.2 0 0 Z " fill="#5A1018" transform="translate(103,262)"/>
<path d="M0 0 C5.61 0 11.22 0 17 0 C17 9.9 17 19.8 17 30 C11.39 30 5.78 30 0 30 C0 20.1 0 10.2 0 0 Z " fill="#FDFDFD" transform="translate(85,262)"/>
<path d="M0 0 C5.61 0 11.22 0 17 0 C17 9.9 17 19.8 17 30 C11.39 30 5.78 30 0 30 C0 20.1 0 10.2 0 0 Z " fill="#581018" transform="translate(388,262)"/>
<path d="M0 0 C7.26 0 14.52 0 22 0 C22 5.61 22 11.22 22 17 C14.74 17 7.48 17 0 17 C0 11.39 0 5.78 0 0 Z " fill="#581017" transform="translate(243,148)"/>
<path d="M0 0 C5.94 0 11.88 0 18 0 C18 5.61 18 11.22 18 17 C12.39 17 6.78 17 1 17 C1 26.9 1 36.8 1 47 C0.67 47 0.34 47 0 47 C0 37.1 0 27.2 0 17 C-5.61 17 -11.22 17 -17 17 C-17 16.67 -17 16.34 -17 16 C-11.39 16 -5.78 16 0 16 C0 10.72 0 5.44 0 0 Z " fill="#A53849" transform="translate(102,245)"/>
<path d="M0 0 C5.94 0 11.88 0 18 0 C18 5.61 18 11.22 18 17 C12.39 17 6.78 17 1 17 C1 22.61 1 28.22 1 34 C-4.94 34 -10.88 34 -17 34 C-17 33.67 -17 33.34 -17 33 C-11.39 33 -5.78 33 0 33 C0 22.11 0 11.22 0 0 Z " fill="#F67D87" transform="translate(172,148)"/>
<path d="M0 0 C5.94 0 11.88 0 18 0 C18 5.28 18 10.56 18 16 C23.61 16 29.22 16 35 16 C35 16.33 35 16.66 35 17 C23.45 17 11.9 17 0 17 C0 11.39 0 5.78 0 0 Z " fill="#A9384A" transform="translate(387,245)"/>
<path d="M0 0 C0.33 0 0.66 0 1 0 C1 11.22 1 22.44 1 34 C-4.94 34 -10.88 34 -17 34 C-17 28.39 -17 22.78 -17 17 C-11.39 17 -5.78 17 0 17 C0 11.39 0 5.78 0 0 Z " fill="#F67B85" transform="translate(137,165)"/>
<path d="M0 0 C5.94 0 11.88 0 18 0 C18 5.61 18 11.22 18 17 C12.06 17 6.12 17 0 17 C0 11.39 0 5.78 0 0 Z " fill="#B0374D" transform="translate(190,325)"/>
<path d="M0 0 C5.94 0 11.88 0 18 0 C18 5.61 18 11.22 18 17 C12.06 17 6.12 17 0 17 C0 11.39 0 5.78 0 0 Z " fill="#FAF8F8" transform="translate(102,292)"/>
<path d="M0 0 C5.94 0 11.88 0 18 0 C18 5.61 18 11.22 18 17 C12.06 17 6.12 17 0 17 C0 11.39 0 5.78 0 0 Z " fill="#AE364C" transform="translate(335,292)"/>
<path d="M0 0 C5.94 0 11.88 0 18 0 C18 5.61 18 11.22 18 17 C12.06 17 6.12 17 0 17 C0 11.39 0 5.78 0 0 Z " fill="#AF374C" transform="translate(155,292)"/>
<path d="M0 0 C5.94 0 11.88 0 18 0 C18 5.61 18 11.22 18 17 C12.06 17 6.12 17 0 17 C0 11.39 0 5.78 0 0 Z " fill="#57121A" transform="translate(102,148)"/>
<path d="M0 0 C5.94 0 11.88 0 18 0 C18 5.61 18 11.22 18 17 C12.06 17 6.12 17 0 17 C0 11.39 0 5.78 0 0 Z " fill="#5D1119" transform="translate(387,148)"/>
<path d="M0 0 C5.94 0 11.88 0 18 0 C18 5.61 18 11.22 18 17 C12.06 17 6.12 17 0 17 C0 11.39 0 5.78 0 0 Z " fill="#5B121A" transform="translate(265,131)"/>
<path d="M0 0 C5.94 0 11.88 0 18 0 C18 5.61 18 11.22 18 17 C12.06 17 6.12 17 0 17 C0 11.39 0 5.78 0 0 Z " fill="#5C111A" transform="translate(120,131)"/>
<path d="M0 0 C5.94 0 11.88 0 18 0 C18 5.28 18 10.56 18 16 C12.39 16 6.78 16 1 16 C1 21.61 1 27.22 1 33 C0.67 33 0.34 33 0 33 C0 22.11 0 11.22 0 0 Z " fill="#84283C" transform="translate(190,342)"/>
<path d="M0 0 C28.71 0 57.42 0 87 0 C87 5.94 87 11.88 87 18 C58.29 18 29.58 18 0 18 C0 17.67 0 17.34 0 17 C28.05 17 56.1 17 85 17 C85 12.05 85 7.1 85 2 C74.78597032 2.1081236 64.57200564 2.22023104 54.35809803 2.33933926 C49.61530147 2.39448778 44.87249866 2.44789477 40.12963867 2.49731445 C35.5519604 2.54507717 30.97435533 2.59742409 26.39676476 2.65294075 C24.65090446 2.67331041 22.90502414 2.69203225 21.15912819 2.70907402 C18.71253859 2.73323762 16.266086 2.76327541 13.81958008 2.79467773 C12.73848213 2.80331093 12.73848213 2.80331093 11.63554382 2.81211853 C7.97356098 2.86549396 4.56317232 3.13693544 1 4 C0.67 2.68 0.34 1.36 0 0 Z " fill="#73323A" transform="translate(138,113)"/>
<path d="M0 0 C5.28 0.33 10.56 0.66 16 1 C16 6.61 16 12.22 16 18 C10.39 18 4.78 18 -1 18 C-1.020625 15.40125 -1.04125 12.8025 -1.0625 10.125 C-1.071604 9.30789551 -1.08070801 8.49079102 -1.09008789 7.64892578 C-1.11111111 2.22222222 -1.11111111 2.22222222 0 0 Z " fill="#FCFBFB" transform="translate(389,129)"/>
<path d="M0 0 C5.61 0 11.22 0 17 0 C17 5.61 17 11.22 17 17 C11.39 17 5.78 17 0 17 C0 11.39 0 5.78 0 0 Z " fill="#77838B" transform="translate(283,408)"/>
<path d="M0 0 C5.61 0 11.22 0 17 0 C17 5.61 17 11.22 17 17 C11.39 17 5.78 17 0 17 C0 11.39 0 5.78 0 0 Z " fill="#AE374B" transform="translate(283,342)"/>
<path d="M0 0 C5.61 0 11.22 0 17 0 C17 5.61 17 11.22 17 17 C11.39 17 5.78 17 0 17 C0 11.39 0 5.78 0 0 Z " fill="#B0374C" transform="translate(300,325)"/>
<path d="M0 0 C5.61 0 11.22 0 17 0 C17 5.61 17 11.22 17 17 C11.39 17 5.78 17 0 17 C0 11.39 0 5.78 0 0 Z " fill="#FBFAFB" transform="translate(388,292)"/>
<path d="M0 0 C5.61 0 11.22 0 17 0 C17 5.61 17 11.22 17 17 C11.39 17 5.78 17 0 17 C0 11.39 0 5.78 0 0 Z " fill="#AE374B" transform="translate(353,275)"/>
<path d="M0 0 C5.61 0 11.22 0 17 0 C17 5.61 17 11.22 17 17 C11.39 17 5.78 17 0 17 C0 11.39 0 5.78 0 0 Z " fill="#AF374B" transform="translate(138,275)"/>
<path d="M0 0 C5.61 0 11.22 0 17 0 C17 5.61 17 11.22 17 17 C11.39 17 5.78 17 0 17 C0 11.39 0 5.78 0 0 Z " fill="#5A1017" transform="translate(370,131)"/>
<path d="M0 0 C5.61 0 11.22 0 17 0 C17 5.61 17 11.22 17 17 C11.39 17 5.78 17 0 17 C0 11.39 0 5.78 0 0 Z " fill="#5C1118" transform="translate(225,131)"/>
<path d="M0 0 C5.94 0 11.88 0 18 0 C18 5.28 18 10.56 18 16 C12.06 16 6.12 16 0 16 C0 10.72 0 5.44 0 0 Z " fill="#78858C" transform="translate(335,359)"/>
<path d="M0 0 C5.94 0 11.88 0 18 0 C18 5.28 18 10.56 18 16 C12.06 16 6.12 16 0 16 C0 10.72 0 5.44 0 0 Z " fill="#AF364B" transform="translate(265,359)"/>
<path d="M0 0 C5.61 0 11.22 0 17 0 C17 5.61 17 11.22 17 17 C11.39 17 5.78 17 0 17 C0 11.39 0 5.78 0 0 Z " fill="#5C121B" transform="translate(191,358)"/>
<path d="M0 0 C5.94 0 11.88 0 18 0 C18 5.28 18 10.56 18 16 C12.06 16 6.12 16 0 16 C0 10.72 0 5.44 0 0 Z " fill="#5D101A" transform="translate(317,342)"/>
<path d="M0 0 C5.61 0 11.22 0 17 0 C17 5.61 17 11.22 17 17 C13.0709375 17.0309375 13.0709375 17.0309375 9.0625 17.0625 C8.2362915 17.071604 7.41008301 17.08070801 6.55883789 17.09008789 C4.70566241 17.09723945 2.85250692 17.0502852 1 17 C0 16 0 16 -0.09765625 12.40234375 C-0.09191272 10.91402745 -0.07889891 9.42573704 -0.0625 7.9375 C-0.041875 5.318125 -0.02125 2.69875 0 0 Z " fill="#86263B" transform="translate(173,325)"/>
<path d="M0 0 C5.94 0 11.88 0 18 0 C18 5.28 18 10.56 18 16 C12.06 16 6.12 16 0 16 C0 10.72 0 5.44 0 0 Z " fill="#AF364B" transform="translate(317,309)"/>
<path d="M0 0 C5.94 0 11.88 0 18 0 C18 5.28 18 10.56 18 16 C12.06 16 6.12 16 0 16 C0 10.72 0 5.44 0 0 Z " fill="#77838B" transform="translate(102,309)"/>
<path d="M0 0 C5.94 0 11.88 0 18 0 C18 5.28 18 10.56 18 16 C12.06 16 6.12 16 0 16 C0 10.72 0 5.44 0 0 Z " fill="#5B111A" transform="translate(120,292)"/>
<path d="M0 0 C2.76523903 0.01753851 5.37982995 0.13843141 8.125 0.375 C10.72375 0.58125 13.3225 0.7875 16 1 C16 6.28 16 11.56 16 17 C10.39 17 4.78 17 -1 17 C-1.20625 14.56625 -1.4125 12.1325 -1.625 9.625 C-1.69541504 8.86010254 -1.76583008 8.09520508 -1.83837891 7.30712891 C-1.97160117 5.54228692 -1.98806861 3.76982288 -2 2 C-1.34 1.34 -0.68 0.68 0 0 Z " fill="#FDFDFD" transform="translate(103,130)"/>
<path d="M0 0 C5.61 0 11.22 0 17 0 C17 5.28 17 10.56 17 16 C11.39 16 5.78 16 0 16 C0 10.72 0 5.44 0 0 Z " fill="#FDFDFD" transform="translate(283,392)"/>
<path d="M0 0 C5.61 0 11.22 0 17 0 C17 5.28 17 10.56 17 16 C11.39 16 5.78 16 0 16 C0 10.72 0 5.44 0 0 Z " fill="#FEFCFC" transform="translate(208,392)"/>
<path d="M0 0 C5.61 0 11.22 0 17 0 C17 5.28 17 10.56 17 16 C11.39 16 5.78 16 0 16 C0 10.72 0 5.44 0 0 Z " fill="#77838B" transform="translate(190,392)"/>
<path d="M0 0 C5.61 0 11.22 0 17 0 C17 5.28 17 10.56 17 16 C11.39 16 5.78 16 0 16 C0 10.72 0 5.44 0 0 Z " fill="#77838B" transform="translate(318,375)"/>
<path d="M0 0 C5.61 0 11.22 0 17 0 C17 5.28 17 10.56 17 16 C11.39 16 5.78 16 0 16 C0 10.72 0 5.44 0 0 Z " fill="#5C111A" transform="translate(208,375)"/>
<path d="M0 0 C5.61 0 11.22 0 17 0 C17 5.28 17 10.56 17 16 C11.39 16 5.78 16 0 16 C0 10.72 0 5.44 0 0 Z " fill="#77848B" transform="translate(173,375)"/>
<path d="M0 0 C5.61 0 11.22 0 17 0 C17 5.28 17 10.56 17 16 C11.39 16 5.78 16 0 16 C0 10.72 0 5.44 0 0 Z " fill="#5A1119" transform="translate(283,375)"/>
<path d="M0 0 C5.61 0 11.22 0 17 0 C17 5.28 17 10.56 17 16 C11.39 16 5.78 16 0 16 C0 10.72 0 5.44 0 0 Z " fill="#FDFDFD" transform="translate(318,359)"/>
<path d="M0 0 C5.61 0 11.22 0 17 0 C17 5.28 17 10.56 17 16 C11.39 16 5.78 16 0 16 C0 10.72 0 5.44 0 0 Z " fill="#FDFCFC" transform="translate(173,359)"/>
<path d="M0 0 C5.61 0 11.22 0 17 0 C17 5.28 17 10.56 17 16 C11.39 16 5.78 16 0 16 C0 10.72 0 5.44 0 0 Z " fill="#75828A" transform="translate(155,359)"/>
<path d="M0 0 C5.61 0 11.22 0 17 0 C17 5.28 17 10.56 17 16 C11.39 16 5.78 16 0 16 C0 10.72 0 5.44 0 0 Z " fill="#FDFCFC" transform="translate(155,342)"/>
<path d="M0 0 C5.61 0 11.22 0 17 0 C17 5.28 17 10.56 17 16 C11.39 16 5.78 16 0 16 C0 10.72 0 5.44 0 0 Z " fill="#77838A" transform="translate(353,342)"/>
<path d="M0 0 C5.61 0 11.22 0 17 0 C17 5.28 17 10.56 17 16 C11.39 16 5.78 16 0 16 C0 10.72 0 5.44 0 0 Z " fill="#5B1018" transform="translate(173,342)"/>
<path d="M0 0 C5.61 0 11.22 0 17 0 C17 5.28 17 10.56 17 16 C11.39 16 5.78 16 0 16 C0 10.72 0 5.44 0 0 Z " fill="#77838A" transform="translate(138,342)"/>
<path d="M0 0 C5.61 0 11.22 0 17 0 C17 5.28 17 10.56 17 16 C11.39 16 5.78 16 0 16 C0 10.72 0 5.44 0 0 Z " fill="#FAFAFA" transform="translate(353,326)"/>
<path d="M0 0 C5.61 0 11.22 0 17 0 C17 5.28 17 10.56 17 16 C11.39 16 5.78 16 0 16 C0 10.72 0 5.44 0 0 Z " fill="#5A111A" transform="translate(155,325)"/>
<path d="M0 0 C5.61 0 11.22 0 17 0 C17 5.28 17 10.56 17 16 C11.39 16 5.78 16 0 16 C0 10.72 0 5.44 0 0 Z " fill="#78848B" transform="translate(120,326)"/>
<path d="M0 0 C5.61 0 11.22 0 17 0 C17 5.28 17 10.56 17 16 C11.39 16 5.78 16 0 16 C0 10.72 0 5.44 0 0 Z " fill="#FDFCFC" transform="translate(370,309)"/>
<path d="M0 0 C5.61 0 11.22 0 17 0 C17 5.28 17 10.56 17 16 C11.39 16 5.78 16 0 16 C0 10.72 0 5.44 0 0 Z " fill="#FDFDFD" transform="translate(120,309)"/>
<path d="M0 0 C5.61 0 11.22 0 17 0 C17 5.28 17 10.56 17 16 C11.39 16 5.78 16 0 16 C0 10.72 0 5.44 0 0 Z " fill="#758289" transform="translate(388,309)"/>
<path d="M0 0 C5.61 0 11.22 0 17 0 C17 5.28 17 10.56 17 16 C11.39 16 5.78 16 0 16 C0 10.72 0 5.44 0 0 Z " fill="#B0364C" transform="translate(173,309)"/>
<path d="M0 0 C5.61 0 11.22 0 17 0 C17 5.28 17 10.56 17 16 C11.39 16 5.78 16 0 16 C0 10.72 0 5.44 0 0 Z " fill="#591119" transform="translate(138,309)"/>
<path d="M0 0 C5.28 0 10.56 0 16 0 C16 5.61 16 11.22 16 17 C10.72 17 5.44 17 0 17 C0 11.39 0 5.78 0 0 Z " fill="#78858C" transform="translate(406,292)"/>
<path d="M0 0 C5.61 0 11.22 0 17 0 C17 5.28 17 10.56 17 16 C11.39 16 5.78 16 0 16 C0 10.72 0 5.44 0 0 Z " fill="#5A111A" transform="translate(370,292)"/>
<path d="M0 0 C5.61 0 11.22 0 17 0 C17 5.28 17 10.56 17 16 C11.39 16 5.78 16 0 16 C0 10.72 0 5.44 0 0 Z " fill="#77848B" transform="translate(85,292)"/>
<path d="M0 0 C5.61 0 11.22 0 17 0 C17 5.28 17 10.56 17 16 C11.39 16 5.78 16 0 16 C0 10.72 0 5.44 0 0 Z " fill="#581119" transform="translate(300,359)"/>
<path d="M0 0 C5.61 0 11.22 0 17 0 C17 5.28 17 10.56 17 16 C11.39 16 5.78 16 0 16 C0 10.72 0 5.44 0 0 Z " fill="#5C111A" transform="translate(335,325)"/>
<path d="M0 0 C0 5.28 0 10.56 0 16 C-5.61 16 -11.22 16 -17 16 C-18.2719539 13.4560922 -18.00107536 11.94541318 -17.75 9.125 C-17.68296875 8.26132813 -17.6159375 7.39765625 -17.546875 6.5078125 C-16.92078548 3.63674486 -15.97378203 2.15365872 -14 0 C-9.4475939 -1.74062586 -4.7084073 -0.63247262 0 0 Z " fill="#FDFDFD" transform="translate(282,114)"/>
<path d="M0 0 C5.61 0 11.22 0 17 0 C16.855625 2.454375 16.71125 4.90875 16.5625 7.4375 C16.49784546 8.5985022 16.49784546 8.5985022 16.43188477 9.78295898 C16.11111111 14.88888889 16.11111111 14.88888889 15 16 C12.4672235 16.07320163 9.96896082 16.09227569 7.4375 16.0625 C4.983125 16.041875 2.52875 16.02125 0 16 C0 10.72 0 5.44 0 0 Z " fill="#77848C" transform="translate(208,408)"/>
<path d="M0 0 C5.28 0 10.56 0 16 0 C16 5.28 16 10.56 16 16 C10.39 16 4.78 16 -1 16 C-0.67 10.72 -0.34 5.44 0 0 Z " fill="#5A1119" transform="translate(353,309)"/>
<path d="M0 0 C5.28 0 10.56 0 16 0 C16 5.28 16 10.56 16 16 C10.72 16 5.44 16 0 16 C0 10.72 0 5.44 0 0 Z " fill="#FEFDFD" transform="translate(336,342)"/>
<path d="M0 0 C5.28 0 10.56 0 16 0 C16 5.28 16 10.56 16 16 C10.72 16 5.44 16 0 16 C0 10.72 0 5.44 0 0 Z " fill="#FEFDFD" transform="translate(406,148)"/>
<path d="M0 0 C5.61 0 11.22 0 17 0 C17 5.94 17 11.88 17 18 C16.34 18 15.68 18 15 18 C15 16.68 15 15.36 15 14 C10.05 14 5.1 14 0 14 C0 9.38 0 4.76 0 0 Z " fill="#87939A" transform="translate(67,262)"/>
<path d="M0 0 C5.28 0 10.56 0 16 0 C16 4.95 16 9.9 16 15 C10.72 15 5.44 15 0 15 C0 10.05 0 5.1 0 0 Z " fill="#FDFDFD" transform="translate(301,376)"/>
<path d="M0 0 C5.28 0 10.56 0 16 0 C16 4.95 16 9.9 16 15 C10.72 15 5.44 15 0 15 C0 10.05 0 5.1 0 0 Z " fill="#FDFDFD" transform="translate(191,376)"/>
<path d="M0 0 C5.28 0 10.56 0 16 0 C16 4.95 16 9.9 16 15 C10.72 15 5.44 15 0 15 C0 10.05 0 5.1 0 0 Z " fill="#FEFDFD" transform="translate(138,326)"/>
<path d="M0 0 C5.61 0 11.22 0 17 0 C17 4.62 17 9.24 17 14 C11.39 14 5.78 14 0 14 C0 9.38 0 4.76 0 0 Z " fill="#9DA6AC" transform="translate(423,262)"/>
<path d="M0 0 C5.94 0 11.88 0 18 0 C18 4.29 18 8.58 18 13 C12.06 13 6.12 13 0 13 C0 8.71 0 4.42 0 0 Z " fill="#AF374B" transform="translate(120,262)"/>
<path d="M0 0 C5.61 0 11.22 0 17 0 C17 4.29 17 8.58 17 13 C11.39 13 5.78 13 0 13 C0 8.71 0 4.42 0 0 Z " fill="#AD364A" transform="translate(370,262)"/>
<path d="M0 0 C0.33 0 0.66 0 1 0 C1 5.94 1 11.88 1 18 C-4.94 18 -10.88 18 -17 18 C-17 23.61 -17 29.22 -17 35 C-22.94 35 -28.88 35 -35 35 C-35 39.62 -35 44.24 -35 49 C-35.33 49 -35.66 49 -36 49 C-36 44.38 -36 39.76 -36 35 C-37.98 35 -39.96 35 -42 35 C-42 34.34 -42 33.68 -42 33 C-40.02 33 -38.04 33 -36 33 C-36 29.04 -36 25.08 -36 21 C-35.67 21 -35.34 21 -35 21 C-35 25.29 -35 29.58 -35 34 C-29.39 34 -23.78 34 -18 34 C-18 28.72 -18 23.44 -18 18 C-22.29 18 -26.58 18 -31 18 C-31 17.67 -31 17.34 -31 17 C-27.04 17 -23.08 17 -19 17 C-18.67 13.37 -18.34 9.74 -18 6 C-17.67 6 -17.34 6 -17 6 C-17 9.63 -17 13.26 -17 17 C-11.39 17 -5.78 17 0 17 C0 11.39 0 5.78 0 0 Z " fill="#D5C6C7" transform="translate(137,113)"/>
<path d="M0 0 C0.33 0 0.66 0 1 0 C1 16.17 1 32.34 1 49 C5.95 48.67 10.9 48.34 16 48 C16.33 45.36 16.66 42.72 17 40 C17.33 40 17.66 40 18 40 C18 44.62 18 49.24 18 54 C17.67 53.01 17.34 52.02 17 51 C15.85660156 51.01160156 14.71320313 51.02320313 13.53515625 51.03515625 C12.04427246 51.04453288 10.55338691 51.05363321 9.0625 51.0625 C8.30775391 51.07087891 7.55300781 51.07925781 6.77539062 51.08789062 C4.85005687 51.09652441 2.92464419 51.05224333 1 51 C0 50 0 50 -0.09765625 46.40234375 C-0.09191272 44.91402745 -0.07889891 43.42573704 -0.0625 41.9375 C-0.041875 39.318125 -0.02125 36.69875 0 34 C-5.61 34 -11.22 34 -17 34 C-17 33.67 -17 33.34 -17 33 C-11.39 33 -5.78 33 0 33 C0 22.11 0 11.22 0 0 Z " fill="#BBBBBE" transform="translate(207,375)"/>
<path d="M0 0 C28.38 0 56.76 0 86 0 C85.67 0.66 85.34 1.32 85 2 C84.01916443 1.99555878 83.03832886 1.99111755 82.027771 1.98654175 C72.78729284 1.94600993 63.54683271 1.91602245 54.30628586 1.89637566 C49.55555264 1.88593553 44.80489115 1.8717721 40.05419922 1.84912109 C35.47008814 1.82740095 30.88604608 1.8154331 26.30188751 1.81024551 C24.55238 1.80654827 22.80287629 1.79932856 21.05339813 1.78853989 C18.6042004 1.77403597 16.15528841 1.77202159 13.70605469 1.77294922 C12.61956383 1.76216339 12.61956383 1.76216339 11.51112366 1.75115967 C7.89658283 1.76598705 4.96505534 1.78623696 2 4 C1.29464389 6.8786935 1.29464389 6.8786935 1.25 10.125 C1.19328125 11.22070312 1.1365625 12.31640625 1.078125 13.4453125 C1.05234375 14.28835937 1.0265625 15.13140625 1 16 C0.67 16 0.34 16 0 16 C0 10.72 0 5.44 0 0 Z " fill="#D95A6B" transform="translate(283,131)"/>
<path d="M0 0 C0.66 0 1.32 0 2 0 C2.33 4.62 2.66 9.24 3 14 C20.49 14 37.98 14 56 14 C56 10.04 56 6.08 56 2 C56.33 2 56.66 2 57 2 C57 6.62 57 11.24 57 16 C38.19 16 19.38 16 0 16 C0 10.72 0 5.44 0 0 Z " fill="#49141C" transform="translate(225,392)"/>
<path d="M0 0 C0.33 0 0.66 0 1 0 C1 10.89 1 21.78 1 33 C6.61 33 12.22 33 18 33 C18 33.33 18 33.66 18 34 C12.39 34 6.78 34 1 34 C1 39.28 1 44.56 1 50 C0.67 50 0.34 50 0 50 C0 44.72 0 39.44 0 34 C-11.22 34 -22.44 34 -34 34 C-34 33.67 -34 33.34 -34 33 C-22.78 33 -11.56 33 0 33 C0 22.11 0 11.22 0 0 Z " fill="#BCB6BA" transform="translate(387,292)"/>
<path d="M0 0 C5.61 0 11.22 0 17 0 C17 1.65 17 3.3 17 5 C11.39 5 5.78 5 0 5 C0 3.35 0 1.7 0 0 Z " fill="#8D979E" transform="translate(423,276)"/>
<path d="M0 0 C9.9 0 19.8 0 30 0 C31.4807848 2.9615696 31.35314037 5.83506295 31.5625 9.125 C31.68818359 11.04699219 31.68818359 11.04699219 31.81640625 13.0078125 C31.87699219 13.99523437 31.93757813 14.98265625 32 16 C35.96 16.33 39.92 16.66 44 17 C44 17.33 44 17.66 44 18 C41.72942623 18.05398987 39.45848712 18.09278742 37.1875 18.125 C35.29064453 18.15980469 35.29064453 18.15980469 33.35546875 18.1953125 C30 18 30 18 27 16 C27.66 16 28.32 16 29 16 C29 11.05 29 6.1 29 1 C19.43 1 9.86 1 0 1 C0 0.67 0 0.34 0 0 Z " fill="#E6E5E5" transform="translate(340,96)"/>
<path d="M0 0 C0.33 0 0.66 0 1 0 C1.81633513 4.19436837 2.06893987 8.00823857 1.87890625 12.2734375 C1.83056641 13.42714844 1.78222656 14.58085937 1.73242188 15.76953125 C1.67634766 16.95933594 1.62027344 18.14914063 1.5625 19.375 C1.51029297 20.58800781 1.45808594 21.80101562 1.40429688 23.05078125 C1.27509801 26.03410045 1.13829475 29.01708861 1 32 C6.61 32 12.22 32 18 32 C18 32.33 18 32.66 18 33 C12.06 33 6.12 33 0 33 C0 27.39 0 21.78 0 16 C-5.61 16 -11.22 16 -17 16 C-17 15.67 -17 15.34 -17 15 C-11.39 15 -5.78 15 0 15 C0 10.05 0 5.1 0 0 Z " fill="#D5C1C3" transform="translate(387,115)"/>
<path d="M0 0 C0.33 0 0.66 0 1 0 C1.66 4.29 2.32 8.58 3 13 C8.61 13 14.22 13 20 13 C20.33 8.71 20.66 4.42 21 0 C21.33 0 21.66 0 22 0 C22 4.95 22 9.9 22 15 C14.74 15 7.48 15 0 15 C0 10.05 0 5.1 0 0 Z " fill="#6C0813" transform="translate(243,150)"/>
<path d="M0 0 C0.33 0 0.66 0 1 0 C1 5.28 1 10.56 1 16 C-4.61 16 -10.22 16 -16 16 C-15.67 15.34 -15.34 14.68 -15 14 C-10.68026501 13.39190981 -6.35840246 13.25388752 -2 13 C-1.34 8.71 -0.68 4.42 0 0 Z " fill="#6E0C18" transform="translate(119,149)"/>
<path d="M0 0 C0.66 0 1.32 0 2 0 C2 5.28 2 10.56 2 16 C-3.61 16 -9.22 16 -15 16 C-15 15.34 -15 14.68 -15 14 C-8.07 14.495 -8.07 14.495 -1 15 C-0.67 10.05 -0.34 5.1 0 0 Z " fill="#4D141C" transform="translate(333,342)"/>
<path d="M0 0 C0.33 0 0.66 0 1 0 C1 5.61 1 11.22 1 17 C-4.28 17 -9.56 17 -15 17 C-15 16.34 -15 15.68 -15 15 C-10.71 15 -6.42 15 -2 15 C-2 14.34 -2 13.68 -2 13 C-1.34 13 -0.68 13 0 13 C0 8.71 0 4.42 0 0 Z " fill="#D9616D" transform="translate(154,148)"/>
<path d="M0 0 C0.33 0 0.66 0 1 0 C1 5.61 1 11.22 1 17 C-4.61 17 -10.22 17 -16 17 C-16 16.67 -16 16.34 -16 16 C-15.09636719 15.93941406 -14.19273437 15.87882813 -13.26171875 15.81640625 C-12.08222656 15.73261719 -10.90273437 15.64882812 -9.6875 15.5625 C-7.92986328 15.44068359 -7.92986328 15.44068359 -6.13671875 15.31640625 C-2.97409042 15.1132629 -2.97409042 15.1132629 0 14 C0 9.38 0 4.76 0 0 Z " fill="#FE9AA0" transform="translate(154,182)"/>
<path d="M0 0 C0.33 0 0.66 0 1 0 C1 4.29 1 8.58 1 13 C4.16245541 14.0541518 6.86948218 14.31275672 10.1875 14.5625 C11.27417969 14.64628906 12.36085937 14.73007812 13.48046875 14.81640625 C14.31191406 14.87699219 15.14335937 14.93757813 16 15 C16 15.33 16 15.66 16 16 C10.72 16 5.44 16 0 16 C0 10.72 0 5.44 0 0 Z " fill="#4B1419" transform="translate(173,342)"/>
<path d="M0 0 C5.94 0 11.88 0 18 0 C18 0.33 18 0.66 18 1 C16.92878906 1.06058594 15.85757812 1.12117187 14.75390625 1.18359375 C13.35675609 1.26798537 11.95962143 1.35263406 10.5625 1.4375 C9.50192383 1.49647461 9.50192383 1.49647461 8.41992188 1.55664062 C4.91309581 1.47624438 4.91309581 1.47624438 2 3 C1.76924918 4.34747084 1.58846937 5.70377565 1.4375 7.0625 C1.293125 8.361875 1.14875 9.66125 1 11 C0.67 11 0.34 11 0 11 C0 7.37 0 3.74 0 0 Z " fill="#C13C4E" transform="translate(387,245)"/>
<path d="M0 0 C6.93 0 13.86 0 21 0 C20.01 1.485 20.01 1.485 19 3 C12.73 2.34 6.46 1.68 0 1 C0 0.67 0 0.34 0 0 Z " fill="#D65867" transform="translate(244,165)"/>
<path d="M0 0 C4.95 0 9.9 0 15 0 C14.67 1.32 14.34 2.64 14 4 C13.34 3.34 12.68 2.68 12 2 C9.10116917 1.75660449 9.10116917 1.75660449 5.875 1.875 C4.23144531 1.90207031 4.23144531 1.90207031 2.5546875 1.9296875 C1.71164063 1.95289063 0.86859375 1.97609375 0 2 C0 1.34 0 0.68 0 0 Z " fill="#49131B" transform="translate(227,131)"/>
<path d="M0 0 C0.36738281 0.49113281 0.73476562 0.98226563 1.11328125 1.48828125 C3.80832276 3.64766233 5.78709215 3.29719058 9.1875 3.1875 C10.81751953 3.14689453 10.81751953 3.14689453 12.48046875 3.10546875 C13.31191406 3.07066406 14.14335938 3.03585937 15 3 C15.33 3.66 15.66 4.32 16 5 C10.39 5 4.78 5 -1 5 C-0.67 3.35 -0.34 1.7 0 0 Z " fill="#50171E" transform="translate(86,256)"/>
<path d="M0 0 C0.33 0 0.66 0 1 0 C1.06058594 0.60328125 1.12117187 1.2065625 1.18359375 1.828125 C1.26738281 2.62734375 1.35117188 3.4265625 1.4375 4.25 C1.51871094 5.03890625 1.59992188 5.8278125 1.68359375 6.640625 C1.97634993 8.82364639 2.42064419 10.8773182 3 13 C2.01 13 1.02 13 0 13 C0 8.71 0 4.42 0 0 Z " fill="#670811" transform="translate(225,134)"/>
</svg>
